<svg xmlns="http://www.w3.org/2000/svg" viewBox="3599 1390 401 228">
  <defs>
    <style>
      .cls-1, .cls-7 {
        fill: none;
      }

      .cls-1 {
        stroke: rgba(149,152,154,0);
        stroke-width: 1px;
      }

      .cls-2 {
        fill: #565757;
      }

      .cls-3 {
        fill: #a3cf6e;
      }

      .cls-4 {
        fill: #ec1f8e;
      }

      .cls-5 {
        fill: #52a9de;
      }

      .cls-6 {
        stroke: none;
      }
    </style>
  </defs>
  <g id="Group_347" data-name="Group 347" transform="translate(3469 772)">
    <g id="Group" transform="translate(0 496)">
      <g id="Rectangle_66" data-name="Rectangle 66" class="cls-1" transform="translate(130 122)">
        <rect class="cls-6" width="401" height="228"/>
        <rect class="cls-7" x="0.5" y="0.5" width="400" height="227"/>
      </g>
    </g>
    <g id="Group_332" data-name="Group 332" transform="translate(259 707)">
      <g id="Group_330" data-name="Group 330">
        <path id="Path_407" data-name="Path 407" class="cls-2" d="M84.3,7.2A4.707,4.707,0,0,1,80,11.5a2.135,2.135,0,0,1-2.1-2.2,4.522,4.522,0,0,1,4.3-4.1A1.961,1.961,0,0,1,84.3,7.2Z"/>
        <path id="Path_408" data-name="Path 408" class="cls-2" d="M142.7,7.2a4.707,4.707,0,0,1-4.3,4.3,2.135,2.135,0,0,1-2.1-2.2,4.522,4.522,0,0,1,4.3-4.1A1.912,1.912,0,0,1,142.7,7.2Z"/>
        <g id="Group_329" data-name="Group 329">
          <path id="Path_409" data-name="Path 409" class="cls-2" d="M21.8,25.3c0,6.8-6.3,12.6-13.5,12.6C3.3,37.9,0,35,0,30.7c0-3.2,2.1-6.1,4.3-6.1a1.951,1.951,0,0,1,2.1,1.9,4.058,4.058,0,0,1-.5,1.7l-.5.7A3.7,3.7,0,0,0,4.6,31c0,1.9,1.9,3.3,4.5,3.3,4.5,0,8.4-4.4,8.4-9.2,0-2.9-1.7-5.1-4.1-5.1a5.5,5.5,0,0,0-1.6.3,6.966,6.966,0,0,1-1.9.4c-1.5,0-2.6-.9-2.6-2.1C7.3,17,8.8,16,11.4,16a13.124,13.124,0,0,1,2.7.3c3.6-1.1,6.4-4.3,6.4-7.2A3.938,3.938,0,0,0,16.4,5c-2.2,0-3.5,1.2-4.2,3.8a2.272,2.272,0,0,1-2.3,2.1c-1,.2-1.9-.7-1.9-2,0-3.7,4.5-7.2,9.1-7.2a7.169,7.169,0,0,1,7.4,7.5c0,3.7-2.3,6.9-6.4,9.1C20.6,19.7,21.8,21.9,21.8,25.3Z"/>
          <path id="Path_410" data-name="Path 410" class="cls-2" d="M29.8,37.6c-3,0-5.1-2.7-5.1-6.5,0-8.5,8.3-16.8,16.8-16.8,3.2,0,5.5,1.2,5.5,2.9a2.088,2.088,0,0,1-2.3,2,5.278,5.278,0,0,1-1.8-.3,13.941,13.941,0,0,0-3.2-.5,9.428,9.428,0,0,0-6.9,3.1c-2.5,2.7-4.2,6.3-4.2,9,0,2.1,1.1,3.4,2.8,3.4a5.96,5.96,0,0,0,4.3-2.5,18.409,18.409,0,0,0,2.9-5.7c.9-2.5,1.3-3.1,2.1-3.7a7.2,7.2,0,0,1,2.5-1.3.684.684,0,0,1,.7.7,4.569,4.569,0,0,1-.5,1.5l-2.5,7a9.819,9.819,0,0,0-.6,2.4c0,.6.3,1,.9,1a1.268,1.268,0,0,0,.6-.1l.9-.3a1.486,1.486,0,0,1,.6-.1.632.632,0,0,1,.7.7c0,.6-.3,1-2,2.1-1.8,1.3-3,1.9-3.8,1.9-1.2,0-1.7-.7-1.9-2.9C33.9,36.7,32.1,37.6,29.8,37.6Z"/>
          <path id="Path_411" data-name="Path 411" class="cls-2" d="M60.5,34.2c1.5,0,2.2-.7,3.1-3.1.5-1.5,1.2-2.1,2.3-2.1A2.226,2.226,0,0,1,68,31.5c0,3.3-3.5,6.5-7.1,6.5-1.7,0-2.9-.3-5.9-1.7a33.453,33.453,0,0,0-3.5-1.5l-.5.4c-2.5,1.7-3.5,2.2-4.7,2.2-1.7,0-2.9-1-2.9-2.5,0-2.2,2.3-4,5.1-4a17.857,17.857,0,0,1,2.1.1A85.865,85.865,0,0,0,62.1,18.8Q66,13.55,66,10.4c0-2.4-1.9-4.1-4.5-4.1-2.9,0-4.8,2.1-4.8,5.3a11.562,11.562,0,0,0,.1,1.7,5.284,5.284,0,0,1,.1,1.2,2.182,2.182,0,0,1-2.2,2.3c-1.7,0-2.9-1.9-2.9-4.5C51.8,7,56.3,2.7,62,2.7c4.9,0,8.4,3.3,8.4,7.9,0,5.2-4.7,11.8-14.8,20.9l-1,.9A22.7,22.7,0,0,0,60.5,34.2Z"/>
          <path id="Path_412" data-name="Path 412" class="cls-2" d="M76.6,21a6.969,6.969,0,0,0,.5-2.1.684.684,0,0,0-.7-.7,1.7,1.7,0,0,0-.7.1,3.091,3.091,0,0,1-.8.2.669.669,0,0,1-.6-.7c0-.8.9-1.6,2.5-2.5a7.918,7.918,0,0,1,3.6-1.1c1.1,0,1.8.6,1.8,1.5,0,.7-.2,1.3-1.9,6L78.8,26l-1.3,3.5a10.325,10.325,0,0,0-.8,3.1.808.808,0,0,0,.7.9,2.042,2.042,0,0,0,.9-.2,8.144,8.144,0,0,1,.9-.2.56.56,0,0,1,.5.6c0,.6-.6,1.3-2,2.3a7.734,7.734,0,0,1-4,1.4,1.951,1.951,0,0,1-1.9-2.1,4.979,4.979,0,0,1,.4-1.9Z"/>
          <path id="Path_413" data-name="Path 413" class="cls-2" d="M90.7,35.5a7.187,7.187,0,0,1-3.8,1.7c-1.9,0-3.1-1.6-3.1-3.9,0-3.8,3.1-13.9,6.8-21.8C94.1,4.2,98.8,0,103.7,0c1.7,0,2.7.8,2.7,2,0,1.1-1.1,1.9-2.6,2l-1.1.1c-3.4.2-5.8,2.8-9,9.8a81.037,81.037,0,0,0-4.8,13.2,18.422,18.422,0,0,0-.9,4.7c0,1.1.4,1.7,1.3,1.7a3.675,3.675,0,0,0,1.6-.5c1.1-.7,1.1-.7,1.5-.7a.684.684,0,0,1,.7.7A5.678,5.678,0,0,1,90.7,35.5Z"/>
          <path id="Path_414" data-name="Path 414" class="cls-2" d="M99.7,37.6c-3,0-5.1-2.7-5.1-6.5,0-8.5,8.3-16.8,16.8-16.8,3.2,0,5.5,1.2,5.5,2.9a2.088,2.088,0,0,1-2.3,2,5.278,5.278,0,0,1-1.8-.3,13.941,13.941,0,0,0-3.2-.5,9.428,9.428,0,0,0-6.9,3.1c-2.5,2.7-4.2,6.3-4.2,9,0,2.1,1.1,3.4,2.8,3.4a5.96,5.96,0,0,0,4.3-2.5,18.409,18.409,0,0,0,2.9-5.7c.9-2.5,1.3-3.1,2.1-3.7a7.2,7.2,0,0,1,2.5-1.3.684.684,0,0,1,.7.7,4.569,4.569,0,0,1-.5,1.5l-2.5,7a9.819,9.819,0,0,0-.6,2.4c0,.6.3,1,.9,1a1.268,1.268,0,0,0,.6-.1l.9-.3a1.486,1.486,0,0,1,.6-.1.632.632,0,0,1,.7.7c0,.6-.3,1-2,2.1-1.8,1.3-3,1.9-3.8,1.9-1.2,0-1.7-.7-1.9-2.9C103.8,36.7,102,37.6,99.7,37.6Z"/>
          <path id="Path_415" data-name="Path 415" class="cls-2" d="M127.1,14.8a8.918,8.918,0,0,0,2.2-.3c.7-.1.9-.2,1.1-.2a1.5,1.5,0,0,1,1.5,1.6c0,1.3-1,2.1-2.5,2.1a8.17,8.17,0,0,1-1.4-.1h-2.3l-3.9,11.2a8.68,8.68,0,0,0-.7,2.7,1.342,1.342,0,0,0,1.4,1.5,4.282,4.282,0,0,0,2.1-.7,2.647,2.647,0,0,1,1.3-.5.713.713,0,0,1,.8.7c0,.6-.7,1.5-1.8,2.5a8.323,8.323,0,0,1-4.9,2,3.125,3.125,0,0,1-3.3-3.4,7.106,7.106,0,0,1,.3-2.1L121.9,18a3.869,3.869,0,0,0-.9-.1h-.5c-1,0-1.4-.3-1.4-1.1a1.377,1.377,0,0,1,.9-1.3l1.1-.6a9.067,9.067,0,0,0,3.5-3.9c1.1-2.1,1.8-2.7,2.8-2.7a1,1,0,0,1,1.1,1.1,5.557,5.557,0,0,1-.3,1.5l-.6,1.7a13.141,13.141,0,0,1-.5,1.5l-.3.7Z"/>
          <path id="Path_416" data-name="Path 416" class="cls-2" d="M135,21a6.969,6.969,0,0,0,.5-2.1.684.684,0,0,0-.7-.7,1.7,1.7,0,0,0-.7.1,3.091,3.091,0,0,1-.8.2.669.669,0,0,1-.6-.7c0-.8.9-1.6,2.5-2.5a7.918,7.918,0,0,1,3.6-1.1c1.1,0,1.8.6,1.8,1.5,0,.7-.2,1.3-1.9,6L137.2,26l-1.3,3.5a10.325,10.325,0,0,0-.8,3.1.808.808,0,0,0,.7.9,2.042,2.042,0,0,0,.9-.2,8.145,8.145,0,0,1,.9-.2.56.56,0,0,1,.5.6c0,.6-.6,1.3-2,2.3a7.734,7.734,0,0,1-4,1.4,1.951,1.951,0,0,1-1.9-2.1,4.979,4.979,0,0,1,.4-1.9Z"/>
          <path id="Path_417" data-name="Path 417" class="cls-3" d="M84.8,7.7A4.707,4.707,0,0,1,80.5,12a2.135,2.135,0,0,1-2.1-2.2,4.522,4.522,0,0,1,4.3-4.1A2.09,2.09,0,0,1,84.8,7.7Z"/>
          <path id="Path_418" data-name="Path 418" class="cls-4" d="M143.3,7.7A4.707,4.707,0,0,1,139,12a2.135,2.135,0,0,1-2.1-2.2,4.522,4.522,0,0,1,4.3-4.1A2.09,2.09,0,0,1,143.3,7.7Z"/>
        </g>
      </g>
      <g id="Group_331" data-name="Group 331">
        <path id="Path_419" data-name="Path 419" class="cls-2" d="M57.8,49.3a.945.945,0,0,1-1-1,1.544,1.544,0,0,1,1.3-1.6.975.975,0,0,1,1,1.1A1.442,1.442,0,0,1,57.8,49.3Z"/>
        <path id="Path_420" data-name="Path 420" class="cls-5" d="M58.3,49.9c-.6,0-.9-.4-.9-1a1.544,1.544,0,0,1,1.3-1.6.945.945,0,0,1,1,1A1.625,1.625,0,0,1,58.3,49.9Z"/>
        <path id="Path_421" data-name="Path 421" class="cls-2" d="M64.8,49.9c-1.4,0-2.4-1.1-2.4-2.8a7.647,7.647,0,0,1,1.5-4,5,5,0,0,1,4-2.3c.9,0,1.7.5,1.7,1.1a.882.882,0,0,1-.9.8c-.2,0-.2,0-.6-.2a3.091,3.091,0,0,0-.8-.2,2.555,2.555,0,0,0-1.9,1.1A6.5,6.5,0,0,0,64,47c0,.8.4,1.4,1.1,1.4a1.937,1.937,0,0,0,1.5-1.1l.2-.3a.723.723,0,0,1,.6-.4c.4,0,.6.3.6.7C68,48.5,66.3,49.9,64.8,49.9Z"/>
        <path id="Path_422" data-name="Path 422" class="cls-2" d="M74.6,40.9c1.2,0,2,.5,2,1.1a.773.773,0,0,1-.7.8c-.3,0-.3,0-1-.3a3.091,3.091,0,0,0-.8-.2c-1.7,0-3.3,2.2-3.3,4.4,0,1.1.5,1.8,1.4,1.8,1.3,0,2.4-1.5,2.4-3.2a4.4,4.4,0,0,0-.2-1l-.1-.3a.367.367,0,0,1-.1-.3.645.645,0,0,1,.6-.6c.7,0,1.2.9,1.2,2.1,0,2.5-1.8,4.6-4,4.6-1.6,0-2.6-1.2-2.6-3C69.4,43.8,71.9,40.9,74.6,40.9Z"/>
        <path id="Path_423" data-name="Path 423" class="cls-2" d="M82.9,40.9a1.365,1.365,0,0,1,1.4,1.4A3.786,3.786,0,0,1,87,40.9c1.2,0,1.9.8,1.9,2.3a8.74,8.74,0,0,1-2.3,5.4,4.2,4.2,0,0,1-2.3,1.3.773.773,0,0,1-.8-.7c0-.4.2-.6,1.1-1a5.22,5.22,0,0,0,2.7-4.5c0-.7-.3-1.2-.9-1.2-1,0-1.8.9-2.7,3L83.1,47a7.494,7.494,0,0,1-1.4,2.6,1.2,1.2,0,0,1-.8.4c-.3,0-.4-.1-.4-.4,0-.2.1-.3.2-.6.5-1.1.9-1.8,1.6-3.6a5.561,5.561,0,0,0,.6-2.1.713.713,0,0,0-.7-.8,2.218,2.218,0,0,0-1.6.9,8.352,8.352,0,0,0-1.1,2c-.2.4-.3.8-.5,1.3Q77.65,50,76.6,50a.43.43,0,0,1-.4-.4c0-.2.1-.3.2-.5a25.853,25.853,0,0,0,1.5-3.5,17.963,17.963,0,0,0,.9-2.7.265.265,0,0,0-.3-.3.756.756,0,0,0-.4.1c-.1,0-.2.1-.3.1s-.2-.1-.2-.3c0-.3.3-.6,1.1-1a2.686,2.686,0,0,1,1.3-.4.53.53,0,0,1,.6.6c0,.1,0,.1-.1.4A4.017,4.017,0,0,1,82.9,40.9Z"/>
      </g>
    </g>
  </g>
</svg>
