<svg xmlns="http://www.w3.org/2000/svg" viewBox="3599 1142 401 228">
  <defs>
    <style>
      .cls-1, .cls-10 {
        fill: none;
      }

      .cls-1 {
        stroke: rgba(149,152,154,0);
        stroke-width: 1px;
      }

      .cls-2 {
        fill: #de4769;
      }

      .cls-3 {
        fill: #fff;
      }

      .cls-4 {
        fill: #3b2314;
      }

      .cls-5 {
        fill: #565757;
      }

      .cls-6 {
        fill: #a3cf6e;
      }

      .cls-7 {
        fill: #ec1f8e;
      }

      .cls-8 {
        fill: #52a9de;
      }

      .cls-9 {
        stroke: none;
      }
    </style>
  </defs>
  <g id="Group_345" data-name="Group 345" transform="translate(3469 772)">
    <g id="Group" transform="translate(0 248)">
      <g id="Rectangle_66" data-name="Rectangle 66" class="cls-1" transform="translate(130 122)">
        <rect class="cls-9" width="401" height="228"/>
        <rect class="cls-10" x="0.5" y="0.5" width="400" height="227"/>
      </g>
    </g>
    <g id="Group_328" data-name="Group 328" transform="translate(233 449)">
      <g id="XMLID_25_" transform="translate(131.437 3.267)">
        <circle id="XMLID_36_" class="cls-2" cx="32.23" cy="32.23" r="32.23"/>
        <g id="XMLID_26_" transform="translate(4.912 16.46)">
          <path id="XMLID_33_" class="cls-3" d="M448.133,71.454c.442,0,0,.613.17.783,2.212.783,6.092.783,7.317-.783C453.68,70.637,450.413,71.284,448.133,71.454Zm8.61,0c.17,4.322-10.823.613-12.252,3.267-.442,4.492,0,9.6-.17,14.26-4.935,5.718-22.8,6.534-30.222,2.212-1.225-.613-1.838-2.042-2.45-2.825V75.5c-.783-.783-1.668-1.4-2.45-2.212-2.825,0-8.985.442-8.542-2.212.17-1.668,3.71-1.668,5.888-1.4,2.212.17,3.267.613,5.105.442.17-2.212-.442-3.88.17-5.275,1.225-3.437,10.38-3.1,14.09-4.05-.442-3.437,4.492-4.05,4.05-.17,7.76.442,15.077,1.225,14.43,10.21,1.838.613,2.825,0,4.492-.442C451.638,69.684,456.743,69.684,456.743,71.454Zm-12.252,2.11c.613-.783,3.1,0,2.825-1.838a4.457,4.457,0,0,1-2.825,0Zm-.783,15.247V68.187c-7.93,3.71-23.857,4.492-30.732-.613v3.88c1.055,0,1.668-1.4,2.45-1.055-.442,1.4-2.655,1.055-2.45,3.1,1.225-.442,2.45-1.838,3.437-1.668a8,8,0,0,1-3.437,2.45c.17,1.055-.17,2.45.17,3.1.783-1.225,2.45-1.838,4.05-2.212a10.327,10.327,0,0,1-4.322,2.655v3.437c1.055-.613,2.655-2.45,4.663-2.45-1.225,1.4-3.71,2.45-4.663,3.267v3.1c1.055-.17,2.655-2.042,4.322-1.838-1.055,1.225-2.825,1.838-4.322,2.655-.442,2.45,1.055,3.1,2.042,3.88.783-.613,1.4-1.4,2.655-1.4-.442,1.055-1.668.783-1.838,1.838C423.458,93.473,437.378,93.473,443.708,88.811Zm-.442-21.849c.442-2.45-3.1-3.71-4.935-4.322a22.919,22.919,0,0,0-8.2-1.225c-.613.17,0,2.042-.613,2.45a3.134,3.134,0,0,1-3.267,0c0-.783.17-2.042-.442-2.212-4.663.783-10.21,1.055-13.477,3.437,3.1,6.534,17.357,5.888,25.287,4.322C439.556,69.071,443.1,68.187,443.266,66.961Zm-14.43-3.608c0-1.4.783-4.492-1.055-4.492-.783,1.4-.442,3.1-.17,4.492ZM411.649,73.9c.17-.783-.442-.613-.613-.783.613-.17.613-1.055.613-1.838-.783-.17-1.225.17-1.838.17v1.055C410.424,72.951,411.309,73.121,411.649,73.9Zm-2.825-1.566V70.671c-2.45.17-5.888-.613-7.147.783C403.549,72.509,406.374,72.339,408.824,72.339Z" transform="translate(-400.634 -57.965)"/>
          <path id="XMLID_32_" class="cls-3" d="M441.822,125.3c.442,1.225-2.655,2.042-3.437,3.267C438.215,126.7,440.869,126.253,441.822,125.3Z" transform="translate(-425.532 -102.383)"/>
          <path id="XMLID_30_" class="cls-3" d="M440.8,145.368c.442-1.055,1.668-1.225,2.825-1.668A3.028,3.028,0,0,1,440.8,145.368Z" transform="translate(-427.13 -114.521)"/>
          <path id="XMLID_29_" class="cls-3" d="M441.31,114.4a6.266,6.266,0,0,1-3.71,2.45C438.315,115.455,439.914,114.842,441.31,114.4Z" transform="translate(-425.019 -95.193)"/>
          <path id="XMLID_28_" class="cls-3" d="M440.81,103.8c-.783,1.4-2.45,1.838-3.71,2.655C437.372,105.2,439.414,104.14,440.81,103.8Z" transform="translate(-424.689 -88.201)"/>
          <path id="XMLID_27_" class="cls-3" d="M441.649,137.7c-.613,1.225-2.212,1.838-3.267,2.45C438.212,138.925,440.424,138.313,441.649,137.7Z" transform="translate(-425.529 -110.563)"/>
        </g>
      </g>
      <g id="XMLID_2_">
        <path id="XMLID_24_" class="cls-4" d="M280.442,100.4a1.833,1.833,0,0,0-2.042,2.042,1.605,1.605,0,0,0,.545,1.327,2.006,2.006,0,0,0,1.327.545,1.911,1.911,0,0,0,2.042-2.042,1.859,1.859,0,0,0-1.872-1.872Z" transform="translate(-183.651 -66.231)"/>
        <path id="XMLID_23_" class="cls-4" d="M293.942,100.4a1.833,1.833,0,0,0-2.042,2.042,1.605,1.605,0,0,0,.545,1.327,2.006,2.006,0,0,0,1.327.545,1.911,1.911,0,0,0,2.042-2.042,1.859,1.859,0,0,0-1.872-1.872Z" transform="translate(-192.557 -66.231)"/>
        <path id="XMLID_15_" class="cls-4" d="M230.268,31.522c-1.668,0-3.88,1.327-6.773,4.05a11.294,11.294,0,0,0,.17-2.212l-.545-11.367L219.853,19.1l.17,1.055c1.157,9.155,1.668,14.192,1.668,15.247a6.622,6.622,0,0,1-1.838,3.88L218.7,40.439l.34,2.723h-.545a2.252,2.252,0,0,1-2.042-.885c-.34-.545-.545-.885-.715-1.157a15.988,15.988,0,0,1-.34-3.71c0-.885.17-2.552.34-5.1v-.17l-2.893-2.553V30.3c0,1.055,0,2.382.17,4.39.17,2.042.17,3.335.17,4.39a4.072,4.072,0,0,1-2.042,3.335,4.807,4.807,0,0,1-2.382.885h0a3.879,3.879,0,0,1-2.893-1.327l1.838-4.22-.885.34a63.635,63.635,0,0,1-10.312,3.71,41.661,41.661,0,0,1-10.823,1.5c-3.539,0-6.262-.545-8.27-1.668-1.5-.885-2.382-1.668-2.382-2.382,0-.34.34-1.157,2.893-3.1l.17-.17v-3.1l-.545.545c-2.723,2.212-4.05,4.595-4.05,6.943,0,4.05,3.71,6.262,11.027,6.262h1.327a2.517,2.517,0,0,0-.17,1.157,3.143,3.143,0,0,0,.715,1.838,2.431,2.431,0,0,0,1.838.715,2.284,2.284,0,0,0,2.552-2.553,2,2,0,0,0-.715-1.668h.17a44.688,44.688,0,0,0,6.6-1.668,65.98,65.98,0,0,0,7.317-2.723,3.11,3.11,0,0,0,.545,1.668,5.153,5.153,0,0,0,1.5,2.042,2.754,2.754,0,0,0,1.838.885h1.089a5.616,5.616,0,0,0,3.539-2.042c.34-.545.715-1.055,1.055-1.668a6.971,6.971,0,0,0,1.327,2.212,3.656,3.656,0,0,0,2.893,1.5h2.723A12.786,12.786,0,0,0,230,42.787a10.106,10.106,0,0,0,3.539-7.589C233.637,32.237,231.765,31.522,230.268,31.522Zm-.851,1.872a5.253,5.253,0,0,1,1.838,3.71,11.823,11.823,0,0,1-.34,1.668c-1.838,2.893-5.1,4.39-9.529,4.39h-1.327c1.157-1.5,2.553-3.335,4.22-5.1C226.32,36.117,228.089,34.449,229.417,33.394Z" transform="translate(-114.452 -12.6)"/>
        <path id="XMLID_14_" class="cls-4" d="M352.32,29.593h0L349.053,26.7l1.327,15.587c.17,3.88.17,5.275,0,5.718a5.221,5.221,0,0,1-3.539,2.723l-.34.17,1.327,2.723.34-.17a11.881,11.881,0,0,0,2.893-2.382c1.157-1.838,1.668-4.935,1.668-9.155,0-3.267,0-4.765-.17-7.76A24.973,24.973,0,0,1,352.32,29.593Z" transform="translate(-228.575 -17.613)"/>
        <path id="XMLID_12_" class="cls-4" d="M351.517,4.594c-.34.17-.544.17-.885.34v-.34a6.381,6.381,0,0,0,0-2.552C350.292.715,349.747,0,348.795,0c-.715,0-1.327.545-2.382,1.5a4.189,4.189,0,0,0-1.668,3.1c0,1.055.715,1.668,1.668,2.212-1.055.885-1.668,1.5-2.212,2.042v2.995l.715-.885a10.9,10.9,0,0,1,3.335-3.267c1.055-.34,1.838-.545,2.382-.715h.17l1.157-2.723Zm-1.055.238a4.357,4.357,0,0,1-1.327.17,5.382,5.382,0,0,1-2.212-.545,2.907,2.907,0,0,1-.885-.545h0c0-.545.545-1.055,1.055-1.327a6.086,6.086,0,0,1,2.042-.545c.17,0,.17,0,.17.34a1.977,1.977,0,0,1-.17.885l-.17.17Z" transform="translate(-227.057)"/>
        <path id="XMLID_11_" class="cls-4" d="M62.072,43.51a1.7,1.7,0,0,0,1.838-1.838,1.605,1.605,0,0,0-.545-1.327,2.006,2.006,0,0,0-1.327-.545A1.7,1.7,0,0,0,60.2,41.638a1.606,1.606,0,0,0,.545,1.327A1.65,1.65,0,0,0,62.072,43.51Z" transform="translate(-39.712 -26.255)"/>
        <path id="XMLID_6_" class="cls-4" d="M13.472,52.81a1.7,1.7,0,0,0,1.838-1.838,1.605,1.605,0,0,0-.545-1.327,2.006,2.006,0,0,0-1.327-.545A1.7,1.7,0,0,0,11.6,50.938a1.605,1.605,0,0,0,.545,1.327A1.605,1.605,0,0,0,13.472,52.81Z" transform="translate(-7.652 -32.39)"/>
        <path id="XMLID_5_" class="cls-4" d="M3.71,50.972a1.605,1.605,0,0,0-.545-1.327A2.006,2.006,0,0,0,1.838,49.1,1.7,1.7,0,0,0,0,50.938a1.605,1.605,0,0,0,.545,1.327,2.006,2.006,0,0,0,1.327.545A1.652,1.652,0,0,0,3.71,50.972Z" transform="translate(0 -32.39)"/>
        <path id="XMLID_4_" class="cls-4" d="M91.438,96.3A1.7,1.7,0,0,0,89.6,98.138a1.605,1.605,0,0,0,.545,1.327,2.006,2.006,0,0,0,1.327.545,1.7,1.7,0,0,0,1.838-1.838,1.605,1.605,0,0,0-.545-1.327A2.317,2.317,0,0,0,91.438,96.3Z" transform="translate(-59.106 -63.526)"/>
        <path id="XMLID_3_" class="cls-4" d="M50.277,41.01c-1.5,0-3.539,1.157-6.262,3.71a6.325,6.325,0,0,0,0-1.838l-.545-7.76L40.577,32.4l.17,1.055c.545,4.765,1.055,7.487,1.157,9.155a22.7,22.7,0,0,1,.34,2.382,5.174,5.174,0,0,1-1.668,3.539l-1.055,1.055.17,2.382h-.34c-.885,0-1.5-.17-1.838-.715A1.979,1.979,0,0,1,36.97,50.1a16.3,16.3,0,0,1-.17-3.335c0-.885.17-2.382.34-4.594V42l-2.723-2.382V40.5c0,.885,0,2.212.17,4.05,0,1.668.17,3.1.17,3.88a4.1,4.1,0,0,1-1.838,3.1,4.91,4.91,0,0,1-2.042.715h-.17c-2.212-.17-2.553-.545-2.553-.545a2.094,2.094,0,0,1-.715-1.5,9.675,9.675,0,0,1,.715-2.552,8.925,8.925,0,0,0,.885-2.893,4.811,4.811,0,0,0-1.157-3.335,3.852,3.852,0,0,0-3.267-1.5,7.456,7.456,0,0,0-4.22,1.838h0l-1.327,4.39,1.055-1.055a18.9,18.9,0,0,1,4.765-3.88c.34,0,.715.715,1.055,1.157a4.317,4.317,0,0,1,.34,2.042,7.2,7.2,0,0,1-.715,2.723,8.4,8.4,0,0,0-.715,3.1,4.2,4.2,0,0,0,.34,1.5h-1.6a29.07,29.07,0,0,0-3.335.34c-4.05-.545-4.39-1.157-4.39-1.157a10.273,10.273,0,0,1-.545-3.71c0-1.5.17-3.1.34-4.765v-.17l-2.723-2.28V43.8l-1.327-1.5h-.17A13.98,13.98,0,0,0,6.17,46.9,8.119,8.119,0,0,0,4.4,51.22c0,1.157,1.838,1.5,2.552,1.668a19.161,19.161,0,0,0,3.1.34,6.452,6.452,0,0,0,2.382-.34,3.085,3.085,0,0,0,1.055-1.055c.17-.17.17-.34.34-.715a7.536,7.536,0,0,0,1.838,3.335A3.145,3.145,0,0,0,16.992,55v.17h3.1c2.042-.17,3.539-.34,4.39-.34a5.969,5.969,0,0,0,1.055-.17,12.97,12.97,0,0,1,1.838.34,20.862,20.862,0,0,0,2.382.34h.885A5.473,5.473,0,0,0,34.179,53.5,7.1,7.1,0,0,0,35.234,52a10.653,10.653,0,0,0,1.157,2.042,4.813,4.813,0,0,0,2.553,1.5H41.7a12.281,12.281,0,0,0,8.644-3.267,9.243,9.243,0,0,0,3.267-6.943C53.714,41.623,51.876,41.01,50.277,41.01ZM9.335,46.558a15.36,15.36,0,0,1,3.71-1.668v.17c.17,2.552.17,3.267.17,3.267,0,.885-.34,1.327-.885,1.5a6.667,6.667,0,0,1-2.212.34c-3.335,0-3.539-.715-3.539-.715C6.612,48.6,7.5,47.545,9.335,46.558Zm35.769.715a28.634,28.634,0,0,1,4.594-4.39,5,5,0,0,1,1.668,3.335,5.386,5.386,0,0,1-.17,1.5c-1.668,2.723-4.594,4.05-8.644,4.05H41.394A48.5,48.5,0,0,1,45.1,47.273Z" transform="translate(-2.903 -21.373)"/>
      </g>
      <path id="XMLID_1_" class="cls-4" d="M336.158,164.109a4.762,4.762,0,0,1-.17,1.225,1.323,1.323,0,0,1-.545.783,3.393,3.393,0,0,1-1.055.442,6.027,6.027,0,0,1-1.4.17,3.393,3.393,0,0,1-2.11-.545,1.517,1.517,0,0,1-.783-1.4,3.641,3.641,0,0,1,.272-1.4,8.359,8.359,0,0,1,1.055-1.838l.34.272c-.34.613-.613,1.157-.715,1.4a2.717,2.717,0,0,0-.17.885.976.976,0,0,0,.613.953,3.041,3.041,0,0,0,1.668.34,4.109,4.109,0,0,0,1.77-.34,1.058,1.058,0,0,0,.715-.953,1.737,1.737,0,0,0-.1-.715c-.1-.272-.272-.613-.545-1.157l.545-1.5c.272.442.442.783.545.953a4.436,4.436,0,0,1,.17,1.225v1.157h-.1Zm-1.94-4.492-.715,1.225-1.327-.715.715-1.327Zm7.487,4.765a4.394,4.394,0,0,1-1.4-.272,4.47,4.47,0,0,1-1.225-.545,1.7,1.7,0,0,1-.783.613,1.106,1.106,0,0,1-.613.1h-1.157v-1.6h1.157a1.673,1.673,0,0,0,.783-.1.867.867,0,0,0,.545-.545,6.29,6.29,0,0,1,.783-1.225,1.243,1.243,0,0,1,.783-.442c.17,0,.443.272.715.885a4.515,4.515,0,0,1,.442,1.668l-.034,1.463Zm-1.259-1.668c.1,0,.1,0,.1-.1a.809.809,0,0,0-.272-.442c-.17-.272-.34-.34-.442-.34-.17,0-.272.17-.34.545a1.044,1.044,0,0,0,.442.17,1.317,1.317,0,0,0,.51.17Z" transform="translate(-217.756 -104.755)"/>
      <g id="Group_326" data-name="Group 326" transform="translate(59.49 52.207)">
        <path id="Path_390" data-name="Path 390" class="cls-5" d="M254.778,159.176a1.6,1.6,0,0,1-1.463,1.463.727.727,0,0,1-.715-.749,1.539,1.539,0,0,1,1.463-1.4A.711.711,0,0,1,254.778,159.176Z" transform="translate(-226.122 -156.76)"/>
        <path id="Path_391" data-name="Path 391" class="cls-5" d="M313.178,159.176a1.6,1.6,0,0,1-1.463,1.463.727.727,0,0,1-.715-.749,1.539,1.539,0,0,1,1.463-1.4A.69.69,0,0,1,313.178,159.176Z" transform="translate(-264.647 -156.76)"/>
        <g id="Group_325" data-name="Group 325">
          <path id="Path_392" data-name="Path 392" class="cls-5" d="M182.185,162.9a4.543,4.543,0,0,1-4.595,4.288,2.5,2.5,0,0,1-2.791-2.45c0-1.089.715-2.076,1.463-2.076a.664.664,0,0,1,.715.647,1.381,1.381,0,0,1-.17.579l-.17.238a1.259,1.259,0,0,0-.272.715c0,.647.647,1.123,1.532,1.123a3.1,3.1,0,0,0,2.859-3.131c0-.987-.579-1.736-1.4-1.736a1.872,1.872,0,0,0-.545.1,2.371,2.371,0,0,1-.647.136.791.791,0,0,1-.885-.715c0-.545.511-.885,1.4-.885a4.469,4.469,0,0,1,.919.1,2.942,2.942,0,0,0,2.178-2.45,1.34,1.34,0,0,0-1.4-1.4c-.749,0-1.191.408-1.429,1.293a.773.773,0,0,1-.783.715.727.727,0,0,1-.715-.749c0-1.259,1.532-2.45,3.1-2.45a2.44,2.44,0,0,1,2.518,2.553,3.583,3.583,0,0,1-2.178,3.1A2.627,2.627,0,0,1,182.185,162.9Z" transform="translate(-174.8 -154.324)"/>
          <path id="Path_393" data-name="Path 393" class="cls-5" d="M201.136,175.53c-1.021,0-1.736-.919-1.736-2.212a6.094,6.094,0,0,1,5.718-5.718c1.089,0,1.872.408,1.872.987a.711.711,0,0,1-.783.681,1.8,1.8,0,0,1-.613-.1,4.744,4.744,0,0,0-1.089-.17,3.209,3.209,0,0,0-2.348,1.055,5.054,5.054,0,0,0-1.429,3.063c0,.715.374,1.157.953,1.157a2.029,2.029,0,0,0,1.463-.851,6.266,6.266,0,0,0,.987-1.94c.306-.851.442-1.055.715-1.259a2.451,2.451,0,0,1,.851-.442.233.233,0,0,1,.238.238,1.555,1.555,0,0,1-.17.511l-.851,2.382a3.343,3.343,0,0,0-.2.817c0,.2.1.34.306.34a.432.432,0,0,0,.2-.034l.306-.1a.506.506,0,0,1,.2-.034.215.215,0,0,1,.238.238c0,.2-.1.34-.681.715a2.72,2.72,0,0,1-1.293.647c-.408,0-.579-.238-.647-.987A3.067,3.067,0,0,1,201.136,175.53Z" transform="translate(-191.028 -162.767)"/>
          <path id="Path_394" data-name="Path 394" class="cls-5" d="M223.92,166.72c.511,0,.749-.238,1.055-1.055.17-.511.408-.715.783-.715a.758.758,0,0,1,.715.851,2.469,2.469,0,0,1-2.416,2.212,4.235,4.235,0,0,1-2.008-.579,11.392,11.392,0,0,0-1.191-.51l-.17.136c-.851.579-1.191.749-1.6.749a.882.882,0,0,1-.987-.851,1.589,1.589,0,0,1,1.736-1.361,6.076,6.076,0,0,1,.715.034,29.225,29.225,0,0,0,3.914-4.152,5.421,5.421,0,0,0,1.327-2.859,1.416,1.416,0,0,0-1.531-1.4,1.622,1.622,0,0,0-1.634,1.8,3.937,3.937,0,0,0,.034.579,1.8,1.8,0,0,1,.034.408.742.742,0,0,1-.749.783c-.579,0-.987-.647-.987-1.531A3.36,3.36,0,0,1,224.43,156a2.676,2.676,0,0,1,2.859,2.689c0,1.77-1.6,4.016-5.037,7.113l-.34.306A7.726,7.726,0,0,0,223.92,166.72Z" transform="translate(-203.364 -155.115)"/>
          <path id="Path_395" data-name="Path 395" class="cls-5" d="M248.134,169.914a2.371,2.371,0,0,0,.17-.715.233.233,0,0,0-.238-.238.579.579,0,0,0-.238.034,1.053,1.053,0,0,1-.272.068.228.228,0,0,1-.2-.238c0-.272.306-.545.851-.851a2.7,2.7,0,0,1,1.225-.374c.374,0,.613.2.613.51a8.031,8.031,0,0,1-.647,2.042l-.51,1.463-.442,1.191a3.514,3.514,0,0,0-.272,1.055.275.275,0,0,0,.238.306.7.7,0,0,0,.306-.068,2.773,2.773,0,0,1,.306-.068.191.191,0,0,1,.17.2c0,.2-.2.442-.681.783a2.632,2.632,0,0,1-1.361.476.664.664,0,0,1-.647-.715,1.694,1.694,0,0,1,.136-.647Z" transform="translate(-222.098 -162.767)"/>
          <path id="Path_396" data-name="Path 396" class="cls-5" d="M260.848,165.482a2.446,2.446,0,0,1-1.293.579c-.647,0-1.055-.545-1.055-1.327a25.058,25.058,0,0,1,2.314-7.419c1.157-2.484,2.757-3.914,4.424-3.914.579,0,.919.272.919.681,0,.374-.374.647-.885.681l-.374.034c-1.157.068-1.974.953-3.063,3.335a27.583,27.583,0,0,0-1.634,4.492,6.272,6.272,0,0,0-.306,1.6c0,.374.136.579.442.579a1.25,1.25,0,0,0,.544-.17c.374-.238.374-.238.511-.238a.233.233,0,0,1,.238.238C261.631,164.767,261.359,165.107,260.848,165.482Z" transform="translate(-230.014 -153.4)"/>
          <path id="Path_397" data-name="Path 397" class="cls-5" d="M271.036,175.53c-1.021,0-1.736-.919-1.736-2.212a6.094,6.094,0,0,1,5.718-5.718c1.089,0,1.872.408,1.872.987a.711.711,0,0,1-.783.681,1.8,1.8,0,0,1-.613-.1A4.744,4.744,0,0,0,274.4,169a3.208,3.208,0,0,0-2.348,1.055,5.054,5.054,0,0,0-1.429,3.063c0,.715.374,1.157.953,1.157a2.028,2.028,0,0,0,1.463-.851,6.264,6.264,0,0,0,.987-1.94c.306-.851.442-1.055.715-1.259a2.452,2.452,0,0,1,.851-.442.233.233,0,0,1,.238.238,1.555,1.555,0,0,1-.17.511l-.851,2.382a3.341,3.341,0,0,0-.2.817c0,.2.1.34.306.34a.432.432,0,0,0,.2-.034l.306-.1a.506.506,0,0,1,.2-.034.215.215,0,0,1,.238.238c0,.2-.1.34-.681.715a2.719,2.719,0,0,1-1.293.647c-.408,0-.579-.238-.647-.987A3.067,3.067,0,0,1,271.036,175.53Z" transform="translate(-237.139 -162.767)"/>
          <path id="Path_398" data-name="Path 398" class="cls-5" d="M294.94,163.912a3.034,3.034,0,0,0,.749-.1c.238-.034.306-.068.374-.068a.51.51,0,0,1,.51.545c0,.442-.34.715-.851.715a2.78,2.78,0,0,1-.476-.034h-.783l-1.327,3.812a2.955,2.955,0,0,0-.238.919.457.457,0,0,0,.476.511,1.457,1.457,0,0,0,.715-.238.9.9,0,0,1,.442-.17.243.243,0,0,1,.272.238c0,.2-.238.511-.613.851a2.833,2.833,0,0,1-1.668.681,1.064,1.064,0,0,1-1.123-1.157,2.418,2.418,0,0,1,.1-.715l1.668-4.7a1.316,1.316,0,0,0-.306-.034h-.17c-.34,0-.476-.1-.476-.374a.469.469,0,0,1,.306-.442l.374-.2a3.086,3.086,0,0,0,1.191-1.327c.374-.715.613-.919.953-.919a.34.34,0,0,1,.374.374,1.887,1.887,0,0,1-.1.51l-.2.579a4.456,4.456,0,0,1-.17.51l-.1.238Z" transform="translate(-251.717 -158.875)"/>
          <path id="Path_399" data-name="Path 399" class="cls-5" d="M306.534,169.914a2.372,2.372,0,0,0,.17-.715.233.233,0,0,0-.238-.238.579.579,0,0,0-.238.034,1.053,1.053,0,0,1-.272.068.228.228,0,0,1-.2-.238c0-.272.306-.545.851-.851a2.7,2.7,0,0,1,1.225-.374c.374,0,.613.2.613.51a8.033,8.033,0,0,1-.647,2.042l-.51,1.463-.442,1.191a3.513,3.513,0,0,0-.272,1.055.275.275,0,0,0,.238.306.7.7,0,0,0,.306-.068,2.773,2.773,0,0,1,.306-.068.191.191,0,0,1,.17.2c0,.2-.2.442-.681.783a2.632,2.632,0,0,1-1.361.476.664.664,0,0,1-.647-.715,1.694,1.694,0,0,1,.136-.647Z" transform="translate(-260.623 -162.767)"/>
          <path id="Path_400" data-name="Path 400" class="cls-6" d="M255.278,159.676a1.6,1.6,0,0,1-1.463,1.463.727.727,0,0,1-.715-.749,1.539,1.539,0,0,1,1.463-1.4A.711.711,0,0,1,255.278,159.676Z" transform="translate(-226.452 -157.09)"/>
          <path id="Path_401" data-name="Path 401" class="cls-7" d="M313.778,159.676a1.6,1.6,0,0,1-1.463,1.463.727.727,0,0,1-.715-.749,1.539,1.539,0,0,1,1.464-1.4A.711.711,0,0,1,313.778,159.676Z" transform="translate(-265.042 -157.09)"/>
        </g>
      </g>
      <g id="Group_327" data-name="Group 327" transform="translate(78.787 66.059)">
        <path id="Path_402" data-name="Path 402" class="cls-5" d="M231.84,200.985a.322.322,0,0,1-.34-.34.526.526,0,0,1,.442-.545.332.332,0,0,1,.34.374A.515.515,0,0,1,231.84,200.985Z" transform="translate(-231.5 -198.058)"/>
        <path id="Path_403" data-name="Path 403" class="cls-8" d="M232.406,201.485c-.2,0-.306-.136-.306-.34a.526.526,0,0,1,.442-.545.322.322,0,0,1,.34.34A.528.528,0,0,1,232.406,201.485Z" transform="translate(-231.896 -198.388)"/>
        <path id="Path_404" data-name="Path 404" class="cls-5" d="M237.917,197.2a.847.847,0,0,1-.817-.953,2.6,2.6,0,0,1,.51-1.361,1.7,1.7,0,0,1,1.361-.783c.306,0,.579.17.579.374a.3.3,0,0,1-.306.272c-.068,0-.068,0-.2-.068a1.051,1.051,0,0,0-.272-.068.87.87,0,0,0-.647.374,2.212,2.212,0,0,0-.476,1.225c0,.272.136.477.374.477a.659.659,0,0,0,.511-.374l.068-.1a.246.246,0,0,1,.2-.136c.136,0,.2.1.2.238C239.006,196.755,238.427,197.2,237.917,197.2Z" transform="translate(-235.194 -194.1)"/>
        <path id="Path_405" data-name="Path 405" class="cls-5" d="M245.8,194.2c.408,0,.681.17.681.374a.263.263,0,0,1-.238.272c-.1,0-.1,0-.34-.1a1.053,1.053,0,0,0-.272-.068c-.579,0-1.123.749-1.123,1.5,0,.374.17.613.476.613.442,0,.817-.511.817-1.089a1.5,1.5,0,0,0-.068-.34l-.068-.136a.125.125,0,0,1-.034-.1.22.22,0,0,1,.2-.2c.238,0,.408.306.408.715a1.485,1.485,0,0,1-1.361,1.566.9.9,0,0,1-.885-1.021A2.052,2.052,0,0,1,245.8,194.2Z" transform="translate(-239.746 -194.166)"/>
        <path id="Path_406" data-name="Path 406" class="cls-5" d="M253.18,194.2a.465.465,0,0,1,.476.476,1.288,1.288,0,0,1,.919-.476c.408,0,.647.272.647.783a2.975,2.975,0,0,1-.783,1.838,1.429,1.429,0,0,1-.783.442.263.263,0,0,1-.272-.238c0-.136.068-.2.374-.34a1.776,1.776,0,0,0,.919-1.531c0-.238-.1-.408-.306-.408-.34,0-.613.306-.919,1.021l-.2.511a2.551,2.551,0,0,1-.476.885.407.407,0,0,1-.272.136c-.1,0-.136-.034-.136-.136,0-.068.034-.1.068-.2.17-.374.306-.613.545-1.225a1.893,1.893,0,0,0,.2-.715.243.243,0,0,0-.238-.272.755.755,0,0,0-.545.306,2.843,2.843,0,0,0-.374.681c-.068.136-.1.272-.17.442q-.459,1.123-.817,1.123a.146.146,0,0,1-.136-.136c0-.068.034-.1.068-.17a8.8,8.8,0,0,0,.51-1.191,6.109,6.109,0,0,0,.306-.919.09.09,0,0,0-.1-.1.257.257,0,0,0-.136.034c-.034,0-.068.034-.1.034s-.068-.034-.068-.1c0-.1.1-.2.374-.34a.914.914,0,0,1,.442-.136.181.181,0,0,1,.2.2c0,.034,0,.034-.034.136A1.367,1.367,0,0,1,253.18,194.2Z" transform="translate(-244.298 -194.166)"/>
      </g>
    </g>
  </g>
</svg>
