<svg xmlns="http://www.w3.org/2000/svg" xmlns:xlink="http://www.w3.org/1999/xlink" viewBox="3599 894 401 228">
  <defs>
    <style>
      .cls-1, .cls-2, .cls-3 {
        fill: none;
      }

      .cls-1 {
        clip-rule: evenodd;
      }

      .cls-3 {
        stroke: rgba(149,152,154,0);
        stroke-width: 1px;
      }

      .cls-4 {
        clip-path: url(#clip-path);
      }

      .cls-5 {
        clip-path: url(#clip-path-2);
      }

      .cls-6 {
        fill: #fc2741;
      }

      .cls-7 {
        clip-path: url(#clip-path-3);
      }

      .cls-8 {
        clip-path: url(#clip-path-5);
      }

      .cls-9 {
        clip-path: url(#clip-path-6);
      }

      .cls-10 {
        clip-path: url(#clip-path-7);
      }

      .cls-11 {
        fill: #4a494a;
      }

      .cls-12 {
        stroke: none;
      }
    </style>
    <clipPath id="clip-path">
      <path id="Path_440" data-name="Path 440" class="cls-1" d="M109.972-27.348V-4.515L126.2-15.932ZM105.181,4.676V-36.54l29.286,20.607Z" transform="translate(-105.181 36.54)"/>
    </clipPath>
    <clipPath id="clip-path-2">
      <path id="Path_439" data-name="Path 439" class="cls-2" d="M-1634,2020.7H2010.842V-58H-1634Z" transform="translate(1634 58)"/>
    </clipPath>
    <clipPath id="clip-path-3">
      <path id="Path_445" data-name="Path 445" class="cls-1" d="M0-43.9H179.039V18.307H0Z" transform="translate(0 43.899)"/>
    </clipPath>
    <clipPath id="clip-path-5">
      <rect id="Rectangle_68" data-name="Rectangle 68" class="cls-2" width="133.834" height="62.646"/>
    </clipPath>
    <clipPath id="clip-path-6">
      <path id="Path_443" data-name="Path 443" class="cls-1" d="M128.416-9.959V-27.915h-2.368q-4.9,0-7.625,2.558a9.337,9.337,0,0,0-2.731,7.166q0,4.263,1.87,6.247t5.662,1.984ZM120.373,7.412a17.808,17.808,0,0,1-9.926-2.8l2.206-3.65a24.464,24.464,0,0,0,3.659,1.559,13.148,13.148,0,0,0,4.169.626,8.255,8.255,0,0,0,5.865-1.986,6.9,6.9,0,0,0,2.125-5.288V-5.7h-5.407q-5.864,0-9.079-3.2t-3.213-9.245a13.223,13.223,0,0,1,4.115-10.216q4.116-3.8,11-3.8H133.1v27.76q0,5.569-3.321,8.686t-9.4,3.117Zm-28,0a12.3,12.3,0,0,1-5.622-1.545l1.425-3.65a11.446,11.446,0,0,0,2.206.758,9.5,9.5,0,0,0,1.883.174,4.47,4.47,0,0,0,3.874-2,9.024,9.024,0,0,0,1.4-5.275V-32.151h4.654v27.76q0,5.515-2.529,8.659a8.808,8.808,0,0,1-7.29,3.144Zm-11.2-2.185a3.012,3.012,0,0,1-2.259-.853,3.32,3.32,0,0,1-.835-2.424A3.355,3.355,0,0,1,78.9-.475a3.009,3.009,0,0,1,2.273-.853,2.925,2.925,0,0,1,2.286.892,3.418,3.418,0,0,1,.807,2.385,3.418,3.418,0,0,1-.807,2.385,2.925,2.925,0,0,1-2.286.892Zm-9.522,0a3.246,3.246,0,0,1-2.192-.773,3.129,3.129,0,0,1-.9-2.5,3.129,3.129,0,0,1,.9-2.5,3.246,3.246,0,0,1,2.192-.773,3.014,3.014,0,0,1,2.232.839,3.321,3.321,0,0,1,.835,2.439,3.36,3.36,0,0,1-.82,2.424,2.973,2.973,0,0,1-2.247.853ZM68.07-5.7a.237.237,0,0,1-.269-.267V-9.745q0-.213.269-.214H78.641V-32.151h4.9V-5.7ZM58.8-37.346a3.012,3.012,0,0,1-2.26-.853,3.323,3.323,0,0,1-.834-2.424,3.352,3.352,0,0,1,.82-2.423A3.005,3.005,0,0,1,58.8-43.9a2.927,2.927,0,0,1,2.286.892,3.422,3.422,0,0,1,.807,2.384,3.424,3.424,0,0,1-.807,2.385,2.923,2.923,0,0,1-2.286.892ZM49.273-5.7A.237.237,0,0,1,49-5.963V-9.745q0-.213.269-.214h7.262V-32.151h4.9V-9.959h7.182c.178,0,.269.071.269.214v3.782a.238.238,0,0,1-.269.267Zm-26.972,24a3.012,3.012,0,0,1-2.26-.853,3.318,3.318,0,0,1-.835-2.424,3.358,3.358,0,0,1,.822-2.424,3,3,0,0,1,2.273-.852,2.925,2.925,0,0,1,2.286.893,3.415,3.415,0,0,1,.807,2.383,3.418,3.418,0,0,1-.807,2.384,2.925,2.925,0,0,1-2.286.893Zm-9.524,0a3.253,3.253,0,0,1-2.192-.772,3.133,3.133,0,0,1-.9-2.505,3.132,3.132,0,0,1,.9-2.5,3.247,3.247,0,0,1,2.192-.772,3,3,0,0,1,2.234.84,3.314,3.314,0,0,1,.834,2.436,3.358,3.358,0,0,1-.82,2.424,2.969,2.969,0,0,1-2.247.853Zm-1.695-10.9A10.019,10.019,0,0,1,2.959,3.868Q0,.325,0-5.749A25.654,25.654,0,0,1,.47-10.891,25.663,25.663,0,0,1,1.937-15.58H6.51a20.244,20.244,0,0,0-.955,2.917,20.311,20.311,0,0,0-.471,2.7Q4.948-8.653,4.949-6.07q0,4.423,1.856,6.82a6.334,6.334,0,0,0,5.326,2.4H22.381A13.136,13.136,0,0,0,28.89,1.7q2.583-1.45,2.583-3.475A2.375,2.375,0,0,0,30.451-3.7a9.14,9.14,0,0,0-3.093-1.385,28.993,28.993,0,0,1-5.716-2.051,6.517,6.517,0,0,1-2.367-2.185,5.68,5.68,0,0,1-.82-3.09,11.032,11.032,0,0,1,1.9-6.075,15.086,15.086,0,0,1,4.909-4.755,11.552,11.552,0,0,1,6.025-1.824,7.769,7.769,0,0,1,3.3.665,9.457,9.457,0,0,1,2.7,1.932,26.58,26.58,0,0,1,3.147,4.2,45.5,45.5,0,0,0,3.51,5.088,15.139,15.139,0,0,0,1.951,1.932,6.452,6.452,0,0,0,1.695.958,5.448,5.448,0,0,0,1.937.333h.3c.178,0,.269.071.269.214v3.782a.238.238,0,0,1-.269.267h-.3a10.164,10.164,0,0,1-4.452-1.026,15.583,15.583,0,0,1-4.4-3.4,43.222,43.222,0,0,1-2.824-3.756,28.067,28.067,0,0,0-4.223-5.008,4.754,4.754,0,0,0-2.933-1.28,5.912,5.912,0,0,0-3.228,1.146,10.338,10.338,0,0,0-2.878,2.864,5.727,5.727,0,0,0-1.157,3.1,2.027,2.027,0,0,0,.982,1.625,10.635,10.635,0,0,0,3.161,1.358,34.557,34.557,0,0,1,5.609,2,6.976,6.976,0,0,1,2.5,2.012,4.367,4.367,0,0,1,.847,2.65q0,10.816-14.149,10.817Z" transform="translate(0 43.899)"/>
    </clipPath>
    <clipPath id="clip-path-7">
      <path id="Path_442" data-name="Path 442" class="cls-2" d="M0,18.646H179.395V-44H0Z" transform="translate(0 44)"/>
    </clipPath>
  </defs>
  <g id="Group_346" data-name="Group 346" transform="translate(3469 772)">
    <g id="Group">
      <g id="Rectangle_66" data-name="Rectangle 66" class="cls-3" transform="translate(130 122)">
        <rect class="cls-12" width="401" height="228"/>
        <rect class="cls-2" x="0.5" y="0.5" width="400" height="227"/>
      </g>
    </g>
    <g id="Group_344" data-name="Group 344" transform="translate(248 204.899)">
      <g id="Group_338" data-name="Group 338" class="cls-4" transform="translate(149.753 10.579)">
        <g id="Group_337" data-name="Group 337" class="cls-5" transform="translate(-2476.188 -30.555)">
          <path id="Path_438" data-name="Path 438" class="cls-6" d="M100.181-41.54H143.7V13.914H100.181Z" transform="translate(2368.888 64.975)"/>
        </g>
      </g>
      <g id="Group_343" data-name="Group 343" class="cls-7" transform="translate(0 0.101)">
        <g id="Group_342" data-name="Group 342" class="cls-5" transform="translate(-2326.434 -20.076)">
          <g id="Group_341" data-name="Group 341" class="cls-8" transform="translate(2326.434 19.933)">
            <g id="Group_340" data-name="Group 340" class="cls-9" transform="translate(0 0.143)">
              <g id="Group_339" data-name="Group 339" class="cls-10" transform="translate(0 -0.143)">
                <path id="Path_441" data-name="Path 441" class="cls-11" d="M-5-48.9H142.334V27.545H-5Z" transform="translate(-2.119 41.924)"/>
              </g>
            </g>
          </g>
        </g>
      </g>
    </g>
  </g>
</svg>
