<?xml version="1.0" encoding="utf-8"?>
<!-- Generator: Adobe Illustrator 19.0.0, SVG Export Plug-In . SVG Version: 6.00 Build 0)  -->
<svg version="1.1" id="Layer_1" xmlns="http://www.w3.org/2000/svg" xmlns:xlink="http://www.w3.org/1999/xlink" x="0px" y="0px"
	 viewBox="-5763.8 6023.6 30 30" style="enable-background:new -5763.8 6023.6 30 30;" xml:space="preserve">
<style type="text/css">
	.st0{fill:none;}
	.st1{fill:#333333;}
</style>
<rect x="-5763.8" y="6023.6" class="st0" width="30" height="30"/>
<g>
	<path class="st1" d="M-5742.3,6041.3c-0.1,1.1-0.3,2-1.1,2.8c-0.8,0.8-1.7,1-2.8,1.1c-0.9,0.1-1.8,0-2.7,0s-1.8,0-2.7,0
		c-1.1-0.1-2-0.3-2.8-1.1c-0.8-0.8-1-1.7-1.1-2.8c-0.1-0.9,0-1.8,0-2.7s0-1.8,0-2.7c0.1-1.1,0.3-2,1.1-2.8c0.8-0.8,1.7-1,2.8-1.1
		c0.9-0.1,1.8,0,2.7,0s1.8,0,2.7,0c1.1,0.1,2,0.3,2.8,1.1c0.8,0.8,1,1.7,1.1,2.8c0.1,0.9,0,1.8,0,2.7S-5742.2,6040.4-5742.3,6041.3z
		 M-5752.8,6033.4c-0.3,0.1-0.5,0.3-0.8,0.5c-0.2,0.2-0.4,0.5-0.5,0.8c-0.3,0.9-0.3,3-0.3,3.9s-0.1,3,0.3,3.9
		c0.1,0.3,0.3,0.5,0.5,0.8c0.2,0.2,0.5,0.4,0.8,0.5c0.9,0.3,3,0.3,3.9,0.3s3,0.1,3.9-0.3c0.3-0.1,0.5-0.3,0.8-0.5
		c0.2-0.2,0.4-0.5,0.5-0.8c0.3-0.9,0.3-3,0.3-3.9s0.1-3-0.3-3.9c-0.1-0.3-0.3-0.5-0.5-0.8c-0.2-0.2-0.5-0.4-0.8-0.5
		c-0.9-0.3-3-0.3-3.9-0.3S-5751.9,6033.1-5752.8,6033.4z M-5748.9,6042c-1.9,0-3.4-1.5-3.4-3.4s1.5-3.4,3.4-3.4s3.4,1.5,3.4,3.4
		S-5747,6042-5748.9,6042z M-5748.9,6036.4c-1.2,0-2.2,1-2.2,2.2s1,2.2,2.2,2.2s2.2-1,2.2-2.2S-5747.6,6036.4-5748.9,6036.4z
		 M-5745.3,6035.8c-0.4,0-0.8-0.4-0.8-0.8c0-0.4,0.4-0.8,0.8-0.8c0.4,0,0.8,0.4,0.8,0.8C-5744.5,6035.5-5744.9,6035.8-5745.3,6035.8
		z"/>
</g>
</svg>
