<?xml version="1.0" encoding="utf-8"?>
<!-- Generator: Adobe Illustrator 19.0.0, SVG Export Plug-In . SVG Version: 6.00 Build 0)  -->
<svg version="1.1" id="Layer_1" xmlns="http://www.w3.org/2000/svg" xmlns:xlink="http://www.w3.org/1999/xlink" x="0px" y="0px"
	 viewBox="-5763.8 6023.6 30 30" style="enable-background:new -5763.8 6023.6 30 30;" xml:space="preserve">
<style type="text/css">
	.st0{enable-background:new    ;}
	.st1{fill:#333333;}
	.st2{fill:none;}
</style>
<g class="st0">
	<path class="st1" d="M-5740.4,6034.3c0,0.2,0,0.4,0,0.6c0,5.7-4.4,12.3-12.3,12.3c-2.5,0-4.7-0.7-6.6-1.9c0.3,0,0.7,0.1,1,0.1
		c2,0,3.9-0.7,5.4-1.8c-1.9,0-3.5-1.3-4-3c0.3,0,0.5,0.1,0.8,0.1c0.4,0,0.8-0.1,1.1-0.1c-2-0.4-3.5-2.1-3.5-4.2c0,0,0,0,0-0.1
		c0.6,0.3,1.2,0.5,2,0.5c-1.2-0.8-1.9-2.1-1.9-3.6c0-0.8,0.2-1.5,0.6-2.2c2.1,2.6,5.3,4.3,8.9,4.5c-0.1-0.3-0.1-0.7-0.1-1
		c0-2.4,1.9-4.3,4.3-4.3c1.2,0,2.4,0.5,3.2,1.4c1-0.2,1.9-0.5,2.7-1c-0.3,1-1,1.8-1.9,2.4c0.9-0.1,1.7-0.3,2.5-0.7
		C-5738.9,6032.9-5739.6,6033.7-5740.4,6034.3z"/>
</g>
<rect x="-5763.8" y="6023.6" class="st2" width="30" height="30"/>
</svg>
