<?xml version="1.0" encoding="utf-8"?>
<!-- Generator: Adobe Illustrator 21.0.0, SVG Export Plug-In . SVG Version: 6.00 Build 0)  -->
<svg version="1.1" id="Layer_1" xmlns="http://www.w3.org/2000/svg" xmlns:xlink="http://www.w3.org/1999/xlink" x="0px" y="0px"
	 viewBox="0 0 59 59" style="enable-background:new 0 0 59 59;" xml:space="preserve">
<style type="text/css">
	.st0{fill:#FFFFFF;}
	.st1{enable-background:new    ;}
</style>
<g id="Group_1053" transform="translate(-8458 99)">
	<rect id="Rectangle_145" x="8458" y="-99" class="st0" width="59" height="59"/>
	<g class="st1">
		<path d="M8501.1-55.3c-0.4,1.5-1.6,2.6-3,2.8c-3.5,0.4-7,0.4-10.5,0.4s-7,0-10.5-0.4c-1.5-0.2-2.7-1.3-3-2.8
			c-0.5-2.1-0.5-4.5-0.5-6.6c0-2.2,0-4.5,0.5-6.6c0.4-1.5,1.6-2.6,3.1-2.8c3.5-0.4,7-0.4,10.5-0.4s7,0,10.5,0.4
			c1.5,0.2,2.7,1.3,3,2.8c0.5,2.1,0.5,4.4,0.5,6.6C8501.6-59.8,8501.6-57.4,8501.1-55.3z M8481.5-66.7v-1.8h-5.9v1.8h2v10.8h1.9
			v-10.8H8481.5z M8484.6-86.1l-2.3,7.6v5.1h-1.9v-5.1c-0.2-0.9-0.6-2.3-1.2-4c-0.4-1.2-0.8-2.4-1.2-3.5h2l1.3,5l1.3-5H8484.6z
			 M8486.7-55.9v-9.4h-1.7v7.2c-0.4,0.5-0.7,0.8-1.1,0.8c-0.2,0-0.4-0.1-0.4-0.4c0-0.1,0-0.3,0-0.7v-6.9h-1.7v7.4
			c0,0.7,0.1,1.1,0.2,1.4c0.2,0.5,0.5,0.7,1.1,0.7c0.6,0,1.3-0.4,1.9-1.2v1H8486.7z M8489.7-76.5c0,1-0.2,1.8-0.5,2.2
			c-0.5,0.6-1.1,1-2,1c-0.9,0-1.5-0.3-2-1c-0.4-0.5-0.5-1.2-0.5-2.2v-3.3c0-1,0.2-1.7,0.5-2.2c0.5-0.6,1.1-1,2-1c0.9,0,1.5,0.3,2,1
			c0.4,0.5,0.5,1.2,0.5,2.2V-76.5z M8488-80.2c0-0.9-0.2-1.3-0.8-1.3c-0.5,0-0.8,0.4-0.8,1.3v4c0,0.9,0.3,1.3,0.8,1.3
			c0.6,0,0.8-0.5,0.8-1.3V-80.2z M8493.1-62.4c0-0.9,0-1.5-0.2-1.9c-0.2-0.7-0.7-1.1-1.3-1.1c-0.6,0-1.2,0.3-1.8,1v-4.1h-1.7v12.6
			h1.7v-0.9c0.6,0.7,1.2,1,1.8,1c0.7,0,1.1-0.4,1.3-1c0.1-0.4,0.2-1,0.2-1.9V-62.4z M8491.4-58.5c0,0.9-0.2,1.3-0.7,1.3
			c-0.3,0-0.6-0.1-0.9-0.4v-5.7c0.3-0.3,0.6-0.4,0.9-0.4c0.5,0,0.7,0.4,0.7,1.3V-58.5z M8496.1-73.4h-1.7v-1c-0.7,0.8-1.3,1.2-2,1.2
			c-0.5,0-0.9-0.2-1.1-0.7c-0.1-0.3-0.2-0.7-0.2-1.4v-7.5h1.7v7c0,0.4,0,0.6,0,0.7c0,0.3,0.2,0.4,0.4,0.4c0.3,0,0.7-0.3,1.1-0.8
			v-7.2h1.7V-73.4z M8499.5-59.1h-1.7c0,0.7,0,1.1,0,1.2c-0.1,0.5-0.3,0.7-0.8,0.7c-0.6,0-0.9-0.4-0.9-1.3v-1.7h3.4v-2
			c0-1-0.2-1.7-0.5-2.2c-0.5-0.6-1.2-1-2-1c-0.9,0-1.5,0.3-2,1c-0.4,0.5-0.5,1.2-0.5,2.2v3.3c0,1,0.2,1.7,0.6,2.2c0.5,0.6,1.2,1,2,1
			c0.9,0,1.6-0.3,2-1c0.2-0.3,0.4-0.6,0.4-1c0-0.2,0-0.5,0-1.1V-59.1z M8497.8-61.6h-1.7v-0.9c0-0.9,0.3-1.3,0.9-1.3
			s0.9,0.4,0.9,1.3V-61.6z"/>
	</g>
</g>
</svg>
