<?xml version="1.0" encoding="UTF-8" standalone="no"?>
<svg width="287px" height="105px" viewBox="0 0 287 105" version="1.1" xmlns="http://www.w3.org/2000/svg" xmlns:xlink="http://www.w3.org/1999/xlink">
    <!-- Generator: Sketch 41.2 (35397) - http://www.bohemiancoding.com/sketch -->
    <title>Group 24</title>
    <desc>Created with Sketch.</desc>
    <defs>
        <linearGradient x1="2.99641257%" y1="2.96703601%" x2="101.999998%" y2="100.999999%" id="linearGradient-1">
            <stop stop-color="#FF9703" offset="0%"></stop>
            <stop stop-color="#D518B6" offset="100%"></stop>
        </linearGradient>
    </defs>
    <g id="diwanee-corp-" stroke="none" stroke-width="1" fill="none" fill-rule="evenodd">
        <g id="Desktop-HD-Copy" transform="translate(-1061.000000, -5160.000000)">
            <g id="Group-24" transform="translate(1061.000000, 5160.000000)">
                <path d="M29.46875,9.6015625 C22.4960938,13.9375 14.1171875,15.4609375 0.46484375,15.6953125 L0.46484375,18.3320312 C9.546875,18.3320312 12.1835938,19.796875 12.1835938,31.3398438 L12.1835938,60.6367188 C12.1835938,68.4296875 7.96484375,70.4804688 0.93359375,70.4804688 L0.93359375,73 C5.09375,72.8828125 13.2382812,72.53125 21.5585938,72.53125 C28.0625,72.53125 34.9179688,72.8828125 38.140625,73 L38.140625,70.4804688 C31.8710938,70.4804688 29.46875,68.4882812 29.46875,61.3398438 L29.46875,9.6015625 Z M80.9140625,9.25 C60.40625,9.25 46.9882812,23.8984375 46.9882812,42.8828125 C46.9882812,62.1601562 60.7578125,74.6992188 79.625,74.6992188 C99.8984375,74.6992188 113.550781,60.109375 113.550781,40.9492188 C113.550781,21.8476562 100.015625,9.25 80.9140625,9.25 Z M79.859375,11.4179688 C88.2382812,11.4179688 95.4453125,19.796875 95.4453125,41.3007812 C95.4453125,60.8710938 89.2929688,72.53125 80.6796875,72.53125 C72.3007812,72.53125 65.09375,64.09375 65.09375,42.4726562 C65.09375,22.9609375 71.2460938,11.4179688 79.859375,11.4179688 Z" id="10" fill="url(#linearGradient-1)"></path>
                <path d="M165.125,17.5078125 C165.125,14.8710938 164.792969,13.328125 163.894531,12.3125 C163.074219,11.375 161.746094,10.75 159.519531,10.75 C156.824219,10.75 154.34375,11.6484375 152.878906,14.6953125 C152.703125,13.6601562 152.371094,12.8984375 151.863281,12.3125 C151.042969,11.375 149.695312,10.75 147.488281,10.75 C144.851562,10.75 142.546875,11.8242188 141.296875,14.4804688 L141.296875,10.8671875 C139.617188,11.2578125 137.683594,11.4335938 135.457031,11.4335938 C134.65625,11.4335938 133.816406,11.375 132.976562,11.296875 L132.976562,12.1367188 C134.910156,12.1367188 135.535156,13.2695312 135.535156,15.671875 L135.535156,28.2890625 C135.535156,30.515625 134.832031,31.1601562 132.976562,31.1601562 L132.976562,32 C134.03125,31.9609375 136.433594,31.84375 138.484375,31.84375 C140.339844,31.84375 142.3125,31.9609375 143.210938,32 L143.210938,31.1601562 C141.785156,31.1601562 141.296875,30.515625 141.296875,28.2890625 L141.296875,17.1367188 C141.296875,14.5 143.035156,12.5078125 145.183594,12.5078125 C147,12.5078125 147.332031,13.8554688 147.332031,15.8476562 L147.332031,28.2890625 C147.332031,30.515625 146.804688,31.1601562 145.398438,31.1601562 L145.398438,32 C146.335938,31.9609375 148.40625,31.84375 150.359375,31.84375 C152.214844,31.84375 154.441406,31.9609375 155.398438,32 L155.398438,31.1601562 C153.679688,31.1601562 153.09375,30.515625 153.09375,28.2890625 L153.09375,17.5078125 L153.074219,16.6875 C153.386719,14.34375 155.027344,12.5078125 156.980469,12.5078125 C158.972656,12.5078125 159.363281,13.8554688 159.363281,15.8476562 L159.363281,28.2890625 C159.363281,30.515625 158.855469,31.1601562 157.449219,31.1601562 L157.449219,32 C158.386719,31.9609375 160.457031,31.84375 162.410156,31.84375 C164.363281,31.84375 166.667969,31.9609375 167.683594,32 L167.683594,31.1601562 C165.828125,31.1601562 165.125,30.515625 165.125,28.2890625 L165.125,17.5078125 Z M174.34375,0.984375 C172.097656,0.984375 170.691406,2.15625 170.691406,4.0703125 C170.691406,6.00390625 172.097656,7.17578125 174.34375,7.17578125 C176.550781,7.17578125 177.976562,6.00390625 177.976562,4.0703125 C177.976562,2.15625 176.550781,0.984375 174.34375,0.984375 Z M177.488281,10.8671875 C175.808594,11.2578125 173.875,11.4335938 171.648438,11.4335938 C170.847656,11.4335938 170.007812,11.375 169.167969,11.296875 L169.167969,12.1367188 C171.101562,12.1367188 171.726562,13.2695312 171.726562,15.671875 L171.726562,28.2890625 C171.726562,30.515625 171.023438,31.1601562 169.167969,31.1601562 L169.167969,32 C170.222656,31.9609375 172.625,31.84375 174.695312,31.84375 C176.785156,31.84375 179.03125,31.9609375 180.046875,32 L180.046875,31.1601562 C178.171875,31.1601562 177.488281,30.515625 177.488281,28.2890625 L177.488281,10.8671875 Z M189.910156,0.69140625 C188.25,1.08203125 186.296875,1.23828125 184.070312,1.23828125 C183.269531,1.23828125 182.429688,1.19921875 181.589844,1.12109375 L181.589844,1.9609375 C183.523438,1.9609375 184.148438,3.09375 184.148438,5.49609375 L184.148438,28.2890625 C184.148438,30.515625 183.464844,31.1601562 181.589844,31.1601562 L181.589844,32 C182.664062,31.9609375 185.046875,31.84375 187.136719,31.84375 C189.207031,31.84375 191.453125,31.9609375 192.46875,32 L192.46875,31.1601562 C190.613281,31.1601562 189.910156,30.515625 189.910156,28.2890625 L189.910156,0.69140625 Z M202.351562,0.69140625 C200.691406,1.08203125 198.738281,1.23828125 196.511719,1.23828125 C195.710938,1.23828125 194.871094,1.19921875 194.03125,1.12109375 L194.03125,1.9609375 C195.964844,1.9609375 196.589844,3.09375 196.589844,5.49609375 L196.589844,28.2890625 C196.589844,30.515625 195.90625,31.1601562 194.03125,31.1601562 L194.03125,32 C195.105469,31.9609375 197.488281,31.84375 199.578125,31.84375 C201.648438,31.84375 203.894531,31.9609375 204.910156,32 L204.910156,31.1601562 C203.054688,31.1601562 202.351562,30.515625 202.351562,28.2890625 L202.351562,0.69140625 Z M211.84375,0.984375 C209.597656,0.984375 208.191406,2.15625 208.191406,4.0703125 C208.191406,6.00390625 209.597656,7.17578125 211.84375,7.17578125 C214.050781,7.17578125 215.476562,6.00390625 215.476562,4.0703125 C215.476562,2.15625 214.050781,0.984375 211.84375,0.984375 Z M214.988281,10.8671875 C213.308594,11.2578125 211.375,11.4335938 209.148438,11.4335938 C208.347656,11.4335938 207.507812,11.375 206.667969,11.296875 L206.667969,12.1367188 C208.601562,12.1367188 209.226562,13.2695312 209.226562,15.671875 L209.226562,28.2890625 C209.226562,30.515625 208.523438,31.1601562 206.667969,31.1601562 L206.667969,32 C207.722656,31.9609375 210.125,31.84375 212.195312,31.84375 C214.285156,31.84375 216.53125,31.9609375 217.546875,32 L217.546875,31.1601562 C215.671875,31.1601562 214.988281,30.515625 214.988281,28.2890625 L214.988281,10.8671875 Z M229.597656,10.75 C223.855469,10.75 219.8125,13.7578125 219.8125,21.6679688 C219.8125,29.5976562 223.855469,32.5664062 229.597656,32.5664062 C235.359375,32.5664062 239.402344,29.5976562 239.402344,21.6679688 C239.402344,13.7578125 235.359375,10.75 229.597656,10.75 Z M229.597656,11.5507812 C231.785156,11.5507812 233.367188,14.5195312 233.367188,21.6679688 C233.367188,28.8359375 231.785156,31.765625 229.597656,31.765625 C227.429688,31.765625 225.847656,28.8359375 225.847656,21.6679688 C225.847656,14.5195312 227.429688,11.5507812 229.597656,11.5507812 Z M256.726562,10.75 C253.914062,10.75 251.53125,11.765625 250.203125,14.4804688 L250.203125,10.8671875 C248.523438,11.2578125 246.589844,11.4335938 244.363281,11.4335938 C243.5625,11.4335938 242.722656,11.375 241.882812,11.296875 L241.882812,12.1367188 C243.816406,12.1367188 244.441406,13.2695312 244.441406,15.671875 L244.441406,28.2890625 C244.441406,30.515625 243.738281,31.1601562 241.882812,31.1601562 L241.882812,32 C242.9375,31.9609375 245.339844,31.84375 247.390625,31.84375 C249.34375,31.84375 251.414062,31.9609375 252.351562,32 L252.351562,31.1601562 C250.769531,31.1601562 250.203125,30.515625 250.203125,28.2890625 L250.203125,17.1367188 C250.203125,14.5 251.921875,12.5078125 254.167969,12.5078125 C256.160156,12.5078125 256.628906,13.8554688 256.628906,15.8476562 L256.628906,28.2890625 C256.628906,30.515625 256.0625,31.1601562 254.480469,31.1601562 L254.480469,32 C255.457031,31.9609375 257.625,31.84375 259.675781,31.84375 C261.628906,31.84375 263.933594,31.9609375 264.949219,32 L264.949219,31.1601562 C263.09375,31.1601562 262.390625,30.515625 262.390625,28.2890625 L262.390625,17.5078125 C262.390625,14.7929688 262.019531,13.328125 261.140625,12.3125 C260.320312,11.375 259.011719,10.75 256.726562,10.75 Z M165.125,57.5078125 C165.125,54.8710938 164.792969,53.328125 163.894531,52.3125 C163.074219,51.375 161.746094,50.75 159.519531,50.75 C156.824219,50.75 154.34375,51.6484375 152.878906,54.6953125 C152.703125,53.6601562 152.371094,52.8984375 151.863281,52.3125 C151.042969,51.375 149.695312,50.75 147.488281,50.75 C144.851562,50.75 142.546875,51.8242188 141.296875,54.4804688 L141.296875,50.8671875 C139.617188,51.2578125 137.683594,51.4335938 135.457031,51.4335938 C134.65625,51.4335938 133.816406,51.375 132.976562,51.296875 L132.976562,52.1367188 C134.910156,52.1367188 135.535156,53.2695312 135.535156,55.671875 L135.535156,68.2890625 C135.535156,70.515625 134.832031,71.1601562 132.976562,71.1601562 L132.976562,72 C134.03125,71.9609375 136.433594,71.84375 138.484375,71.84375 C140.339844,71.84375 142.3125,71.9609375 143.210938,72 L143.210938,71.1601562 C141.785156,71.1601562 141.296875,70.515625 141.296875,68.2890625 L141.296875,57.1367188 C141.296875,54.5 143.035156,52.5078125 145.183594,52.5078125 C147,52.5078125 147.332031,53.8554688 147.332031,55.8476562 L147.332031,68.2890625 C147.332031,70.515625 146.804688,71.1601562 145.398438,71.1601562 L145.398438,72 C146.335938,71.9609375 148.40625,71.84375 150.359375,71.84375 C152.214844,71.84375 154.441406,71.9609375 155.398438,72 L155.398438,71.1601562 C153.679688,71.1601562 153.09375,70.515625 153.09375,68.2890625 L153.09375,57.5078125 L153.074219,56.6875 C153.386719,54.34375 155.027344,52.5078125 156.980469,52.5078125 C158.972656,52.5078125 159.363281,53.8554688 159.363281,55.8476562 L159.363281,68.2890625 C159.363281,70.515625 158.855469,71.1601562 157.449219,71.1601562 L157.449219,72 C158.386719,71.9609375 160.457031,71.84375 162.410156,71.84375 C164.363281,71.84375 166.667969,71.9609375 167.683594,72 L167.683594,71.1601562 C165.828125,71.1601562 165.125,70.515625 165.125,68.2890625 L165.125,57.5078125 Z M179.480469,50.75 C173.738281,50.75 169.695312,53.7578125 169.695312,61.6679688 C169.695312,69.5976562 173.738281,72.5664062 179.480469,72.5664062 C185.242188,72.5664062 189.285156,69.5976562 189.285156,61.6679688 C189.285156,53.7578125 185.242188,50.75 179.480469,50.75 Z M179.480469,51.5507812 C181.667969,51.5507812 183.25,54.5195312 183.25,61.6679688 C183.25,68.8359375 181.667969,71.765625 179.480469,71.765625 C177.3125,71.765625 175.730469,68.8359375 175.730469,61.6679688 C175.730469,54.5195312 177.3125,51.5507812 179.480469,51.5507812 Z M206.609375,50.75 C203.796875,50.75 201.414062,51.765625 200.085938,54.4804688 L200.085938,50.8671875 C198.40625,51.2578125 196.472656,51.4335938 194.246094,51.4335938 C193.445312,51.4335938 192.605469,51.375 191.765625,51.296875 L191.765625,52.1367188 C193.699219,52.1367188 194.324219,53.2695312 194.324219,55.671875 L194.324219,68.2890625 C194.324219,70.515625 193.621094,71.1601562 191.765625,71.1601562 L191.765625,72 C192.820312,71.9609375 195.222656,71.84375 197.273438,71.84375 C199.226562,71.84375 201.296875,71.9609375 202.234375,72 L202.234375,71.1601562 C200.652344,71.1601562 200.085938,70.515625 200.085938,68.2890625 L200.085938,57.1367188 C200.085938,54.5 201.804688,52.5078125 204.050781,52.5078125 C206.042969,52.5078125 206.511719,53.8554688 206.511719,55.8476562 L206.511719,68.2890625 C206.511719,70.515625 205.945312,71.1601562 204.363281,71.1601562 L204.363281,72 C205.339844,71.9609375 207.507812,71.84375 209.558594,71.84375 C211.511719,71.84375 213.816406,71.9609375 214.832031,72 L214.832031,71.1601562 C212.976562,71.1601562 212.273438,70.515625 212.273438,68.2890625 L212.273438,57.5078125 C212.273438,54.7929688 211.902344,53.328125 211.023438,52.3125 C210.203125,51.375 208.894531,50.75 206.609375,50.75 Z M224.421875,51.3359375 L224.421875,44.7539062 C222.761719,45.6523438 220.90625,46.0234375 218.660156,46.0429688 L218.660156,51.3359375 L215.300781,51.3359375 L215.300781,52.1367188 L218.660156,52.1367188 L218.660156,65.6328125 C218.660156,68.4257812 218.953125,70.046875 220.105469,71.21875 C221.003906,72.1171875 222.3125,72.5664062 224.109375,72.5664062 C227.058594,72.5664062 228.699219,70.8476562 229.578125,68.4648438 L228.914062,68.09375 C228.132812,69.8710938 227.15625,70.4960938 226.179688,70.4960938 C225.007812,70.4960938 224.421875,69.9101562 224.421875,68.2695312 L224.421875,52.1367188 L229.148438,52.1367188 L229.148438,51.3359375 L224.421875,51.3359375 Z M238.464844,40.7109375 C236.804688,41.1015625 234.871094,41.2578125 232.625,41.2578125 C231.84375,41.2578125 231.003906,41.21875 230.164062,41.140625 L230.164062,41.9804688 C232.097656,41.9804688 232.722656,43.1132812 232.722656,45.4960938 L232.722656,68.2890625 C232.722656,70.515625 232.019531,71.1601562 230.164062,71.1601562 L230.164062,72 C231.21875,71.9609375 233.621094,71.84375 235.671875,71.84375 C237.625,71.84375 239.695312,71.9609375 240.632812,72 L240.632812,71.1601562 C239.050781,71.1601562 238.464844,70.515625 238.464844,68.2890625 L238.464844,57.1367188 C238.464844,54.421875 240.242188,52.5078125 242.449219,52.5078125 C244.441406,52.5078125 244.910156,53.8554688 244.910156,55.8476562 L244.910156,68.2890625 C244.910156,70.515625 244.34375,71.1601562 242.761719,71.1601562 L242.761719,72 C243.738281,71.9609375 245.90625,71.84375 247.957031,71.84375 C249.910156,71.84375 252.214844,71.9609375 253.230469,72 L253.230469,71.1601562 C251.375,71.1601562 250.671875,70.515625 250.671875,68.2890625 L250.671875,57.5078125 C250.671875,54.7929688 250.300781,53.328125 249.421875,52.3125 C248.601562,51.375 247.292969,50.75 245.007812,50.75 C242.195312,50.75 239.792969,51.7460938 238.464844,54.4609375 L238.464844,40.7109375 Z M262.839844,40.6914062 C261.179688,41.0820312 259.226562,41.2382812 257,41.2382812 C256.199219,41.2382812 255.359375,41.1992188 254.519531,41.1210938 L254.519531,41.9609375 C256.453125,41.9609375 257.078125,43.09375 257.078125,45.4960938 L257.078125,68.2890625 C257.078125,70.515625 256.394531,71.1601562 254.519531,71.1601562 L254.519531,72 C255.59375,71.9609375 257.976562,71.84375 260.066406,71.84375 C262.136719,71.84375 264.382812,71.9609375 265.398438,72 L265.398438,71.1601562 C263.542969,71.1601562 262.839844,70.515625 262.839844,68.2890625 L262.839844,40.6914062 Z M283.621094,51.453125 C282.546875,51.453125 280.984375,51.4140625 279.753906,51.296875 L279.753906,52.1367188 C281.550781,52.2539062 282.722656,53.25 282.722656,55.3203125 C282.722656,56.1796875 282.507812,57.234375 282.078125,58.5039062 L279.324219,66.21875 L274.421875,54.4023438 C274.226562,53.9335938 274.128906,53.5625 274.128906,53.2695312 C274.128906,52.15625 275.359375,52.1367188 276.667969,52.1367188 L276.667969,51.296875 C275.066406,51.4335938 273.25,51.5507812 271.121094,51.5507812 C269.304688,51.5507812 267.371094,51.4726562 265.632812,51.296875 L265.632812,52.1367188 C266.21875,52.1367188 267.15625,52.3320312 268.113281,54.3828125 L276.589844,73.6601562 L275.925781,75.59375 C275.164062,77.8007812 273.894531,78.7773438 272.292969,78.7773438 C272.058594,78.7773438 271.648438,78.7773438 271.375,78.6992188 C272.683594,78.2304688 273.367188,77.1953125 273.367188,76.140625 C273.367188,74.4609375 272.15625,73.6015625 270.378906,73.6015625 C268.445312,73.6015625 267.195312,74.65625 267.195312,76.296875 C267.195312,78.6015625 269.617188,79.5195312 271.53125,79.5195312 C273.09375,79.5195312 274.226562,79.1875 275.027344,78.5234375 C275.730469,77.9375 276.277344,77.0390625 276.765625,75.671875 L278.308594,71.375 L283.933594,55.5742188 C284.773438,53.1914062 285.691406,52.390625 286.6875,52.1367188 L286.6875,51.296875 C285.984375,51.4140625 284.695312,51.453125 283.621094,51.453125 Z" id="million-monthly-copy" fill="#000000"></path>
                <path d="M149.128906,87.3203125 C148.132812,87.5546875 146.960938,87.6601562 145.625,87.6601562 C145.144531,87.6601562 144.640625,87.625 144.136719,87.578125 L144.136719,88.0820312 C145.296875,88.0820312 145.671875,88.7617188 145.671875,90.203125 L145.671875,96.5078125 C145.671875,98.0898438 144.617188,99.2851562 143.339844,99.2851562 C142.144531,99.2851562 141.910156,98.4648438 141.910156,97.2695312 L141.910156,87.3203125 C140.902344,87.5546875 139.742188,87.6601562 138.40625,87.6601562 C137.925781,87.6601562 137.421875,87.625 136.917969,87.578125 L136.917969,88.0820312 C138.078125,88.0820312 138.453125,88.7617188 138.453125,90.203125 L138.453125,96.2851562 C138.453125,97.8671875 138.652344,98.7929688 139.179688,99.390625 C139.683594,99.953125 140.480469,100.339844 141.804688,100.339844 C143.457031,100.339844 144.886719,99.7070312 145.671875,98.1015625 L145.671875,100.269531 C146.667969,100.035156 147.839844,99.9414062 149.175781,99.9414062 C149.65625,99.9414062 150.160156,99.9648438 150.664062,100.011719 L150.664062,99.5078125 C149.503906,99.5078125 149.128906,98.828125 149.128906,97.3984375 L149.128906,87.3203125 Z M160.625,87.25 C158.9375,87.25 157.507812,87.859375 156.710938,89.4882812 L156.710938,87.3203125 C155.703125,87.5546875 154.542969,87.6601562 153.207031,87.6601562 C152.726562,87.6601562 152.222656,87.625 151.71875,87.578125 L151.71875,88.0820312 C152.878906,88.0820312 153.253906,88.7617188 153.253906,90.203125 L153.253906,97.7734375 C153.253906,99.109375 152.832031,99.4960938 151.71875,99.4960938 L151.71875,100 C152.351562,99.9765625 153.792969,99.90625 155.023438,99.90625 C156.195312,99.90625 157.4375,99.9765625 158,100 L158,99.4960938 C157.050781,99.4960938 156.710938,99.109375 156.710938,97.7734375 L156.710938,91.0820312 C156.710938,89.5 157.742188,88.3046875 159.089844,88.3046875 C160.285156,88.3046875 160.566406,89.1132812 160.566406,90.3085938 L160.566406,97.7734375 C160.566406,99.109375 160.226562,99.4960938 159.277344,99.4960938 L159.277344,100 C159.863281,99.9765625 161.164062,99.90625 162.394531,99.90625 C163.566406,99.90625 164.949219,99.9765625 165.558594,100 L165.558594,99.4960938 C164.445312,99.4960938 164.023438,99.109375 164.023438,97.7734375 L164.023438,91.3046875 C164.023438,89.6757812 163.800781,88.796875 163.273438,88.1875 C162.78125,87.625 161.996094,87.25 160.625,87.25 Z M169.554688,81.390625 C168.207031,81.390625 167.363281,82.09375 167.363281,83.2421875 C167.363281,84.4023438 168.207031,85.1054688 169.554688,85.1054688 C170.878906,85.1054688 171.734375,84.4023438 171.734375,83.2421875 C171.734375,82.09375 170.878906,81.390625 169.554688,81.390625 Z M171.441406,87.3203125 C170.433594,87.5546875 169.273438,87.6601562 167.9375,87.6601562 C167.457031,87.6601562 166.953125,87.625 166.449219,87.578125 L166.449219,88.0820312 C167.609375,88.0820312 167.984375,88.7617188 167.984375,90.203125 L167.984375,97.7734375 C167.984375,99.109375 167.5625,99.4960938 166.449219,99.4960938 L166.449219,100 C167.082031,99.9765625 168.523438,99.90625 169.765625,99.90625 C171.019531,99.90625 172.367188,99.9765625 172.976562,100 L172.976562,99.4960938 C171.851562,99.4960938 171.441406,99.109375 171.441406,97.7734375 L171.441406,87.3203125 Z M185.808594,88.7617188 C185.808594,88.2929688 185.832031,87.8359375 185.972656,87.4140625 L185.609375,87.203125 C184.964844,87.8242188 183.710938,88.28125 182.5625,88.234375 C181.800781,87.4960938 180.851562,87.25 179.585938,87.25 C176.503906,87.25 174.335938,89.3945312 174.335938,93.7421875 C174.335938,98.3242188 176.492188,100.339844 179.246094,100.339844 C180.722656,100.339844 181.800781,99.5664062 182.351562,98.1015625 L182.351562,101.96875 C182.351562,103.457031 181.542969,103.84375 180.183594,103.84375 L180.183594,104.347656 C181.003906,104.324219 182.597656,104.242188 184.214844,104.242188 C185.398438,104.242188 186.652344,104.324219 187.238281,104.347656 L187.238281,103.84375 C186.195312,103.84375 185.808594,103.480469 185.808594,102.203125 L185.808594,88.7617188 Z M180.242188,99.296875 C178.859375,99.296875 177.957031,97.8789062 177.957031,93.7890625 C177.957031,89.734375 178.824219,87.7539062 180.476562,87.7539062 C181.179688,87.7539062 181.871094,87.9882812 182.351562,88.5039062 L182.351562,97.234375 C182.105469,98.5351562 181.203125,99.296875 180.242188,99.296875 Z M200,87.3203125 C199.003906,87.5546875 197.832031,87.6601562 196.496094,87.6601562 C196.015625,87.6601562 195.511719,87.625 195.007812,87.578125 L195.007812,88.0820312 C196.167969,88.0820312 196.542969,88.7617188 196.542969,90.203125 L196.542969,96.5078125 C196.542969,98.0898438 195.488281,99.2851562 194.210938,99.2851562 C193.015625,99.2851562 192.78125,98.4648438 192.78125,97.2695312 L192.78125,87.3203125 C191.773438,87.5546875 190.613281,87.6601562 189.277344,87.6601562 C188.796875,87.6601562 188.292969,87.625 187.789062,87.578125 L187.789062,88.0820312 C188.949219,88.0820312 189.324219,88.7617188 189.324219,90.203125 L189.324219,96.2851562 C189.324219,97.8671875 189.523438,98.7929688 190.050781,99.390625 C190.554688,99.953125 191.351562,100.339844 192.675781,100.339844 C194.328125,100.339844 195.757812,99.7070312 196.542969,98.1015625 L196.542969,100.269531 C197.539062,100.035156 198.710938,99.9414062 200.046875,99.9414062 C200.527344,99.9414062 201.03125,99.9648438 201.535156,100.011719 L201.535156,99.5078125 C200.375,99.5078125 200,98.828125 200,97.3984375 L200,87.3203125 Z M209.644531,98.359375 C208.121094,98.359375 206.515625,97.0585938 206.515625,93.71875 C206.515625,93.3320312 206.527344,92.9335938 206.5625,92.5820312 L213.277344,92.5820312 C213.277344,88.8203125 211.566406,87.25 208.765625,87.25 C205.355469,87.25 202.894531,89.4648438 202.894531,93.9179688 C202.894531,98.3007812 205.191406,100.339844 208.425781,100.339844 C211.085938,100.339844 212.65625,98.40625 213.230469,96.6015625 L212.796875,96.4375 C211.824219,98.03125 210.605469,98.359375 209.644531,98.359375 Z M208.625,87.765625 C209.796875,87.765625 210.300781,89.78125 210.253906,92.125 L206.492188,92.125 C206.691406,89.0195312 207.546875,87.765625 208.625,87.765625 Z M232.238281,87.3203125 C231.242188,87.5546875 230.070312,87.6601562 228.734375,87.6601562 C228.253906,87.6601562 227.75,87.625 227.246094,87.578125 L227.246094,88.0820312 C228.40625,88.0820312 228.78125,88.7617188 228.78125,90.203125 L228.78125,96.5078125 C228.78125,98.0898438 227.726562,99.2851562 226.449219,99.2851562 C225.253906,99.2851562 225.019531,98.4648438 225.019531,97.2695312 L225.019531,87.3203125 C224.011719,87.5546875 222.851562,87.6601562 221.515625,87.6601562 C221.035156,87.6601562 220.53125,87.625 220.027344,87.578125 L220.027344,88.0820312 C221.1875,88.0820312 221.5625,88.7617188 221.5625,90.203125 L221.5625,96.2851562 C221.5625,97.8671875 221.761719,98.7929688 222.289062,99.390625 C222.792969,99.953125 223.589844,100.339844 224.914062,100.339844 C226.566406,100.339844 227.996094,99.7070312 228.78125,98.1015625 L228.78125,100.269531 C229.777344,100.035156 230.949219,99.9414062 232.285156,99.9414062 C232.765625,99.9414062 233.269531,99.9648438 233.773438,100.011719 L233.773438,99.5078125 C232.613281,99.5078125 232.238281,98.828125 232.238281,97.3984375 L232.238281,87.3203125 Z M239.550781,87.25 C237.371094,87.25 235.425781,88.421875 235.425781,90.5546875 C235.425781,92.4882812 236.867188,93.578125 238.4375,94.8085938 C239.820312,95.8867188 240.863281,96.671875 240.863281,98.078125 C240.863281,99.3085938 240.007812,99.7890625 239.175781,99.7890625 C237.160156,99.7890625 236.234375,97.9726562 235.941406,95.3710938 L235.425781,95.3710938 C235.425781,97.796875 235.402344,99.1328125 235.332031,100.164062 L235.835938,100.164062 C235.953125,99.6484375 236.152344,99.3085938 236.421875,99.3085938 C236.457031,99.3085938 236.492188,99.3203125 236.527344,99.3320312 C236.867188,99.4375 237.207031,99.6132812 237.640625,99.8359375 C238.179688,100.128906 238.929688,100.339844 239.890625,100.339844 C242.363281,100.339844 244.4375,98.96875 244.4375,96.7773438 C244.4375,94.8789062 243.171875,93.8476562 241.566406,92.6640625 C240.089844,91.5625 238.613281,90.765625 238.613281,89.3242188 C238.613281,88.3398438 239.316406,87.7773438 240.242188,87.7773438 C242.292969,87.7773438 243.078125,89.7226562 243.324219,91.4921875 L243.828125,91.4921875 C243.828125,89.359375 243.851562,88.1875 243.933594,87.2734375 L243.417969,87.2734375 C243.335938,87.8710938 243.136719,88.1523438 242.855469,88.1523438 C242.726562,88.1523438 242.585938,88.09375 242.421875,87.9882812 C241.953125,87.6835938 240.898438,87.25 239.550781,87.25 Z M252.957031,98.359375 C251.433594,98.359375 249.828125,97.0585938 249.828125,93.71875 C249.828125,93.3320312 249.839844,92.9335938 249.875,92.5820312 L256.589844,92.5820312 C256.589844,88.8203125 254.878906,87.25 252.078125,87.25 C248.667969,87.25 246.207031,89.4648438 246.207031,93.9179688 C246.207031,98.3007812 248.503906,100.339844 251.738281,100.339844 C254.398438,100.339844 255.96875,98.40625 256.542969,96.6015625 L256.109375,96.4375 C255.136719,98.03125 253.917969,98.359375 252.957031,98.359375 Z M251.9375,87.765625 C253.109375,87.765625 253.613281,89.78125 253.566406,92.125 L249.804688,92.125 C250.003906,89.0195312 250.859375,87.765625 251.9375,87.765625 Z M266.246094,87.25 C264.734375,87.25 263.574219,88.2695312 263,89.5585938 L263,87.3203125 C261.992188,87.5546875 260.832031,87.6601562 259.496094,87.6601562 C259.015625,87.6601562 258.511719,87.625 258.007812,87.578125 L258.007812,88.0820312 C259.167969,88.0820312 259.542969,88.7617188 259.542969,90.203125 L259.542969,97.7734375 C259.542969,99.109375 259.121094,99.4960938 258.007812,99.4960938 L258.007812,100 C258.664062,99.9765625 260.128906,99.90625 261.441406,99.90625 C262.953125,99.90625 264.511719,99.9765625 265.25,100 L265.25,99.4960938 C263.738281,99.4960938 263,99.0742188 263,97.5273438 L263,91.1757812 C263,89.8867188 263.902344,88.2929688 265.179688,88.0820312 C265.296875,88.046875 265.414062,88.0234375 265.519531,88.0234375 C265.636719,88.0234375 265.742188,88.046875 265.835938,88.0820312 C265.238281,88.4804688 264.78125,89.0546875 264.78125,89.9335938 C264.78125,90.8710938 265.449219,91.4804688 266.574219,91.4804688 C267.699219,91.4804688 268.4375,90.6484375 268.4375,89.4648438 C268.4375,88.3867188 267.804688,87.25 266.246094,87.25 Z M273.933594,87.25 C271.753906,87.25 269.808594,88.421875 269.808594,90.5546875 C269.808594,92.4882812 271.25,93.578125 272.820312,94.8085938 C274.203125,95.8867188 275.246094,96.671875 275.246094,98.078125 C275.246094,99.3085938 274.390625,99.7890625 273.558594,99.7890625 C271.542969,99.7890625 270.617188,97.9726562 270.324219,95.3710938 L269.808594,95.3710938 C269.808594,97.796875 269.785156,99.1328125 269.714844,100.164062 L270.21875,100.164062 C270.335938,99.6484375 270.535156,99.3085938 270.804688,99.3085938 C270.839844,99.3085938 270.875,99.3203125 270.910156,99.3320312 C271.25,99.4375 271.589844,99.6132812 272.023438,99.8359375 C272.5625,100.128906 273.3125,100.339844 274.273438,100.339844 C276.746094,100.339844 278.820312,98.96875 278.820312,96.7773438 C278.820312,94.8789062 277.554688,93.8476562 275.949219,92.6640625 C274.472656,91.5625 272.996094,90.765625 272.996094,89.3242188 C272.996094,88.3398438 273.699219,87.7773438 274.625,87.7773438 C276.675781,87.7773438 277.460938,89.7226562 277.707031,91.4921875 L278.210938,91.4921875 C278.210938,89.359375 278.234375,88.1875 278.316406,87.2734375 L277.800781,87.2734375 C277.71875,87.8710938 277.519531,88.1523438 277.238281,88.1523438 C277.109375,88.1523438 276.96875,88.09375 276.804688,87.9882812 C276.335938,87.6835938 275.28125,87.25 273.933594,87.25 Z" id="unique-users" fill="#000000"></path>
            </g>
        </g>
    </g>
</svg>