<?xml version="1.0" encoding="UTF-8" standalone="no"?>
<svg width="490px" height="230px" viewBox="0 0 490 230" version="1.1" xmlns="http://www.w3.org/2000/svg" xmlns:xlink="http://www.w3.org/1999/xlink">
    <!-- Generator: Sketch 41.2 (35397) - http://www.bohemiancoding.com/sketch -->
    <title>Group 26</title>
    <desc>Created with Sketch.</desc>
    <defs>
        <linearGradient x1="2.99641257%" y1="2.96703601%" x2="101.999998%" y2="100.999999%" id="linearGradient-1">
            <stop stop-color="#FF9703" offset="0%"></stop>
            <stop stop-color="#D518B6" offset="100%"></stop>
        </linearGradient>
    </defs>
    <g id="diwanee-corp-" stroke="none" stroke-width="1" fill="none" fill-rule="evenodd">
        <g id="Desktop-HD-Copy" transform="translate(-470.000000, -5078.000000)">
            <g id="Group-26" transform="translate(470.000000, 5078.000000)">
                <rect id="Rectangle-7" fill="#FFFFFF" x="0" y="0" width="490" height="230"></rect>
                <g id="Group-22" transform="translate(67.000000, 78.000000)">
                    <path d="M211.125,17.5078125 C211.125,14.8710938 210.792969,13.328125 209.894531,12.3125 C209.074219,11.375 207.746094,10.75 205.519531,10.75 C202.824219,10.75 200.34375,11.6484375 198.878906,14.6953125 C198.703125,13.6601562 198.371094,12.8984375 197.863281,12.3125 C197.042969,11.375 195.695312,10.75 193.488281,10.75 C190.851562,10.75 188.546875,11.8242188 187.296875,14.4804688 L187.296875,10.8671875 C185.617188,11.2578125 183.683594,11.4335938 181.457031,11.4335938 C180.65625,11.4335938 179.816406,11.375 178.976562,11.296875 L178.976562,12.1367188 C180.910156,12.1367188 181.535156,13.2695312 181.535156,15.671875 L181.535156,28.2890625 C181.535156,30.515625 180.832031,31.1601562 178.976562,31.1601562 L178.976562,32 C180.03125,31.9609375 182.433594,31.84375 184.484375,31.84375 C186.339844,31.84375 188.3125,31.9609375 189.210938,32 L189.210938,31.1601562 C187.785156,31.1601562 187.296875,30.515625 187.296875,28.2890625 L187.296875,17.1367188 C187.296875,14.5 189.035156,12.5078125 191.183594,12.5078125 C193,12.5078125 193.332031,13.8554688 193.332031,15.8476562 L193.332031,28.2890625 C193.332031,30.515625 192.804688,31.1601562 191.398438,31.1601562 L191.398438,32 C192.335938,31.9609375 194.40625,31.84375 196.359375,31.84375 C198.214844,31.84375 200.441406,31.9609375 201.398438,32 L201.398438,31.1601562 C199.679688,31.1601562 199.09375,30.515625 199.09375,28.2890625 L199.09375,17.5078125 L199.074219,16.6875 C199.386719,14.34375 201.027344,12.5078125 202.980469,12.5078125 C204.972656,12.5078125 205.363281,13.8554688 205.363281,15.8476562 L205.363281,28.2890625 C205.363281,30.515625 204.855469,31.1601562 203.449219,31.1601562 L203.449219,32 C204.386719,31.9609375 206.457031,31.84375 208.410156,31.84375 C210.363281,31.84375 212.667969,31.9609375 213.683594,32 L213.683594,31.1601562 C211.828125,31.1601562 211.125,30.515625 211.125,28.2890625 L211.125,17.5078125 Z M220.34375,0.984375 C218.097656,0.984375 216.691406,2.15625 216.691406,4.0703125 C216.691406,6.00390625 218.097656,7.17578125 220.34375,7.17578125 C222.550781,7.17578125 223.976562,6.00390625 223.976562,4.0703125 C223.976562,2.15625 222.550781,0.984375 220.34375,0.984375 Z M223.488281,10.8671875 C221.808594,11.2578125 219.875,11.4335938 217.648438,11.4335938 C216.847656,11.4335938 216.007812,11.375 215.167969,11.296875 L215.167969,12.1367188 C217.101562,12.1367188 217.726562,13.2695312 217.726562,15.671875 L217.726562,28.2890625 C217.726562,30.515625 217.023438,31.1601562 215.167969,31.1601562 L215.167969,32 C216.222656,31.9609375 218.625,31.84375 220.695312,31.84375 C222.785156,31.84375 225.03125,31.9609375 226.046875,32 L226.046875,31.1601562 C224.171875,31.1601562 223.488281,30.515625 223.488281,28.2890625 L223.488281,10.8671875 Z M235.910156,0.69140625 C234.25,1.08203125 232.296875,1.23828125 230.070312,1.23828125 C229.269531,1.23828125 228.429688,1.19921875 227.589844,1.12109375 L227.589844,1.9609375 C229.523438,1.9609375 230.148438,3.09375 230.148438,5.49609375 L230.148438,28.2890625 C230.148438,30.515625 229.464844,31.1601562 227.589844,31.1601562 L227.589844,32 C228.664062,31.9609375 231.046875,31.84375 233.136719,31.84375 C235.207031,31.84375 237.453125,31.9609375 238.46875,32 L238.46875,31.1601562 C236.613281,31.1601562 235.910156,30.515625 235.910156,28.2890625 L235.910156,0.69140625 Z M245.402344,0.984375 C243.15625,0.984375 241.75,2.15625 241.75,4.0703125 C241.75,6.00390625 243.15625,7.17578125 245.402344,7.17578125 C247.609375,7.17578125 249.035156,6.00390625 249.035156,4.0703125 C249.035156,2.15625 247.609375,0.984375 245.402344,0.984375 Z M248.546875,10.8671875 C246.867188,11.2578125 244.933594,11.4335938 242.707031,11.4335938 C241.90625,11.4335938 241.066406,11.375 240.226562,11.296875 L240.226562,12.1367188 C242.160156,12.1367188 242.785156,13.2695312 242.785156,15.671875 L242.785156,28.2890625 C242.785156,30.515625 242.082031,31.1601562 240.226562,31.1601562 L240.226562,32 C241.28125,31.9609375 243.683594,31.84375 245.753906,31.84375 C247.84375,31.84375 250.089844,31.9609375 251.105469,32 L251.105469,31.1601562 C249.230469,31.1601562 248.546875,30.515625 248.546875,28.2890625 L248.546875,10.8671875 Z M263.15625,10.75 C257.414062,10.75 253.371094,13.7578125 253.371094,21.6679688 C253.371094,29.5976562 257.414062,32.5664062 263.15625,32.5664062 C268.917969,32.5664062 272.960938,29.5976562 272.960938,21.6679688 C272.960938,13.7578125 268.917969,10.75 263.15625,10.75 Z M263.15625,11.5507812 C265.34375,11.5507812 266.925781,14.5195312 266.925781,21.6679688 C266.925781,28.8359375 265.34375,31.765625 263.15625,31.765625 C260.988281,31.765625 259.40625,28.8359375 259.40625,21.6679688 C259.40625,14.5195312 260.988281,11.5507812 263.15625,11.5507812 Z M290.285156,10.75 C287.472656,10.75 285.089844,11.765625 283.761719,14.4804688 L283.761719,10.8671875 C282.082031,11.2578125 280.148438,11.4335938 277.921875,11.4335938 C277.121094,11.4335938 276.28125,11.375 275.441406,11.296875 L275.441406,12.1367188 C277.375,12.1367188 278,13.2695312 278,15.671875 L278,28.2890625 C278,30.515625 277.296875,31.1601562 275.441406,31.1601562 L275.441406,32 C276.496094,31.9609375 278.898438,31.84375 280.949219,31.84375 C282.902344,31.84375 284.972656,31.9609375 285.910156,32 L285.910156,31.1601562 C284.328125,31.1601562 283.761719,30.515625 283.761719,28.2890625 L283.761719,17.1367188 C283.761719,14.5 285.480469,12.5078125 287.726562,12.5078125 C289.71875,12.5078125 290.1875,13.8554688 290.1875,15.8476562 L290.1875,28.2890625 C290.1875,30.515625 289.621094,31.1601562 288.039062,31.1601562 L288.039062,32 C289.015625,31.9609375 291.183594,31.84375 293.234375,31.84375 C295.1875,31.84375 297.492188,31.9609375 298.507812,32 L298.507812,31.1601562 C296.652344,31.1601562 295.949219,30.515625 295.949219,28.2890625 L295.949219,17.5078125 C295.949219,14.7929688 295.578125,13.328125 294.699219,12.3125 C293.878906,11.375 292.570312,10.75 290.285156,10.75 Z M195.207031,51.453125 C194.152344,51.453125 192.589844,51.4140625 191.359375,51.296875 L191.359375,52.1367187 C193.15625,52.2539062 194.289062,53.25 194.289062,55.3203125 C194.289062,56.1796875 194.09375,57.234375 193.664062,58.5039062 L190.792969,66.453125 L186.203125,54.3046875 C186.066406,53.8945312 186.007812,53.5625 186.007812,53.2890625 C186.007812,52.1171875 187.160156,52.1367187 188.507812,52.1367187 L188.507812,51.296875 C186.90625,51.4335937 184.953125,51.5117187 183.3125,51.5117187 C181.085938,51.5117187 179.328125,51.4335937 177.628906,51.296875 L177.628906,52.1367187 C178.195312,52.1367187 179.113281,52.3320312 179.953125,54.3828125 L187.0625,72.078125 C187.511719,72.0390625 187.941406,72.0195312 188.371094,72.0195312 C188.800781,72.0195312 189.25,72.0390625 189.679688,72.078125 L195.539062,55.5742187 C196.359375,53.1914062 197.277344,52.390625 198.273438,52.1367187 L198.273438,51.296875 C197.589844,51.4140625 196.28125,51.453125 195.207031,51.453125 Z M204.464844,40.984375 C202.21875,40.984375 200.8125,42.15625 200.8125,44.0703125 C200.8125,46.0039062 202.21875,47.1757812 204.464844,47.1757812 C206.671875,47.1757812 208.097656,46.0039062 208.097656,44.0703125 C208.097656,42.15625 206.671875,40.984375 204.464844,40.984375 Z M207.609375,50.8671875 C205.929688,51.2578125 203.996094,51.4335938 201.769531,51.4335938 C200.96875,51.4335938 200.128906,51.375 199.289062,51.296875 L199.289062,52.1367188 C201.222656,52.1367188 201.847656,53.2695312 201.847656,55.671875 L201.847656,68.2890625 C201.847656,70.515625 201.144531,71.1601562 199.289062,71.1601562 L199.289062,72 C200.34375,71.9609375 202.746094,71.84375 204.816406,71.84375 C206.90625,71.84375 209.152344,71.9609375 210.167969,72 L210.167969,71.1601562 C208.292969,71.1601562 207.609375,70.515625 207.609375,68.2890625 L207.609375,50.8671875 Z M231.554688,40.6914062 C229.894531,41.0820312 227.960938,41.2382812 225.714844,41.2382812 C224.914062,41.2382812 224.074219,41.1992188 223.234375,41.1210938 L223.234375,41.9609375 C225.167969,41.9609375 225.792969,43.09375 225.792969,45.4960938 L225.792969,52.2539062 C224.71875,51.1796875 223.195312,50.75 221.378906,50.75 C216.242188,50.75 212.433594,54.3242188 212.433594,61.5703125 C212.433594,69.1875 215.832031,72.5664062 220.597656,72.5664062 C223.195312,72.5664062 224.875,71.3359375 225.792969,69.03125 L225.792969,72.4101562 C227.472656,72.0195312 229.40625,71.8632812 231.632812,71.8632812 C232.433594,71.8632812 233.273438,71.9023438 234.113281,71.9804688 L234.113281,71.140625 C232.179688,71.140625 231.554688,70.0078125 231.554688,67.625 L231.554688,40.6914062 Z M222.257812,70.828125 C219.953125,70.828125 218.46875,68.484375 218.488281,61.6484375 C218.46875,55.046875 220.128906,51.9023438 222.882812,51.9023438 C224.015625,51.9023438 225.070312,52.3125 225.792969,53.25 L225.792969,67.46875 C225.421875,69.578125 223.898438,70.828125 222.257812,70.828125 Z M247.570312,69.265625 C245.03125,69.265625 242.355469,67.0976562 242.355469,61.53125 C242.355469,60.8867188 242.375,60.2226562 242.433594,59.6367188 L253.625,59.6367188 C253.625,53.3671875 250.773438,50.75 246.105469,50.75 C240.421875,50.75 236.320312,54.4414062 236.320312,61.8632812 C236.320312,69.1679688 240.148438,72.5664062 245.539062,72.5664062 C249.972656,72.5664062 252.589844,69.34375 253.546875,66.3359375 L252.824219,66.0625 C251.203125,68.71875 249.171875,69.265625 247.570312,69.265625 Z M245.871094,51.609375 C247.824219,51.609375 248.664062,54.96875 248.585938,58.875 L242.316406,58.875 C242.648438,53.6992188 244.074219,51.609375 245.871094,51.609375 Z M266.300781,50.75 C260.558594,50.75 256.515625,53.7578125 256.515625,61.6679688 C256.515625,69.5976562 260.558594,72.5664062 266.300781,72.5664062 C272.0625,72.5664062 276.105469,69.5976562 276.105469,61.6679688 C276.105469,53.7578125 272.0625,50.75 266.300781,50.75 Z M266.300781,51.5507812 C268.488281,51.5507812 270.070312,54.5195312 270.070312,61.6679688 C270.070312,68.8359375 268.488281,71.765625 266.300781,71.765625 C264.132812,71.765625 262.550781,68.8359375 262.550781,61.6679688 C262.550781,54.5195312 264.132812,51.5507812 266.300781,51.5507812 Z M304.152344,51.453125 C303.097656,51.453125 301.535156,51.4140625 300.304688,51.296875 L300.304688,52.1367187 C302.101562,52.2539062 303.234375,53.25 303.234375,55.3203125 C303.234375,56.1796875 303.039062,57.234375 302.609375,58.5039062 L299.738281,66.453125 L295.148438,54.3046875 C295.011719,53.8945312 294.953125,53.5625 294.953125,53.2890625 C294.953125,52.1171875 296.105469,52.1367187 297.453125,52.1367187 L297.453125,51.296875 C295.851562,51.4335937 293.898438,51.5117187 292.257812,51.5117187 C290.03125,51.5117187 288.273438,51.4335937 286.574219,51.296875 L286.574219,52.1367187 C287.140625,52.1367187 288.058594,52.3320312 288.898438,54.3828125 L296.007812,72.078125 C296.457031,72.0390625 296.886719,72.0195312 297.316406,72.0195312 C297.746094,72.0195312 298.195312,72.0390625 298.625,72.078125 L304.484375,55.5742187 C305.304688,53.1914062 306.222656,52.390625 307.21875,52.1367187 L307.21875,51.296875 C306.535156,51.4140625 305.226562,51.453125 304.152344,51.453125 Z M313.410156,40.984375 C311.164062,40.984375 309.757812,42.15625 309.757812,44.0703125 C309.757812,46.0039062 311.164062,47.1757812 313.410156,47.1757812 C315.617188,47.1757812 317.042969,46.0039062 317.042969,44.0703125 C317.042969,42.15625 315.617188,40.984375 313.410156,40.984375 Z M316.554688,50.8671875 C314.875,51.2578125 312.941406,51.4335938 310.714844,51.4335938 C309.914062,51.4335938 309.074219,51.375 308.234375,51.296875 L308.234375,52.1367188 C310.167969,52.1367188 310.792969,53.2695312 310.792969,55.671875 L310.792969,68.2890625 C310.792969,70.515625 310.089844,71.1601562 308.234375,71.1601562 L308.234375,72 C309.289062,71.9609375 311.691406,71.84375 313.761719,71.84375 C315.851562,71.84375 318.097656,71.9609375 319.113281,72 L319.113281,71.1601562 C317.238281,71.1601562 316.554688,70.515625 316.554688,68.2890625 L316.554688,50.8671875 Z M332.609375,69.265625 C330.070312,69.265625 327.394531,67.0976562 327.394531,61.53125 C327.394531,60.8867188 327.414062,60.2226562 327.472656,59.6367188 L338.664062,59.6367188 C338.664062,53.3671875 335.8125,50.75 331.144531,50.75 C325.460938,50.75 321.359375,54.4414062 321.359375,61.8632812 C321.359375,69.1679688 325.1875,72.5664062 330.578125,72.5664062 C335.011719,72.5664062 337.628906,69.34375 338.585938,66.3359375 L337.863281,66.0625 C336.242188,68.71875 334.210938,69.265625 332.609375,69.265625 Z M330.910156,51.609375 C332.863281,51.609375 333.703125,54.96875 333.625,58.875 L327.355469,58.875 C327.6875,53.6992188 329.113281,51.609375 330.910156,51.609375 Z M368.488281,51.453125 C367.414062,51.453125 365.617188,51.4140625 364.386719,51.296875 L364.386719,52.1367188 C366.320312,52.2929688 367.511719,53.2890625 367.511719,55.4960938 C367.511719,56.3164062 367.355469,57.3125 366.984375,58.5039062 L364.445312,66.53125 L359.25,51.2578125 C358.742188,51.296875 358.214844,51.3164062 357.707031,51.3164062 C357.238281,51.3164062 356.789062,51.296875 356.339844,51.2578125 L356.320312,51.2578125 L351.984375,65.7304688 L348.371094,54.4023438 C348.234375,53.9726562 348.15625,53.6015625 348.15625,53.328125 C348.15625,52.1953125 349.210938,52.1367188 350.675781,52.1367188 L350.675781,51.296875 C349.074219,51.4335938 347.101562,51.5507812 345.460938,51.5507812 C343.234375,51.5507812 341.476562,51.4726562 339.777344,51.296875 L339.777344,52.1367188 C340.34375,52.1367188 341.320312,52.2734375 342.101562,54.3828125 L348.429688,72.078125 C348.859375,72.0390625 349.289062,72.0195312 349.738281,72.0195312 C350.167969,72.0195312 350.597656,72.0390625 351.027344,72.078125 L355.460938,57.234375 L360.890625,72.078125 C361.320312,72.0390625 361.75,72.0195312 362.179688,72.0195312 C362.609375,72.0195312 363.058594,72.0390625 363.488281,72.078125 L368.800781,55.5742188 C369.582031,53.1523438 370.539062,52.390625 371.554688,52.1367188 L371.554688,51.296875 C370.851562,51.4140625 369.5625,51.453125 368.488281,51.453125 Z M380.363281,50.75 C376.730469,50.75 373.488281,52.703125 373.488281,56.2578125 C373.488281,59.4804688 375.890625,61.296875 378.507812,63.3476562 C380.8125,65.1445312 382.550781,66.453125 382.550781,68.796875 C382.550781,70.8476562 381.125,71.6484375 379.738281,71.6484375 C376.378906,71.6484375 374.835938,68.6210938 374.347656,64.2851562 L373.488281,64.2851562 C373.488281,68.328125 373.449219,70.5546875 373.332031,72.2734375 L374.171875,72.2734375 C374.367188,71.4140625 374.699219,70.8476562 375.148438,70.8476562 C375.207031,70.8476562 375.265625,70.8671875 375.324219,70.8867188 C375.890625,71.0625 376.457031,71.3554688 377.179688,71.7265625 C378.078125,72.2148438 379.328125,72.5664062 380.929688,72.5664062 C385.050781,72.5664062 388.507812,70.28125 388.507812,66.6289062 C388.507812,63.4648438 386.398438,61.7460938 383.722656,59.7734375 C381.261719,57.9375 378.800781,56.609375 378.800781,54.2070312 C378.800781,52.5664062 379.972656,51.6289062 381.515625,51.6289062 C384.933594,51.6289062 386.242188,54.8710938 386.652344,57.8203125 L387.492188,57.8203125 C387.492188,54.265625 387.53125,52.3125 387.667969,50.7890625 L386.808594,50.7890625 C386.671875,51.7851562 386.339844,52.2539062 385.871094,52.2539062 C385.65625,52.2539062 385.421875,52.15625 385.148438,51.9804688 C384.367188,51.4726562 382.609375,50.75 380.363281,50.75 Z" id="milion-video-views" fill="#000000"></path>
                    <path d="M29.8671875,8.6015625 C22.8945312,12.9375 14.515625,14.4609375 0.86328125,14.6953125 L0.86328125,17.3320312 C9.9453125,17.3320312 12.5820312,18.796875 12.5820312,30.3398438 L12.5820312,59.6367188 C12.5820312,67.4296875 8.36328125,69.4804688 1.33203125,69.4804688 L1.33203125,72 C5.4921875,71.8828125 13.6367188,71.53125 21.9570312,71.53125 C28.4609375,71.53125 35.3164062,71.8828125 38.5390625,72 L38.5390625,69.4804688 C32.2695312,69.4804688 29.8671875,67.4882812 29.8671875,60.3398438 L29.8671875,8.6015625 Z M75.8632812,8.6015625 C68.890625,12.9375 60.5117188,14.4609375 46.859375,14.6953125 L46.859375,17.3320312 C55.9414062,17.3320312 58.578125,18.796875 58.578125,30.3398438 L58.578125,59.6367188 C58.578125,67.4296875 54.359375,69.4804688 47.328125,69.4804688 L47.328125,72 C51.4882812,71.8828125 59.6328125,71.53125 67.953125,71.53125 C74.4570312,71.53125 81.3125,71.8828125 84.5351562,72 L84.5351562,69.4804688 C78.265625,69.4804688 75.8632812,67.4882812 75.8632812,60.3398438 L75.8632812,8.6015625 Z M127.308594,8.25 C106.800781,8.25 93.3828125,22.8984375 93.3828125,41.8828125 C93.3828125,61.1601562 107.152344,73.6992188 126.019531,73.6992188 C146.292969,73.6992188 159.945312,59.109375 159.945312,39.9492188 C159.945312,20.8476562 146.410156,8.25 127.308594,8.25 Z M126.253906,10.4179688 C134.632812,10.4179688 141.839844,18.796875 141.839844,40.3007812 C141.839844,59.8710938 135.6875,71.53125 127.074219,71.53125 C118.695312,71.53125 111.488281,63.09375 111.488281,41.4726562 C111.488281,21.9609375 117.640625,10.4179688 126.253906,10.4179688 Z" id="110" fill="url(#linearGradient-1)"></path>
                </g>
            </g>
        </g>
    </g>
</svg>