<?xml version="1.0" encoding="UTF-8" standalone="no"?>
<svg width="490px" height="230px" viewBox="0 0 490 230" version="1.1" xmlns="http://www.w3.org/2000/svg" xmlns:xlink="http://www.w3.org/1999/xlink">
    <!-- Generator: Sketch 41.2 (35397) - http://www.bohemiancoding.com/sketch -->
    <title>Group 30</title>
    <desc>Created with Sketch.</desc>
    <defs>
        <linearGradient x1="2.99641257%" y1="2.96703601%" x2="101.999998%" y2="100.999999%" id="linearGradient-1">
            <stop stop-color="#FF9703" offset="0%"></stop>
            <stop stop-color="#D518B6" offset="100%"></stop>
        </linearGradient>
    </defs>
    <g id="diwanee-corp-" stroke="none" stroke-width="1" fill="none" fill-rule="evenodd">
        <g id="Desktop-HD-Copy" transform="translate(-960.000000, -5313.000000)">
            <g id="Group-30" transform="translate(960.000000, 5313.000000)">
                <g id="Group-29" fill="#FFFFFF">
                    <rect id="Rectangle-7-Copy-3" x="0" y="0" width="490" height="230"></rect>
                </g>
                <g id="Group-25" transform="translate(98.000000, 71.000000)">
                    <path d="M28.9804688,7.25 C13.8632812,7.25 5.77734375,14.1640625 0.97265625,22.25 L2.96484375,23.5390625 C7.18359375,17.5039062 12.2226562,14.1640625 19.0195312,14.1640625 C26.34375,14.1640625 30.2695312,17.9140625 30.2695312,26.4101562 C30.2695312,45.453125 10.171875,59.3984375 1.08984375,68.65625 L1.08984375,71 L36.0117188,71 C43.21875,71 51.7148438,71.1171875 53.8828125,71.5859375 C53.53125,67.015625 53.4140625,61.9765625 53.4140625,51.3125 L50.953125,51.3125 C50.3671875,55.3554688 49.4882812,56.703125 42.9257812,56.703125 L16.9101562,56.703125 C26.5195312,46.5664062 49.078125,37.953125 49.078125,22.484375 C49.078125,12.7578125 41.34375,7.25 28.9804688,7.25 Z M102.515625,4.37890625 C102.046875,7.8359375 100.640625,9.0078125 95.8945312,9.0078125 L76.1484375,9.0078125 C73.8632812,9.0078125 71.4609375,8.890625 69.6445312,8.5390625 L65.8945312,46.0976562 L67.4765625,47.2109375 C70.8164062,44.984375 73.7460938,43.6953125 78.375,43.6953125 C87.3398438,43.6953125 92.0859375,49.4375 92.0859375,59.3398438 C92.0859375,76.9179688 77.203125,86.46875 62.4375,86.5859375 L62.4375,88.7539062 C85.171875,88.7539062 109.957031,77.2109375 109.957031,58.578125 C109.957031,48.03125 102.632812,39.6523438 86.578125,39.6523438 C78.1992188,39.6523438 72.3398438,41.8203125 68.4140625,44.4570312 L70.40625,23.9492188 L88.8632812,23.9492188 C95.6015625,23.9492188 103.511719,24.0664062 105.5625,24.5351562 C105.210938,20.0234375 105.035156,14.9257812 105.035156,4.37890625 L102.515625,4.37890625 Z" id="25" fill="url(#linearGradient-1)"></path>
                    <path d="M168.125,17.5078125 C168.125,14.8710938 167.792969,13.328125 166.894531,12.3125 C166.074219,11.375 164.746094,10.75 162.519531,10.75 C159.824219,10.75 157.34375,11.6484375 155.878906,14.6953125 C155.703125,13.6601562 155.371094,12.8984375 154.863281,12.3125 C154.042969,11.375 152.695312,10.75 150.488281,10.75 C147.851562,10.75 145.546875,11.8242188 144.296875,14.4804688 L144.296875,10.8671875 C142.617188,11.2578125 140.683594,11.4335938 138.457031,11.4335938 C137.65625,11.4335938 136.816406,11.375 135.976562,11.296875 L135.976562,12.1367188 C137.910156,12.1367188 138.535156,13.2695312 138.535156,15.671875 L138.535156,28.2890625 C138.535156,30.515625 137.832031,31.1601562 135.976562,31.1601562 L135.976562,32 C137.03125,31.9609375 139.433594,31.84375 141.484375,31.84375 C143.339844,31.84375 145.3125,31.9609375 146.210938,32 L146.210938,31.1601562 C144.785156,31.1601562 144.296875,30.515625 144.296875,28.2890625 L144.296875,17.1367188 C144.296875,14.5 146.035156,12.5078125 148.183594,12.5078125 C150,12.5078125 150.332031,13.8554688 150.332031,15.8476562 L150.332031,28.2890625 C150.332031,30.515625 149.804688,31.1601562 148.398438,31.1601562 L148.398438,32 C149.335938,31.9609375 151.40625,31.84375 153.359375,31.84375 C155.214844,31.84375 157.441406,31.9609375 158.398438,32 L158.398438,31.1601562 C156.679688,31.1601562 156.09375,30.515625 156.09375,28.2890625 L156.09375,17.5078125 L156.074219,16.6875 C156.386719,14.34375 158.027344,12.5078125 159.980469,12.5078125 C161.972656,12.5078125 162.363281,13.8554688 162.363281,15.8476562 L162.363281,28.2890625 C162.363281,30.515625 161.855469,31.1601562 160.449219,31.1601562 L160.449219,32 C161.386719,31.9609375 163.457031,31.84375 165.410156,31.84375 C167.363281,31.84375 169.667969,31.9609375 170.683594,32 L170.683594,31.1601562 C168.828125,31.1601562 168.125,30.515625 168.125,28.2890625 L168.125,17.5078125 Z M177.34375,0.984375 C175.097656,0.984375 173.691406,2.15625 173.691406,4.0703125 C173.691406,6.00390625 175.097656,7.17578125 177.34375,7.17578125 C179.550781,7.17578125 180.976562,6.00390625 180.976562,4.0703125 C180.976562,2.15625 179.550781,0.984375 177.34375,0.984375 Z M180.488281,10.8671875 C178.808594,11.2578125 176.875,11.4335938 174.648438,11.4335938 C173.847656,11.4335938 173.007812,11.375 172.167969,11.296875 L172.167969,12.1367188 C174.101562,12.1367188 174.726562,13.2695312 174.726562,15.671875 L174.726562,28.2890625 C174.726562,30.515625 174.023438,31.1601562 172.167969,31.1601562 L172.167969,32 C173.222656,31.9609375 175.625,31.84375 177.695312,31.84375 C179.785156,31.84375 182.03125,31.9609375 183.046875,32 L183.046875,31.1601562 C181.171875,31.1601562 180.488281,30.515625 180.488281,28.2890625 L180.488281,10.8671875 Z M192.910156,0.69140625 C191.25,1.08203125 189.296875,1.23828125 187.070312,1.23828125 C186.269531,1.23828125 185.429688,1.19921875 184.589844,1.12109375 L184.589844,1.9609375 C186.523438,1.9609375 187.148438,3.09375 187.148438,5.49609375 L187.148438,28.2890625 C187.148438,30.515625 186.464844,31.1601562 184.589844,31.1601562 L184.589844,32 C185.664062,31.9609375 188.046875,31.84375 190.136719,31.84375 C192.207031,31.84375 194.453125,31.9609375 195.46875,32 L195.46875,31.1601562 C193.613281,31.1601562 192.910156,30.515625 192.910156,28.2890625 L192.910156,0.69140625 Z M205.351562,0.69140625 C203.691406,1.08203125 201.738281,1.23828125 199.511719,1.23828125 C198.710938,1.23828125 197.871094,1.19921875 197.03125,1.12109375 L197.03125,1.9609375 C198.964844,1.9609375 199.589844,3.09375 199.589844,5.49609375 L199.589844,28.2890625 C199.589844,30.515625 198.90625,31.1601562 197.03125,31.1601562 L197.03125,32 C198.105469,31.9609375 200.488281,31.84375 202.578125,31.84375 C204.648438,31.84375 206.894531,31.9609375 207.910156,32 L207.910156,31.1601562 C206.054688,31.1601562 205.351562,30.515625 205.351562,28.2890625 L205.351562,0.69140625 Z M214.84375,0.984375 C212.597656,0.984375 211.191406,2.15625 211.191406,4.0703125 C211.191406,6.00390625 212.597656,7.17578125 214.84375,7.17578125 C217.050781,7.17578125 218.476562,6.00390625 218.476562,4.0703125 C218.476562,2.15625 217.050781,0.984375 214.84375,0.984375 Z M217.988281,10.8671875 C216.308594,11.2578125 214.375,11.4335938 212.148438,11.4335938 C211.347656,11.4335938 210.507812,11.375 209.667969,11.296875 L209.667969,12.1367188 C211.601562,12.1367188 212.226562,13.2695312 212.226562,15.671875 L212.226562,28.2890625 C212.226562,30.515625 211.523438,31.1601562 209.667969,31.1601562 L209.667969,32 C210.722656,31.9609375 213.125,31.84375 215.195312,31.84375 C217.285156,31.84375 219.53125,31.9609375 220.546875,32 L220.546875,31.1601562 C218.671875,31.1601562 217.988281,30.515625 217.988281,28.2890625 L217.988281,10.8671875 Z M232.597656,10.75 C226.855469,10.75 222.8125,13.7578125 222.8125,21.6679688 C222.8125,29.5976562 226.855469,32.5664062 232.597656,32.5664062 C238.359375,32.5664062 242.402344,29.5976562 242.402344,21.6679688 C242.402344,13.7578125 238.359375,10.75 232.597656,10.75 Z M232.597656,11.5507812 C234.785156,11.5507812 236.367188,14.5195312 236.367188,21.6679688 C236.367188,28.8359375 234.785156,31.765625 232.597656,31.765625 C230.429688,31.765625 228.847656,28.8359375 228.847656,21.6679688 C228.847656,14.5195312 230.429688,11.5507812 232.597656,11.5507812 Z M259.726562,10.75 C256.914062,10.75 254.53125,11.765625 253.203125,14.4804688 L253.203125,10.8671875 C251.523438,11.2578125 249.589844,11.4335938 247.363281,11.4335938 C246.5625,11.4335938 245.722656,11.375 244.882812,11.296875 L244.882812,12.1367188 C246.816406,12.1367188 247.441406,13.2695312 247.441406,15.671875 L247.441406,28.2890625 C247.441406,30.515625 246.738281,31.1601562 244.882812,31.1601562 L244.882812,32 C245.9375,31.9609375 248.339844,31.84375 250.390625,31.84375 C252.34375,31.84375 254.414062,31.9609375 255.351562,32 L255.351562,31.1601562 C253.769531,31.1601562 253.203125,30.515625 253.203125,28.2890625 L253.203125,17.1367188 C253.203125,14.5 254.921875,12.5078125 257.167969,12.5078125 C259.160156,12.5078125 259.628906,13.8554688 259.628906,15.8476562 L259.628906,28.2890625 C259.628906,30.515625 259.0625,31.1601562 257.480469,31.1601562 L257.480469,32 C258.457031,31.9609375 260.625,31.84375 262.675781,31.84375 C264.628906,31.84375 266.933594,31.9609375 267.949219,32 L267.949219,31.1601562 C266.09375,31.1601562 265.390625,30.515625 265.390625,28.2890625 L265.390625,17.5078125 C265.390625,14.7929688 265.019531,13.328125 264.140625,12.3125 C263.320312,11.375 262.011719,10.75 259.726562,10.75 Z M150.3125,50.75 C147.480469,50.75 145.214844,52.0976562 144.101562,54.6367188 L144.101562,50.8867188 C142.441406,51.296875 140.488281,51.453125 138.261719,51.453125 C137.460938,51.453125 136.621094,51.4140625 135.78125,51.3359375 L135.78125,52.1757812 C137.714844,52.1757812 138.339844,53.2890625 138.339844,55.6914062 L138.339844,75.671875 C138.339844,77.8007812 137.695312,78.40625 135.9375,78.40625 L135.9375,79.2460938 C136.933594,79.2070312 139.023438,79.0703125 140.976562,79.0703125 C143.691406,79.0703125 146.347656,79.2070312 147.695312,79.2460938 L147.695312,78.40625 C145.449219,78.40625 144.101562,77.7617188 144.101562,75.28125 L144.101562,71.2773438 C145.097656,72.1171875 146.5625,72.5664062 148.203125,72.5664062 C153.808594,72.5664062 157.460938,68.5039062 157.460938,60.7304688 C157.460938,54.0703125 154.375,50.75 150.3125,50.75 Z M146.640625,71.4726562 C145.566406,71.4726562 144.6875,71.0820312 144.101562,70.3984375 L144.101562,56.0039062 C144.589844,53.7382812 146.210938,52.46875 147.96875,52.46875 C150.058594,52.46875 151.425781,54.7148438 151.425781,61.5117188 C151.425781,67.6640625 150.195312,71.4726562 146.640625,71.4726562 Z M169.492188,50.75 C166.796875,50.75 164.84375,51.3164062 163.417969,52.1171875 C162.109375,52.8789062 161.171875,53.9921875 161.171875,55.4570312 C161.171875,57.2148438 162.265625,58.5429688 164.003906,58.5429688 C165.976562,58.5429688 167.265625,57.3320312 167.265625,55.671875 C167.265625,54.0507812 166.328125,53.015625 164.902344,52.5273438 C165.625,51.8242188 166.796875,51.5507812 167.753906,51.5507812 C170.117188,51.5507812 171.015625,53.0351562 171.015625,55.125 L171.015625,58.25 C171.015625,59.96875 168.710938,60.7304688 165.761719,61.84375 C162.050781,63.2109375 160.136719,64.8320312 160.136719,67.7226562 C160.136719,70.6328125 162.207031,72.2734375 165.195312,72.2734375 C167.441406,72.2734375 169.726562,71.2773438 171.09375,69.03125 C171.113281,70.75 172.011719,72.2734375 174.941406,72.2734375 C176.972656,72.2734375 178.300781,71.7851562 179.511719,70.8085938 L179.101562,70.125 C178.652344,70.4765625 178.203125,70.8085938 177.636719,70.8085938 C176.992188,70.8085938 176.777344,70.3203125 176.777344,69.03125 L176.777344,58.1523438 C176.777344,55.359375 176.523438,53.7578125 175.351562,52.546875 C174.0625,51.21875 172.070312,50.75 169.492188,50.75 Z M171.015625,68.09375 C170.175781,69.2851562 169.296875,69.7148438 168.320312,69.7148438 C166.894531,69.7148438 165.820312,68.8164062 165.820312,66.609375 C165.820312,64.2070312 167.128906,62.8984375 168.535156,61.8632812 C169.882812,61.0234375 170.644531,60.4960938 171.015625,59.890625 L171.015625,68.09375 Z M186.308594,66.8828125 C185.234375,66.8828125 184.667969,66.4726562 184.667969,65.5546875 C184.667969,64.5390625 185.605469,63.8945312 186.953125,63.09375 C187.988281,63.3671875 189.160156,63.484375 190.410156,63.484375 C195.332031,63.484375 199.023438,61.5117188 199.023438,57.1171875 C199.023438,53.8359375 196.992188,51.921875 193.925781,51.140625 C193.90625,50.9257812 193.90625,50.7109375 193.90625,50.4960938 C193.90625,50.3007812 193.90625,50.1054688 193.925781,49.9101562 C194.042969,49.03125 194.238281,48.3476562 194.511719,47.8789062 C195.019531,49.2851562 195.800781,50.125 197.5,50.125 C199.0625,50.125 200.234375,49.1484375 200.234375,47.8007812 C200.234375,46.296875 199.023438,45.359375 197.324219,45.359375 C194.941406,45.359375 193.789062,46.9609375 193.535156,49.0507812 C193.398438,49.6953125 193.359375,50.359375 193.398438,51.0234375 C192.480469,50.8476562 191.464844,50.75 190.410156,50.75 C185.488281,50.75 181.816406,52.703125 181.816406,57.1171875 C181.816406,60.125 183.535156,62 186.210938,62.8789062 C182.402344,64.6757812 181.113281,66.2382812 181.113281,68.5039062 C181.113281,71.6875 184.0625,72.2148438 185.585938,72.2148438 L186.523438,72.2148438 C184.394531,73.6796875 180.46875,73.5234375 180.46875,76.0625 C180.46875,77.9765625 183.300781,79.5195312 189.335938,79.5195312 C197.285156,79.5195312 200.917969,75.0273438 200.917969,71.1796875 C200.917969,67.9179688 198.417969,66.8828125 195.507812,66.8828125 L186.308594,66.8828125 Z M190.410156,51.4726562 C192.070312,51.4726562 193.085938,52.8398438 193.085938,57.1171875 C193.085938,61.3945312 192.070312,62.7617188 190.410156,62.7617188 C188.75,62.7617188 187.734375,61.3945312 187.734375,57.1171875 C187.734375,52.8398438 188.75,51.4726562 190.410156,51.4726562 Z M190.410156,78.8359375 C187.890625,78.8359375 185.917969,77.6640625 185.917969,75.3789062 C185.917969,74.5195312 186.347656,73.1132812 187.285156,72.2148438 L194.160156,72.2148438 C195.976562,72.2148438 196.464844,72.8007812 196.464844,73.875 C196.464844,77.0195312 193.632812,78.8359375 190.410156,78.8359375 Z M214.140625,69.265625 C211.601562,69.265625 208.925781,67.0976562 208.925781,61.53125 C208.925781,60.8867188 208.945312,60.2226562 209.003906,59.6367188 L220.195312,59.6367188 C220.195312,53.3671875 217.34375,50.75 212.675781,50.75 C206.992188,50.75 202.890625,54.4414062 202.890625,61.8632812 C202.890625,69.1679688 206.71875,72.5664062 212.109375,72.5664062 C216.542969,72.5664062 219.160156,69.34375 220.117188,66.3359375 L219.394531,66.0625 C217.773438,68.71875 215.742188,69.265625 214.140625,69.265625 Z M212.441406,51.609375 C214.394531,51.609375 215.234375,54.96875 215.15625,58.875 L208.886719,58.875 C209.21875,53.6992188 210.644531,51.609375 212.441406,51.609375 Z M248.125,51.453125 C247.070312,51.453125 245.507812,51.4140625 244.277344,51.296875 L244.277344,52.1367187 C246.074219,52.2539062 247.207031,53.25 247.207031,55.3203125 C247.207031,56.1796875 247.011719,57.234375 246.582031,58.5039062 L243.710938,66.453125 L239.121094,54.3046875 C238.984375,53.8945312 238.925781,53.5625 238.925781,53.2890625 C238.925781,52.1171875 240.078125,52.1367187 241.425781,52.1367187 L241.425781,51.296875 C239.824219,51.4335937 237.871094,51.5117187 236.230469,51.5117187 C234.003906,51.5117187 232.246094,51.4335937 230.546875,51.296875 L230.546875,52.1367187 C231.113281,52.1367187 232.03125,52.3320312 232.871094,54.3828125 L239.980469,72.078125 C240.429688,72.0390625 240.859375,72.0195312 241.289062,72.0195312 C241.71875,72.0195312 242.167969,72.0390625 242.597656,72.078125 L248.457031,55.5742187 C249.277344,53.1914062 250.195312,52.390625 251.191406,52.1367187 L251.191406,51.296875 C250.507812,51.4140625 249.199219,51.453125 248.125,51.453125 Z M257.382812,40.984375 C255.136719,40.984375 253.730469,42.15625 253.730469,44.0703125 C253.730469,46.0039062 255.136719,47.1757812 257.382812,47.1757812 C259.589844,47.1757812 261.015625,46.0039062 261.015625,44.0703125 C261.015625,42.15625 259.589844,40.984375 257.382812,40.984375 Z M260.527344,50.8671875 C258.847656,51.2578125 256.914062,51.4335938 254.6875,51.4335938 C253.886719,51.4335938 253.046875,51.375 252.207031,51.296875 L252.207031,52.1367188 C254.140625,52.1367188 254.765625,53.2695312 254.765625,55.671875 L254.765625,68.2890625 C254.765625,70.515625 254.0625,71.1601562 252.207031,71.1601562 L252.207031,72 C253.261719,71.9609375 255.664062,71.84375 257.734375,71.84375 C259.824219,71.84375 262.070312,71.9609375 263.085938,72 L263.085938,71.1601562 C261.210938,71.1601562 260.527344,70.515625 260.527344,68.2890625 L260.527344,50.8671875 Z M276.582031,69.265625 C274.042969,69.265625 271.367188,67.0976562 271.367188,61.53125 C271.367188,60.8867188 271.386719,60.2226562 271.445312,59.6367188 L282.636719,59.6367188 C282.636719,53.3671875 279.785156,50.75 275.117188,50.75 C269.433594,50.75 265.332031,54.4414062 265.332031,61.8632812 C265.332031,69.1679688 269.160156,72.5664062 274.550781,72.5664062 C278.984375,72.5664062 281.601562,69.34375 282.558594,66.3359375 L281.835938,66.0625 C280.214844,68.71875 278.183594,69.265625 276.582031,69.265625 Z M274.882812,51.609375 C276.835938,51.609375 277.675781,54.96875 277.597656,58.875 L271.328125,58.875 C271.660156,53.6992188 273.085938,51.609375 274.882812,51.609375 Z M312.460938,51.453125 C311.386719,51.453125 309.589844,51.4140625 308.359375,51.296875 L308.359375,52.1367188 C310.292969,52.2929688 311.484375,53.2890625 311.484375,55.4960938 C311.484375,56.3164062 311.328125,57.3125 310.957031,58.5039062 L308.417969,66.53125 L303.222656,51.2578125 C302.714844,51.296875 302.1875,51.3164062 301.679688,51.3164062 C301.210938,51.3164062 300.761719,51.296875 300.3125,51.2578125 L300.292969,51.2578125 L295.957031,65.7304688 L292.34375,54.4023438 C292.207031,53.9726562 292.128906,53.6015625 292.128906,53.328125 C292.128906,52.1953125 293.183594,52.1367188 294.648438,52.1367188 L294.648438,51.296875 C293.046875,51.4335938 291.074219,51.5507812 289.433594,51.5507812 C287.207031,51.5507812 285.449219,51.4726562 283.75,51.296875 L283.75,52.1367188 C284.316406,52.1367188 285.292969,52.2734375 286.074219,54.3828125 L292.402344,72.078125 C292.832031,72.0390625 293.261719,72.0195312 293.710938,72.0195312 C294.140625,72.0195312 294.570312,72.0390625 295,72.078125 L299.433594,57.234375 L304.863281,72.078125 C305.292969,72.0390625 305.722656,72.0195312 306.152344,72.0195312 C306.582031,72.0195312 307.03125,72.0390625 307.460938,72.078125 L312.773438,55.5742188 C313.554688,53.1523438 314.511719,52.390625 315.527344,52.1367188 L315.527344,51.296875 C314.824219,51.4140625 313.535156,51.453125 312.460938,51.453125 Z M324.335938,50.75 C320.703125,50.75 317.460938,52.703125 317.460938,56.2578125 C317.460938,59.4804688 319.863281,61.296875 322.480469,63.3476562 C324.785156,65.1445312 326.523438,66.453125 326.523438,68.796875 C326.523438,70.8476562 325.097656,71.6484375 323.710938,71.6484375 C320.351562,71.6484375 318.808594,68.6210938 318.320312,64.2851562 L317.460938,64.2851562 C317.460938,68.328125 317.421875,70.5546875 317.304688,72.2734375 L318.144531,72.2734375 C318.339844,71.4140625 318.671875,70.8476562 319.121094,70.8476562 C319.179688,70.8476562 319.238281,70.8671875 319.296875,70.8867188 C319.863281,71.0625 320.429688,71.3554688 321.152344,71.7265625 C322.050781,72.2148438 323.300781,72.5664062 324.902344,72.5664062 C329.023438,72.5664062 332.480469,70.28125 332.480469,66.6289062 C332.480469,63.4648438 330.371094,61.7460938 327.695312,59.7734375 C325.234375,57.9375 322.773438,56.609375 322.773438,54.2070312 C322.773438,52.5664062 323.945312,51.6289062 325.488281,51.6289062 C328.90625,51.6289062 330.214844,54.8710938 330.625,57.8203125 L331.464844,57.8203125 C331.464844,54.265625 331.503906,52.3125 331.640625,50.7890625 L330.78125,50.7890625 C330.644531,51.7851562 330.3125,52.2539062 329.84375,52.2539062 C329.628906,52.2539062 329.394531,52.15625 329.121094,51.9804688 C328.339844,51.4726562 326.582031,50.75 324.335938,50.75 Z" id="million-page-views-copy" fill="#000000"></path>
                </g>
            </g>
        </g>
    </g>
</svg>