<?xml version="1.0" encoding="utf-8"?>
<!-- Generator: Adobe Illustrator 21.0.0, SVG Export Plug-In . SVG Version: 6.00 Build 0)  -->
<svg version="1.1" id="Layer_1" xmlns="http://www.w3.org/2000/svg" xmlns:xlink="http://www.w3.org/1999/xlink" x="0px" y="0px"
	 viewBox="0 0 490 230" style="enable-background:new 0 0 490 230;" xml:space="preserve">
<style type="text/css">
	.st0{fill:#FFFFFF;}
	.st1{fill:url(#_x33_7_1_);}
	.st2{fill:url(#SVGID_1_);}
</style>
<title>Group 28</title>
<desc>Created with Sketch.</desc>
<rect id="Rectangle-7-Copy-2" class="st0" width="490" height="230"/>
<g>
	<path id="million-fans" d="M278.4,80.5c0-2.6-0.3-4.2-1.2-5.2c-0.8-0.9-2.1-1.6-4.4-1.6c-2.7,0-5.2,0.9-6.6,3.9
		c-0.2-1-0.5-1.8-1-2.4c-0.8-0.9-2.2-1.6-4.4-1.6c-2.6,0-4.9,1.1-6.2,3.7v-3.6c-1.7,0.4-3.6,0.6-5.8,0.6c-0.8,0-1.6-0.1-2.5-0.1v0.8
		c1.9,0,2.6,1.1,2.6,3.5v12.6c0,2.2-0.7,2.9-2.6,2.9V95c1.1,0,3.5-0.2,5.5-0.2c1.9,0,3.8,0.1,4.7,0.2v-0.8c-1.4,0-1.9-0.6-1.9-2.9
		V80.1c0-2.6,1.7-4.6,3.9-4.6c1.8,0,2.1,1.3,2.1,3.3v12.4c0,2.2-0.5,2.9-1.9,2.9V95c0.9,0,3-0.2,5-0.2c1.9,0,4.1,0.1,5,0.2v-0.8
		c-1.7,0-2.3-0.6-2.3-2.9V80.5l0-0.8c0.3-2.3,2-4.2,3.9-4.2c2,0,2.4,1.3,2.4,3.3v12.4c0,2.2-0.5,2.9-1.9,2.9V95c0.9,0,3-0.2,5-0.2
		S280,95,281,95v-0.8c-1.9,0-2.6-0.6-2.6-2.9V80.5z M287.7,64c-2.2,0-3.7,1.2-3.7,3.1c0,1.9,1.4,3.1,3.7,3.1c2.2,0,3.6-1.2,3.6-3.1
		C291.3,65.2,289.9,64,287.7,64z M290.8,73.9c-1.7,0.4-3.6,0.6-5.8,0.6c-0.8,0-1.6-0.1-2.5-0.1v0.8c1.9,0,2.6,1.1,2.6,3.5v12.6
		c0,2.2-0.7,2.9-2.6,2.9V95c1.1,0,3.5-0.2,5.5-0.2c2.1,0,4.3,0.1,5.4,0.2v-0.8c-1.9,0-2.6-0.6-2.6-2.9V73.9z M303.2,63.7
		c-1.7,0.4-3.6,0.5-5.8,0.5c-0.8,0-1.6,0-2.5-0.1V65c1.9,0,2.6,1.1,2.6,3.5v22.8c0,2.2-0.7,2.9-2.6,2.9V95c1.1,0,3.5-0.2,5.5-0.2
		c2.1,0,4.3,0.1,5.3,0.2v-0.8c-1.9,0-2.6-0.6-2.6-2.9V63.7z M315.7,63.7c-1.7,0.4-3.6,0.5-5.8,0.5c-0.8,0-1.6,0-2.5-0.1V65
		c1.9,0,2.6,1.1,2.6,3.5v22.8c0,2.2-0.7,2.9-2.6,2.9V95c1.1,0,3.5-0.2,5.5-0.2c2.1,0,4.3,0.1,5.3,0.2v-0.8c-1.9,0-2.6-0.6-2.6-2.9
		V63.7z M325.2,64c-2.2,0-3.7,1.2-3.7,3.1c0,1.9,1.4,3.1,3.7,3.1c2.2,0,3.6-1.2,3.6-3.1C328.8,65.2,327.4,64,325.2,64z M328.3,73.9
		c-1.7,0.4-3.6,0.6-5.8,0.6c-0.8,0-1.6-0.1-2.5-0.1v0.8c1.9,0,2.6,1.1,2.6,3.5v12.6c0,2.2-0.7,2.9-2.6,2.9V95c1.1,0,3.5-0.2,5.5-0.2
		c2.1,0,4.3,0.1,5.4,0.2v-0.8c-1.9,0-2.6-0.6-2.6-2.9V73.9z M342.9,73.8c-5.7,0-9.8,3-9.8,10.9c0,7.9,4,10.9,9.8,10.9
		c5.8,0,9.8-3,9.8-10.9C352.7,76.8,348.7,73.8,342.9,73.8z M342.9,74.6c2.2,0,3.8,3,3.8,10.1c0,7.2-1.6,10.1-3.8,10.1
		c-2.2,0-3.8-2.9-3.8-10.1C339.2,77.5,340.7,74.6,342.9,74.6z M370,73.8c-2.8,0-5.2,1-6.5,3.7v-3.6c-1.7,0.4-3.6,0.6-5.8,0.6
		c-0.8,0-1.6-0.1-2.5-0.1v0.8c1.9,0,2.6,1.1,2.6,3.5v12.6c0,2.2-0.7,2.9-2.6,2.9V95c1.1,0,3.5-0.2,5.5-0.2c2,0,4,0.1,5,0.2v-0.8
		c-1.6,0-2.1-0.6-2.1-2.9V80.1c0-2.6,1.7-4.6,4-4.6c2,0,2.5,1.3,2.5,3.3v12.4c0,2.2-0.6,2.9-2.1,2.9V95c1,0,3.1-0.2,5.2-0.2
		c2,0,4.3,0.1,5.3,0.2v-0.8c-1.9,0-2.6-0.6-2.6-2.9V80.5c0-2.7-0.4-4.2-1.2-5.2C373.6,74.4,372.3,73.8,370,73.8z M256.8,103.7
		c-2.2,0-4.3,0.9-5.5,2c-1.9,1.8-2.5,3.9-2.5,8.6h-2.7v0.8h2.7v16.2c0,2.2-0.7,2.9-2.6,2.9v0.8c1,0,3.2-0.2,5.2-0.2
		c2.8,0,5.5,0.1,6.9,0.2v-0.8c-2.4,0-3.8-0.7-3.8-3.3v-15.7h4.3v-0.8h-4.3v-3.6c0-3.1,0.2-4.4,0.7-5.2c0.4-0.6,1.1-1.1,2.2-1.1
		c0.8,0,1.3,0.3,1.4,0.6c-1.5,0.4-2.3,1.6-2.3,3c0,1.8,1.2,2.9,3,2.9c1.7,0,2.8-1.3,2.8-2.8c0-1.3-0.6-2.4-1.4-3
		C260,104.2,258.7,103.7,256.8,103.7z M269.9,113.8c-2.7,0-4.6,0.6-6.1,1.4c-1.3,0.8-2.2,1.9-2.2,3.3c0,1.8,1.1,3.1,2.8,3.1
		c2,0,3.3-1.2,3.3-2.9c0-1.6-0.9-2.7-2.4-3.1c0.7-0.7,1.9-1,2.9-1c2.4,0,3.3,1.5,3.3,3.6v3.1c0,1.7-2.3,2.5-5.3,3.6
		c-3.7,1.4-5.6,3-5.6,5.9c0,2.9,2.1,4.6,5.1,4.6c2.2,0,4.5-1,5.9-3.2c0,1.7,0.9,3.2,3.8,3.2c2,0,3.4-0.5,4.6-1.5l-0.4-0.7
		c-0.4,0.4-0.9,0.7-1.5,0.7c-0.6,0-0.9-0.5-0.9-1.8v-10.9c0-2.8-0.3-4.4-1.4-5.6C274.4,114.2,272.5,113.8,269.9,113.8z M271.4,131.1
		c-0.8,1.2-1.7,1.6-2.7,1.6c-1.4,0-2.5-0.9-2.5-3.1c0-2.4,1.3-3.7,2.7-4.7c1.3-0.8,2.1-1.4,2.5-2V131.1z M295.9,113.8
		c-2.8,0-5.2,1-6.5,3.7v-3.6c-1.7,0.4-3.6,0.6-5.8,0.6c-0.8,0-1.6-0.1-2.5-0.1v0.8c1.9,0,2.6,1.1,2.6,3.5v12.6
		c0,2.2-0.7,2.9-2.6,2.9v0.8c1.1,0,3.5-0.2,5.5-0.2c2,0,4,0.1,5,0.2v-0.8c-1.6,0-2.1-0.6-2.1-2.9v-11.2c0-2.6,1.7-4.6,4-4.6
		c2,0,2.5,1.3,2.5,3.3v12.4c0,2.2-0.6,2.9-2.1,2.9v0.8c1,0,3.1-0.2,5.2-0.2c2,0,4.3,0.1,5.3,0.2v-0.8c-1.9,0-2.6-0.6-2.6-2.9v-10.8
		c0-2.7-0.4-4.2-1.2-5.2C299.5,114.4,298.2,113.8,295.9,113.8z M313.5,113.8c-3.6,0-6.9,2-6.9,5.5c0,3.2,2.4,5,5,7.1
		c2.3,1.8,4,3.1,4,5.4c0,2.1-1.4,2.9-2.8,2.9c-3.4,0-4.9-3-5.4-7.4h-0.9c0,4,0,6.3-0.2,8h0.8c0.2-0.9,0.5-1.4,1-1.4
		c0.1,0,0.1,0,0.2,0c0.6,0.2,1.1,0.5,1.9,0.8c0.9,0.5,2.1,0.8,3.8,0.8c4.1,0,7.6-2.3,7.6-5.9c0-3.2-2.1-4.9-4.8-6.9
		c-2.5-1.8-4.9-3.2-4.9-5.6c0-1.6,1.2-2.6,2.7-2.6c3.4,0,4.7,3.2,5.1,6.2h0.8c0-3.6,0-5.5,0.2-7h-0.9c-0.1,1-0.5,1.5-0.9,1.5
		c-0.2,0-0.4-0.1-0.7-0.3C317.5,114.5,315.7,113.8,313.5,113.8z"/>
	<path id="across-platforms" d="M251.6,149.2c-1.6,0-2.8,0.3-3.6,0.8c-0.8,0.5-1.3,1.1-1.3,2c0,1.1,0.7,1.9,1.7,1.9
		c1.2,0,2-0.7,2-1.7c0-1-0.6-1.6-1.4-1.9c0.4-0.4,1.1-0.6,1.7-0.6c1.4,0,2,0.9,2,2.1v1.9c0,1-1.4,1.5-3.2,2.2
		c-2.2,0.8-3.4,1.8-3.4,3.5c0,1.7,1.2,2.7,3,2.7c1.3,0,2.7-0.6,3.5-1.9c0,1,0.6,1.9,2.3,1.9c1.2,0,2-0.3,2.7-0.9l-0.2-0.4
		c-0.3,0.2-0.5,0.4-0.9,0.4c-0.4,0-0.5-0.3-0.5-1.1v-6.5c0-1.7-0.2-2.6-0.9-3.4C254.4,149.5,253.2,149.2,251.6,149.2z M252.5,159.7
		c-0.5,0.7-1,1-1.6,1c-0.9,0-1.5-0.5-1.5-1.9c0-1.4,0.8-2.2,1.6-2.8c0.8-0.5,1.3-0.8,1.5-1.2V159.7z M264.5,149.2
		c-3.4,0-5.9,2.3-5.9,6.6c0,4.5,2.5,6.5,5.6,6.5c2.7,0,4.2-2,4.8-3.8l-0.4-0.2c-1,1.6-2.2,2-3.1,2c-1.6,0-3.2-1.1-3.2-4.8
		c0-3.3,1-5.7,3-5.7c0.6,0,1.2,0.2,1.4,0.6c-0.9,0.2-1.6,1-1.6,2c0,1.1,0.7,1.8,1.9,1.8c1.1,0,1.9-0.8,1.9-1.9
		c0-0.9-0.5-1.7-1.3-2.2C266.9,149.6,265.8,149.2,264.5,149.2z M278.5,149.2c-1.5,0-2.7,1-3.2,2.3v-2.2c-1,0.2-2.2,0.3-3.5,0.3
		c-0.5,0-1,0-1.5-0.1v0.5c1.2,0,1.5,0.7,1.5,2.1v7.6c0,1.3-0.4,1.7-1.5,1.7v0.5c0.7,0,2.1-0.1,3.4-0.1c1.5,0,3.1,0.1,3.8,0.1v-0.5
		c-1.5,0-2.2-0.4-2.2-2v-6.4c0-1.3,0.9-2.9,2.2-3.1c0.1,0,0.2-0.1,0.3-0.1c0.1,0,0.2,0,0.3,0.1c-0.6,0.4-1.1,1-1.1,1.9
		c0,0.9,0.7,1.5,1.8,1.5s1.9-0.8,1.9-2C280.7,150.4,280,149.2,278.5,149.2z M287.6,149.2c-3.4,0-5.9,1.8-5.9,6.6
		c0,4.8,2.4,6.5,5.9,6.5c3.5,0,5.9-1.8,5.9-6.5C293.5,151.1,291.1,149.2,287.6,149.2z M287.6,149.7c1.3,0,2.3,1.8,2.3,6.1
		c0,4.3-0.9,6.1-2.3,6.1c-1.3,0-2.2-1.8-2.2-6.1C285.4,151.5,286.3,149.7,287.6,149.7z M299.7,149.2c-2.2,0-4.1,1.2-4.1,3.3
		c0,1.9,1.4,3,3,4.3c1.4,1.1,2.4,1.9,2.4,3.3c0,1.2-0.9,1.7-1.7,1.7c-2,0-2.9-1.8-3.2-4.4h-0.5c0,2.4,0,3.8-0.1,4.8h0.5
		c0.1-0.5,0.3-0.9,0.6-0.9c0,0,0.1,0,0.1,0c0.3,0.1,0.7,0.3,1.1,0.5c0.5,0.3,1.3,0.5,2.2,0.5c2.5,0,4.5-1.4,4.5-3.6
		c0-1.9-1.3-2.9-2.9-4.1c-1.5-1.1-3-1.9-3-3.3c0-1,0.7-1.5,1.6-1.5c2.1,0,2.8,1.9,3.1,3.7h0.5c0-2.1,0-3.3,0.1-4.2h-0.5
		c-0.1,0.6-0.3,0.9-0.6,0.9c-0.1,0-0.3-0.1-0.4-0.2C302.1,149.7,301.1,149.2,299.7,149.2z M310.8,149.2c-2.2,0-4.1,1.2-4.1,3.3
		c0,1.9,1.4,3,3,4.3c1.4,1.1,2.4,1.9,2.4,3.3c0,1.2-0.9,1.7-1.7,1.7c-2,0-2.9-1.8-3.2-4.4h-0.5c0,2.4,0,3.8-0.1,4.8h0.5
		c0.1-0.5,0.3-0.9,0.6-0.9c0,0,0.1,0,0.1,0c0.3,0.1,0.7,0.3,1.1,0.5c0.5,0.3,1.3,0.5,2.2,0.5c2.5,0,4.5-1.4,4.5-3.6
		c0-1.9-1.3-2.9-2.9-4.1c-1.5-1.1-3-1.9-3-3.3c0-1,0.7-1.5,1.6-1.5c2.1,0,2.8,1.9,3.1,3.7h0.5c0-2.1,0-3.3,0.1-4.2h-0.5
		c-0.1,0.6-0.3,0.9-0.6,0.9c-0.1,0-0.3-0.1-0.4-0.2C313.2,149.7,312.1,149.2,310.8,149.2z M331.3,149.2c-1.7,0-3.1,0.8-3.7,2.3v-2.2
		c-1,0.2-2.2,0.3-3.5,0.3c-0.5,0-1,0-1.5-0.1v0.5c1.2,0,1.5,0.7,1.5,2.1v12c0,1.3-0.4,1.6-1.4,1.6v0.5c0.6,0,1.9-0.1,3-0.1
		c1.6,0,3.2,0.1,4,0.1v-0.5c-1.3,0-2.2-0.4-2.2-1.9v-2.4c0.6,0.5,1.5,0.8,2.5,0.8c3.4,0,5.6-2.4,5.6-7.1
		C335.6,151.2,333.8,149.2,331.3,149.2z M329.1,161.7c-0.6,0-1.2-0.2-1.5-0.6v-8.6c0.3-1.4,1.3-2.1,2.3-2.1c1.3,0,2.1,1.3,2.1,5.4
		C332,159.4,331.3,161.7,329.1,161.7z M342,143.2c-1,0.2-2.2,0.3-3.5,0.3c-0.5,0-1,0-1.5-0.1v0.5c1.2,0,1.5,0.7,1.5,2.1v13.7
		c0,1.3-0.4,1.7-1.5,1.7v0.5c0.6,0,2.1-0.1,3.3-0.1c1.2,0,2.6,0.1,3.2,0.1v-0.5c-1.1,0-1.5-0.4-1.5-1.7V143.2z M350.3,149.2
		c-1.6,0-2.8,0.3-3.6,0.8c-0.8,0.5-1.3,1.1-1.3,2c0,1.1,0.7,1.9,1.7,1.9c1.2,0,2-0.7,2-1.7c0-1-0.6-1.6-1.4-1.9
		c0.4-0.4,1.1-0.6,1.7-0.6c1.4,0,2,0.9,2,2.1v1.9c0,1-1.4,1.5-3.2,2.2c-2.2,0.8-3.4,1.8-3.4,3.5c0,1.7,1.2,2.7,3,2.7
		c1.3,0,2.7-0.6,3.5-1.9c0,1,0.6,1.9,2.3,1.9c1.2,0,2-0.3,2.7-0.9l-0.2-0.4c-0.3,0.2-0.5,0.4-0.9,0.4c-0.4,0-0.5-0.3-0.5-1.1v-6.5
		c0-1.7-0.2-2.6-0.9-3.4C353.1,149.5,351.9,149.2,350.3,149.2z M351.2,159.7c-0.5,0.7-1,1-1.6,1c-0.9,0-1.5-0.5-1.5-1.9
		c0-1.4,0.8-2.2,1.6-2.8c0.8-0.5,1.3-0.8,1.5-1.2V159.7z M361.9,149.6v-3.9c-1,0.5-2.1,0.8-3.5,0.8v3.2h-2v0.5h2v8.1
		c0,1.7,0.2,2.6,0.9,3.4c0.5,0.5,1.3,0.8,2.4,0.8c1.8,0,2.8-1,3.3-2.5l-0.4-0.2c-0.5,1.1-1.1,1.4-1.6,1.4c-0.7,0-1.1-0.4-1.1-1.3
		v-9.7h2.8v-0.5H361.9z M371.8,143.2c-1.3,0-2.6,0.5-3.3,1.2c-1.1,1.1-1.5,2.3-1.5,5.2h-1.6v0.5h1.6v9.7c0,1.3-0.4,1.7-1.5,1.7v0.5
		c0.6,0,1.9-0.1,3.1-0.1c1.7,0,3.3,0.1,4.1,0.1v-0.5c-1.4,0-2.3-0.4-2.3-2v-9.4h2.6v-0.5h-2.6v-2.2c0-1.9,0.1-2.6,0.4-3.1
		c0.3-0.4,0.7-0.6,1.3-0.6c0.5,0,0.8,0.2,0.9,0.3c-0.9,0.3-1.4,1-1.4,1.8c0,1.1,0.8,1.7,1.8,1.7c1,0,1.7-0.8,1.7-1.7
		c0-0.8-0.4-1.4-0.8-1.8C373.7,143.5,372.9,143.2,371.8,143.2z M380.1,149.2c-3.4,0-5.9,1.8-5.9,6.6c0,4.8,2.4,6.5,5.9,6.5
		c3.5,0,5.9-1.8,5.9-6.5C386,151.1,383.5,149.2,380.1,149.2z M380.1,149.7c1.3,0,2.3,1.8,2.3,6.1c0,4.3-0.9,6.1-2.3,6.1
		c-1.3,0-2.2-1.8-2.2-6.1C377.8,151.5,378.8,149.7,380.1,149.7z M395.7,149.2c-1.5,0-2.7,1-3.2,2.3v-2.2c-1,0.2-2.2,0.3-3.5,0.3
		c-0.5,0-1,0-1.5-0.1v0.5c1.2,0,1.5,0.7,1.5,2.1v7.6c0,1.3-0.4,1.7-1.5,1.7v0.5c0.7,0,2.1-0.1,3.4-0.1c1.5,0,3.1,0.1,3.8,0.1v-0.5
		c-1.5,0-2.2-0.4-2.2-2v-6.4c0-1.3,0.9-2.9,2.2-3.1c0.1,0,0.2-0.1,0.3-0.1c0.1,0,0.2,0,0.3,0.1c-0.6,0.4-1.1,1-1.1,1.9
		c0,0.9,0.7,1.5,1.8,1.5s1.9-0.8,1.9-2C397.9,150.4,397.2,149.2,395.7,149.2z M417.9,153.3c0-1.6-0.2-2.5-0.7-3.1
		c-0.5-0.6-1.3-0.9-2.6-0.9c-1.6,0-3.1,0.5-4,2.4c-0.1-0.6-0.3-1.1-0.6-1.4c-0.5-0.6-1.3-0.9-2.6-0.9c-1.6,0-3,0.6-3.7,2.2v-2.2
		c-1,0.2-2.2,0.3-3.5,0.3c-0.5,0-1,0-1.5-0.1v0.5c1.2,0,1.5,0.7,1.5,2.1v7.6c0,1.3-0.4,1.7-1.5,1.7v0.5c0.6,0,2.1-0.1,3.3-0.1
		c1.1,0,2.3,0.1,2.8,0.1v-0.5c-0.9,0-1.1-0.4-1.1-1.7v-6.7c0-1.6,1-2.8,2.3-2.8c1.1,0,1.3,0.8,1.3,2v7.5c0,1.3-0.3,1.7-1.2,1.7v0.5
		c0.6,0,1.8-0.1,3-0.1c1.1,0,2.4,0.1,3,0.1v-0.5c-1,0-1.4-0.4-1.4-1.7v-6.5l0-0.5c0.2-1.4,1.2-2.5,2.3-2.5c1.2,0,1.4,0.8,1.4,2v7.5
		c0,1.3-0.3,1.7-1.1,1.7v0.5c0.6,0,1.8-0.1,3-0.1s2.6,0.1,3.2,0.1v-0.5c-1.1,0-1.5-0.4-1.5-1.7V153.3z M425.1,149.2
		c-2.2,0-4.1,1.2-4.1,3.3c0,1.9,1.4,3,3,4.3c1.4,1.1,2.4,1.9,2.4,3.3c0,1.2-0.9,1.7-1.7,1.7c-2,0-2.9-1.8-3.2-4.4H421
		c0,2.4,0,3.8-0.1,4.8h0.5c0.1-0.5,0.3-0.9,0.6-0.9c0,0,0.1,0,0.1,0c0.3,0.1,0.7,0.3,1.1,0.5c0.5,0.3,1.3,0.5,2.2,0.5
		c2.5,0,4.5-1.4,4.5-3.6c0-1.9-1.3-2.9-2.9-4.1c-1.5-1.1-3-1.9-3-3.3c0-1,0.7-1.5,1.6-1.5c2.1,0,2.8,1.9,3.1,3.7h0.5
		c0-2.1,0-3.3,0.1-4.2H429c-0.1,0.6-0.3,0.9-0.6,0.9c-0.1,0-0.3-0.1-0.4-0.2C427.5,149.7,426.4,149.2,425.1,149.2z"/>
</g>
<g>
	
		<linearGradient id="_x33_7_1_" gradientUnits="userSpaceOnUse" x1="65.1064" y1="199.3089" x2="65.851" y2="198.5716" gradientTransform="matrix(109.5703 0 0 -81.8555 -6972.5547 16392.4883)">
		<stop  offset="0" style="stop-color:#FF9703"/>
		<stop  offset="1" style="stop-color:#D518B6"/>
	</linearGradient>
	<path id="_x33_7" class="st1" d="M225.9,74h-33.9c-7.2,0-15.7-0.1-17.9-0.6c0.4,4.6,0.5,10,0.5,20.6h2.5c0.6-4.1,1.5-5.4,8.1-5.4
		H217c-11.2,15.7-29.2,34.9-29.2,54.6c0,6.2,2.8,10.5,8.7,10.5c6,0,8.8-4.2,8.8-8.8c0-2.3-0.6-8.1-0.6-9.7
		c-0.1-25.8,14.7-44.3,21.2-58.8V74z"/>
	<g>
		<linearGradient id="SVGID_1_" gradientUnits="userSpaceOnUse" x1="119.439" y1="78.9807" x2="155.302" y2="141.0972">
			<stop  offset="0" style="stop-color:#FF9703"/>
			<stop  offset="0.271" style="stop-color:#F57730"/>
			<stop  offset="0.882" style="stop-color:#DA28A0"/>
			<stop  offset="1" style="stop-color:#D518B6"/>
		</linearGradient>
		<path class="st2" d="M140.7,72.5c4,0,7.5,0.6,10.5,1.8c2.9,1.2,5.2,2.9,6.8,5.1s2.4,4.9,2.4,8.1c0,4.6-1.7,8.6-5,12.1
			c-3.3,3.5-8.1,7.4-14.2,11.7s-10.3,7.6-12.3,9.7h25.4c2.1,0,3.7-0.2,4.8-0.5c1-0.3,1.8-0.8,2.2-1.6c0.4-0.7,0.7-1.8,0.9-3.2h2.5
			c0,9.3,0.2,15.9,0.5,19.9c-1.8-0.4-7.6-0.6-17.5-0.6h-34.2v-2.2c1.1-1.1,4.5-4.3,10.1-9.4c5.6-5.1,10.1-10.3,13.5-15.6
			c3.3-5.3,5-10.7,5-16.3c0-8-3.7-12-11-12c-3.3,0-6.2,0.8-8.8,2.3c-2.5,1.5-4.9,3.8-7,6.8l-2-1.1C118.9,77.4,128.1,72.5,140.7,72.5
			z"/>
	</g>
</g>
</svg>
