<?xml version="1.0" encoding="UTF-8" standalone="no"?>
<svg width="322px" height="104px" viewBox="0 0 322 104" version="1.1" xmlns="http://www.w3.org/2000/svg" xmlns:xlink="http://www.w3.org/1999/xlink">
    <!-- Generator: Sketch 41.2 (35397) - http://www.bohemiancoding.com/sketch -->
    <title>Group 23</title>
    <desc>Created with Sketch.</desc>
    <defs>
        <linearGradient x1="2.99641257%" y1="2.96703601%" x2="101.999998%" y2="100.999999%" id="linearGradient-1">
            <stop stop-color="#FF9703" offset="0%"></stop>
            <stop stop-color="#D518B6" offset="100%"></stop>
        </linearGradient>
    </defs>
    <g id="diwanee-corp-" stroke="none" stroke-width="1" fill="none" fill-rule="evenodd">
        <g id="Desktop-HD-Copy" transform="translate(-578.000000, -5407.000000)">
            <g id="Group-23" transform="translate(578.000000, 5407.000000)">
                <path d="M26.53125,9.25 C12.5859375,9.25 5.61328125,16.4570312 1.3359375,24.25 L3.4453125,25.3632812 C7.1953125,19.1523438 12.8203125,15.9296875 19.1484375,15.9296875 C25.7109375,15.9296875 29.8125,19.2695312 29.8125,26.5351562 C29.8125,32.1601562 27.2929688,37.9023438 20.5546875,42.5898438 C18.9726562,42.4726562 17.6835938,42.1796875 16.3359375,42.1796875 C14.2851563,42.1796875 12.5273438,42.9414062 12.5273438,44.7578125 C12.5273438,46.046875 13.3476562,46.515625 14.6953125,46.515625 C16.5703125,46.515625 18.5039062,45.6367188 20.90625,44.5820312 C28.6992188,45.1679688 33.5039062,51.90625 33.5039062,61.2226562 C33.5039062,78.9765625 15.515625,88.234375 0.515625,88.7617188 L0.515625,91.1054688 C24.1875,91.1054688 51.375,79.5625 51.375,61.1640625 C51.375,49.328125 40.0664062,42.8242188 24.890625,42.8242188 C24.1875,42.8242188 23.484375,42.8828125 22.7226562,42.8828125 C37.7226562,39.953125 47.0390625,32.1015625 47.0390625,23.078125 C47.0390625,14.40625 38.3085938,9.25 26.53125,9.25 Z M110.085938,11.0078125 L76.21875,11.0078125 C69.0117188,11.0078125 60.515625,10.890625 58.3476562,10.421875 C58.6992188,14.9921875 58.8164062,20.3828125 58.8164062,31.046875 L61.2773438,31.046875 C61.921875,26.9453125 62.7421875,25.65625 69.3632812,25.65625 L101.179688,25.65625 C89.9882812,41.359375 72,60.5195312 72,80.2070312 C72,86.359375 74.7539062,90.7539062 80.671875,90.7539062 C86.6484375,90.7539062 89.5195312,86.5351562 89.5195312,81.9648438 C89.5195312,79.6796875 88.9335938,73.8203125 88.9335938,72.296875 C88.875,46.4570312 103.640625,28 110.085938,13.5273438 L110.085938,11.0078125 Z" id="37" fill="url(#linearGradient-1)"></path>
                <path d="M170.125,17.5078125 C170.125,14.8710938 169.792969,13.328125 168.894531,12.3125 C168.074219,11.375 166.746094,10.75 164.519531,10.75 C161.824219,10.75 159.34375,11.6484375 157.878906,14.6953125 C157.703125,13.6601562 157.371094,12.8984375 156.863281,12.3125 C156.042969,11.375 154.695312,10.75 152.488281,10.75 C149.851562,10.75 147.546875,11.8242188 146.296875,14.4804688 L146.296875,10.8671875 C144.617188,11.2578125 142.683594,11.4335938 140.457031,11.4335938 C139.65625,11.4335938 138.816406,11.375 137.976562,11.296875 L137.976562,12.1367188 C139.910156,12.1367188 140.535156,13.2695312 140.535156,15.671875 L140.535156,28.2890625 C140.535156,30.515625 139.832031,31.1601562 137.976562,31.1601562 L137.976562,32 C139.03125,31.9609375 141.433594,31.84375 143.484375,31.84375 C145.339844,31.84375 147.3125,31.9609375 148.210938,32 L148.210938,31.1601562 C146.785156,31.1601562 146.296875,30.515625 146.296875,28.2890625 L146.296875,17.1367188 C146.296875,14.5 148.035156,12.5078125 150.183594,12.5078125 C152,12.5078125 152.332031,13.8554688 152.332031,15.8476562 L152.332031,28.2890625 C152.332031,30.515625 151.804688,31.1601562 150.398438,31.1601562 L150.398438,32 C151.335938,31.9609375 153.40625,31.84375 155.359375,31.84375 C157.214844,31.84375 159.441406,31.9609375 160.398438,32 L160.398438,31.1601562 C158.679688,31.1601562 158.09375,30.515625 158.09375,28.2890625 L158.09375,17.5078125 L158.074219,16.6875 C158.386719,14.34375 160.027344,12.5078125 161.980469,12.5078125 C163.972656,12.5078125 164.363281,13.8554688 164.363281,15.8476562 L164.363281,28.2890625 C164.363281,30.515625 163.855469,31.1601562 162.449219,31.1601562 L162.449219,32 C163.386719,31.9609375 165.457031,31.84375 167.410156,31.84375 C169.363281,31.84375 171.667969,31.9609375 172.683594,32 L172.683594,31.1601562 C170.828125,31.1601562 170.125,30.515625 170.125,28.2890625 L170.125,17.5078125 Z M179.34375,0.984375 C177.097656,0.984375 175.691406,2.15625 175.691406,4.0703125 C175.691406,6.00390625 177.097656,7.17578125 179.34375,7.17578125 C181.550781,7.17578125 182.976562,6.00390625 182.976562,4.0703125 C182.976562,2.15625 181.550781,0.984375 179.34375,0.984375 Z M182.488281,10.8671875 C180.808594,11.2578125 178.875,11.4335938 176.648438,11.4335938 C175.847656,11.4335938 175.007812,11.375 174.167969,11.296875 L174.167969,12.1367188 C176.101562,12.1367188 176.726562,13.2695312 176.726562,15.671875 L176.726562,28.2890625 C176.726562,30.515625 176.023438,31.1601562 174.167969,31.1601562 L174.167969,32 C175.222656,31.9609375 177.625,31.84375 179.695312,31.84375 C181.785156,31.84375 184.03125,31.9609375 185.046875,32 L185.046875,31.1601562 C183.171875,31.1601562 182.488281,30.515625 182.488281,28.2890625 L182.488281,10.8671875 Z M194.910156,0.69140625 C193.25,1.08203125 191.296875,1.23828125 189.070312,1.23828125 C188.269531,1.23828125 187.429688,1.19921875 186.589844,1.12109375 L186.589844,1.9609375 C188.523438,1.9609375 189.148438,3.09375 189.148438,5.49609375 L189.148438,28.2890625 C189.148438,30.515625 188.464844,31.1601562 186.589844,31.1601562 L186.589844,32 C187.664062,31.9609375 190.046875,31.84375 192.136719,31.84375 C194.207031,31.84375 196.453125,31.9609375 197.46875,32 L197.46875,31.1601562 C195.613281,31.1601562 194.910156,30.515625 194.910156,28.2890625 L194.910156,0.69140625 Z M207.351562,0.69140625 C205.691406,1.08203125 203.738281,1.23828125 201.511719,1.23828125 C200.710938,1.23828125 199.871094,1.19921875 199.03125,1.12109375 L199.03125,1.9609375 C200.964844,1.9609375 201.589844,3.09375 201.589844,5.49609375 L201.589844,28.2890625 C201.589844,30.515625 200.90625,31.1601562 199.03125,31.1601562 L199.03125,32 C200.105469,31.9609375 202.488281,31.84375 204.578125,31.84375 C206.648438,31.84375 208.894531,31.9609375 209.910156,32 L209.910156,31.1601562 C208.054688,31.1601562 207.351562,30.515625 207.351562,28.2890625 L207.351562,0.69140625 Z M216.84375,0.984375 C214.597656,0.984375 213.191406,2.15625 213.191406,4.0703125 C213.191406,6.00390625 214.597656,7.17578125 216.84375,7.17578125 C219.050781,7.17578125 220.476562,6.00390625 220.476562,4.0703125 C220.476562,2.15625 219.050781,0.984375 216.84375,0.984375 Z M219.988281,10.8671875 C218.308594,11.2578125 216.375,11.4335938 214.148438,11.4335938 C213.347656,11.4335938 212.507812,11.375 211.667969,11.296875 L211.667969,12.1367188 C213.601562,12.1367188 214.226562,13.2695312 214.226562,15.671875 L214.226562,28.2890625 C214.226562,30.515625 213.523438,31.1601562 211.667969,31.1601562 L211.667969,32 C212.722656,31.9609375 215.125,31.84375 217.195312,31.84375 C219.285156,31.84375 221.53125,31.9609375 222.546875,32 L222.546875,31.1601562 C220.671875,31.1601562 219.988281,30.515625 219.988281,28.2890625 L219.988281,10.8671875 Z M234.597656,10.75 C228.855469,10.75 224.8125,13.7578125 224.8125,21.6679688 C224.8125,29.5976562 228.855469,32.5664062 234.597656,32.5664062 C240.359375,32.5664062 244.402344,29.5976562 244.402344,21.6679688 C244.402344,13.7578125 240.359375,10.75 234.597656,10.75 Z M234.597656,11.5507812 C236.785156,11.5507812 238.367188,14.5195312 238.367188,21.6679688 C238.367188,28.8359375 236.785156,31.765625 234.597656,31.765625 C232.429688,31.765625 230.847656,28.8359375 230.847656,21.6679688 C230.847656,14.5195312 232.429688,11.5507812 234.597656,11.5507812 Z M261.726562,10.75 C258.914062,10.75 256.53125,11.765625 255.203125,14.4804688 L255.203125,10.8671875 C253.523438,11.2578125 251.589844,11.4335938 249.363281,11.4335938 C248.5625,11.4335938 247.722656,11.375 246.882812,11.296875 L246.882812,12.1367188 C248.816406,12.1367188 249.441406,13.2695312 249.441406,15.671875 L249.441406,28.2890625 C249.441406,30.515625 248.738281,31.1601562 246.882812,31.1601562 L246.882812,32 C247.9375,31.9609375 250.339844,31.84375 252.390625,31.84375 C254.34375,31.84375 256.414062,31.9609375 257.351562,32 L257.351562,31.1601562 C255.769531,31.1601562 255.203125,30.515625 255.203125,28.2890625 L255.203125,17.1367188 C255.203125,14.5 256.921875,12.5078125 259.167969,12.5078125 C261.160156,12.5078125 261.628906,13.8554688 261.628906,15.8476562 L261.628906,28.2890625 C261.628906,30.515625 261.0625,31.1601562 259.480469,31.1601562 L259.480469,32 C260.457031,31.9609375 262.625,31.84375 264.675781,31.84375 C266.628906,31.84375 268.933594,31.9609375 269.949219,32 L269.949219,31.1601562 C268.09375,31.1601562 267.390625,30.515625 267.390625,28.2890625 L267.390625,17.5078125 C267.390625,14.7929688 267.019531,13.328125 266.140625,12.3125 C265.320312,11.375 264.011719,10.75 261.726562,10.75 Z M148.523438,40.7109375 C146.277344,40.7109375 144.207031,41.5703125 143.035156,42.7226562 C141.179688,44.5195312 140.515625,46.6289062 140.515625,51.3359375 L137.800781,51.3359375 L137.800781,52.1367188 L140.515625,52.1367188 L140.515625,68.2890625 C140.515625,70.515625 139.832031,71.1601562 137.957031,71.1601562 L137.957031,72 C138.972656,71.9609375 141.121094,71.84375 143.152344,71.84375 C145.925781,71.84375 148.660156,71.9609375 150.046875,72 L150.046875,71.1601562 C147.683594,71.1601562 146.277344,70.4765625 146.277344,67.8789062 L146.277344,52.1367188 L150.554688,52.1367188 L150.554688,51.3359375 L146.277344,51.3359375 L146.277344,47.703125 C146.277344,44.6171875 146.472656,43.2890625 147.019531,42.4882812 C147.449219,41.84375 148.152344,41.4335938 149.1875,41.4335938 C149.96875,41.4335938 150.457031,41.6875 150.632812,42 C149.089844,42.4492188 148.289062,43.6015625 148.289062,44.96875 C148.289062,46.7460938 149.539062,47.8203125 151.335938,47.8203125 C153.015625,47.8203125 154.167969,46.5117188 154.167969,45.0273438 C154.167969,43.6992188 153.5625,42.6640625 152.800781,42.0390625 C151.726562,41.2382812 150.378906,40.7109375 148.523438,40.7109375 Z M161.570312,50.75 C158.875,50.75 156.921875,51.3164062 155.496094,52.1171875 C154.1875,52.8789062 153.25,53.9921875 153.25,55.4570312 C153.25,57.2148438 154.34375,58.5429688 156.082031,58.5429688 C158.054688,58.5429688 159.34375,57.3320312 159.34375,55.671875 C159.34375,54.0507812 158.40625,53.015625 156.980469,52.5273438 C157.703125,51.8242188 158.875,51.5507812 159.832031,51.5507812 C162.195312,51.5507812 163.09375,53.0351562 163.09375,55.125 L163.09375,58.25 C163.09375,59.96875 160.789062,60.7304688 157.839844,61.84375 C154.128906,63.2109375 152.214844,64.8320312 152.214844,67.7226562 C152.214844,70.6328125 154.285156,72.2734375 157.273438,72.2734375 C159.519531,72.2734375 161.804688,71.2773438 163.171875,69.03125 C163.191406,70.75 164.089844,72.2734375 167.019531,72.2734375 C169.050781,72.2734375 170.378906,71.7851562 171.589844,70.8085938 L171.179688,70.125 C170.730469,70.4765625 170.28125,70.8085938 169.714844,70.8085938 C169.070312,70.8085938 168.855469,70.3203125 168.855469,69.03125 L168.855469,58.1523438 C168.855469,55.359375 168.601562,53.7578125 167.429688,52.546875 C166.140625,51.21875 164.148438,50.75 161.570312,50.75 Z M163.09375,68.09375 C162.253906,69.2851562 161.375,69.7148438 160.398438,69.7148438 C158.972656,69.7148438 157.898438,68.8164062 157.898438,66.609375 C157.898438,64.2070312 159.207031,62.8984375 160.613281,61.8632812 C161.960938,61.0234375 162.722656,60.4960938 163.09375,59.890625 L163.09375,68.09375 Z M187.585938,50.75 C184.773438,50.75 182.390625,51.765625 181.0625,54.4804688 L181.0625,50.8671875 C179.382812,51.2578125 177.449219,51.4335938 175.222656,51.4335938 C174.421875,51.4335938 173.582031,51.375 172.742188,51.296875 L172.742188,52.1367188 C174.675781,52.1367188 175.300781,53.2695312 175.300781,55.671875 L175.300781,68.2890625 C175.300781,70.515625 174.597656,71.1601562 172.742188,71.1601562 L172.742188,72 C173.796875,71.9609375 176.199219,71.84375 178.25,71.84375 C180.203125,71.84375 182.273438,71.9609375 183.210938,72 L183.210938,71.1601562 C181.628906,71.1601562 181.0625,70.515625 181.0625,68.2890625 L181.0625,57.1367188 C181.0625,54.5 182.78125,52.5078125 185.027344,52.5078125 C187.019531,52.5078125 187.488281,53.8554688 187.488281,55.8476562 L187.488281,68.2890625 C187.488281,70.515625 186.921875,71.1601562 185.339844,71.1601562 L185.339844,72 C186.316406,71.9609375 188.484375,71.84375 190.535156,71.84375 C192.488281,71.84375 194.792969,71.9609375 195.808594,72 L195.808594,71.1601562 C193.953125,71.1601562 193.25,70.515625 193.25,68.2890625 L193.25,57.5078125 C193.25,54.7929688 192.878906,53.328125 192,52.3125 C191.179688,51.375 189.871094,50.75 187.585938,50.75 Z M205.164062,50.75 C201.53125,50.75 198.289062,52.703125 198.289062,56.2578125 C198.289062,59.4804688 200.691406,61.296875 203.308594,63.3476562 C205.613281,65.1445312 207.351562,66.453125 207.351562,68.796875 C207.351562,70.8476562 205.925781,71.6484375 204.539062,71.6484375 C201.179688,71.6484375 199.636719,68.6210938 199.148438,64.2851562 L198.289062,64.2851562 C198.289062,68.328125 198.25,70.5546875 198.132812,72.2734375 L198.972656,72.2734375 C199.167969,71.4140625 199.5,70.8476562 199.949219,70.8476562 C200.007812,70.8476562 200.066406,70.8671875 200.125,70.8867188 C200.691406,71.0625 201.257812,71.3554688 201.980469,71.7265625 C202.878906,72.2148438 204.128906,72.5664062 205.730469,72.5664062 C209.851562,72.5664062 213.308594,70.28125 213.308594,66.6289062 C213.308594,63.4648438 211.199219,61.7460938 208.523438,59.7734375 C206.0625,57.9375 203.601562,56.609375 203.601562,54.2070312 C203.601562,52.5664062 204.773438,51.6289062 206.316406,51.6289062 C209.734375,51.6289062 211.042969,54.8710938 211.453125,57.8203125 L212.292969,57.8203125 C212.292969,54.265625 212.332031,52.3125 212.46875,50.7890625 L211.609375,50.7890625 C211.472656,51.7851562 211.140625,52.2539062 210.671875,52.2539062 C210.457031,52.2539062 210.222656,52.15625 209.949219,51.9804688 C209.167969,51.4726562 207.410156,50.75 205.164062,50.75 Z" id="million-fans" fill="#000000"></path>
                <path d="M143.304688,86.25 C141.6875,86.25 140.515625,86.5898438 139.660156,87.0703125 C138.875,87.5273438 138.3125,88.1953125 138.3125,89.0742188 C138.3125,90.1289062 138.96875,90.9257812 140.011719,90.9257812 C141.195312,90.9257812 141.96875,90.1992188 141.96875,89.203125 C141.96875,88.2304688 141.40625,87.609375 140.550781,87.3164062 C140.984375,86.8945312 141.6875,86.7304688 142.261719,86.7304688 C143.679688,86.7304688 144.21875,87.6210938 144.21875,88.875 L144.21875,90.75 C144.21875,91.78125 142.835938,92.2382812 141.066406,92.90625 C138.839844,93.7265625 137.691406,94.6992188 137.691406,96.4335938 C137.691406,98.1796875 138.933594,99.1640625 140.726562,99.1640625 C142.074219,99.1640625 143.445312,98.5664062 144.265625,97.21875 C144.277344,98.25 144.816406,99.1640625 146.574219,99.1640625 C147.792969,99.1640625 148.589844,98.8710938 149.316406,98.2851562 L149.070312,97.875 C148.800781,98.0859375 148.53125,98.2851562 148.191406,98.2851562 C147.804688,98.2851562 147.675781,97.9921875 147.675781,97.21875 L147.675781,90.6914062 C147.675781,89.015625 147.523438,88.0546875 146.820312,87.328125 C146.046875,86.53125 144.851562,86.25 143.304688,86.25 Z M144.21875,96.65625 C143.714844,97.3710938 143.1875,97.6289062 142.601562,97.6289062 C141.746094,97.6289062 141.101562,97.0898438 141.101562,95.765625 C141.101562,94.3242188 141.886719,93.5390625 142.730469,92.9179688 C143.539062,92.4140625 143.996094,92.0976562 144.21875,91.734375 L144.21875,96.65625 Z M156.230469,86.25 C152.832031,86.25 150.300781,88.5234375 150.300781,92.859375 C150.300781,97.359375 152.761719,99.3398438 155.890625,99.3398438 C158.632812,99.3398438 160.109375,97.3476562 160.660156,95.5546875 L160.238281,95.4023438 C159.265625,97.0078125 157.988281,97.359375 157.097656,97.359375 C155.515625,97.359375 153.921875,96.2460938 153.921875,92.5195312 C153.921875,89.2617188 154.964844,86.8359375 156.957031,86.8359375 C157.589844,86.8359375 158.152344,87.0820312 158.398438,87.4101562 C157.542969,87.6445312 156.816406,88.3710938 156.816406,89.3789062 C156.816406,90.4570312 157.53125,91.1601562 158.667969,91.1601562 C159.769531,91.1601562 160.566406,90.3632812 160.566406,89.2265625 C160.566406,88.2773438 160.050781,87.4804688 159.242188,86.9882812 C158.550781,86.5546875 157.472656,86.25 156.230469,86.25 Z M170.152344,86.25 C168.640625,86.25 167.480469,87.2695312 166.90625,88.5585938 L166.90625,86.3203125 C165.898438,86.5546875 164.738281,86.6601562 163.402344,86.6601562 C162.921875,86.6601562 162.417969,86.625 161.914062,86.578125 L161.914062,87.0820312 C163.074219,87.0820312 163.449219,87.7617188 163.449219,89.203125 L163.449219,96.7734375 C163.449219,98.109375 163.027344,98.4960938 161.914062,98.4960938 L161.914062,99 C162.570312,98.9765625 164.035156,98.90625 165.347656,98.90625 C166.859375,98.90625 168.417969,98.9765625 169.15625,99 L169.15625,98.4960938 C167.644531,98.4960938 166.90625,98.0742188 166.90625,96.5273438 L166.90625,90.1757812 C166.90625,88.8867188 167.808594,87.2929688 169.085938,87.0820312 C169.203125,87.046875 169.320312,87.0234375 169.425781,87.0234375 C169.542969,87.0234375 169.648438,87.046875 169.742188,87.0820312 C169.144531,87.4804688 168.6875,88.0546875 168.6875,88.9335938 C168.6875,89.8710938 169.355469,90.4804688 170.480469,90.4804688 C171.605469,90.4804688 172.34375,89.6484375 172.34375,88.4648438 C172.34375,87.3867188 171.710938,86.25 170.152344,86.25 Z M179.304688,86.25 C175.859375,86.25 173.433594,88.0546875 173.433594,92.8007812 C173.433594,97.5585938 175.859375,99.3398438 179.304688,99.3398438 C182.761719,99.3398438 185.1875,97.5585938 185.1875,92.8007812 C185.1875,88.0546875 182.761719,86.25 179.304688,86.25 Z M179.304688,86.7304688 C180.617188,86.7304688 181.566406,88.5117188 181.566406,92.8007812 C181.566406,97.1015625 180.617188,98.859375 179.304688,98.859375 C178.003906,98.859375 177.054688,97.1015625 177.054688,92.8007812 C177.054688,88.5117188 178.003906,86.7304688 179.304688,86.7304688 Z M191.398438,86.25 C189.21875,86.25 187.273438,87.421875 187.273438,89.5546875 C187.273438,91.4882812 188.714844,92.578125 190.285156,93.8085938 C191.667969,94.8867188 192.710938,95.671875 192.710938,97.078125 C192.710938,98.3085938 191.855469,98.7890625 191.023438,98.7890625 C189.007812,98.7890625 188.082031,96.9726562 187.789062,94.3710938 L187.273438,94.3710938 C187.273438,96.796875 187.25,98.1328125 187.179688,99.1640625 L187.683594,99.1640625 C187.800781,98.6484375 188,98.3085938 188.269531,98.3085938 C188.304688,98.3085938 188.339844,98.3203125 188.375,98.3320312 C188.714844,98.4375 189.054688,98.6132812 189.488281,98.8359375 C190.027344,99.1289062 190.777344,99.3398438 191.738281,99.3398438 C194.210938,99.3398438 196.285156,97.96875 196.285156,95.7773438 C196.285156,93.8789062 195.019531,92.8476562 193.414062,91.6640625 C191.9375,90.5625 190.460938,89.765625 190.460938,88.3242188 C190.460938,87.3398438 191.164062,86.7773438 192.089844,86.7773438 C194.140625,86.7773438 194.925781,88.7226562 195.171875,90.4921875 L195.675781,90.4921875 C195.675781,88.359375 195.699219,87.1875 195.78125,86.2734375 L195.265625,86.2734375 C195.183594,86.8710938 194.984375,87.1523438 194.703125,87.1523438 C194.574219,87.1523438 194.433594,87.09375 194.269531,86.9882812 C193.800781,86.6835938 192.746094,86.25 191.398438,86.25 Z M202.472656,86.25 C200.292969,86.25 198.347656,87.421875 198.347656,89.5546875 C198.347656,91.4882812 199.789062,92.578125 201.359375,93.8085938 C202.742188,94.8867188 203.785156,95.671875 203.785156,97.078125 C203.785156,98.3085938 202.929688,98.7890625 202.097656,98.7890625 C200.082031,98.7890625 199.15625,96.9726562 198.863281,94.3710938 L198.347656,94.3710938 C198.347656,96.796875 198.324219,98.1328125 198.253906,99.1640625 L198.757812,99.1640625 C198.875,98.6484375 199.074219,98.3085938 199.34375,98.3085938 C199.378906,98.3085938 199.414062,98.3203125 199.449219,98.3320312 C199.789062,98.4375 200.128906,98.6132812 200.5625,98.8359375 C201.101562,99.1289062 201.851562,99.3398438 202.8125,99.3398438 C205.285156,99.3398438 207.359375,97.96875 207.359375,95.7773438 C207.359375,93.8789062 206.09375,92.8476562 204.488281,91.6640625 C203.011719,90.5625 201.535156,89.765625 201.535156,88.3242188 C201.535156,87.3398438 202.238281,86.7773438 203.164062,86.7773438 C205.214844,86.7773438 206,88.7226562 206.246094,90.4921875 L206.75,90.4921875 C206.75,88.359375 206.773438,87.1875 206.855469,86.2734375 L206.339844,86.2734375 C206.257812,86.8710938 206.058594,87.1523438 205.777344,87.1523438 C205.648438,87.1523438 205.507812,87.09375 205.34375,86.9882812 C204.875,86.6835938 203.820312,86.25 202.472656,86.25 Z M223.027344,86.25 C221.328125,86.25 219.96875,87.0585938 219.300781,88.5820312 L219.300781,86.3320312 C218.304688,86.578125 217.132812,86.671875 215.796875,86.671875 C215.316406,86.671875 214.8125,86.6484375 214.308594,86.6015625 L214.308594,87.1054688 C215.46875,87.1054688 215.84375,87.7734375 215.84375,89.2148438 L215.84375,101.203125 C215.84375,102.480469 215.457031,102.84375 214.402344,102.84375 L214.402344,103.347656 C215,103.324219 216.253906,103.242188 217.425781,103.242188 C219.054688,103.242188 220.648438,103.324219 221.457031,103.347656 L221.457031,102.84375 C220.109375,102.84375 219.300781,102.457031 219.300781,100.96875 L219.300781,98.5664062 C219.898438,99.0703125 220.777344,99.3398438 221.761719,99.3398438 C225.125,99.3398438 227.316406,96.9023438 227.316406,92.2382812 C227.316406,88.2421875 225.464844,86.25 223.027344,86.25 Z M220.824219,98.6835938 C220.179688,98.6835938 219.652344,98.4492188 219.300781,98.0390625 L219.300781,89.4023438 C219.59375,88.0429688 220.566406,87.28125 221.621094,87.28125 C222.875,87.28125 223.695312,88.6289062 223.695312,92.7070312 C223.695312,96.3984375 222.957031,98.6835938 220.824219,98.6835938 Z M233.691406,80.2148438 C232.695312,80.4492188 231.523438,80.5429688 230.1875,80.5429688 C229.707031,80.5429688 229.203125,80.5195312 228.699219,80.4726562 L228.699219,80.9765625 C229.859375,80.9765625 230.234375,81.65625 230.234375,83.0976562 L230.234375,96.7734375 C230.234375,98.109375 229.824219,98.4960938 228.699219,98.4960938 L228.699219,99 C229.34375,98.9765625 230.773438,98.90625 232.027344,98.90625 C233.269531,98.90625 234.617188,98.9765625 235.226562,99 L235.226562,98.4960938 C234.113281,98.4960938 233.691406,98.109375 233.691406,96.7734375 L233.691406,80.2148438 Z M242,86.25 C240.382812,86.25 239.210938,86.5898438 238.355469,87.0703125 C237.570312,87.5273438 237.007812,88.1953125 237.007812,89.0742188 C237.007812,90.1289062 237.664062,90.9257812 238.707031,90.9257812 C239.890625,90.9257812 240.664062,90.1992188 240.664062,89.203125 C240.664062,88.2304688 240.101562,87.609375 239.246094,87.3164062 C239.679688,86.8945312 240.382812,86.7304688 240.957031,86.7304688 C242.375,86.7304688 242.914062,87.6210938 242.914062,88.875 L242.914062,90.75 C242.914062,91.78125 241.53125,92.2382812 239.761719,92.90625 C237.535156,93.7265625 236.386719,94.6992188 236.386719,96.4335938 C236.386719,98.1796875 237.628906,99.1640625 239.421875,99.1640625 C240.769531,99.1640625 242.140625,98.5664062 242.960938,97.21875 C242.972656,98.25 243.511719,99.1640625 245.269531,99.1640625 C246.488281,99.1640625 247.285156,98.8710938 248.011719,98.2851562 L247.765625,97.875 C247.496094,98.0859375 247.226562,98.2851562 246.886719,98.2851562 C246.5,98.2851562 246.371094,97.9921875 246.371094,97.21875 L246.371094,90.6914062 C246.371094,89.015625 246.21875,88.0546875 245.515625,87.328125 C244.742188,86.53125 243.546875,86.25 242,86.25 Z M242.914062,96.65625 C242.410156,97.3710938 241.882812,97.6289062 241.296875,97.6289062 C240.441406,97.6289062 239.796875,97.0898438 239.796875,95.765625 C239.796875,94.3242188 240.582031,93.5390625 241.425781,92.9179688 C242.234375,92.4140625 242.691406,92.0976562 242.914062,91.734375 L242.914062,96.65625 Z M253.566406,86.6015625 L253.566406,82.6523438 C252.570312,83.1914062 251.457031,83.4140625 250.109375,83.4257812 L250.109375,86.6015625 L248.09375,86.6015625 L248.09375,87.0820312 L250.109375,87.0820312 L250.109375,95.1796875 C250.109375,96.8554688 250.285156,97.828125 250.976562,98.53125 C251.515625,99.0703125 252.300781,99.3398438 253.378906,99.3398438 C255.148438,99.3398438 256.132812,98.3085938 256.660156,96.8789062 L256.261719,96.65625 C255.792969,97.7226562 255.207031,98.0976562 254.621094,98.0976562 C253.917969,98.0976562 253.566406,97.7460938 253.566406,96.7617188 L253.566406,87.0820312 L256.402344,87.0820312 L256.402344,86.6015625 L253.566406,86.6015625 Z M263.46875,80.2265625 C262.121094,80.2265625 260.878906,80.7421875 260.175781,81.4335938 C259.0625,82.5117188 258.664062,83.7773438 258.664062,86.6015625 L257.035156,86.6015625 L257.035156,87.0820312 L258.664062,87.0820312 L258.664062,96.7734375 C258.664062,98.109375 258.253906,98.4960938 257.128906,98.4960938 L257.128906,99 C257.738281,98.9765625 259.027344,98.90625 260.246094,98.90625 C261.910156,98.90625 263.550781,98.9765625 264.382812,99 L264.382812,98.4960938 C262.964844,98.4960938 262.121094,98.0859375 262.121094,96.5273438 L262.121094,87.0820312 L264.6875,87.0820312 L264.6875,86.6015625 L262.121094,86.6015625 L262.121094,84.421875 C262.121094,82.5703125 262.238281,81.7734375 262.566406,81.2929688 C262.824219,80.90625 263.246094,80.6601562 263.867188,80.6601562 C264.335938,80.6601562 264.628906,80.8125 264.734375,81 C263.808594,81.2695312 263.328125,81.9609375 263.328125,82.78125 C263.328125,83.8476562 264.078125,84.4921875 265.15625,84.4921875 C266.164062,84.4921875 266.855469,83.7070312 266.855469,82.8164062 C266.855469,82.0195312 266.492188,81.3984375 266.035156,81.0234375 C265.390625,80.5429688 264.582031,80.2265625 263.46875,80.2265625 Z M271.765625,86.25 C268.320312,86.25 265.894531,88.0546875 265.894531,92.8007812 C265.894531,97.5585938 268.320312,99.3398438 271.765625,99.3398438 C275.222656,99.3398438 277.648438,97.5585938 277.648438,92.8007812 C277.648438,88.0546875 275.222656,86.25 271.765625,86.25 Z M271.765625,86.7304688 C273.078125,86.7304688 274.027344,88.5117188 274.027344,92.8007812 C274.027344,97.1015625 273.078125,98.859375 271.765625,98.859375 C270.464844,98.859375 269.515625,97.1015625 269.515625,92.8007812 C269.515625,88.5117188 270.464844,86.7304688 271.765625,86.7304688 Z M287.375,86.25 C285.863281,86.25 284.703125,87.2695312 284.128906,88.5585938 L284.128906,86.3203125 C283.121094,86.5546875 281.960938,86.6601562 280.625,86.6601562 C280.144531,86.6601562 279.640625,86.625 279.136719,86.578125 L279.136719,87.0820312 C280.296875,87.0820312 280.671875,87.7617188 280.671875,89.203125 L280.671875,96.7734375 C280.671875,98.109375 280.25,98.4960938 279.136719,98.4960938 L279.136719,99 C279.792969,98.9765625 281.257812,98.90625 282.570312,98.90625 C284.082031,98.90625 285.640625,98.9765625 286.378906,99 L286.378906,98.4960938 C284.867188,98.4960938 284.128906,98.0742188 284.128906,96.5273438 L284.128906,90.1757812 C284.128906,88.8867188 285.03125,87.2929688 286.308594,87.0820312 C286.425781,87.046875 286.542969,87.0234375 286.648438,87.0234375 C286.765625,87.0234375 286.871094,87.046875 286.964844,87.0820312 C286.367188,87.4804688 285.910156,88.0546875 285.910156,88.9335938 C285.910156,89.8710938 286.578125,90.4804688 287.703125,90.4804688 C288.828125,90.4804688 289.566406,89.6484375 289.566406,88.4648438 C289.566406,87.3867188 288.933594,86.25 287.375,86.25 Z M309.628906,90.3046875 C309.628906,88.7226562 309.429688,87.796875 308.890625,87.1875 C308.398438,86.625 307.601562,86.25 306.265625,86.25 C304.648438,86.25 303.160156,86.7890625 302.28125,88.6171875 C302.175781,87.9960938 301.976562,87.5390625 301.671875,87.1875 C301.179688,86.625 300.371094,86.25 299.046875,86.25 C297.464844,86.25 296.082031,86.8945312 295.332031,88.4882812 L295.332031,86.3203125 C294.324219,86.5546875 293.164062,86.6601562 291.828125,86.6601562 C291.347656,86.6601562 290.84375,86.625 290.339844,86.578125 L290.339844,87.0820312 C291.5,87.0820312 291.875,87.7617188 291.875,89.203125 L291.875,96.7734375 C291.875,98.109375 291.453125,98.4960938 290.339844,98.4960938 L290.339844,99 C290.972656,98.9765625 292.414062,98.90625 293.644531,98.90625 C294.757812,98.90625 295.941406,98.9765625 296.480469,99 L296.480469,98.4960938 C295.625,98.4960938 295.332031,98.109375 295.332031,96.7734375 L295.332031,90.0820312 C295.332031,88.5 296.375,87.3046875 297.664062,87.3046875 C298.753906,87.3046875 298.953125,88.1132812 298.953125,89.3085938 L298.953125,96.7734375 C298.953125,98.109375 298.636719,98.4960938 297.792969,98.4960938 L297.792969,99 C298.355469,98.9765625 299.597656,98.90625 300.769531,98.90625 C301.882812,98.90625 303.21875,98.9765625 303.792969,99 L303.792969,98.4960938 C302.761719,98.4960938 302.410156,98.109375 302.410156,96.7734375 L302.410156,90.3046875 L302.398438,89.8125 C302.585938,88.40625 303.570312,87.3046875 304.742188,87.3046875 C305.9375,87.3046875 306.171875,88.1132812 306.171875,89.3085938 L306.171875,96.7734375 C306.171875,98.109375 305.867188,98.4960938 305.023438,98.4960938 L305.023438,99 C305.585938,98.9765625 306.828125,98.90625 308,98.90625 C309.171875,98.90625 310.554688,98.9765625 311.164062,99 L311.164062,98.4960938 C310.050781,98.4960938 309.628906,98.109375 309.628906,96.7734375 L309.628906,90.3046875 Z M316.777344,86.25 C314.597656,86.25 312.652344,87.421875 312.652344,89.5546875 C312.652344,91.4882812 314.09375,92.578125 315.664062,93.8085938 C317.046875,94.8867188 318.089844,95.671875 318.089844,97.078125 C318.089844,98.3085938 317.234375,98.7890625 316.402344,98.7890625 C314.386719,98.7890625 313.460938,96.9726562 313.167969,94.3710938 L312.652344,94.3710938 C312.652344,96.796875 312.628906,98.1328125 312.558594,99.1640625 L313.0625,99.1640625 C313.179688,98.6484375 313.378906,98.3085938 313.648438,98.3085938 C313.683594,98.3085938 313.71875,98.3203125 313.753906,98.3320312 C314.09375,98.4375 314.433594,98.6132812 314.867188,98.8359375 C315.40625,99.1289062 316.15625,99.3398438 317.117188,99.3398438 C319.589844,99.3398438 321.664062,97.96875 321.664062,95.7773438 C321.664062,93.8789062 320.398438,92.8476562 318.792969,91.6640625 C317.316406,90.5625 315.839844,89.765625 315.839844,88.3242188 C315.839844,87.3398438 316.542969,86.7773438 317.46875,86.7773438 C319.519531,86.7773438 320.304688,88.7226562 320.550781,90.4921875 L321.054688,90.4921875 C321.054688,88.359375 321.078125,87.1875 321.160156,86.2734375 L320.644531,86.2734375 C320.5625,86.8710938 320.363281,87.1523438 320.082031,87.1523438 C319.953125,87.1523438 319.8125,87.09375 319.648438,86.9882812 C319.179688,86.6835938 318.125,86.25 316.777344,86.25 Z" id="across-platforms" fill="#000000"></path>
            </g>
        </g>
    </g>
</svg>