<svg xmlns="http://www.w3.org/2000/svg" viewBox="3069 907 16.781 13.42">
  <defs>
    <style>
      .cls-1 {
        fill: #fdfdfd;
      }
    </style>
  </defs>
  <path id="Union_1" data-name="Union 1" class="cls-1" d="M-3108.507-893.847a.9.9,0,0,1-.273-.646.9.9,0,0,1,.273-.645l4.322-4.239h-12.285a.922.922,0,0,1-.931-.913.922.922,0,0,1,.931-.914h12.284l-4.321-4.238a.9.9,0,0,1,0-1.291.943.943,0,0,1,1.317,0l5.9,5.787.018.018.65.637-6.57,6.443a.938.938,0,0,1-.659.266A.936.936,0,0,1-3108.507-893.847Z" transform="translate(6186.401 1814)"/>
</svg>
