<?xml version="1.0" encoding="utf-8"?>
<!-- Generator: Adobe Illustrator 19.0.0, SVG Export Plug-In . SVG Version: 6.00 Build 0)  -->
<svg version="1.1" id="Layer_1" xmlns="http://www.w3.org/2000/svg" xmlns:xlink="http://www.w3.org/1999/xlink" x="0px" y="0px"
	 viewBox="-5753 6024.6 30 26" style="enable-background:new -5753 6024.6 30 26;" xml:space="preserve">
<style type="text/css">
	.st0{enable-background:new    ;}
	.st1{fill:#95989A;}
</style>
<g class="st0">
	<path class="st1" d="M-5726.4,6041.9c0,1.1-0.9,2-2,2h-6.7c0,1,0.8,1.9,0.8,2.4s-0.4,0.8-0.8,0.8h-6.3c-0.4,0-0.8-0.4-0.8-0.8
		c0-0.5,0.8-1.3,0.8-2.4h-6.7c-1.1,0-2-0.9-2-2v-13.4c0-1.1,0.9-2,2-2h19.7c1.1,0,2,0.9,2,2V6041.9z M-5728,6028.6
		c0-0.2-0.2-0.4-0.4-0.4h-19.7c-0.2,0-0.4,0.2-0.4,0.4v10.2c0,0.2,0.2,0.4,0.4,0.4h19.7c0.2,0,0.4-0.2,0.4-0.4V6028.6z"/>
</g>
</svg>
