<svg xmlns="http://www.w3.org/2000/svg" viewBox="2375.566 304.647 226.177 60.919">
  <defs>
    <style>
      .cls-1 {
        fill: #333;
      }

      .cls-2 {
        fill: #c41230;
      }
    </style>
  </defs>
  <g id="XMLID_16_" transform="translate(2375.566 304.647)">
    <path id="XMLID_34_" class="cls-1" d="M29.81,5.623a3.789,3.789,0,0,1-3.987,3.766A3.262,3.262,0,0,1,22.5,6.066,3.789,3.789,0,0,1,26.487,2.3,3.407,3.407,0,0,1,29.81,5.623Z" transform="translate(27.343 2.795)"/>
    <path id="XMLID_33_" class="cls-2" d="M86.31,27.623a3.789,3.789,0,0,1-3.987,3.766A3.407,3.407,0,0,1,79,28.066,3.789,3.789,0,0,1,82.987,24.3,3.262,3.262,0,0,1,86.31,27.623Z" transform="translate(96.004 29.53)"/>
    <path id="XMLID_32_" class="cls-2" d="M90.91,27.623a3.789,3.789,0,0,1-3.987,3.766A3.262,3.262,0,0,1,83.6,28.066,3.789,3.789,0,0,1,87.587,24.3,3.407,3.407,0,0,1,90.91,27.623Z" transform="translate(101.594 29.53)"/>
    <path id="XMLID_29_" class="cls-1" d="M81.743,19.716a3.691,3.691,0,0,0-3.766,3.544c0,4.43,7.089,3.987,7.089,9.526,0,1.772-2.437,12.627-11.962,12.627-7.089,0-7.31-2.215-7.31-4.43.222-1.994,1.551-3.323,1.551-8.418,0-3.323-1.772-6.646-4.43-6.646a2.932,2.932,0,0,0-2.88,2.88c0,3.544,5.538,3.1,5.538,7.532,0,3.544-3.544,9.969-9.3,9.3a13.074,13.074,0,0,1-3.1-.443c-.222,0-.222-.222-.443-.222a4.722,4.722,0,0,1-2.437-2.215c-1.329-2.437-.222-5.538-.222-5.538h0c1.329-5.1,3.323-11.519,3.323-13.956,0-2.88-1.551-5.317-5.538-5.317-5.76,0-8.418,6.424-9.083,9.3,0,.222-4.209,12.848-4.43,13.956-1.108,2.88-2.437,5.1-4.874,5.1-1.551,0-1.994-.886-1.994-2.215,0-1.772.443-3.766,9.747-44.083-9.3,2.215-12.184,1.772-12.184,2.88s4.209.443,4.209,3.766c0,1.772-.443,3.1-3.544,17.722h-.222c-.886-2.88-2.658-6.424-7.753-6.424C9.3,17.943,0,28.577,0,38.767c0,6.646,3.323,10.855,8.861,10.855,5.317,0,9.747-3.766,13.513-10.412l.222.222a19.756,19.756,0,0,0-.665,4.874c0,3.1,1.551,5.538,5.1,5.538s5.76-2.658,7.31-5.317c1.108-1.994,5.981-17.722,5.981-17.943,1.108-2.88,2.658-5.1,4.874-5.1,1.551,0,1.994.886,1.994,2.215a1.332,1.332,0,0,1-.222.886h0c-.222.665-.665,2.88-1.329,5.317a14.328,14.328,0,0,1-.886,2.88h0l-.665,2.658c-.222.886-.443,1.551-.443,1.772a15.414,15.414,0,0,0-.443,3.544,11.044,11.044,0,0,0,1.772,6.424C46.52,49.4,52.5,52.058,56.932,49.843h0a11,11,0,0,0,4.209-2.88,9.345,9.345,0,0,0,7.753,3.987c9.969,0,18.165-11.519,18.165-22.6C87.5,23.925,85.287,19.716,81.743,19.716ZM11.519,47.185C8.2,47.185,6.2,45.191,6.2,40.539c0-7.753,5.1-20.823,11.741-20.823,5.1,0,6.424,4.652,6.424,7.975C24.368,33.672,18.83,47.185,11.519,47.185Z" transform="translate(0 0)"/>
    <path id="XMLID_25_" class="cls-1" d="M135.377,36.434c-4.873,0-8.2-2.437-9.526-5.76a9.918,9.918,0,0,1-.886-4.43,101.334,101.334,0,0,0,12.627-2.88c6.867-2.215,9.082-5.317,9.082-8.2,0-3.987-3.323-6.2-8.2-6.2h-.665c-8.2-.222-14.842,4.43-17.057,10.412-.886,2.658-5.1,13.735-5.317,14.178-.886,2.215-2.215,3.766-4.209,3.766-1.551,0-1.994-.886-1.994-2.215,0-1.994,3.987-15.285,3.987-18.608a6.977,6.977,0,0,0-7.31-7.31c-5.317,0-8.639,3.323-12.627,10.19l-.443-.665a27.649,27.649,0,0,0,.443-4.652c0-3.1-1.772-5.538-5.538-5.538-5.1,0-7.753,4.874-8.639,7.975,0,0-5.1,14.178-5.981,16.393-1.108,2.215-1.994,3.323-3.544,3.323a1.859,1.859,0,0,1-1.994-1.994c0-1.994.665-3.766,2.88-15.285.886-4.43,3.323-7.975,3.323-9.083a.953.953,0,0,0-.886-.886c-.886,0-1.772,1.108-7.31,6.2C65.154,13.174,63.6,8.3,57.622,8.3,50.755,8.3,39.9,16.939,39.9,30.009c0,5.76,2.88,9.969,8.639,9.969,7.31,0,11.3-6.424,12.848-9.3l.222.222a20.455,20.455,0,0,0-.222,3.323c0,3.766,1.772,5.76,5.76,5.76,3.766,0,6.2-3.323,7.31-5.981s5.981-17.057,5.981-17.057c1.108-2.88,2.658-5.1,4.874-5.1,1.551,0,1.994,1.108,1.994,2.437,0,2.658-2.658,14.621-4.874,25.475a11.119,11.119,0,0,1,2.658-.443,17.377,17.377,0,0,1,3.1.443l3.1-12.627c.886-3.766,5.317-16.171,11.741-16.171,2.437,0,3.766,1.329,3.766,3.766,0,3.544-3.987,16.171-3.987,19.937,0,3.1,1.551,5.538,5.317,5.538,3.987,0,6.2-2.215,7.753-5.538.443-1.108,2.88-7.31,2.88-7.31A16.281,16.281,0,0,0,120.313,34a12.137,12.137,0,0,0,10.855,6.424c9.083,0,14.4-8.861,13.956-8.861C145.346,31.339,138.035,36.434,135.377,36.434Zm2.215-26.583c2.215,0,3.766,1.108,3.766,4.209a8.694,8.694,0,0,1-1.994,5.76c-2.658,3.1-9.526,4.209-14.4,5.1C125.851,14.06,132.94,9.851,137.592,9.851ZM50.533,37.763c-2.88,0-4.874-1.108-4.874-6.424,0-8.418,5.1-21.045,11.741-21.045,3.766,0,6.424,2.437,6.424,7.753C64.268,23.364,58.73,37.763,50.533,37.763Z" transform="translate(48.488 10.087)"/>
    <g id="XMLID_23_" transform="translate(172.993 27.223)">
      <path id="XMLID_24_" class="cls-2" d="M104.028,24.054c-2.658,3.766-7.753,9.526-15.507,11.076a12.732,12.732,0,0,1-4.209.222c-6.867-1.329-6.2-10.855-6.2-11.3s.665-.665.665-.222c0,.222,1.108,6.2,9.083,6.646,6.646,0,12.627-6.2,16.836-13.735a36.445,36.445,0,0,1,2.215-4.209c.222-.443,1.329-.443.665,1.329C107.129,15.636,105.357,22.061,104.028,24.054Z" transform="translate(-78.092 -12.289)"/>
    </g>
    <g id="XMLID_19_" transform="translate(198.264 18.608)">
      <path id="XMLID_20_" class="cls-1" d="M108.773,8.4c5.1,0,8.639,2.215,8.639,6.424,0,2.88-2.215,5.981-9.082,8.2A101.339,101.339,0,0,1,95.7,25.9c-.222,5.538,3.323,10.19,10.412,10.19a11.875,11.875,0,0,0,6.646-2.215c2.658-1.994,3.323-2.658,3.544-2.658a.476.476,0,0,1,.443.443c0,.886-5.538,8.418-14.621,8.418-7.753,0-12.627-5.981-12.627-13.07C89.943,14.824,101.905,8.4,108.773,8.4ZM95.924,24.793c4.874-.886,11.741-2.215,14.4-5.1a8.694,8.694,0,0,0,1.994-5.76c0-2.88-1.551-4.209-3.766-4.209C103.9,9.729,96.589,13.938,95.924,24.793Z" transform="translate(-89.5 -8.4)"/>
    </g>
    <path id="XMLID_17_" class="cls-2" d="M92.7,15.339C95.358,11.352,98.238,6.7,102,6.7a4.6,4.6,0,0,1,4.652,4.874c0,3.544-4.652,8.861-5.538,8.861-.443,0-.443-.222-.443-.443,0-.886,3.323-2.658,3.323-6.2a2.657,2.657,0,0,0-2.88-2.88,6.052,6.052,0,0,0-4.209,1.772C96.687,12.9,93.586,14.675,92.7,15.339Z" transform="translate(112.653 8.142)"/>
  </g>
</svg>
