<?xml version="1.0" encoding="utf-8"?>
<!-- Generator: Adobe Illustrator 19.0.0, SVG Export Plug-In . SVG Version: 6.00 Build 0)  -->
<svg version="1.1" id="Layer_1" xmlns="http://www.w3.org/2000/svg" xmlns:xlink="http://www.w3.org/1999/xlink" x="0px" y="0px"
	 viewBox="-5756 6022.6 24 26.6" style="enable-background:new -5756 6022.6 24 26.6;" xml:space="preserve">
<style type="text/css">
	.st0{enable-background:new    ;}
	.st1{fill:#95989A;}
</style>
<g class="st0">
	<path class="st1" d="M-5732.9,6040.5c-0.1,1.8-0.5,3.4-1.8,4.7s-2.9,1.7-4.7,1.8c-1.5,0.1-3.1,0.1-4.6,0.1s-3.1,0-4.6-0.1
		c-1.8-0.1-3.4-0.5-4.7-1.8c-1.3-1.3-1.7-2.9-1.8-4.7c-0.1-1.5-0.1-3.1-0.1-4.6s0-3.1,0.1-4.6c0.1-1.8,0.5-3.4,1.8-4.7
		c1.3-1.3,2.9-1.7,4.7-1.8c1.5-0.1,3.1-0.1,4.6-0.1s3.1,0,4.6,0.1c1.8,0.1,3.4,0.5,4.7,1.8s1.7,2.9,1.8,4.7c0.1,1.5,0.1,3.1,0.1,4.6
		S-5732.8,6038.9-5732.9,6040.5z M-5750.6,6027.2c-0.5,0.2-0.9,0.5-1.3,0.8s-0.6,0.8-0.8,1.3c-0.6,1.5-0.4,4.9-0.4,6.6
		s-0.1,5.1,0.4,6.6c0.2,0.5,0.5,0.9,0.8,1.3s0.8,0.6,1.3,0.8c1.5,0.6,4.9,0.4,6.6,0.4s5.1,0.1,6.6-0.4c0.5-0.2,0.9-0.5,1.3-0.8
		s0.6-0.8,0.8-1.3c0.6-1.5,0.5-4.9,0.5-6.6s0.1-5.1-0.5-6.6c-0.2-0.5-0.5-0.9-0.8-1.3s-0.8-0.6-1.3-0.8c-1.5-0.6-4.9-0.4-6.6-0.4
		S-5749.1,6026.6-5750.6,6027.2z M-5744,6041.6c-3.2,0-5.7-2.6-5.7-5.7s2.6-5.7,5.7-5.7s5.7,2.6,5.7,5.7S-5740.8,6041.6-5744,6041.6
		z M-5744,6032.2c-2,0-3.7,1.7-3.7,3.7s1.7,3.7,3.7,3.7s3.7-1.7,3.7-3.7S-5742,6032.2-5744,6032.2z M-5738.1,6031.3
		c-0.7,0-1.3-0.6-1.3-1.3c0-0.7,0.6-1.3,1.3-1.3s1.3,0.6,1.3,1.3C-5736.7,6030.7-5737.3,6031.3-5738.1,6031.3z"/>
</g>
</svg>
