<?xml version="1.0" encoding="utf-8"?>
<!-- Generator: Adobe Illustrator 19.0.0, SVG Export Plug-In . SVG Version: 6.00 Build 0)  -->
<svg version="1.1" id="Layer_1" xmlns="http://www.w3.org/2000/svg" xmlns:xlink="http://www.w3.org/1999/xlink" x="0px" y="0px"
	 viewBox="-5757 6023.6 22 24.3" style="enable-background:new -5757 6023.6 22 24.3;" xml:space="preserve">
<style type="text/css">
	.st0{enable-background:new    ;}
	.st1{fill:#333333;}
</style>
<g class="st0">
	<path class="st1" d="M-5735.8,6040c-0.1,1.6-0.5,3.1-1.7,4.3c-1.2,1.2-2.7,1.6-4.3,1.7c-1.4,0.1-2.8,0.1-4.2,0.1s-2.8,0-4.2-0.1
		c-1.6-0.1-3.1-0.5-4.3-1.7c-1.2-1.2-1.6-2.7-1.7-4.3c-0.1-1.4-0.1-2.8-0.1-4.2s0-2.8,0.1-4.2c0.1-1.6,0.5-3.1,1.7-4.3
		c1.2-1.2,2.7-1.6,4.3-1.7c1.4-0.1,2.8-0.1,4.2-0.1s2.8,0,4.2,0.1c1.6,0.1,3.1,0.5,4.3,1.7c1.2,1.2,1.6,2.7,1.7,4.3
		c0.1,1.4,0.1,2.8,0.1,4.2S-5735.7,6038.5-5735.8,6040z M-5752.1,6027.7c-0.5,0.2-0.8,0.4-1.2,0.8c-0.4,0.4-0.6,0.7-0.8,1.2
		c-0.5,1.4-0.4,4.6-0.4,6.1s-0.1,4.7,0.4,6.1c0.2,0.5,0.4,0.8,0.8,1.2c0.4,0.4,0.7,0.6,1.2,0.8c1.4,0.5,4.6,0.4,6.1,0.4
		s4.7,0.1,6.1-0.4c0.5-0.2,0.8-0.4,1.2-0.8c0.4-0.4,0.6-0.7,0.8-1.2c0.5-1.4,0.4-4.6,0.4-6.1s0.1-4.7-0.4-6.1
		c-0.2-0.5-0.4-0.8-0.8-1.2c-0.4-0.4-0.7-0.6-1.2-0.8c-1.4-0.5-4.6-0.4-6.1-0.4S-5750.7,6027.2-5752.1,6027.7z M-5746,6041
		c-2.9,0-5.3-2.4-5.3-5.3s2.4-5.3,5.3-5.3s5.3,2.4,5.3,5.3S-5743.1,6041-5746,6041z M-5746,6032.3c-1.9,0-3.4,1.5-3.4,3.4
		s1.5,3.4,3.4,3.4s3.4-1.5,3.4-3.4S-5744.1,6032.3-5746,6032.3z M-5740.5,6031.5c-0.7,0-1.2-0.5-1.2-1.2c0-0.7,0.5-1.2,1.2-1.2
		c0.7,0,1.2,0.5,1.2,1.2C-5739.3,6030.9-5739.8,6031.5-5740.5,6031.5z"/>
</g>
</svg>
