<?xml version="1.0" encoding="utf-8"?>
<!-- Generator: Adobe Illustrator 21.0.0, SVG Export Plug-In . SVG Version: 6.00 Build 0)  -->
<svg version="1.1" id="Layer_1" xmlns="http://www.w3.org/2000/svg" xmlns:xlink="http://www.w3.org/1999/xlink" x="0px" y="0px"
	 viewBox="0 0 441 96.9" style="enable-background:new 0 0 441 96.9;" xml:space="preserve">
<style type="text/css">
	.st0{fill:#FFFFFF;}
	.st1{fill:none;}
</style>
<path class="st0" d="M159.9,38.7c-2-2-4.8-3-8.3-3c-3.4,0-6.7,1.4-8.8,3.7c-0.7,0.8-1.3,1.6-1.7,2.5c-0.4-0.9-1-1.8-1.6-2.5
	c-2-2.4-5.2-3.7-8.9-3.7c-1.5,0-6.3,0.4-9.3,4.8v-4.1h-2.5v30h2.5v-17c0-3.7,0.8-6.3,2.6-8.3c1.4-1.8,3.9-3,6.4-3c0.1,0,0.2,0,0.3,0
	c3.3,0.1,5.7,1.2,7.3,3.3c1.3,1.8,2.1,3.7,2,8.3v16.8h2.5V49.6c0-4.6,0.4-6.2,2.2-8.4c1.8-2.3,4.9-3.2,7.1-3.2c2.8,0,5,0.8,6.5,2.3
	c1.9,1.9,2.8,4.9,2.8,9.3v16.8h2.5V49.6C163.4,44.6,162.2,40.9,159.9,38.7z"/>
<path class="st0" d="M196.7,36.3v6.1c-2.2-3.6-7-6.8-13.1-6.8c-10.2,0-15.8,8.1-15.8,15.7c0,7.6,5.5,15.7,15.8,15.7
	c5.6,0,10.3-2.5,13.1-6.9v6.1h2.5v-30H196.7z M196.9,51.3c0,7.6-5.6,13.3-13.1,13.3c-8.8,0-13.4-6.7-13.5-13.3
	c0-7.6,5.7-13.3,13.3-13.3C191.2,38,196.9,43.7,196.9,51.3z"/>
<path class="st0" d="M222.6,57.8c-0.3-6.4-4.7-7.6-8.6-8.6l-0.2-0.1c-3.9-1.1-5.9-2.2-6-5.5c-0.1-1.5,0.4-2.8,1.4-3.8
	c1.1-1.1,2.7-1.8,4.5-1.8h0.1c2.7,0,5.5,1.5,5.5,5.7v0.5h2.5v-0.5c0-4.8-3.2-8-8.1-8c-5,0-8.4,3.2-8.4,8c0.2,5.2,3.6,6.6,8.2,8
	c4.7,1,6.6,2.9,6.6,6.5c0.1,1.8-0.6,3.5-1.8,4.7c-1.2,1.2-2.8,1.9-4.7,1.9c-4.2,0-6.9-2.7-6.9-6.9v-0.5h-2.4l0,0.4
	c-0.2,2.4,0.6,4.6,2.2,6.3c1.8,1.9,4.4,3,7.2,3c2.6,0,4.9-1,6.6-2.8C221.9,62.5,222.7,60.2,222.6,57.8z"/>
<g>
	<path class="st0" d="M250.5,38.7c-2.4-2-5.6-3-9.4-3l-0.3,0c-3.8,0-8.6,1.6-11,5.1V24.8h-2.5v41.5h2.5V49.2c0-7,4.1-11,11.3-11.2
		c3.3,0,6,0.9,7.9,2.6c2.3,2,3.4,5.4,3.4,9.9v15.8h2.5V50.5C254.9,45.1,253.5,41.1,250.5,38.7z"/>
	<path class="st0" d="M288.3,36.3v6.1c-2.2-3.6-7-6.8-13.1-6.8c-10.2,0-15.8,8.1-15.8,15.7c0,7.6,5.5,15.7,15.8,15.7
		c5.6,0,10.3-2.5,13.1-6.8v6.1h2.5v-30H288.3z M288.5,51.3c0,7.6-5.6,13.3-13.1,13.3c-8.8,0-13.4-6.7-13.5-13.3
		c0-7.6,5.7-13.3,13.3-13.3C282.8,38,288.5,43.7,288.5,51.3z"/>
</g>
<g>
	<path class="st0" d="M329.5,51.4C329.5,51.4,329.5,51.4,329.5,51.4C329.5,51.4,329.5,51.4,329.5,51.4L329.5,51.4z"/>
	<polygon class="st0" points="329.1,51.4 329.1,51.3 330,51.3 	"/>
</g>
<g>
	<path class="st0" d="M363.5,51.4C363.5,51.4,363.5,51.4,363.5,51.4C363.5,51.4,363.5,51.4,363.5,51.4L363.5,51.4z"/>
	<polygon class="st0" points="363,51.4 363,51.3 363.9,51.3 	"/>
</g>
<g>
	<path class="st0" d="M320.7,38.7c-2.4-2-5.6-3-9.4-3l-0.3,0c-3.8,0-8.6,1.6-11,5.1V24.8h-2.5v41.5h2.5V49.2c0-7,4.1-11,11.3-11.2
		c2.3,0,5.5,0.5,7.9,2.6c2.3,2,3.4,5.4,3.4,9.9v15.8h2.5V50.5C325.1,45.1,323.6,41.1,320.7,38.7z"/>
	<path class="st0" d="M344.9,35.6c-9,0-15.8,6.8-15.8,15.7c0,8.9,6.8,15.7,15.8,15.7h0.2c6.5,0,11.9-3.5,14.4-9.4l0.3-0.7H357
		l-0.1,0.3c-2.2,4.6-6.6,7.4-12,7.4h-0.1c-8.7,0-12.9-7.3-13.2-12.7h28.9l0.1-1.3C360.2,40.8,352.4,35.6,344.9,35.6z M331.7,49.6
		c0.6-6.7,6.2-11.6,13.2-11.6c6.5-0.3,12.5,5.2,13.1,11.6H331.7z"/>
	<path class="st0" d="M378.8,35.6c-9,0-15.8,6.8-15.8,15.7c0,8.9,6.8,15.7,15.8,15.7h0.2c6.5,0,11.9-3.5,14.4-9.4l0.3-0.7h-2.7
		l-0.1,0.3c-2.2,4.6-6.6,7.4-12,7.4h-0.1c-8.7,0-12.9-7.3-13.2-12.7h28.9l0.1-1.3C394.1,40.8,386.3,35.6,378.8,35.6z M365.6,49.6
		c0.6-6.7,6.2-11.6,13.2-11.6c6.5-0.3,12.5,5.2,13.1,11.6H365.6z"/>
	<path class="st0" d="M411.7,35.6c-2.3,0.1-6.9,0.4-9.7,4.8v-4.1h-2.5v30h2.5V50.1c0-3.6,0.3-7.1,3.7-10.1c2.6-1.8,4.5-1.9,6.1-1.9
		l0.5,0v-2.4L411.7,35.6z"/>
</g>
<rect x="416" y="36.3" class="st0" width="2.5" height="30"/>
<g>
	<ellipse class="st1" cx="60.8" cy="49.1" rx="43" ry="43"/>
	<path class="st0" d="M60.8,93.1c-24.2,0-44-19.7-44-44c0-24.2,19.7-44,44-44c24.2,0,44,19.7,44,44C104.8,73.4,85,93.1,60.8,93.1z
		 M60.8,7C37.6,7,18.7,25.9,18.7,49.1c0,23.2,18.9,42.1,42.1,42.1c23.2,0,42.1-18.9,42.1-42.1C102.9,25.9,84,7,60.8,7z"/>
</g>
<path class="st0" d="M88.4,38.5c0,0-0.9-18.8-16.8-18.8v0c-5,0-8.5,1.9-11,4.4c-2.5-2.6-6-4.4-11-4.4v0c-15.8,0-16.8,18.8-16.8,18.8
	l-0.1,29.2c3,4.5,7,8.3,11.8,10.9c0-7,0-22.4,0-31.3c0-3.1,0-5.5,0-6.7c0-0.5,0-0.9,0-1.5c0-2.7,2.3-5.1,5-5.1c2.7,0,5.1,2.2,5.1,5
	c0,0.4,0,1.7,0,3.2c0,6.8,0,29.8,0,40c0,0,0.1,0,0.1,0v0.1c1.8,0.3,3.7,0.5,5.6,0.5c0.1,0,0.1,0,0.2,0c0.1,0,0.1,0,0.2,0
	c1.9,0,3.8-0.2,5.6-0.5v-0.1c0,0,0.1,0,0.1,0c0-8.3,0-25.4,0-34.9l-2.8,1.9l2.7-9.1c0,0,0,0,0,0l-7.6-5.8l9.5-0.2l3.1-9l3.1,9
	l9.5,0.2L76.7,40l2.8,9.1l-2.8-2c0,0,0,0.1,0,0.1c0,8.9,0,24.3,0,31.3c4.8-2.6,8.8-6.4,11.8-10.9L88.4,38.5z"/>
<polygon class="st0" points="418,18.5 419.7,23.3 424.7,23.4 420.7,26.4 422.2,31.3 418,28.4 413.9,31.3 415.4,26.4 411.3,23.4 
	416.4,23.3 "/>
</svg>
