<svg xmlns="http://www.w3.org/2000/svg" viewBox="2617.821 1869 149.8 40">
  <defs>
    <style>
      .cls-1 {
        fill: #010101;
      }
    </style>
  </defs>
  <g id="Group_227" data-name="Group 227" transform="translate(2617.821 1869)">
    <path id="Path_264" data-name="Path 264" class="cls-1" d="M0,0H10.643l5.5,25.632L21.552,0H32.2V39.911H23.858V20.576L19.246,39.911h-6.3L8.337,20.576V39.911H0Z"/>
    <path id="Path_265" data-name="Path 265" class="cls-1" d="M65.4,32.993,74.89,7.982H65.666V0H83.759V6.918L74.269,31.84h9.49v7.982H65.4Z" transform="translate(-7.396)"/>
    <path id="Path_266" data-name="Path 266" class="cls-1" d="M94.6,24.922,86.8,0h8.78l3.282,11.973L102.055,0h8.78l-7.894,24.922V39.911H94.516L94.6,24.922Z" transform="translate(-9.816)"/>
    <path id="Path_267" data-name="Path 267" class="cls-1" d="M115.8,0h8.426V29.446a2.254,2.254,0,1,0,4.435,0V0h8.426V29.18c0,3.37-.887,6.031-2.749,7.982S129.37,40,126.443,40a11.486,11.486,0,0,1-7.894-2.838c-1.863-1.951-2.749-4.523-2.749-7.982C115.8,29.18,115.8,0,115.8,0Z" transform="translate(-13.095)"/>
    <path id="Path_268" data-name="Path 268" class="cls-1" d="M144.1,0h8.78l4.878,15.344V0H166.1V39.911h-8.78L152.437,21.2V39.911H144.1Z" transform="translate(-16.295)"/>
    <g id="Group_226" data-name="Group 226" transform="translate(34.324)">
      <path id="Path_269" data-name="Path 269" class="cls-1" d="M55.374,0H45.086L38.7,39.911h5.41v-.177c0-.177.089-.443.089-.71a4.452,4.452,0,0,1,.177-1.064c.177-.8.266-1.6.443-2.483l.266-2.129c.177-1.774.443-3.548.532-5.322a18.893,18.893,0,0,1,.266-2.217c.089-.887.266-1.685.355-2.572-.089.355-.089.8-.177,1.153,0,.089,0,.089-.089.177-.177.266-.266.266-.443.266L45,24.922a1.223,1.223,0,0,1,0,.8c0,.177-.089.443-.089.621A.087.087,0,0,0,45,26.43v.177c-.089.177-.177.266-.266.443a.326.326,0,0,1-.266.089.326.326,0,0,0-.266.089.544.544,0,0,1-.532-.089c-.089-.089-.177-.177-.177-.266s-.089-.177-.089-.266l-.089-.089c-.089-.089,0-.355,0-.532s.177-.266.177-.443c.089-.177.089-.355.177-.532,0-.089.177-.355.177-.532l-.089-.089c-.089-.089,0-.177,0-.266,0-.177.089-.266.089-.443a7.987,7.987,0,0,0,.266-1.419l.266-1.863a21.569,21.569,0,0,0,0-2.395A8.076,8.076,0,0,1,45,13.925a3.227,3.227,0,0,1,1.242-1.419h0c0-.089.71-.266.71-.355a1.5,1.5,0,0,0,.443-.177,1.864,1.864,0,0,0,.621-.443c.089-.089.089-.355.089-.443a5.191,5.191,0,0,1,.177-1.153,7.511,7.511,0,0,1,.355-1.508.191.191,0,0,1,.177-.177h.355a8.6,8.6,0,0,1,1.508-.089,4.152,4.152,0,0,1,2.04.355c.089,0,.089.089.177.089l.089.089.089.089h0a.533.533,0,0,1,.089.355v.443a7.071,7.071,0,0,0-.266,1.33,2.256,2.256,0,0,1-.177.621l-.266.532a.123.123,0,0,0,0,.177c.089,0,.177.089.266.089H52.8c.089.089.177.089.355.177l.089.089h0c.089.089.266.177.355.266a2.446,2.446,0,0,1,1.242,1.064,4.218,4.218,0,0,1,.621,2.04,23.726,23.726,0,0,1,.089,4.346,5.727,5.727,0,0,1-.532,2.217,5.029,5.029,0,0,1-.71,1.153c-.089.177-.266.355-.355.532a2.953,2.953,0,0,1-.266.532l-.177.177c0,.355.089.71.089,1.064.089.443.089.887.177,1.33.177,1.6.266,3.193.443,4.789.177,1.242.266,2.395.443,3.636.089,1.153.266,2.306.355,3.459V40h6.3ZM53.245,8.692h0V8.426q0-.133-.266-.266a3.569,3.569,0,0,0-2.129-.443,2.455,2.455,0,0,0-.8.089c-.266,0-.621.089-.887.089.089-.089.266-.089.266-.177a1.23,1.23,0,0,1,.71-.621,2.325,2.325,0,0,1,1.33-.177,4.586,4.586,0,0,1,1.153.532c.089.089.177.089.266.177l.089.089a.533.533,0,0,0,.089.355h0l.266.266v.177A.275.275,0,0,0,53.245,8.692Z" transform="translate(-38.7)"/>
      <path id="Path_270" data-name="Path 270" d="M44.989,29.343a.31.31,0,0,1-.089.177l.177.177c0-.089.089-.089.089-.177,0-.177.089-.443.089-.621C45.077,29.077,45.077,29.255,44.989,29.343Z" transform="translate(-39.401 -3.268)"/>
    </g>
  </g>
</svg>
