<svg xmlns="http://www.w3.org/2000/svg" viewBox="2588 1562 222 42">
  <defs>
    <style>
      .cls-1 {
        fill: none;
      }

      .cls-2 {
        fill: #9c924a;
      }
    </style>
  </defs>
  <g id="Group_225" data-name="Group 225" transform="translate(2588 1562)">
    <rect id="Rectangle_40" data-name="Rectangle 40" class="cls-1" width="222" height="42"/>
    <g id="Group_224" data-name="Group 224">
      <path id="Path_257" data-name="Path 257" class="cls-2" d="M40.9,5.2v.4a4.618,4.618,0,0,0-2.6.7,6.615,6.615,0,0,0-1.8,1.4c-.4.5-.9,1-1.4,1.7L27.6,20.8V33.7a3.122,3.122,0,0,0,1,2.6,3.656,3.656,0,0,0,2.5.9v.4H21v-.4a3.486,3.486,0,0,0,2.5-.9,3.418,3.418,0,0,0,.9-2.6V21.2L16.1,8.9a11.2,11.2,0,0,0-2.4-2.7,5.494,5.494,0,0,0-2.8-.7V5.2H22.4v.4c-1.2,0-1.9.3-2.2.8a2.665,2.665,0,0,0-.5,1.3,4.082,4.082,0,0,0,.9,2l6.7,10,6-9a6.569,6.569,0,0,0,1.4-3.1,1.594,1.594,0,0,0-.4-1.2,2.3,2.3,0,0,0-.8-.7,1.884,1.884,0,0,0-.8-.2V5.2Z"/>
      <path id="Path_258" data-name="Path 258" class="cls-2" d="M54.4,4.8,64,32.4a15.775,15.775,0,0,0,1.4,3.1,4.56,4.56,0,0,0,1.3,1.2,3.506,3.506,0,0,0,1.6.3v.4H57.8V37a8.075,8.075,0,0,0,2.5-.3c.6-.2.9-.8.9-1.7a5.838,5.838,0,0,0-.4-2,.367.367,0,0,1-.1-.3l-2.9-8.6H46.7L44.1,32a7.688,7.688,0,0,0-.5,2.6c0,.9.2,1.5.7,1.8a3.576,3.576,0,0,0,1.9.4v.4H38.6v-.4a3.967,3.967,0,0,0,2.6-1.2,8.414,8.414,0,0,0,1.7-3.3L52,4.8ZM47,23.1H57.3L52,7.8h0Z"/>
      <path id="Path_259" data-name="Path 259" class="cls-2" d="M87.2,11.4h-.4a6.8,6.8,0,0,0-2.1-4.1,6.177,6.177,0,0,0-4.6-1.8,6.294,6.294,0,0,0-3.3.9,5.65,5.65,0,0,0-2.2,2.4,7.845,7.845,0,0,0-.8,3.5,7.635,7.635,0,0,0,.5,2.7,5.957,5.957,0,0,0,1.4,2.1,9.841,9.841,0,0,0,2.2,1.7c.8.5,2,1.2,3.4,2a23.7,23.7,0,0,1,5.5,3.9,7.244,7.244,0,0,1,2,5.3,8.308,8.308,0,0,1-1.1,4,7.973,7.973,0,0,1-3.2,3.1,10.655,10.655,0,0,1-5.3,1.2,12.478,12.478,0,0,1-3.5-.4,19.778,19.778,0,0,1-3.1-1.2,5.073,5.073,0,0,0-.9-.2.6.6,0,0,0-.6.3c-.1.2-.2.7-.4,1.4h-.4V30h.4a9.062,9.062,0,0,0,3.1,5.4,8.655,8.655,0,0,0,5.5,1.8,7.505,7.505,0,0,0,3.9-.9,5.474,5.474,0,0,0,2.1-2.2,6.513,6.513,0,0,0,.6-2.6,6.033,6.033,0,0,0-1.7-4.4,22.414,22.414,0,0,0-5-3.5,25.454,25.454,0,0,1-3.4-2c-.7-.5-1.5-1.1-2.3-1.8a10.349,10.349,0,0,1-2-2.8,7.824,7.824,0,0,1-.7-3.5A8.834,8.834,0,0,1,72,9.1a8.322,8.322,0,0,1,3.4-3.3,10.326,10.326,0,0,1,5-1.3,13.918,13.918,0,0,1,4.4.7,2,2,0,0,0,.9.2c.5,0,.8-.3,1-1h.4l.1,7Z"/>
      <path id="Path_260" data-name="Path 260" class="cls-2" d="M125.9,5.2v.4a9.012,9.012,0,0,0-1.3.2,3.552,3.552,0,0,0-.9.4,2.2,2.2,0,0,0-.9,1.1,6.248,6.248,0,0,0-.2,1.8v.4l1.1,24a5.279,5.279,0,0,0,.7,2.6c.4.7,1.4,1.1,3,1.1v.4H116.9v-.4a3.519,3.519,0,0,0,2.8-1.2,4.5,4.5,0,0,0,.6-3L119.2,8.2h-.1L107.7,37.6,96.9,9.1h-.1L95.6,32a8.153,8.153,0,0,0,.2,2.9,2.84,2.84,0,0,0,1,1.5,7.319,7.319,0,0,0,2.1.7v.4H90.8v-.4a4.267,4.267,0,0,0,2.4-.7,4.185,4.185,0,0,0,1.1-1.8,16.793,16.793,0,0,0,.4-3L96,7.9c0-.1-.1-.2-.3-.5L95,6.7c-.3-.2-.5-.4-.7-.5A2.665,2.665,0,0,0,93,5.7a6.622,6.622,0,0,0-1.5-.1V5.2H99l10,26.4L119.1,5.2h6.8Z"/>
      <path id="Path_261" data-name="Path 261" class="cls-2" d="M140.3,5.2v.4a4.147,4.147,0,0,0-2.5.8,3.087,3.087,0,0,0-1,2.7V33.6a3.387,3.387,0,0,0,1.1,2.7,3.492,3.492,0,0,0,2.4.8v.4H130v-.4a4.069,4.069,0,0,0,2.4-.8,3.209,3.209,0,0,0,1-2.7V9a3.3,3.3,0,0,0-1-2.8,3.986,3.986,0,0,0-2.4-.7V5.2Z"/>
      <path id="Path_262" data-name="Path 262" class="cls-2" d="M177,5.2v.4a6.4,6.4,0,0,0-1.9.5A2.1,2.1,0,0,0,174,7.4a6.384,6.384,0,0,0-.4,2.7V38.4h-.2L148.6,10.7V30.6a29.857,29.857,0,0,0,.2,3.7,3.035,3.035,0,0,0,.6,1.7,3.114,3.114,0,0,0,2.8,1.2v.4H144v-.4a3.281,3.281,0,0,0,2.1-.6,2.931,2.931,0,0,0,1.1-1.9,20.747,20.747,0,0,0,.3-4.1V9.4l-1.1-1.2a8.121,8.121,0,0,0-2.3-2.1,6.463,6.463,0,0,0-2.1-.6V5.2h6.1l24.4,27.4V11.7a27.38,27.38,0,0,0-.2-3.5,3.2,3.2,0,0,0-1-1.9,4.115,4.115,0,0,0-2.5-.8V5.2Z"/>
      <path id="Path_263" data-name="Path 263" class="cls-2" d="M192.5,4.8l9.7,27.7a15.776,15.776,0,0,0,1.4,3.1,4.56,4.56,0,0,0,1.3,1.2,3.506,3.506,0,0,0,1.6.3v.4H196v-.4a8.075,8.075,0,0,0,2.5-.3c.6-.2.9-.8.9-1.7a5.839,5.839,0,0,0-.4-2,.367.367,0,0,1-.1-.3L196,24.2H184.8l-2.6,7.9a7.689,7.689,0,0,0-.5,2.6c0,.9.2,1.5.7,1.8a3.576,3.576,0,0,0,1.9.4v.4h-7.6v-.4a3.967,3.967,0,0,0,2.6-1.2,8.414,8.414,0,0,0,1.7-3.3l9.1-27.8,2.4.2Zm-7.3,18.3h10.3L190.2,7.8h-.1Z"/>
    </g>
  </g>
</svg>
