<svg xmlns="http://www.w3.org/2000/svg" viewBox="-3441 480.312 305.992 106.605">
  <defs>
    <style>
      .cls-1 {
        fill: #565757;
      }

      .cls-2 {
        fill: #a3cf6e;
      }

      .cls-3 {
        fill: #ec1f8e;
      }

      .cls-4 {
        fill: #52a9de;
      }
    </style>
  </defs>
  <g id="_3a2ilati-logo" data-name="3a2ilati-logo" transform="translate(-3453.66 467.36)">
    <g id="Group_575" data-name="Group 575" transform="translate(12.66 12.952)">
      <path id="Path_793" data-name="Path 793" class="cls-1" d="M104.179,22.47c0,4.4-4.688,9.091-9.089,9.091a4.609,4.609,0,0,1-4.547-4.688c0-4.261,4.4-8.664,9.091-8.805A4.544,4.544,0,0,1,104.179,22.47Z" transform="translate(75.788 -7.149)"/>
      <path id="Path_794" data-name="Path 794" class="cls-1" d="M162.649,22.47c0,4.4-4.686,9.091-9.091,9.091a4.61,4.61,0,0,1-4.547-4.688c0-4.261,4.4-8.664,9.091-8.805A4.545,4.545,0,0,1,162.649,22.47Z" transform="translate(142.187 -7.149)"/>
      <g id="Group_574" data-name="Group 574">
        <path id="Path_795" data-name="Path 795" class="cls-1" d="M59.11,64.97c0,14.49-13.352,26.988-28.836,26.988-10.512,0-17.615-6.249-17.615-15.481,0-6.819,4.4-12.927,9.235-12.927,2.556,0,4.547,1.7,4.547,3.977A7.394,7.394,0,0,1,25.3,71.076l-1,1.563a7.579,7.579,0,0,0-1.7,4.547c0,4.12,3.979,7.1,9.519,7.1,9.516,0,18.04-9.376,18.04-19.6,0-6.251-3.693-10.939-8.666-10.939a13.3,13.3,0,0,0-3.411.711,12.787,12.787,0,0,1-4.12.852c-3.122,0-5.54-1.845-5.54-4.4,0-3.409,3.129-5.538,8.669-5.538a29.451,29.451,0,0,1,5.822.707c7.673-2.27,13.638-9.091,13.638-15.34a8.277,8.277,0,0,0-8.666-8.664c-4.688,0-7.528,2.556-8.948,8.1-.711,2.981-2.413,4.545-4.831,4.545a4.5,4.5,0,0,1-4.4-4.688c0-7.814,9.519-15.345,19.462-15.345,9.235,0,15.908,6.676,15.908,15.913,0,7.953-4.829,14.774-13.636,19.458C56.693,53.038,59.11,57.867,59.11,64.97Z" transform="translate(-12.66 -10.99)"/>
        <path id="Path_796" data-name="Path 796" class="cls-1" d="M48.276,76.972c-6.394,0-10.939-5.681-10.939-13.781,0-18.181,17.756-35.939,35.8-35.939,6.815,0,11.648,2.559,11.648,6.251,0,2.556-2.131,4.263-4.972,4.263a10.633,10.633,0,0,1-3.836-.711,25.426,25.426,0,0,0-6.819-.993A19.749,19.749,0,0,0,54.529,42.6c-5.4,5.826-8.948,13.352-8.948,19.176,0,4.4,2.413,7.244,5.963,7.244,2.986,0,6.394-1.986,9.094-5.256,2.415-2.981,3.833-5.822,6.108-12.216,1.99-5.4,2.7-6.533,4.545-7.812,2.556-1.7,4.545-2.7,5.256-2.7a1.343,1.343,0,0,1,1.422,1.42c0,.568-.141,1-.993,3.127l-5.4,14.913A20.947,20.947,0,0,0,70.3,65.608a1.9,1.9,0,0,0,1.99,2.129,3.891,3.891,0,0,0,1.277-.143l1.847-.709a5.335,5.335,0,0,1,1.279-.286,1.419,1.419,0,0,1,1.561,1.561c0,1.279-.709,2.134-4.263,4.547-3.833,2.843-6.392,4.12-8.1,4.12-2.556,0-3.552-1.561-3.977-6.108C57.083,75.125,53.107,76.972,48.276,76.972Z" transform="translate(15.365 3.288)"/>
        <path id="Path_797" data-name="Path 797" class="cls-1" d="M92.606,83.1c3.268,0,4.688-1.422,6.533-6.678,1.136-3.265,2.559-4.547,4.972-4.547,2.7,0,4.545,2.277,4.545,5.258,0,6.96-7.528,13.92-15.059,13.92-3.693,0-6.106-.709-12.5-3.552a65.032,65.032,0,0,0-7.528-3.122l-1.138.852c-5.4,3.693-7.385,4.688-10.087,4.688-3.693,0-6.249-2.134-6.249-5.4,0-4.688,4.829-8.526,10.937-8.526a27.616,27.616,0,0,1,4.4.286c8.807-7.673,19.035-18.326,24.577-26,5.54-7.385,8.38-13.493,8.38-18.04,0-5.115-3.977-8.807-9.519-8.807-6.108,0-10.228,4.4-10.228,11.225a20.412,20.412,0,0,0,.284,3.693,16.438,16.438,0,0,1,.141,2.556,4.672,4.672,0,0,1-4.688,4.831c-3.552,0-6.249-4.12-6.249-9.66,0-11.364,9.657-20.6,21.735-20.6,10.512,0,17.9,6.96,17.9,16.9,0,11.08-10.087,25.286-31.537,44.6L80.1,78.836C85.928,81.531,90.473,83.1,92.606,83.1Z" transform="translate(36.667 -10.081)"/>
        <path id="Path_798" data-name="Path 798" class="cls-1" d="M94.81,41.6c.854-2.556,1.138-3.552,1.138-4.4a1.462,1.462,0,0,0-1.563-1.422,6.311,6.311,0,0,0-1.561.143,4.964,4.964,0,0,1-1.7.425,1.4,1.4,0,0,1-1.279-1.418c0-1.7,1.845-3.411,5.256-5.256,3.409-1.706,5.54-2.415,7.671-2.415,2.272,0,3.836,1.279,3.836,3.268,0,1.42-.427,2.84-3.977,12.784L99.356,52.4l-2.843,7.528c-1.277,3.552-1.7,5.4-1.7,6.676,0,1.136.57,1.847,1.563,1.847a3.962,3.962,0,0,0,1.847-.425,7.628,7.628,0,0,1,1.847-.427,1.162,1.162,0,0,1,1.136,1.281c0,1.279-1.279,2.843-4.261,4.829a16.7,16.7,0,0,1-8.523,2.984c-2.413,0-4.12-1.847-4.12-4.549a11.179,11.179,0,0,1,.852-3.977Z" transform="translate(68.698 3.289)"/>
        <path id="Path_799" data-name="Path 799" class="cls-1" d="M111.169,88.806c-3.122,2.274-5.965,3.554-8.1,3.554-3.977,0-6.535-3.411-6.535-8.382,0-8.1,6.678-29.688,14.488-46.448,7.246-15.629,17.333-24.577,27.843-24.577,3.552,0,5.826,1.706,5.826,4.263,0,2.274-2.272,4.12-5.542,4.263l-2.415.141c-7.246.425-12.359,5.965-19.317,21.026a166.125,166.125,0,0,0-10.228,28.122c-1.563,5.542-1.988,7.957-1.988,9.944,0,2.274.852,3.554,2.7,3.554a7.424,7.424,0,0,0,3.409-1.136c2.413-1.563,2.413-1.563,3.124-1.563A1.555,1.555,0,0,1,116,82.986C116,84.4,114.3,86.536,111.169,88.806Z" transform="translate(82.596 -12.952)"/>
        <path id="Path_800" data-name="Path 800" class="cls-1" d="M118.187,76.972c-6.392,0-10.939-5.681-10.939-13.781,0-18.181,17.756-35.939,35.8-35.939,6.819,0,11.65,2.559,11.65,6.251,0,2.556-2.134,4.263-4.974,4.263a10.626,10.626,0,0,1-3.836-.711,25.426,25.426,0,0,0-6.819-.993A19.753,19.753,0,0,0,124.436,42.6c-5.4,5.826-8.948,13.352-8.948,19.176,0,4.4,2.415,7.244,5.967,7.244,2.981,0,6.39-1.986,9.089-5.256,2.413-2.981,3.834-5.822,6.108-12.216,1.988-5.4,2.7-6.533,4.545-7.812,2.559-1.7,4.547-2.7,5.256-2.7a1.342,1.342,0,0,1,1.42,1.42c0,.568-.141,1-.993,3.127l-5.4,14.913a21.01,21.01,0,0,0-1.277,5.115,1.9,1.9,0,0,0,1.988,2.129,3.9,3.9,0,0,0,1.277-.143l1.847-.709a5.365,5.365,0,0,1,1.277-.286,1.422,1.422,0,0,1,1.563,1.561c0,1.279-.709,2.134-4.261,4.547-3.836,2.843-6.392,4.12-8.1,4.12-2.556,0-3.554-1.561-3.979-6.108C126.994,75.125,123.016,76.972,118.187,76.972Z" transform="translate(94.759 3.288)"/>
        <path id="Path_801" data-name="Path 801" class="cls-1" d="M151.406,35.04a18.356,18.356,0,0,0,4.69-.568,14.128,14.128,0,0,1,2.413-.427,3.253,3.253,0,0,1,3.268,3.411c0,2.7-2.134,4.545-5.4,4.545a26.8,26.8,0,0,1-2.981-.141h-4.829l-8.239,24c-.993,2.984-1.42,4.545-1.42,5.683a2.8,2.8,0,0,0,2.984,3.124,9.078,9.078,0,0,0,4.547-1.561,5.523,5.523,0,0,1,2.7-1,1.6,1.6,0,0,1,1.706,1.42c0,1.277-1.422,3.268-3.838,5.252-3.127,2.559-7.1,4.265-10.371,4.265-4.261,0-7.1-2.843-7.1-7.246a14.264,14.264,0,0,1,.711-4.4l10.369-29.545a11.536,11.536,0,0,0-1.988-.143h-1.138c-2.129,0-2.984-.711-2.984-2.274a2.96,2.96,0,0,1,1.99-2.84l2.272-1.279c2.843-1.563,5.113-4.12,7.385-8.237,2.415-4.4,3.836-5.685,5.965-5.685a2.135,2.135,0,0,1,2.415,2.274,7.87,7.87,0,0,1-.709,3.122l-1.277,3.693c-.286,1-.711,1.99-1,3.124l-.57,1.42h.427Z" transform="translate(120.067 -3.361)"/>
        <path id="Path_802" data-name="Path 802" class="cls-1" d="M153.282,41.6c.85-2.556,1.136-3.552,1.136-4.4a1.462,1.462,0,0,0-1.563-1.422,6.31,6.31,0,0,0-1.561.143,4.963,4.963,0,0,1-1.706.425,1.4,1.4,0,0,1-1.279-1.418c0-1.7,1.847-3.411,5.258-5.256,3.411-1.706,5.54-2.415,7.673-2.415,2.268,0,3.833,1.279,3.833,3.268,0,1.42-.425,2.84-3.977,12.784L157.829,52.4l-2.84,7.528c-1.279,3.552-1.7,5.4-1.7,6.676,0,1.136.568,1.847,1.559,1.847a3.962,3.962,0,0,0,1.847-.425,7.6,7.6,0,0,1,1.845-.427,1.163,1.163,0,0,1,1.138,1.281c0,1.279-1.279,2.843-4.263,4.829a16.689,16.689,0,0,1-8.521,2.984c-2.418,0-4.122-1.847-4.122-4.549a11.178,11.178,0,0,1,.852-3.977Z" transform="translate(135.098 3.289)"/>
        <path id="Path_803" data-name="Path 803" class="cls-2" d="M104.72,23.012c0,4.4-4.688,9.091-9.091,9.091a4.607,4.607,0,0,1-4.545-4.688c0-4.261,4.4-8.664,9.091-8.807A4.548,4.548,0,0,1,104.72,23.012Z" transform="translate(76.402 -6.536)"/>
        <path id="Path_804" data-name="Path 804" class="cls-3" d="M163.189,23.012c0,4.4-4.686,9.091-9.091,9.091a4.606,4.606,0,0,1-4.545-4.688c0-4.261,4.4-8.664,9.091-8.807A4.548,4.548,0,0,1,163.189,23.012Z" transform="translate(142.803 -6.536)"/>
      </g>
    </g>
    <g id="Group_576" data-name="Group 576" transform="translate(239.118 100.11)">
      <path id="Path_805" data-name="Path 805" class="cls-1" d="M120.726,65.188a1.988,1.988,0,0,1-2.029-2.136,3.179,3.179,0,0,1,2.847-3.342,2.03,2.03,0,0,1,2.082,2.245A3.186,3.186,0,0,1,120.726,65.188Z" transform="translate(-118.697 -47.009)"/>
      <path id="Path_806" data-name="Path 806" class="cls-4" d="M121.265,65.728a1.987,1.987,0,0,1-2.027-2.136,3.175,3.175,0,0,1,2.849-3.34,2.029,2.029,0,0,1,2.082,2.242A3.189,3.189,0,0,1,121.265,65.728Z" transform="translate(-118.083 -46.394)"/>
      <path id="Path_807" data-name="Path 807" class="cls-1" d="M129.437,73.153c-3.013,0-5.094-2.409-5.094-5.969a16.067,16.067,0,0,1,3.176-8.6c2.247-3.122,5.258-4.818,8.545-4.818,2.027,0,3.616.987,3.616,2.3a1.835,1.835,0,0,1-1.918,1.7,3.2,3.2,0,0,1-1.26-.329,4.427,4.427,0,0,0-1.753-.382,5.533,5.533,0,0,0-4.109,2.245,12.932,12.932,0,0,0-3.067,7.614c0,1.807.933,3.069,2.356,3.069a4.028,4.028,0,0,0,3.122-2.247l.438-.711a1.507,1.507,0,0,1,1.316-.88,1.355,1.355,0,0,1,1.369,1.482C136.172,70.25,132.612,73.153,129.437,73.153Z" transform="translate(-112.285 -53.763)"/>
      <path id="Path_808" data-name="Path 808" class="cls-1" d="M142.471,53.865c2.469,0,4.165.985,4.165,2.356a1.6,1.6,0,0,1-1.589,1.642,5.062,5.062,0,0,1-2.029-.547,4.369,4.369,0,0,0-1.7-.329c-3.56,0-7.067,4.656-7.067,9.367,0,2.3,1.149,3.836,2.96,3.836,2.68,0,5.2-3.233,5.2-6.74a6.935,6.935,0,0,0-.384-2.08l-.327-.876a1.96,1.96,0,0,1-.164-.6,1.332,1.332,0,0,1,1.313-1.316c1.478,0,2.522,1.864,2.522,4.545,0,5.425-3.836,9.807-8.493,9.807-3.4,0-5.642-2.52-5.642-6.409C131.242,59.945,136.609,53.865,142.471,53.865Z" transform="translate(-104.45 -53.647)"/>
      <path id="Path_809" data-name="Path 809" class="cls-1" d="M152.179,53.925c1.753,0,2.738.985,2.9,2.958,1.971-2.027,3.671-2.9,5.807-2.9,2.576,0,4.165,1.807,4.165,4.876a18.763,18.763,0,0,1-4.822,11.5c-1.587,1.587-3.614,2.738-4.874,2.738a1.6,1.6,0,0,1-1.644-1.589c0-.931.327-1.258,2.245-2.189a11.3,11.3,0,0,0,5.86-9.642c0-1.589-.711-2.573-1.914-2.573-2.084,0-3.947,2.027-5.751,6.462l-1.313,3.18c-1.149,2.847-2.027,4.491-3.071,5.476a2.828,2.828,0,0,1-1.64.933c-.6,0-.88-.276-.88-.824a3.067,3.067,0,0,1,.384-1.313c1.149-2.247,1.864-3.889,3.451-7.778,1.042-2.578,1.371-3.727,1.371-4.493a1.488,1.488,0,0,0-1.478-1.644,4.5,4.5,0,0,0-3.342,1.918,15.6,15.6,0,0,0-2.245,4.271c-.331.878-.711,1.756-1.1,2.738-1.914,4.658-3.669,7.122-5.094,7.122a.881.881,0,0,1-.878-.933,2.7,2.7,0,0,1,.387-1.151,55.589,55.589,0,0,0,3.285-7.451c1.313-3.449,1.916-5.256,1.916-5.858,0-.442-.22-.6-.547-.6a1.783,1.783,0,0,0-.822.164,2.42,2.42,0,0,1-.549.111.5.5,0,0,1-.438-.549c0-.549.658-1.258,2.247-2.136a5.78,5.78,0,0,1,2.685-.931,1.182,1.182,0,0,1,1.313,1.2c0,.164-.053.278-.111.878A7.277,7.277,0,0,1,152.179,53.925Z" transform="translate(-96.411 -53.707)"/>
    </g>
  </g>
</svg>
