<svg xmlns="http://www.w3.org/2000/svg" viewBox="-9909 457.328 342.457 120.923">
  <defs>
    <style>
      .cls-1 {
        fill: #de4769;
      }

      .cls-2 {
        fill: #fff;
      }

      .cls-3 {
        fill: #3b2314;
      }

      .cls-4 {
        fill: #565757;
      }

      .cls-5 {
        fill: #a3cf6e;
      }

      .cls-6 {
        fill: #ec1f8e;
      }

      .cls-7 {
        fill: #52a9de;
      }
    </style>
  </defs>
  <g id="at-logo" transform="translate(-9923.492 142.757)">
    <g id="XMLID_52_" transform="translate(244.234 320.269)">
      <circle id="XMLID_31_" class="cls-1" cx="56.357" cy="56.357" r="56.357"/>
      <g id="XMLID_53_" transform="translate(8.583 28.761)">
        <path id="XMLID_59_" class="cls-2" d="M498.113,396.083c.77,0,0,1.078.308,1.386,3.85,1.386,10.624,1.386,12.78-1.386C507.813,394.7,502.117,395.776,498.113,396.083Zm15.09,0c.308,7.545-18.94,1.078-21.4,5.7-.77,7.853,0,16.784-.308,24.945-8.623,10.008-39.881,11.394-52.816,3.849-2.156-1.078-3.234-3.54-4.312-4.927V403.168c-1.386-1.386-2.926-2.464-4.312-3.85-4.927,0-15.705.771-14.935-3.849.308-2.926,6.467-2.926,10.317-2.464,3.85.308,5.7,1.078,8.931.77.309-3.849-.77-6.776.309-9.239,2.155-6.005,18.17-5.39,24.637-7.083-.77-6.005,7.852-7.083,7.082-.308,13.55.77,26.332,2.156,25.253,17.862,3.234,1.078,4.927,0,7.853-.771C504.272,393,513.2,393,513.2,396.083Zm-21.4,3.7c1.078-1.386,5.39,0,4.927-3.234-1.386.77-3.542.308-4.927,0Zm-1.386,26.64V390.387c-13.859,6.467-41.729,7.853-53.739-1.078v6.775c1.847,0,2.926-2.464,4.311-1.848-.77,2.465-4.62,1.848-4.311,5.39,2.156-.77,4.311-3.234,6.005-2.925-1.386,2.155-3.849,3.234-6.005,4.312.308,1.847-.309,4.311.308,5.39,1.386-2.156,4.312-3.234,7.083-3.85-1.848,2.155-4.62,3.542-7.546,4.62v6.006c1.848-1.078,4.62-4.312,8.162-4.312-2.156,2.464-6.467,4.312-8.162,5.7v5.39c1.848-.309,4.62-3.541,7.546-3.234-1.848,2.155-4.927,3.234-7.546,4.62-.77,4.311,1.848,5.39,3.542,6.775,1.386-1.078,2.464-2.464,4.62-2.464-.77,1.847-2.926,1.386-3.235,3.234C455,434.579,479.327,434.579,490.414,426.418Zm-.77-38.189c.77-4.312-5.39-6.467-8.623-7.545-4.62-1.386-8.931-2.464-14.32-2.156-1.078.308,0,3.542-1.078,4.312a5.421,5.421,0,0,1-5.7,0c0-1.386.308-3.542-.77-3.85-8.161,1.386-17.861,1.848-23.56,6.006,5.39,11.394,30.334,10.317,44.192,7.545C483.176,391.925,489.336,390.386,489.643,388.23Zm-25.252-6.312c0-2.464,1.386-7.853-1.848-7.853-1.386,2.464-.77,5.39-.308,7.853ZM434.364,400.4c.309-1.386-.77-1.078-1.078-1.386,1.078-.308,1.078-1.847,1.078-3.234-1.386-.309-2.156.308-3.234.308v1.847C432.208,398.7,433.749,399.008,434.364,400.4Zm-4.927-2.772V394.7c-4.312.309-10.318-1.078-12.473,1.386C420.2,397.931,425.126,397.623,429.437,397.623Z" transform="translate(-415.077 -372.491)"/>
        <path id="XMLID_22_" class="cls-2" d="M458.926,439.84c.77,2.155-4.62,3.542-6.006,5.7C452.612,442.3,457.232,441.533,458.926,439.84Z" transform="translate(-430.4 -399.771)"/>
        <path id="XMLID_21_" class="cls-2" d="M455.26,461.142c.77-1.848,2.925-2.156,4.927-2.926C459.263,460.063,457.107,461.449,455.26,461.142Z" transform="translate(-431.353 -407.215)"/>
        <path id="XMLID_20_" class="cls-2" d="M458.622,428.969a11.3,11.3,0,0,1-6.468,4.311C453.386,430.816,456.158,429.739,458.622,428.969Z" transform="translate(-430.095 -395.368)"/>
        <path id="XMLID_19_" class="cls-2" d="M458.1,418.357c-1.386,2.464-4.312,3.234-6.468,4.619C452.1,420.821,455.64,418.973,458.1,418.357Z" transform="translate(-429.886 -391.069)"/>
        <path id="XMLID_18_" class="cls-2" d="M458.617,452.262c-1.078,2.156-3.85,3.234-5.7,4.312C452.61,454.418,456.461,453.34,458.617,452.262Z" transform="translate(-430.398 -404.803)"/>
      </g>
    </g>
    <g id="XMLID_34_" transform="translate(14.492 314.571)">
      <path id="XMLID_17_" class="cls-3" d="M296.523,414.992c-2.31,0-3.541,1.232-3.541,3.542a2.905,2.905,0,0,0,.924,2.31,3.4,3.4,0,0,0,2.31.925,3.312,3.312,0,0,0,3.542-3.541,3.159,3.159,0,0,0-3.234-3.235Z" transform="translate(-127.296 -355.247)"/>
      <path id="XMLID_16_" class="cls-3" d="M309.982,414.992a3.172,3.172,0,0,0-3.542,3.542,2.906,2.906,0,0,0,.924,2.31,3.4,3.4,0,0,0,2.31.925,3.312,3.312,0,0,0,3.541-3.541,3.159,3.159,0,0,0-3.233-3.235Z" transform="translate(-132.747 -355.247)"/>
      <path id="XMLID_47_" class="cls-3" d="M287.431,355.436c-2.925,0-6.775,2.31-11.857,7.083a18.983,18.983,0,0,0,.309-3.85l-.925-19.863-5.7-5.081.309,1.847c2,16.014,2.926,24.791,2.926,26.639,0,2-1.232,4.465-3.235,6.775l-2,2,.616,4.773h-.925a3.894,3.894,0,0,1-3.542-1.54c-.615-.925-.924-1.54-1.231-2a26.949,26.949,0,0,1-.616-6.467c0-1.54.308-4.466.616-8.931v-.309l-5.081-4.466v1.232c0,1.847,0,4.157.308,7.7s.309,5.851.309,7.7c0,2.31-1.232,4.157-3.542,5.851a8.679,8.679,0,0,1-4.157,1.54h0a6.866,6.866,0,0,1-5.081-2.31l3.234-7.392-1.54.616a108.332,108.332,0,0,1-18.015,6.466,72.544,72.544,0,0,1-18.94,2.618c-6.16,0-10.933-.924-14.474-2.926-2.617-1.54-4.157-2.925-4.157-4.157,0-.616.616-2,5.081-5.39l.308-.309v-5.39l-.924.924c-4.773,3.85-7.083,8.007-7.083,12.165,0,7.083,6.467,10.933,19.249,10.933h2.31a4.222,4.222,0,0,0-.308,2,5.953,5.953,0,0,0,1.231,3.234,4.283,4.283,0,0,0,3.235,1.232c2.925,0,4.466-1.54,4.466-4.466a3.642,3.642,0,0,0-1.232-2.925h.309a79.348,79.348,0,0,0,11.548-2.926,117.536,117.536,0,0,0,12.78-4.773,5.866,5.866,0,0,0,.924,2.926,8.9,8.9,0,0,0,2.618,3.542,4.9,4.9,0,0,0,3.234,1.54h1.849a9.8,9.8,0,0,0,6.159-3.542c.616-.924,1.232-1.847,1.847-2.925a12.224,12.224,0,0,0,2.31,3.85,6.412,6.412,0,0,0,5.081,2.617h4.774c6.466,0,12.164-2,16.322-6.159,4.157-3.851,6.159-8.316,6.159-13.243C293.283,356.667,290.05,355.436,287.431,355.436Zm-1.54,3.233c2.31,2.31,3.235,4.466,3.235,6.468a20.153,20.153,0,0,1-.616,2.925c-3.235,5.081-8.931,7.7-16.63,7.7h-2.31a107.181,107.181,0,0,1,7.391-8.932C280.5,363.443,283.582,360.517,285.892,358.669Z" transform="translate(-84.945 -322.329)"/>
      <path id="XMLID_13_" class="cls-3" d="M371.213,346.311h0l-5.7-5.081,2.31,27.255c.308,6.776.308,9.239,0,10.009a9.25,9.25,0,0,1-6.16,4.773l-.616.308,2.311,4.773.615-.309a22.175,22.175,0,0,0,5.081-4.157c2-3.235,2.925-8.623,2.925-16.014,0-5.7,0-8.316-.308-13.55A39.911,39.911,0,0,1,371.213,346.311Z" transform="translate(-154.868 -325.369)"/>
      <path id="XMLID_43_" class="cls-3" d="M371.5,322.578c-.616.309-.924.309-1.54.616v-.616a10.787,10.787,0,0,0,0-4.466c-.616-2.31-1.54-3.542-3.234-3.542-1.232,0-2.31.924-4.157,2.618-2,1.847-2.926,3.542-2.926,5.39s1.231,2.925,2.926,3.849a51.774,51.774,0,0,0-3.85,3.542v5.236l1.231-1.54a18.066,18.066,0,0,1,5.851-5.7c1.848-.616,3.235-.925,4.157-1.232h.308l2-4.773Zm-1.847.462a7.265,7.265,0,0,1-2.31.308,9.948,9.948,0,0,1-3.85-.924,6.917,6.917,0,0,1-1.54-.924h0a3.07,3.07,0,0,1,1.848-2.31,9.984,9.984,0,0,1,3.541-.925c.309,0,.309,0,.309.616a3.338,3.338,0,0,1-.309,1.54l-.309.309Z" transform="translate(-153.924 -314.571)"/>
      <path id="XMLID_10_" class="cls-3" d="M78.032,360.9a2.993,2.993,0,0,0,3.234-3.234,2.905,2.905,0,0,0-.924-2.31,3.4,3.4,0,0,0-2.31-.924,2.994,2.994,0,0,0-3.235,3.233,3.16,3.16,0,0,0,3.235,3.234Z" transform="translate(-38.919 -330.716)"/>
      <path id="XMLID_9_" class="cls-3" d="M29.374,370.214a2.993,2.993,0,0,0,3.235-3.234,2.9,2.9,0,0,0-.925-2.31,3.4,3.4,0,0,0-2.31-.925,2.993,2.993,0,0,0-3.234,3.234,3.158,3.158,0,0,0,3.234,3.233Z" transform="translate(-19.21 -334.49)"/>
      <path id="XMLID_8_" class="cls-3" d="M20.961,366.98a2.9,2.9,0,0,0-.925-2.31,3.4,3.4,0,0,0-2.31-.925,2.994,2.994,0,0,0-3.235,3.234,2.906,2.906,0,0,0,.925,2.31,3.4,3.4,0,0,0,2.31.924A2.922,2.922,0,0,0,20.961,366.98Z" transform="translate(-14.492 -334.49)"/>
      <path id="XMLID_7_" class="cls-3" d="M107.278,410.852a2.994,2.994,0,0,0-3.235,3.234,2.909,2.909,0,0,0,.925,2.311,3.4,3.4,0,0,0,2.31.924,2.994,2.994,0,0,0,3.234-3.235,2.906,2.906,0,0,0-.924-2.31A3.9,3.9,0,0,0,107.278,410.852Z" transform="translate(-50.765 -353.57)"/>
      <path id="XMLID_35_" class="cls-3" d="M99.119,362.015c-2.617,0-6.159,2-10.933,6.467,0-1.54.308-2.617,0-3.234l-.924-13.55-5.081-4.773.308,1.847c.924,8.316,1.847,13.089,2,16.014a38.53,38.53,0,0,1,.616,4.157,8.844,8.844,0,0,1-2.925,6.159l-1.847,1.847.309,4.157h-.616c-1.54,0-2.617-.309-3.234-1.232a3.313,3.313,0,0,1-.924-2,27.588,27.588,0,0,1-.308-5.851c0-1.54.308-4.157.615-8.007v-.308L71.4,359.551v1.54a69.246,69.246,0,0,0,.308,7.083c0,2.925.309,5.39.309,6.775,0,2-1.232,3.849-3.235,5.39a8.156,8.156,0,0,1-3.541,1.231h-.308c-3.85-.308-4.466-.924-4.466-.924a3.7,3.7,0,0,1-1.232-2.618,17.633,17.633,0,0,1,1.232-4.465c.924-2.31,1.54-3.849,1.54-5.081a8.722,8.722,0,0,0-2-5.851,6.735,6.735,0,0,0-5.7-2.617c-2.31,0-4.773,1.231-7.392,3.234h0l-2.31,7.7,1.847-1.848c3.541-3.542,6.159-5.851,8.316-6.775.616,0,1.232,1.232,1.847,2a7.215,7.215,0,0,1,.615,3.542A13.292,13.292,0,0,1,56,372.64a15.09,15.09,0,0,0-1.232,5.389,7.256,7.256,0,0,0,.616,2.618H52.616a50.73,50.73,0,0,0-5.851.616c-7.083-.924-7.7-2-7.7-2a17.449,17.449,0,0,1-.924-6.468,81.75,81.75,0,0,1,.616-8.315v-.309l-4.773-4v6.621l-2.31-2.618h-.308a24.6,24.6,0,0,0-9.239,8.007c-2.31,3.235-3.234,5.7-3.234,7.7s3.234,2.617,4.466,2.925a32.07,32.07,0,0,0,5.39.616,11.079,11.079,0,0,0,4.157-.616,5.233,5.233,0,0,0,1.847-1.847c.308-.308.308-.615.615-1.231a13.459,13.459,0,0,0,3.235,5.851,4.775,4.775,0,0,0,2.31.924v.309H46.3c3.542-.309,6.16-.616,7.7-.616a10.847,10.847,0,0,0,1.847-.309,22.209,22.209,0,0,1,3.234.616,34.268,34.268,0,0,0,4.157.616h1.54a9.362,9.362,0,0,0,6.159-3.235,12.794,12.794,0,0,0,1.847-2.617,19.317,19.317,0,0,0,2,3.542,8.532,8.532,0,0,0,4.466,2.617h4.774a21.431,21.431,0,0,0,15.09-5.7,16.206,16.206,0,0,0,5.7-12.164C105.123,363.092,101.89,362.015,99.119,362.015Zm-71.6,9.7a28.373,28.373,0,0,1,6.466-2.925v.308c.309,4.466.309,5.7.309,5.7,0,1.54-.616,2.31-1.54,2.618a11.035,11.035,0,0,1-3.85.615c-5.851,0-6.159-1.231-6.159-1.231C22.744,375.257,24.283,373.409,27.517,371.716Zm62.516,1.232a58.033,58.033,0,0,1,8.007-7.7,8.8,8.8,0,0,1,2.925,5.851,9.05,9.05,0,0,1-.308,2.617c-2.925,4.773-8.007,7.083-15.09,7.083h-2A86.073,86.073,0,0,1,90.033,372.947Z" transform="translate(-16.275 -327.676)"/>
    </g>
    <path id="XMLID_86_" class="cls-3" d="M355.11,482.724a7.128,7.128,0,0,1-.309,2.156,2.24,2.24,0,0,1-.924,1.386,5.152,5.152,0,0,1-1.847.77,11.961,11.961,0,0,1-2.464.308,6.233,6.233,0,0,1-3.7-.924,2.773,2.773,0,0,1-1.386-2.464,6.392,6.392,0,0,1,.462-2.465,14.916,14.916,0,0,1,1.847-3.234l.616.461a17.517,17.517,0,0,0-1.232,2.464,5.488,5.488,0,0,0-.308,1.54,1.8,1.8,0,0,0,1.078,1.694,5.5,5.5,0,0,0,2.925.616,6.493,6.493,0,0,0,3.081-.616,1.868,1.868,0,0,0,1.231-1.694,3.386,3.386,0,0,0-.154-1.232,18.188,18.188,0,0,0-.924-2l.924-2.617c.462.77.77,1.386.924,1.694a9.077,9.077,0,0,1,.309,2.155v2Zm-3.387-7.853-1.232,2.155-2.31-1.232,1.232-2.31Zm13.088,8.316a7.691,7.691,0,0,1-2.464-.462,9.111,9.111,0,0,1-2.155-.924,2.855,2.855,0,0,1-1.386,1.078,2.283,2.283,0,0,1-1.078.154h-2v-2.771h2a3.413,3.413,0,0,0,1.386-.154,1.387,1.387,0,0,0,.924-.924,10.394,10.394,0,0,1,1.386-2.156,2.132,2.132,0,0,1,1.386-.77c.309,0,.77.462,1.232,1.54a8.286,8.286,0,0,1,.77,2.926v2.463Zm-2.155-2.926c.154,0,.154,0,.154-.154a1.413,1.413,0,0,0-.461-.77c-.309-.461-.616-.616-.77-.616-.309,0-.462.309-.616.925a2.6,2.6,0,0,0,.77.308,2.381,2.381,0,0,0,.923.307Z" transform="translate(-133.665 -64.369)"/>
    <g id="Group_1215" data-name="Group 1215" transform="translate(118.432 405.795)">
      <path id="Path_1681" data-name="Path 1681" class="cls-4" d="M270.879,474.243a2.791,2.791,0,0,1-2.533,2.534,1.285,1.285,0,0,1-1.267-1.306,2.714,2.714,0,0,1,2.533-2.453A1.265,1.265,0,0,1,270.879,474.243Z" transform="translate(-220.744 -469.975)"/>
      <path id="Path_1682" data-name="Path 1682" class="cls-4" d="M329.347,474.243a2.791,2.791,0,0,1-2.533,2.534,1.285,1.285,0,0,1-1.267-1.306,2.714,2.714,0,0,1,2.534-2.453A1.265,1.265,0,0,1,329.347,474.243Z" transform="translate(-244.426 -469.975)"/>
      <g id="Group_1214" data-name="Group 1214">
        <path id="Path_1683" data-name="Path 1683" class="cls-4" d="M202.137,483.641c0,4.037-3.72,7.518-8.033,7.518-2.928,0-4.907-1.741-4.907-4.313,0-1.9,1.227-3.6,2.573-3.6a1.174,1.174,0,0,1,1.267,1.107,2.056,2.056,0,0,1-.317.988l-.277.435a2.112,2.112,0,0,0-.475,1.267c0,1.148,1.108,1.979,2.652,1.979,2.651,0,5.025-2.612,5.025-5.462,0-1.743-1.029-3.047-2.414-3.047a3.7,3.7,0,0,0-.95.2,3.55,3.55,0,0,1-1.148.236c-.87,0-1.543-.513-1.543-1.227,0-.951.872-1.543,2.415-1.543a8.3,8.3,0,0,1,1.622.2c2.138-.632,3.8-2.532,3.8-4.273a2.306,2.306,0,0,0-2.414-2.414c-1.306,0-2.1.711-2.493,2.256-.2.831-.672,1.266-1.346,1.266a1.253,1.253,0,0,1-1.227-1.305c0-2.177,2.652-4.275,5.421-4.275a4.282,4.282,0,0,1,4.432,4.432c0,2.216-1.345,4.116-3.8,5.421A4.328,4.328,0,0,1,202.137,483.641Z" transform="translate(-189.197 -468.602)"/>
        <path id="Path_1684" data-name="Path 1684" class="cls-4" d="M216.921,496.056c-1.781,0-3.047-1.583-3.047-3.839,0-5.065,4.946-10.012,9.974-10.012,1.9,0,3.244.712,3.244,1.742a1.247,1.247,0,0,1-1.384,1.187,2.973,2.973,0,0,1-1.069-.2,7.057,7.057,0,0,0-1.9-.277,5.5,5.5,0,0,0-4.076,1.821,8.711,8.711,0,0,0-2.492,5.342c0,1.227.672,2.019,1.661,2.019a3.576,3.576,0,0,0,2.533-1.464,10.3,10.3,0,0,0,1.7-3.4c.554-1.5.751-1.821,1.266-2.176a4.387,4.387,0,0,1,1.464-.753.375.375,0,0,1,.4.4,2.5,2.5,0,0,1-.277.872l-1.5,4.154a5.835,5.835,0,0,0-.356,1.425.531.531,0,0,0,.555.594,1.116,1.116,0,0,0,.356-.039l.515-.2a1.488,1.488,0,0,1,.357-.08.4.4,0,0,1,.434.434c0,.357-.2.595-1.187,1.267a4.64,4.64,0,0,1-2.255,1.148c-.712,0-.989-.434-1.108-1.7A5.4,5.4,0,0,1,216.921,496.056Z" transform="translate(-199.193 -473.697)"/>
        <path id="Path_1685" data-name="Path 1685" class="cls-4" d="M242.8,489.27c.91,0,1.305-.4,1.82-1.86.316-.91.713-1.267,1.385-1.267a1.33,1.33,0,0,1,1.266,1.465,4.351,4.351,0,0,1-4.195,3.878,7.669,7.669,0,0,1-3.483-.99,18.2,18.2,0,0,0-2.1-.869l-.317.237c-1.5,1.029-2.057,1.305-2.81,1.305a1.549,1.549,0,0,1-1.741-1.5c0-1.306,1.346-2.375,3.047-2.375a7.746,7.746,0,0,1,1.227.079,50.068,50.068,0,0,0,6.847-7.242c1.543-2.057,2.335-3.758,2.335-5.025a2.468,2.468,0,0,0-2.652-2.454,2.824,2.824,0,0,0-2.849,3.127,5.679,5.679,0,0,0,.079,1.029,4.571,4.571,0,0,1,.039.712,1.3,1.3,0,0,1-1.306,1.346c-.989,0-1.741-1.148-1.741-2.69a5.893,5.893,0,0,1,6.055-5.739,4.649,4.649,0,0,1,4.986,4.709c0,3.087-2.811,7.044-8.786,12.425l-.594.516A11.293,11.293,0,0,0,242.8,489.27Z" transform="translate(-206.79 -468.928)"/>
        <path id="Path_1686" data-name="Path 1686" class="cls-4" d="M263.765,486.2a4.393,4.393,0,0,0,.316-1.227.407.407,0,0,0-.434-.4,1.757,1.757,0,0,0-.435.04,1.379,1.379,0,0,1-.475.118.39.39,0,0,1-.357-.4c0-.475.513-.95,1.464-1.464a4.765,4.765,0,0,1,2.137-.673.945.945,0,0,1,1.069.911c0,.4-.12.791-1.108,3.561l-.909,2.533-.792,2.1a6.042,6.042,0,0,0-.474,1.859c0,.316.158.514.434.514a1.106,1.106,0,0,0,.515-.118,2.09,2.09,0,0,1,.515-.118.323.323,0,0,1,.315.357c0,.358-.356.792-1.186,1.346a4.648,4.648,0,0,1-2.373.831,1.158,1.158,0,0,1-1.149-1.267,3.128,3.128,0,0,1,.237-1.108Z" transform="translate(-218.215 -473.697)"/>
        <path id="Path_1687" data-name="Path 1687" class="cls-4" d="M277.151,489.036a4.3,4.3,0,0,1-2.255.99c-1.108,0-1.822-.95-1.822-2.335,0-2.257,1.86-8.27,4.035-12.94,2.019-4.353,4.829-6.847,7.756-6.847.99,0,1.624.475,1.624,1.188,0,.634-.632,1.148-1.544,1.188l-.673.039c-2.019.118-3.443,1.662-5.381,5.857a46.128,46.128,0,0,0-2.849,7.835,10.569,10.569,0,0,0-.554,2.77c0,.632.237.989.753.989a2.069,2.069,0,0,0,.95-.316c.672-.435.672-.435.87-.435a.434.434,0,0,1,.434.4C278.5,487.809,278.021,488.4,277.151,489.036Z" transform="translate(-223.172 -467.904)"/>
        <path id="Path_1688" data-name="Path 1688" class="cls-4" d="M286.832,496.056c-1.781,0-3.048-1.583-3.048-3.839,0-5.065,4.946-10.012,9.972-10.012,1.9,0,3.245.712,3.245,1.742a1.247,1.247,0,0,1-1.385,1.187,2.973,2.973,0,0,1-1.069-.2,7.046,7.046,0,0,0-1.9-.277,5.5,5.5,0,0,0-4.077,1.821,8.709,8.709,0,0,0-2.492,5.342c0,1.227.673,2.019,1.662,2.019a3.575,3.575,0,0,0,2.532-1.464,10.31,10.31,0,0,0,1.7-3.4c.553-1.5.752-1.821,1.265-2.176a4.387,4.387,0,0,1,1.464-.753.375.375,0,0,1,.4.4,2.5,2.5,0,0,1-.277.872l-1.5,4.154a5.863,5.863,0,0,0-.356,1.425.53.53,0,0,0,.554.594,1.121,1.121,0,0,0,.356-.039l.515-.2a1.512,1.512,0,0,1,.356-.08.4.4,0,0,1,.436.434c0,.357-.2.595-1.186,1.267a4.648,4.648,0,0,1-2.256,1.148c-.712,0-.99-.434-1.108-1.7A5.391,5.391,0,0,1,286.832,496.056Z" transform="translate(-227.51 -473.697)"/>
        <path id="Path_1689" data-name="Path 1689" class="cls-4" d="M312.165,480.151a5.06,5.06,0,0,0,1.306-.159,3.847,3.847,0,0,1,.672-.119.906.906,0,0,1,.909.951c0,.752-.594,1.265-1.5,1.265a7.7,7.7,0,0,1-.831-.038h-1.343l-2.3,6.687a5.784,5.784,0,0,0-.4,1.583.781.781,0,0,0,.831.871,2.525,2.525,0,0,0,1.267-.434,1.536,1.536,0,0,1,.752-.278.447.447,0,0,1,.477.4c0,.356-.4.909-1.07,1.463a4.934,4.934,0,0,1-2.888,1.188,1.881,1.881,0,0,1-1.979-2.019,3.955,3.955,0,0,1,.2-1.227l2.888-8.23a3.274,3.274,0,0,0-.555-.039h-.317c-.593,0-.831-.2-.831-.634a.823.823,0,0,1,.554-.791l.633-.357a5.4,5.4,0,0,0,2.057-2.294c.673-1.227,1.069-1.584,1.662-1.584a.6.6,0,0,1,.673.632,2.2,2.2,0,0,1-.2.871l-.356,1.029c-.081.278-.2.555-.278.87l-.158.4h.118Z" transform="translate(-236.539 -471.326)"/>
        <path id="Path_1690" data-name="Path 1690" class="cls-4" d="M322.235,486.2a4.437,4.437,0,0,0,.317-1.227.409.409,0,0,0-.436-.4,1.764,1.764,0,0,0-.435.04,1.373,1.373,0,0,1-.475.118.39.39,0,0,1-.356-.4c0-.475.515-.95,1.464-1.464a4.769,4.769,0,0,1,2.138-.673.944.944,0,0,1,1.068.911c0,.4-.118.791-1.107,3.561l-.911,2.533-.791,2.1a6.06,6.06,0,0,0-.474,1.859c0,.316.158.514.434.514a1.106,1.106,0,0,0,.515-.118,2.079,2.079,0,0,1,.515-.118.324.324,0,0,1,.317.357c0,.358-.358.792-1.187,1.346a4.655,4.655,0,0,1-2.374.831,1.157,1.157,0,0,1-1.148-1.267,3.136,3.136,0,0,1,.236-1.108Z" transform="translate(-241.899 -473.697)"/>
        <path id="Path_1691" data-name="Path 1691" class="cls-5" d="M271.42,474.783a2.791,2.791,0,0,1-2.533,2.534,1.285,1.285,0,0,1-1.267-1.306,2.715,2.715,0,0,1,2.533-2.454A1.266,1.266,0,0,1,271.42,474.783Z" transform="translate(-220.963 -470.193)"/>
        <path id="Path_1692" data-name="Path 1692" class="cls-6" d="M329.889,474.783a2.791,2.791,0,0,1-2.533,2.534,1.284,1.284,0,0,1-1.266-1.306,2.715,2.715,0,0,1,2.533-2.454A1.266,1.266,0,0,1,329.889,474.783Z" transform="translate(-244.646 -470.193)"/>
      </g>
    </g>
    <g id="Group_1216" data-name="Group 1216" transform="translate(152.232 430.077)">
      <path id="Path_1693" data-name="Path 1693" class="cls-4" d="M246.575,516.19a.555.555,0,0,1-.566-.595.887.887,0,0,1,.794-.932.566.566,0,0,1,.581.626A.89.89,0,0,1,246.575,516.19Z" transform="translate(-246.009 -511.126)"/>
      <path id="Path_1694" data-name="Path 1694" class="cls-7" d="M247.115,516.731a.554.554,0,0,1-.565-.595.885.885,0,0,1,.794-.93.565.565,0,0,1,.581.625A.889.889,0,0,1,247.115,516.731Z" transform="translate(-246.228 -511.346)"/>
      <path id="Path_1695" data-name="Path 1695" class="cls-4" d="M253.074,514.119a1.479,1.479,0,0,1-1.419-1.663,4.474,4.474,0,0,1,.884-2.4,2.929,2.929,0,0,1,2.381-1.342c.564,0,1.007.274,1.007.64a.511.511,0,0,1-.534.474.89.89,0,0,1-.351-.09,1.229,1.229,0,0,0-.489-.107,1.541,1.541,0,0,0-1.145.625,3.6,3.6,0,0,0-.855,2.12c0,.505.261.856.657.856a1.12,1.12,0,0,0,.869-.625l.122-.2a.421.421,0,0,1,.367-.245.377.377,0,0,1,.381.412A1.948,1.948,0,0,1,253.074,514.119Z" transform="translate(-248.296 -508.718)"/>
      <path id="Path_1696" data-name="Path 1696" class="cls-4" d="M261.681,508.818c.687,0,1.161.274,1.161.656a.447.447,0,0,1-.443.458,1.408,1.408,0,0,1-.566-.152,1.223,1.223,0,0,0-.472-.092c-.992,0-1.969,1.3-1.969,2.611,0,.64.319,1.068.825,1.068.747,0,1.451-.9,1.451-1.876a1.91,1.91,0,0,0-.108-.58l-.09-.244a.52.52,0,0,1-.045-.167.371.371,0,0,1,.366-.367c.411,0,.7.519.7,1.267a2.574,2.574,0,0,1-2.366,2.732,1.588,1.588,0,0,1-1.572-1.786A3.491,3.491,0,0,1,261.681,508.818Z" transform="translate(-251.09 -508.758)"/>
      <path id="Path_1697" data-name="Path 1697" class="cls-4" d="M269.494,508.8c.488,0,.762.274.809.824a2.159,2.159,0,0,1,1.618-.808c.717,0,1.16.5,1.16,1.358a5.23,5.23,0,0,1-1.343,3.2,2.389,2.389,0,0,1-1.357.762.447.447,0,0,1-.459-.443c0-.26.09-.352.626-.61a3.151,3.151,0,0,0,1.633-2.686c0-.443-.2-.717-.533-.717-.581,0-1.1.563-1.6,1.8l-.365.885a4.311,4.311,0,0,1-.856,1.525.784.784,0,0,1-.457.261c-.168,0-.245-.077-.245-.23a.866.866,0,0,1,.107-.366c.319-.625.519-1.083.961-2.166a3.955,3.955,0,0,0,.383-1.252.414.414,0,0,0-.411-.458,1.25,1.25,0,0,0-.93.534,4.4,4.4,0,0,0-.626,1.19c-.092.244-.2.489-.306.762-.533,1.3-1.022,1.985-1.42,1.985a.246.246,0,0,1-.244-.261.756.756,0,0,1,.108-.321,15.417,15.417,0,0,0,.916-2.075,8.342,8.342,0,0,0,.533-1.633c0-.123-.062-.168-.152-.168a.491.491,0,0,0-.229.046.7.7,0,0,1-.153.03.139.139,0,0,1-.122-.152c0-.154.184-.351.626-.595a1.61,1.61,0,0,1,.748-.259.328.328,0,0,1,.365.334c0,.045-.014.077-.03.244A2.031,2.031,0,0,1,269.494,508.8Z" transform="translate(-253.959 -508.736)"/>
    </g>
  </g>
</svg>
