<svg xmlns="http://www.w3.org/2000/svg" xmlns:xlink="http://www.w3.org/1999/xlink" viewBox="-7653 480.286 299.212 83.366">
  <defs>
    <style>
      .cls-1, .cls-2 {
        fill: none;
      }

      .cls-1 {
        clip-rule: evenodd;
      }

      .cls-3 {
        clip-path: url(#clip-path);
      }

      .cls-4 {
        clip-path: url(#clip-path-2);
      }

      .cls-5 {
        fill: #f13a5e;
      }

      .cls-6 {
        clip-path: url(#clip-path-3);
      }

      .cls-7 {
        clip-path: url(#clip-path-5);
      }
    </style>
    <clipPath id="clip-path">
      <path id="Path_1457" data-name="Path 1457" class="cls-1" d="M236.541-2.488c0,.832-.192,3.936-.256,4.736a25.25,25.25,0,0,1-1.373,5.28,39.937,39.937,0,0,1-2.555,5.536,26.66,26.66,0,0,1-4.15,4.9,14.662,14.662,0,0,1-6.162,3.136,15.034,15.034,0,0,1-5.524.8,12.472,12.472,0,0,1-5.236-1.376,15.535,15.535,0,0,1-5.747-5.056,15,15,0,0,1-1.82-7.1c.128-1.6,1.277-5.152,2.267-5.984a19.691,19.691,0,0,1,4.789-3.36,60.266,60.266,0,0,1,6.641-2.5c2.2-.544,5.013-.96,7.184-1.728a67.443,67.443,0,0,0,7.152-2.784c2.107-1.088,3-1.632,3.672-1.856s1.149-.448,1.149.064-.032,6.464-.032,7.3M43.1-.772a52.166,52.166,0,0,1-1.156,6.717,27.431,27.431,0,0,1-3.467,8.164,17.391,17.391,0,0,1-12.2,7.746c-6.491.821-11.645-1.917-15.506-7.07A25.343,25.343,0,0,1,8.042,9.9,53,53,0,0,1,6.116,3.245a45.807,45.807,0,0,1-.61-7.263c0-7.138,1.151-14.36,5.225-20.385a17.243,17.243,0,0,1,13.726-7.738,19.311,19.311,0,0,1,6.927,1.51,13.683,13.683,0,0,1,5.812,4.661,28.077,28.077,0,0,1,4.334,8.742A38.483,38.483,0,0,1,43.1-10.093a50.092,50.092,0,0,1,0,9.321M299.376,21.894a3.378,3.378,0,0,0-2.107-.4c-2.842.154-5.857.954-7.81-1.85-1.13-1.622-1.242-6.122-1.146-8.885.048-1.376,0-4.176-.016-5.728s-.016-5.552-.016-7.455-.032-3.52-.016-4.816-.016-5.888-.016-7.456.08-6.176.08-9.1c0-.725-.038-2.132.016-7.584.021-2.128.463-3.472-.271-4.384a2.787,2.787,0,0,0-1.868-.816,2.815,2.815,0,0,0-1.628.48,2.282,2.282,0,0,0-.878,1.328,8.24,8.24,0,0,0-.128,2.192,13.774,13.774,0,0,1,.335,1.968c.016.784.048,2.784.048,5.5s0,8.976-.016,11.471S284,1.384,283.986,3.5c-.046,6.128-3.61,17.184-10.76,18.463a8.95,8.95,0,0,1-6.593-1.712,9.682,9.682,0,0,1-2.3-3.392,15.665,15.665,0,0,1-.8-3.44,28.925,28.925,0,0,1-.367-4.336c.016-1.248-.016-4.671-.016-6.416s.016-10.975-.016-12.415-.016-8.816-.016-10.271.048-7.328.048-9.216c0-.371.008-2.751,0-2.88-.016-.256.271-.3.942-.3.423,0,1.485-.032,2.523-.016s3.943-.048,5.14-.032,5.827.048,6.338.016.487-.368.69-.932a11.132,11.132,0,0,0,.467-2.016c.012-.3-.084-.744-.3-.864a1.6,1.6,0,0,0-.743-.228c-.335-.024-2.107,0-2.849,0s-11.516,0-11.746-.012c-.611-.024-.491-.372-.495-.828,0-.512.016-3.584.032-4.464s.022-2.208,0-2.784c-.032-.864-.559-.752-1.006-.656s-1.405,1.2-1.868,1.84a15.335,15.335,0,0,0-1.245,2.064,3.363,3.363,0,0,0-.3,1.488c0,.48.016,1.392,0,2.192-.011.545,0,1.056-.176,1.136a7.969,7.969,0,0,1-1.437.032c-.415,0-4.534-.016-4.981.016a.943.943,0,0,0-.91.688,16.044,16.044,0,0,0-.894,2.768.93.93,0,0,0,.559.592c.287.064,5.108-.032,6.386,0s1.293.208,1.341.288c.116.2.048.448.064.944,0,0,.048,21.983.048,23.711s-.048,13.727-.048,15.6.436,3.543.383,5.328a11.068,11.068,0,0,1-2.3,4.96c-1.258,1.584-2.155,1.952-3.831,3.056-1.063.7-3.879.48-5.508.144S245,20.79,243.565,18.87a10.958,10.958,0,0,1-2.251-5.328,37.773,37.773,0,0,1-.383-7.008c.1-2.064.431-8.064.623-9.5s-.048-10.079,0-11.807a60.47,60.47,0,0,0-.575-9.5c-.479-2.16-1.149-5.424-3.017-7.392s-4.789-3.168-7.04-3.936-6.705-.912-9.722-.912-4.071.336-7.9,1.008a20.568,20.568,0,0,0-8.477,3.888c-.8.645-.048,1.152,1.006,1.968s1.953.82,3.544.864c1.724.048,3.5-.864,5.029-1.632a23.942,23.942,0,0,1,4.6-1.44c1.389-.384,4.6-.1,5.987-.048a10.6,10.6,0,0,1,4.55,1.1,10.012,10.012,0,0,1,3.353,2.64,13.534,13.534,0,0,1,2.682,4.608,16.372,16.372,0,0,1,.862,4.416,26.021,26.021,0,0,1-.1,3.888s-.766.528-1.916,1.2a55.282,55.282,0,0,1-6.513,2.544c-1.651.538-8.477,2.16-11.494,2.928a65.609,65.609,0,0,0-8.525,2.832c-3.161,1.248-5.412,4.176-6.465,5.76a17.459,17.459,0,0,0-2.3,5.712,22.011,22.011,0,0,0-.144,5.808,8.094,8.094,0,0,0,.862,3.216,8.92,8.92,0,0,1-.766,1.536,20.31,20.31,0,0,1-4.358,4.512c-1.389,1.056-3.3,1.056-4.789,1.1a6.931,6.931,0,0,1-5.077-2.16c-1.964-1.776-2.251-4.272-2.682-5.9a31.932,31.932,0,0,1-.527-5.664c0-.576.239-41.182.192-42.766s-1.054-1.824-2.059-2.064a2.17,2.17,0,0,0-2.395.96c-.718.864-.383,3.12-.1,4.08s-.048,5.616-.048,8.208.1,21.887.144,26.543.383,11.9-.24,13.583a10.222,10.222,0,0,1-3.592,4.128c-.97.634-3.448.72-4.981.72a7.631,7.631,0,0,1-4.214-1.44,11.819,11.819,0,0,1-2.73-4.8,17.1,17.1,0,0,1-.718-5.088c0-1.488-.144-8.064-.144-11.039V-19.96a34.363,34.363,0,0,0-.958-8.4,9.682,9.682,0,0,0-2.73-4.272,19.627,19.627,0,0,0-7.375-3.552c-2.3-.672-6.226.048-8.716.672s-7.04,4.176-8.525,5.712a39.585,39.585,0,0,0-4.981,7.584c-.623,1.488-.623,1.44-.623,1.44a2.288,2.288,0,0,1-.1-.768c0-4.168.026-8.44.064-12.7a1.811,1.811,0,0,0-1.941-1.988,3.158,3.158,0,0,0-2.934,2.917,9.634,9.634,0,0,0,.431,1.908,17.165,17.165,0,0,1-.026,2.426c0,1.728,0,25.631.048,28.079s-.192,11.807-.431,15.023-2.426,5.432-3.959,6.776-4.382,1.2-5.771,1.008-2.77-.92-4.637-3.08-1.82-5.04-1.964-5.9.048-8.88.048-10.751,0-26.3.048-36.718c.01-2.114-2.554-2.08-3.416-1.7s-1.23,1.6-1.325,2.608a6.26,6.26,0,0,0,.431,2.608,11.592,11.592,0,0,1,0,2.96c-.051,1.488.048,20.927,0,22.847A49.807,49.807,0,0,1,99.7,4.711C97.727,10.4,94.89,14.9,93.375,16.519a17.716,17.716,0,0,1-9.626,5.232,28.829,28.829,0,0,1-4.358.1,9.987,9.987,0,0,1-4.933-1.44,10.84,10.84,0,0,1-3.017-3.5,13.483,13.483,0,0,1-1.341-4.32,55.9,55.9,0,0,1-.575-9.312c0-2.3-.048-10.271-.048-13.487s0-9.024-.048-12.911,0-9.312-.048-12.143c-.013-.8-.838-1.224-2.155-1.2a2.284,2.284,0,0,0-2.059,1.536,6.824,6.824,0,0,0-.239,2.3c.072.432.287,1.176.359,1.488s.024,1.872.024,3.528.048,7.607.048,10.343c0,3.634.071,21.807.132,29.219.007.812.1,2,.084,2.516a5.515,5.515,0,0,1-1.251,2.808,8.745,8.745,0,0,1-8.064,4.672c-4.085.06-6.229-1.8-7.95-6.336-.736-1.941-.634-6.368-.634-7.452s0-1.912-.064-5.45c-.026-1.466,0-19.57.032-21.737s.033-7.107.033-13.1,0-7.139-.033-11.2c-.024-3.029.016-7.808.048-9.627.024-1.387-.559-2.535-2.2-2.55-1.882-.016-2.368,1.156-2.368,2.869,0,1.387.323,1.613.323,2.749l-.012,5.534c0,4.275-.016,8.5-.016,9.917v4.653c0,.51-.016,2.168-.016,2.742s-.016,1.657-.016,1.657c-.981-1.339-1.292-1.96-2.679-3.609a18.242,18.242,0,0,0-4.4-4.088,17.461,17.461,0,0,0-5.166-2.343,31.672,31.672,0,0,0-6.578-.956,24.784,24.784,0,0,0-6.53.98A21.785,21.785,0,0,0,5.95-25.129a37.721,37.721,0,0,0-3.723,9.761A47.693,47.693,0,0,0,.983-6C.808,3.115,2.509,13.393,9.439,19.983a21,21,0,0,0,18.076,5.8,21.425,21.425,0,0,0,11.836-5.866,21.193,21.193,0,0,0,4.105-5.721c.519,2.438.65,4.673,2.416,6.956,4.4,5.688,11.86,6.8,17.222,2.749a17.139,17.139,0,0,0,2.551-2.773,12.808,12.808,0,0,0,.862-1.6c.33-.606.3-.96.471-.672.145.25.308.629.91,1.656a8.3,8.3,0,0,0,2.251,2.664,10.2,10.2,0,0,0,3.448,1.956,15.611,15.611,0,0,0,6.166,1.128,21.61,21.61,0,0,0,5.7-.576,19.121,19.121,0,0,0,7.675-3.4A22.684,22.684,0,0,0,98.8,16.262a17.163,17.163,0,0,0,2.2-4.776c.12-.336.455-.192.455.072s.024,1.7.048,2.856a14.747,14.747,0,0,0,.647,4.1,13.191,13.191,0,0,0,3.257,4.992,17.417,17.417,0,0,0,5.7,2.568,13.807,13.807,0,0,0,6.609-.6,12.412,12.412,0,0,0,5.244-3.528,16.269,16.269,0,0,0,2.993-5.568,24.027,24.027,0,0,0,.79-5.184c.1-1.512.072-6.288.024-9.791-.026-1.9,0-6.936.048-8.04s-.1-4.32.12-5.664a20.783,20.783,0,0,1,.766-2.856,32.422,32.422,0,0,1,2.2-4.824c.838-1.656,1.748-2.784,2.3-3.72a28.826,28.826,0,0,1,3.352-3.768,35.132,35.132,0,0,1,4.909-3.216c1.077-.672,3.424-1.008,4.861-1.224a9.143,9.143,0,0,1,3.808.024,15.529,15.529,0,0,1,3.017,1.32,7.917,7.917,0,0,1,2.347,2.448c1.03,1.368,1.077,2.376,1.508,3.816.376,1.255.383,6.456.431,7.368s.072,12.311.048,13.3-.072,9.887-.12,11.111c-.044,1.13-.168,6.192.024,7.464a19.138,19.138,0,0,0,2.059,5.5,12.7,12.7,0,0,0,2.9,3.144,17.447,17.447,0,0,0,4.382,2.184,12.677,12.677,0,0,0,4.191.168,15.272,15.272,0,0,0,5.268-1.7,9.671,9.671,0,0,0,2.778-2.952c.287-.624.862-1.752,1.03-1.608s.6.984.862,1.344,1.221,1.512,1.7,2.04a10.774,10.774,0,0,0,2.419,1.728,14.3,14.3,0,0,0,4.31,1.344,15.141,15.141,0,0,0,3.448-.216,19.69,19.69,0,0,0,3.927-1.032,12.208,12.208,0,0,0,3.161-2.664,13.677,13.677,0,0,0,1.892-2.856c.215-.5.6-1.248.6-1.248s.287.5.695,1.176a19.485,19.485,0,0,0,2.586,2.9,20.451,20.451,0,0,0,4.238,2.688,26.874,26.874,0,0,0,6.8,1.488,23.566,23.566,0,0,0,6.322-.552,26.164,26.164,0,0,0,6.825-2.784,24.342,24.342,0,0,0,4.574-3.936,18,18,0,0,0,2.131-3.24,11.309,11.309,0,0,0,1.117-1.992c.255-.736.447-.576.447.032a14.355,14.355,0,0,0,.224,2.688,12.992,12.992,0,0,0,1.437,3.936,14.21,14.21,0,0,0,3.736,3.712,10.843,10.843,0,0,0,3.289,1.6,15.881,15.881,0,0,0,6.162.1,10.91,10.91,0,0,0,4.789-2.3,12.7,12.7,0,0,0,2.874-4.224c.16-.608.192-.7.495-.56.029.014.3.887.591,1.424a14.055,14.055,0,0,0,1.851,2.5c3.6,3.888,10.365,4.358,14.749,1.67,4.04-2.477,5.718-6.373,6.867-10.469a24.16,24.16,0,0,0,.734,5.664,7.814,7.814,0,0,0,1.611,3.152c2.6,3.55,8.235,4.1,12.167,2.608a2.3,2.3,0,0,0,1.516-1.552,1.89,1.89,0,0,0-.766-1.936" transform="translate(-0.972 55.513)"/>
    </clipPath>
    <clipPath id="clip-path-2">
      <path id="Path_1456" data-name="Path 1456" class="cls-2" d="M-142,9739.754H2707.028V-3345H-142Z" transform="translate(142 3345)"/>
    </clipPath>
    <clipPath id="clip-path-3">
      <path id="Path_1460" data-name="Path 1460" class="cls-1" d="M122.6-47.959a4.186,4.186,0,0,1-4.095-4.272A4.186,4.186,0,0,1,122.6-56.5a4.186,4.186,0,0,1,4.095,4.272A4.186,4.186,0,0,1,122.6-47.959Z" transform="translate(-118.51 56.503)"/>
    </clipPath>
    <clipPath id="clip-path-5">
      <path id="Path_1463" data-name="Path 1463" class="cls-1" d="M194.384-47.959a4.186,4.186,0,0,1-4.095-4.272,4.186,4.186,0,0,1,4.095-4.272,4.186,4.186,0,0,1,4.095,4.272A4.186,4.186,0,0,1,194.384-47.959Z" transform="translate(-190.29 56.503)"/>
    </clipPath>
  </defs>
  <g id="Group_1052" data-name="Group 1052" transform="translate(-7653.972 479.789)">
    <g id="Group_1047" data-name="Group 1047" class="cls-3" transform="translate(0.972 1.966)">
      <g id="Group_1046" data-name="Group 1046" class="cls-4" transform="translate(-212.151 -4881.167)">
        <path id="Path_1455" data-name="Path 1455" class="cls-5" d="M-4.028-60.513H310.023V36.224H-4.028Z" transform="translate(208.76 4934.261)"/>
      </g>
    </g>
    <g id="Group_1049" data-name="Group 1049" class="cls-6" transform="translate(175.383 0.497)">
      <g id="Group_1048" data-name="Group 1048" class="cls-4" transform="translate(-386.562 -4879.698)">
        <path id="Path_1458" data-name="Path 1458" class="cls-5" d="M113.51-61.5h23.028V-38.12H113.51Z" transform="translate(265.633 4933.781)"/>
      </g>
    </g>
    <g id="Group_1051" data-name="Group 1051" class="cls-7" transform="translate(281.895 0.497)">
      <g id="Group_1050" data-name="Group 1050" class="cls-4" transform="translate(-493.074 -4879.698)">
        <path id="Path_1461" data-name="Path 1461" class="cls-5" d="M185.29-61.5h23.028V-38.12H185.29Z" transform="translate(300.365 4933.781)"/>
      </g>
    </g>
  </g>
</svg>
