<svg xmlns="http://www.w3.org/2000/svg" viewBox="-12002.5 473.5 408.4 89">
  <defs>
    <style>
      .cls-1, .cls-2 {
        fill: #fff;
      }

      .cls-2, .cls-3 {
        stroke: #000;
        stroke-miterlimit: 10;
      }
    </style>
  </defs>
  <g id="Group_1330" data-name="Group 1330" transform="translate(-12002.5 473.5)">
    <path id="Path_1846" data-name="Path 1846" d="M143.6,34.1c-2-2-4.8-3-8.3-3a12.062,12.062,0,0,0-8.8,3.7,10.064,10.064,0,0,0-1.7,2.5,10.679,10.679,0,0,0-1.6-2.5A11.923,11.923,0,0,0,105,35.9V31.8h-2.5v30H105v-17c0-3.7.8-6.3,2.6-8.3a8.331,8.331,0,0,1,6.4-3h.3c3.3.1,5.7,1.2,7.3,3.3,1.3,1.8,2.1,3.7,2,8.3V61.9h2.5V45c0-4.6.4-6.2,2.2-8.4a9.339,9.339,0,0,1,7.1-3.2,8.874,8.874,0,0,1,6.5,2.3c1.9,1.9,2.8,4.9,2.8,9.3V61.8h2.5V45C147.1,40,145.9,36.3,143.6,34.1Z"/>
    <path id="Path_1847" data-name="Path 1847" d="M180.4,31.7v6.1a15.875,15.875,0,0,0-28.9,8.9c0,7.6,5.5,15.7,15.8,15.7a15.027,15.027,0,0,0,13.1-6.9v6.1h2.5v-30h-2.5Zm.2,15A12.882,12.882,0,0,1,167.5,60c-8.8,0-13.4-6.7-13.5-13.3a13.3,13.3,0,0,1,26.6,0Z"/>
    <path id="Path_1848" data-name="Path 1848" d="M206.3,53.2c-.3-6.4-4.7-7.6-8.6-8.6l-.2-.1c-3.9-1.1-5.9-2.2-6-5.5a4.761,4.761,0,0,1,1.4-3.8,6.343,6.343,0,0,1,4.5-1.8h.1c2.7,0,5.5,1.5,5.5,5.7v.5h2.5v-.5c0-4.8-3.2-8-8.1-8-5,0-8.4,3.2-8.4,8,.2,5.2,3.6,6.6,8.2,8,4.7,1,6.6,2.9,6.6,6.5a6.177,6.177,0,0,1-1.8,4.7,6.484,6.484,0,0,1-4.7,1.9c-4.2,0-6.9-2.7-6.9-6.9v-.5H188v.4a8.052,8.052,0,0,0,2.2,6.3,9.881,9.881,0,0,0,7.2,3,8.906,8.906,0,0,0,6.6-2.8A9.128,9.128,0,0,0,206.3,53.2Z"/>
    <g id="Group_1326" data-name="Group 1326">
      <path id="Path_1849" data-name="Path 1849" d="M234.2,34.1a14.32,14.32,0,0,0-9.4-3h-.3c-3.8,0-8.6,1.6-11,5.1v-16H211V61.7h2.5V44.6c0-7,4.1-11,11.3-11.2a11.564,11.564,0,0,1,7.9,2.6c2.3,2,3.4,5.4,3.4,9.9V61.7h2.5V45.9C238.6,40.5,237.2,36.5,234.2,34.1Z"/>
      <path id="Path_1850" data-name="Path 1850" d="M272,31.7v6.1a15.875,15.875,0,0,0-28.9,8.9c0,7.6,5.5,15.7,15.8,15.7A15.17,15.17,0,0,0,272,55.6v6.1h2.5v-30Zm.2,15A12.882,12.882,0,0,1,259.1,60c-8.8,0-13.4-6.7-13.5-13.3a13.3,13.3,0,0,1,26.6,0Z"/>
    </g>
    <g id="Group_1327" data-name="Group 1327">
      <path id="Path_1851" data-name="Path 1851" class="cls-1" d="M313.2,46.8Z"/>
      <path id="Path_1852" data-name="Path 1852" class="cls-1" d="M312.8,46.8v-.1h.9Z"/>
    </g>
    <g id="Group_1328" data-name="Group 1328">
      <path id="Path_1853" data-name="Path 1853" class="cls-1" d="M347.2,46.8Z"/>
      <path id="Path_1854" data-name="Path 1854" class="cls-1" d="M346.7,46.8v-.1h.9Z"/>
    </g>
    <g id="Group_1329" data-name="Group 1329">
      <path id="Path_1855" data-name="Path 1855" d="M304.4,34.1a14.32,14.32,0,0,0-9.4-3h-.3c-3.8,0-8.6,1.6-11,5.1v-16h-2.5V61.7h2.5V44.6c0-7,4.1-11,11.3-11.2a12.06,12.06,0,0,1,7.9,2.6c2.3,2,3.4,5.4,3.4,9.9V61.7h2.5V45.9C308.8,40.5,307.3,36.5,304.4,34.1Z"/>
      <path id="Path_1856" data-name="Path 1856" d="M328.6,31a15.439,15.439,0,0,0-15.8,15.7,15.439,15.439,0,0,0,15.8,15.7h.2A15.167,15.167,0,0,0,343.2,53l.3-.7h-2.8l-.1.3a12.888,12.888,0,0,1-12,7.4h-.1c-8.7,0-12.9-7.3-13.2-12.7h28.9l.1-1.3C343.9,36.2,336.1,31,328.6,31ZM315.4,45c.6-6.7,6.2-11.6,13.2-11.6,6.5-.3,12.5,5.2,13.1,11.6Z"/>
      <path id="Path_1857" data-name="Path 1857" d="M362.5,31a15.439,15.439,0,0,0-15.8,15.7,15.439,15.439,0,0,0,15.8,15.7h.2A15.167,15.167,0,0,0,377.1,53l.3-.7h-2.7l-.1.3a12.888,12.888,0,0,1-12,7.4h-.1c-8.7,0-12.9-7.3-13.2-12.7h28.9l.1-1.3C377.8,36.2,370,31,362.5,31ZM349.3,45c.6-6.7,6.2-11.6,13.2-11.6,6.5-.3,12.5,5.2,13.1,11.6Z"/>
      <path id="Path_1858" data-name="Path 1858" d="M395.4,31c-2.3.1-6.9.4-9.7,4.8V31.7h-2.5v30h2.5V45.5c0-3.6.3-7.1,3.7-10.1a9.564,9.564,0,0,1,6.1-1.9h.5V31.1Z"/>
    </g>
    <rect id="Rectangle_230" data-name="Rectangle 230" width="2.5" height="30" transform="translate(399.7 31.7)"/>
    <circle id="Ellipse_56" data-name="Ellipse 56" class="cls-2" cx="43" cy="43" r="43" transform="translate(1.5 1.5)"/>
    <path id="Path_1859" data-name="Path 1859" class="cls-3" d="M44.5,88.5a44,44,0,1,1,44-44A44.065,44.065,0,0,1,44.5,88.5Zm0-86.1A42.1,42.1,0,1,0,86.6,44.5,42.166,42.166,0,0,0,44.5,2.4Z"/>
    <path id="Path_1860" data-name="Path 1860" d="M72.1,33.9s-.9-18.8-16.8-18.8h0a14.9,14.9,0,0,0-11,4.4,14.53,14.53,0,0,0-11-4.4h0c-15.8,0-16.8,18.8-16.8,18.8l-.1,29.2A33.358,33.358,0,0,0,28.2,74V34.5a5.169,5.169,0,0,1,5-5.1,5.1,5.1,0,0,1,5.1,5V77.6h.1v.1a34.3,34.3,0,0,0,5.6.5h.4a34.3,34.3,0,0,0,5.6-.5v-.1h.1V42.7l-2.8,1.9L50,35.5h0l-7.6-5.8,9.5-.2,3.1-9,3.1,9,9.5.2-7.2,5.7,2.8,9.1-2.8-2V73.9A33.359,33.359,0,0,0,72.2,63Z"/>
    <path id="Path_1861" data-name="Path 1861" d="M401.7,13.9l1.7,4.8,5,.1-4,3,1.5,4.9-4.2-2.9-4.1,2.9,1.5-4.9-4.1-3,5.1-.1Z"/>
  </g>
</svg>
