<svg xmlns="http://www.w3.org/2000/svg" viewBox="-1448 456.156 353.193 94.422">
  <defs>
    <style>
      .cls-1, .cls-2 {
        fill: #010101;
      }

      .cls-2, .cls-3 {
        fill-rule: evenodd;
      }
    </style>
  </defs>
  <g id="mazyun-logo" transform="translate(-1448 456.156)">
    <path id="Path_565" data-name="Path 565" class="cls-1" d="M0,0H25L37.88,60.406,50.759,0h25V93.989h-19.7V48.5L45.348,93.989H30.415L19.7,48.5v45.49H0Z"/>
    <path id="Path_566" data-name="Path 566" class="cls-1" d="M65.425,77.754,87.83,18.83H66.077V0h42.64V16.235l-22.4,58.92h22.4V93.989H65.425Z" transform="translate(71.368)"/>
    <path id="Path_567" data-name="Path 567" class="cls-1" d="M105.258,58.834,86.75,0h20.781l7.684,28.138L122.9,0h20.779L125.169,58.834V93.989H105.256V58.834Z" transform="translate(94.629)"/>
    <path id="Path_568" data-name="Path 568" class="cls-1" d="M115.839.046H135.75V69.374c0,4.115,2.867,6.168,5.179,6.168s5.171-2.053,5.171-6.168V.046h19.911V68.834q0,12.012-6.49,18.774c-4.33,4.51-11.669,6.764-18.592,6.764s-14.266-2.254-18.6-6.764-6.494-10.766-6.494-18.774V.046Z" transform="translate(126.361 0.05)"/>
    <path id="Path_569" data-name="Path 569" class="cls-1" d="M144.08,0h20.779l11.47,36.14V0h19.7V93.989H175.248l-11.472-44.1v44.1h-19.7Z" transform="translate(157.167)"/>
    <g id="Group_415" data-name="Group 415" transform="translate(80.953)">
      <path id="Path_570" data-name="Path 570" class="cls-2" d="M78,0H53.762L38.718,93.989h12.8c.023-.142.052-.276.056-.339q.088-.784.171-1.568c.088-.818.293-1.637.439-2.444.345-1.919.715-3.832.979-5.771.224-1.654.439-3.31.634-4.972.487-4.152,1-8.292,1.321-12.459.14-1.758.282-3.479.539-5.223.3-2.026.631-4.044.807-6.082-.144.905-.293,1.811-.439,2.716a.44.44,0,0,1-.266.4,2.261,2.261,0,0,1-.981.374l-1.3.144a3.928,3.928,0,0,1,.082,1.8,7.152,7.152,0,0,0-.115,1.5c0,.136.178.115.272.213a.4.4,0,0,1,.063.393,4.65,4.65,0,0,1-.611.993c-.161.259-.358.211-.661.249a1.167,1.167,0,0,0-.6.234,1.3,1.3,0,0,1-1.242-.159,2.229,2.229,0,0,1-.489-.554,6.1,6.1,0,0,1-.479-.654c-.04-.073-.132-.163-.159-.226a2.236,2.236,0,0,1,.086-1.2c.094-.353.322-.688.437-1.045.14-.433.276-.866.416-1.3a3.78,3.78,0,0,0,.339-1.165c-.019-.082-.209-.23-.261-.293-.117-.136,0-.5.029-.654.061-.324.128-.65.192-.974.232-1.127.552-2.254.671-3.4.151-1.453.483-2.887.638-4.338a53.433,53.433,0,0,0-.033-5.612c0-3.232-.144-6.63,1.407-9.563a7.555,7.555,0,0,1,2.988-3.442s0,0,0,0a14.486,14.486,0,0,1,1.76-.734,5.156,5.156,0,0,0,1.148-.489,17.882,17.882,0,0,0,1.562-.983c.295-.224.18-.772.188-1.121a19.51,19.51,0,0,1,.454-2.791,16.783,16.783,0,0,1,.8-3.615c.079-.184.213-.5.443-.519l.094-.01v0h0c.261-.021.744-.088.824-.1,1.192-.123,2.394-.213,3.592-.22a10.651,10.651,0,0,1,4.723.738,3.412,3.412,0,0,1,.408.307c.075.052.142.125.213.182.044.042.111.165.169.182.013,0,.019-.023.029-.031a1.794,1.794,0,0,1,.293.841,3.232,3.232,0,0,1-.038,1.089,29.811,29.811,0,0,0-.7,3.042,6.575,6.575,0,0,1-.389,1.386,6.2,6.2,0,0,1-.73,1.261.351.351,0,0,0,.073.5c.176.086.353.167.531.251a1.337,1.337,0,0,1,.142.056.117.117,0,0,0,.042.029.153.153,0,0,0,.027.017,4.544,4.544,0,0,1,.74.445,2.286,2.286,0,0,1,.22.226.05.05,0,0,0,.019.006,4.723,4.723,0,0,1,.807.539,7.079,7.079,0,0,1,2.965,2.467,10.258,10.258,0,0,1,1.474,4.719,66.8,66.8,0,0,1,.28,10.3,12.855,12.855,0,0,1-1.257,5.3,25.551,25.551,0,0,1-1.664,2.7c-.266.437-.525.882-.772,1.332a5.924,5.924,0,0,1-.625,1.244c-.1.1-.211.211-.316.318.077.849.171,1.7.295,2.538.107,1.029.234,2.051.322,3.063q.486,5.645,1.112,11.276c.318,2.848.65,5.693.945,8.539.282,2.716.7,5.461.746,8.192.01.652.019,1.3.031,1.957H92.183ZM72.895,20.386a.122.122,0,0,1-.04-.036.426.426,0,0,0,.084-.209.9.9,0,0,0-.025-.429,1.519,1.519,0,0,0-.529-.707c-1.382-1.14-3.356-1.05-5.039-.987-.654.021-1.309.063-1.963.115a15.206,15.206,0,0,0-2.078.274,5.654,5.654,0,0,0,.709-.337c.516-.577.91-1.271,1.625-1.549a5.554,5.554,0,0,1,3.071-.389,9.862,9.862,0,0,1,2.752,1.254,1.81,1.81,0,0,1,.592.431.847.847,0,0,1,.144.3c.065.274.015.6.18.834a.487.487,0,0,1,.079.054,1.515,1.515,0,0,1,.527.707.879.879,0,0,1,.025.429C73,20.2,72.972,20.406,72.895,20.386Z" transform="translate(-38.718)"/>
      <path id="Path_571" data-name="Path 571" class="cls-3" d="M45.153,29.792c-.056.182-.276.326-.167.491l.345.523c.063-.13.125-.259.188-.387a3.939,3.939,0,0,0,.117-1.384C45.314,29.144,45.241,29.514,45.153,29.792Z" transform="translate(-31.914 31.672)"/>
    </g>
  </g>
</svg>
