<svg xmlns="http://www.w3.org/2000/svg" viewBox="0 0 763.89 322"><title>Asset 3</title><g id="Layer_2" data-name="Layer 2"><g id="Layer_1-2" data-name="Layer 1"><path d="M118.49,322,81.55,196.54l-12.55.7V322H0V.69H80.15q51.23,0,75.27,23c16,15.33,23.7,39.73,23.7,73.88,0,20.21-2.79,37.64-8.36,51.58s-14.64,24.4-26.49,30.67c3.48,11.15,7,23,11.15,34.85s7.67,24.4,11.85,36.24c4.18,12.55,7.67,24.39,11.15,36.24s7.67,23.7,11.15,34.15H118.49v.7ZM103.15,69.69C99,64.12,91.3,61.33,79.46,61.33H69V138H80.85c11.15,0,18.82-2.79,22.3-9.06,4.18-6.27,6.27-16,6.27-30S107.34,75.27,103.15,69.69Z"/><path d="M484.4,305.27Q463.49,322,423.76,322H397.28V259.27H416.1c6.27,0,11.15-1.39,14.64-3.48,2.79-2.09,4.88-6.27,4.88-12.55V.69h69V249.51C504.61,276,497.64,294.12,484.4,305.27Z"/><path d="M524.13,322V.69h69.7V322Z"/><path d="M613.34,322V.69h69V259.27h81.55v62H613.34Z"/><path d="M244.64,322v-1.39l.7-5.58a35,35,0,0,1,1.39-8.36,191.21,191.21,0,0,0,3.48-19.51q1-8.36,2.09-16.73c1.4-13.94,3.48-28.57,4.18-42.51.7-6.27.7-11.85,2.09-18.12.7-7,2.09-13.94,2.79-20.91L260,197.94c0,.69,0,.69-.7,1.39a5.33,5.33,0,0,1-3.48,1.39l-4.18.7a9.66,9.66,0,0,1,0,6.27c0,1.39-.7,3.49-.7,4.88a.68.68,0,0,0,.7.7c.7.69,0,.69,0,1.39-.7,1.4-1.39,2.09-2.09,3.49a2.56,2.56,0,0,1-2.09.69,2.56,2.56,0,0,0-2.09.7,4.28,4.28,0,0,1-4.18-.7c-.7-.69-1.39-1.39-1.39-2.09-.7-.7-1.39-1.4-1.39-2.09l-.7-.7c-.7-.69,0-2.79,0-4.18s1.39-2.09,1.39-3.48l1.4-4.18c0-.7,1.39-3.49,1.39-4.18l-.7-.7c-.7-.7,0-1.4,0-2.09,0-1.4.7-2.09.7-3.48.7-4.18,2.09-7.67,2.09-11.85L246,165.18c.7-6.27,0-12.55,0-19.51,0-11.15-.7-23,4.88-32.76,2.09-4.18,5.57-9.76,10.45-11.85h0c0-.7,5.58-2.09,6.27-2.79.7,0,2.09-.7,4.18-1.39a39,39,0,0,0,5.58-3.48c.7-.7.7-2.79.7-3.48a47.14,47.14,0,0,1,1.39-9.76,81,81,0,0,1,2.79-12.55c0-.7.7-1.39,1.39-2.09h2.79a75.84,75.84,0,0,1,12.55-.7c5.58,0,11.15,0,16,2.79.7,0,.7.7,1.39,1.4l.7.7.7.7h0a4.19,4.19,0,0,1,.7,2.79v3.48c-.7,3.48-2.09,7-2.09,10.46A12.91,12.91,0,0,1,315,92a14.6,14.6,0,0,1-2.79,4.18,1,1,0,0,0,0,1.39c.7,0,1.39.7,2.09.7h.7c.7.7,1.39.7,2.79,1.39l.7.7h0c.7.7,2.09,1.4,2.79,2.09,4.18,2.09,7.67,4.18,10.46,8.36,2.79,4.88,4.88,10.46,4.88,16,.7,11.85,2.09,23.7.7,35.55-.7,6.27-.7,10.46-4.18,18.12a39.55,39.55,0,0,1-5.58,9.06c-.7,1.4-2.09,2.79-2.79,4.88-.7,1.39-1.4,3.49-2.09,4.18l-1.4,1.4c0,2.79.7,5.58.7,8.36.7,3.48.7,7,1.39,10.45,1.4,12.55,2.09,25.79,3.48,38.33,1.4,9.76,2.09,19.52,3.48,29.27.7,9.06,2.09,18.82,2.79,27.88v7H391L332.45,0H253L193.76,321.31h24.39ZM317.82,70.39h0V68.3c-.7-.7-.7-2.09-2.09-2.09-4.88-4.18-11.15-3.48-17.42-3.48a26.14,26.14,0,0,0-7,.7c-2.09,0-4.88.7-7,.7.7-.7,2.09-.7,2.09-1.4,2.09-2.09,2.79-4.18,5.58-5.57a18.27,18.27,0,0,1,10.46-1.4c3.48.7,6.27,2.79,9.06,4.18.7.7,1.4.7,2.09,1.39l.7.7a4.19,4.19,0,0,0,.7,2.79h0l2.09,2.09V68.3A5.41,5.41,0,0,1,317.82,70.39Z"/><path d="M246,210.48a2.44,2.44,0,0,1-.7,1.4l1.39,2.09.7-1.39c0-1.39.7-3.48.7-4.88A3.74,3.74,0,0,0,246,210.48Z"/></g></g></svg>