<svg xmlns="http://www.w3.org/2000/svg" xmlns:xlink="http://www.w3.org/1999/xlink" viewBox="-5539 468.508 313.495 109.711">
  <defs>
    <style>
      .cls-1 {
        fill: #fc2741;
      }

      .cls-1, .cls-3 {
        clip-rule: evenodd;
      }

      .cls-2, .cls-3 {
        fill: none;
      }

      .cls-4 {
        clip-path: url(#clip-path);
      }

      .cls-5 {
        clip-path: url(#clip-path-2);
      }

      .cls-6 {
        fill: #ed2b4a;
      }

      .cls-7 {
        clip-path: url(#clip-path-3);
      }

      .cls-8 {
        fill: #333;
      }
    </style>
    <clipPath id="clip-path">
      <path id="Path_1023" data-name="Path 1023" class="cls-1" d="M163.188,16.192l51.281-36.344L163.188-56.5Zm8.388-56.481,28.408,20.137L171.576-.016Z" transform="translate(-163.188 56.499)"/>
    </clipPath>
    <clipPath id="clip-path-2">
      <path id="Path_1022" data-name="Path 1022" class="cls-2" d="M-623,10338.626H2462.092V-3830.3H-623Z" transform="translate(623 3830.302)"/>
    </clipPath>
    <clipPath id="clip-path-3">
      <path id="Path_1026" data-name="Path 1026" class="cls-3" d="M224.853-8.141V-39.81h-4.146q-8.572,0-13.352,4.512t-4.781,12.639q0,7.518,3.274,11.018t9.915,3.5ZM210.77,22.5a31.016,31.016,0,0,1-17.38-4.935l3.863-6.437a42.666,42.666,0,0,0,6.406,2.749,22.87,22.87,0,0,0,7.3,1.1q6.546,0,10.267-3.5a12.2,12.2,0,0,0,3.722-9.326V-.622H215.48q-10.267,0-15.9-5.64t-5.626-16.3q0-11.321,7.205-18.017t19.265-6.7h12.622V1.679q0,9.821-5.815,15.319T210.77,22.5Zm-49.033,0a21.415,21.415,0,0,1-9.843-2.726l2.5-6.437a19.944,19.944,0,0,0,3.863,1.337,16.525,16.525,0,0,0,3.3.307,7.812,7.812,0,0,0,6.782-3.525,16,16,0,0,0,2.449-9.3V-47.28h8.149V1.679q0,9.727-4.429,15.271T161.737,22.5Zm-19.611-3.853a5.245,5.245,0,0,1-3.955-1.5,5.878,5.878,0,0,1-1.462-4.276,5.944,5.944,0,0,1,1.436-4.276,5.248,5.248,0,0,1,3.98-1.5,5.106,5.106,0,0,1,4,1.573,6.055,6.055,0,0,1,1.413,4.207,6.055,6.055,0,0,1-1.413,4.207,5.106,5.106,0,0,1-4,1.573Zm-16.673,0a5.667,5.667,0,0,1-3.84-1.364q-1.576-1.362-1.577-4.416t1.577-4.416a5.667,5.667,0,0,1,3.84-1.364,5.257,5.257,0,0,1,3.909,1.479,5.883,5.883,0,0,1,1.462,4.3,5.95,5.95,0,0,1-1.436,4.276,5.178,5.178,0,0,1-3.934,1.5ZM119.188-.622a.417.417,0,0,1-.472-.471V-7.764q0-.377.472-.377H137.7V-47.28h8.573V-.622Zm-16.239-55.82a5.253,5.253,0,0,1-3.957-1.5,5.886,5.886,0,0,1-1.46-4.276A5.939,5.939,0,0,1,98.969-66.5a5.242,5.242,0,0,1,3.98-1.5,5.106,5.106,0,0,1,4,1.573,6.063,6.063,0,0,1,1.413,4.2,6.065,6.065,0,0,1-1.413,4.207,5.1,5.1,0,0,1-4,1.573ZM86.274-.622a.416.416,0,0,1-.47-.471V-7.764c0-.251.157-.377.47-.377H98.992V-47.28h8.573V-8.141H120.14c.312,0,.47.126.47.377v6.671a.416.416,0,0,1-.47.471ZM39.047,41.711a5.251,5.251,0,0,1-3.955-1.5,5.878,5.878,0,0,1-1.462-4.276,5.939,5.939,0,0,1,1.439-4.276,5.239,5.239,0,0,1,3.978-1.5,5.1,5.1,0,0,1,4.005,1.575,6.053,6.053,0,0,1,1.411,4.2,6.055,6.055,0,0,1-1.411,4.2,5.1,5.1,0,0,1-4.005,1.575Zm-16.673,0a5.671,5.671,0,0,1-3.838-1.362q-1.579-1.365-1.579-4.418t1.579-4.416a5.671,5.671,0,0,1,3.838-1.362,5.239,5.239,0,0,1,3.911,1.481,5.871,5.871,0,0,1,1.46,4.3,5.95,5.95,0,0,1-1.436,4.276,5.178,5.178,0,0,1-3.934,1.5ZM19.406,22.5q-9.043,0-14.224-6.251T0-.717A45.562,45.562,0,0,1,.824-9.785a45.5,45.5,0,0,1,2.569-8.269H11.4A35.889,35.889,0,0,0,9.728-12.91,36.422,36.422,0,0,0,8.9-8.141q-.236,2.3-.235,6.859,0,7.8,3.25,12.028t9.325,4.23H39.189a22.865,22.865,0,0,0,11.4-2.563Q55.11,9.857,55.11,6.285A4.2,4.2,0,0,0,53.319,2.9,15.95,15.95,0,0,0,47.9.457,50.532,50.532,0,0,1,37.893-3.16a11.444,11.444,0,0,1-4.144-3.853,10.073,10.073,0,0,1-1.436-5.449,19.545,19.545,0,0,1,3.32-10.713,26.488,26.488,0,0,1,8.6-8.388,20.123,20.123,0,0,1,10.55-3.217,13.519,13.519,0,0,1,5.771,1.174A16.562,16.562,0,0,1,65.282-30.2a46.849,46.849,0,0,1,5.511,7.4,80.256,80.256,0,0,0,6.146,8.974,26.6,26.6,0,0,0,3.416,3.408,11.275,11.275,0,0,0,2.967,1.69,9.478,9.478,0,0,0,3.391.588h.518c.312,0,.472.126.472.377v6.671a.417.417,0,0,1-.472.471h-.518a17.691,17.691,0,0,1-7.795-1.809,27.307,27.307,0,0,1-7.7-5.991,76.177,76.177,0,0,1-4.945-6.625q-4.665-6.577-7.394-8.832a8.294,8.294,0,0,0-5.136-2.257,10.3,10.3,0,0,0-5.651,2.021,18.139,18.139,0,0,0-5.039,5.052,10.145,10.145,0,0,0-2.026,5.474,3.579,3.579,0,0,0,1.72,2.866,18.553,18.553,0,0,0,5.534,2.4A60.225,60.225,0,0,1,58.1-4.8a12.233,12.233,0,0,1,4.381,3.548,7.754,7.754,0,0,1,1.483,4.673q0,19.078-24.774,19.078Z" transform="translate(0 68)"/>
    </clipPath>
  </defs>
  <g id="Group_735" data-name="Group 735" transform="translate(-6375 269.508)">
    <g id="Group_732" data-name="Group 732" class="cls-4" transform="translate(1098.214 217.48)">
      <g id="Group_731" data-name="Group 731" class="cls-5" transform="translate(-1263.261 -6063.817)">
        <path id="Path_1021" data-name="Path 1021" class="cls-6" d="M158.188-61.5h67.349V27.26H158.188Z" transform="translate(1097.039 6117.282)"/>
      </g>
    </g>
    <g id="Group_734" data-name="Group 734" class="cls-7" transform="translate(836 199)">
      <g id="Group_733" data-name="Group 733" class="cls-5" transform="translate(-1001.047 -6045.337)">
        <path id="Path_1024" data-name="Path 1024" class="cls-8" d="M-5-73H244.117V52.779H-5Z" transform="translate(998.013 6110.303)"/>
      </g>
    </g>
  </g>
</svg>
