<svg xmlns="http://www.w3.org/2000/svg" viewBox="612 477 496.857 94">
  <defs>
    <style>
      .cls-1 {
        fill: none;
      }

      .cls-2 {
        fill: #9c924a;
      }
    </style>
  </defs>
  <g id="Group_11" data-name="Group 11" transform="translate(612 477)">
    <rect id="Rectangle_7" data-name="Rectangle 7" class="cls-1" width="496.857" height="94"/>
    <g id="Group_10" data-name="Group 10" transform="translate(24.395 9.848)">
      <path id="Path_21" data-name="Path 21" class="cls-2" d="M78.043,5.2v.9a10.335,10.335,0,0,0-5.819,1.567A14.806,14.806,0,0,0,68.2,10.8c-.9,1.119-2.014,2.238-3.133,3.8L48.276,40.114V68.986c0,2.686.671,4.476,2.238,5.819a8.183,8.183,0,0,0,5.6,2.014v.9H33.5v-.9A7.8,7.8,0,0,0,39.1,74.8c1.343-1.343,2.014-3.133,2.014-5.819V41.01L22.538,13.481a25.067,25.067,0,0,0-5.371-6.043A12.3,12.3,0,0,0,10.9,5.871V5.2H36.638v.9c-2.686,0-4.252.671-4.924,1.79A5.964,5.964,0,0,0,30.6,10.8c0,1.119.671,2.462,2.014,4.476l15,22.381L61.033,17.51c2.014-2.91,3.133-5.371,3.133-6.938a3.567,3.567,0,0,0-.9-2.686,5.148,5.148,0,0,0-1.79-1.567,4.216,4.216,0,0,0-1.79-.448V5.2Z" transform="translate(-10.9 -3.41)"/>
      <path id="Path_22" data-name="Path 22" class="cls-2" d="M73.962,4.8,95.448,66.571a35.308,35.308,0,0,0,3.133,6.938,10.207,10.207,0,0,0,2.91,2.686,7.847,7.847,0,0,0,3.581.671v.9h-23.5v-.9a18.072,18.072,0,0,0,5.6-.671c1.343-.448,2.014-1.79,2.014-3.8a13.067,13.067,0,0,0-.9-4.476.822.822,0,0,1-.224-.671L81.571,48H56.729L50.91,65.676A17.207,17.207,0,0,0,49.79,71.5c0,2.014.448,3.357,1.567,4.029a8,8,0,0,0,4.252.9v.9H38.6v-.9a8.879,8.879,0,0,0,5.819-2.686c1.567-1.567,2.686-4.029,3.8-7.386L68.59,4.8ZM57.4,45.757H80.452L68.59,11.514h0Z" transform="translate(23.395 -3.905)"/>
      <path id="Path_23" data-name="Path 23" class="cls-2" d="M108.124,20.067h-.9a15.209,15.209,0,0,0-4.7-9.176,13.825,13.825,0,0,0-10.3-4.029,14.087,14.087,0,0,0-7.386,2.014,12.645,12.645,0,0,0-4.924,5.371,17.558,17.558,0,0,0-1.79,7.833,17.087,17.087,0,0,0,1.119,6.043,13.332,13.332,0,0,0,3.133,4.7,22.025,22.025,0,0,0,4.924,3.8c1.79,1.119,4.476,2.686,7.61,4.476a53.044,53.044,0,0,1,12.31,8.729c2.91,2.91,4.476,6.938,4.476,11.862a18.593,18.593,0,0,1-2.462,8.952,17.844,17.844,0,0,1-7.162,6.938,23.847,23.847,0,0,1-11.862,2.686,27.928,27.928,0,0,1-7.833-.9,44.265,44.265,0,0,1-6.938-2.686,11.353,11.353,0,0,0-2.014-.448,1.353,1.353,0,0,0-1.343.671c-.224.448-.448,1.567-.9,3.133h-.9V61.7h.9a20.283,20.283,0,0,0,6.938,12.086,19.372,19.372,0,0,0,12.31,4.029A16.8,16.8,0,0,0,99.171,75.8a12.251,12.251,0,0,0,4.7-4.924,14.577,14.577,0,0,0,1.343-5.819,13.5,13.5,0,0,0-3.8-9.848,50.164,50.164,0,0,0-11.19-7.833A56.967,56.967,0,0,1,82.61,42.9c-1.567-1.119-3.357-2.462-5.148-4.029A23.162,23.162,0,0,1,72.986,32.6a17.51,17.51,0,0,1-1.567-7.833A19.771,19.771,0,0,1,74.1,14.919a18.625,18.625,0,0,1,7.61-7.386A23.11,23.11,0,0,1,92.9,4.624a31.149,31.149,0,0,1,9.848,1.567,4.469,4.469,0,0,0,2.014.448c1.119,0,1.79-.671,2.238-2.238h.9l.224,15.667Z" transform="translate(62.643 -4.4)"/>
      <path id="Path_24" data-name="Path 24" class="cls-2" d="M169.357,5.2v.9a20.17,20.17,0,0,0-2.91.448,7.949,7.949,0,0,0-2.014.9A4.915,4.915,0,0,0,162.419,9.9a13.982,13.982,0,0,0-.448,4.029v.9l2.462,53.714A11.815,11.815,0,0,0,166,74.357c.9,1.567,3.133,2.462,6.714,2.462v.9h-23.5v-.9c3.133-.224,5.148-1.119,6.267-2.686s1.567-3.8,1.343-6.714l-2.462-55.5h-.224l-25.514,65.8L104.452,13.929h-.224l-2.686,51.252a18.248,18.248,0,0,0,.448,6.49,6.357,6.357,0,0,0,2.238,3.357,16.381,16.381,0,0,0,4.7,1.567v.9H90.8v-.9a9.549,9.549,0,0,0,5.371-1.567A9.366,9.366,0,0,0,98.633,71a37.583,37.583,0,0,0,.9-6.714l2.91-53.043c0-.224-.224-.448-.671-1.119L100.2,8.557c-.671-.448-1.119-.9-1.567-1.119a5.964,5.964,0,0,0-2.91-1.119A14.82,14.82,0,0,0,92.367,6.1V5.2h16.786l22.381,59.086L154.138,5.2h15.219Z" transform="translate(88.024 -3.41)"/>
      <path id="Path_25" data-name="Path 25" class="cls-2" d="M153.052,5.2v.9a9.281,9.281,0,0,0-5.6,1.79c-1.567,1.119-2.238,3.133-2.238,6.043V68.762a7.58,7.58,0,0,0,2.462,6.043,7.815,7.815,0,0,0,5.371,1.79v.9H130v-.9a9.106,9.106,0,0,0,5.371-1.79c1.567-1.119,2.238-3.357,2.238-6.043V13.7c0-2.91-.671-5.148-2.238-6.267A8.922,8.922,0,0,0,130,5.871V5.2Z" transform="translate(136.557 -3.41)"/>
      <path id="Path_26" data-name="Path 26" class="cls-2" d="M220.333,5.2v.9a14.317,14.317,0,0,0-4.252,1.119c-1.119.448-1.79,1.343-2.462,2.91-.671,1.343-.9,3.357-.9,6.043V79.5h-.448l-55.5-62V62.048a66.823,66.823,0,0,0,.448,8.281,6.793,6.793,0,0,0,1.343,3.8c1.119,1.79,3.357,2.686,6.267,2.686v.9H146.476v-.9a7.344,7.344,0,0,0,4.7-1.343,6.559,6.559,0,0,0,2.462-4.252,46.436,46.436,0,0,0,.671-9.176V14.6l-2.462-2.686a18.175,18.175,0,0,0-5.148-4.7A14.465,14.465,0,0,0,142,5.871V5.2h13.652l54.61,61.324V19.748a61.274,61.274,0,0,0-.448-7.833,7.168,7.168,0,0,0-2.238-4.252c-1.119-1.119-3.133-1.567-5.6-1.79V5.2Z" transform="translate(151.414 -3.41)"/>
      <path id="Path_27" data-name="Path 27" class="cls-2" d="M212.062,5.048l21.71,62a35.307,35.307,0,0,0,3.133,6.938,10.206,10.206,0,0,0,2.91,2.686,7.847,7.847,0,0,0,3.581.671v.9H219.9v-.9a18.072,18.072,0,0,0,5.6-.671c1.343-.448,2.014-1.79,2.014-3.8a13.067,13.067,0,0,0-.9-4.476.822.822,0,0,1-.224-.671L219.9,48.467H194.829L189.01,66.148a17.208,17.208,0,0,0-1.119,5.819c0,2.014.448,3.357,1.567,4.029a8,8,0,0,0,4.252.9v.9H176.7v-.9a8.879,8.879,0,0,0,5.819-2.686c1.567-1.567,2.686-4.029,3.8-7.386L206.69,4.6l5.371.448ZM195.724,46h23.052L206.914,11.762h-.224Z" transform="translate(194.376 -4.152)"/>
    </g>
  </g>
</svg>
