<?xml version="1.0" encoding="UTF-8" standalone="no"?>
<svg width="181px" height="50px" viewBox="0 0 181 50" version="1.1" xmlns="http://www.w3.org/2000/svg" xmlns:xlink="http://www.w3.org/1999/xlink">
    <!-- Generator: Sketch 41.2 (35397) - http://www.bohemiancoding.com/sketch -->
    <title>logo-mayun copy 2</title>
    <desc>Created with Sketch.</desc>
    <defs></defs>
    <g id="diwanee-corp-" stroke="none" stroke-width="1" fill="none" fill-rule="evenodd">
        <g id="Desktop-HD-Copy" transform="translate(-1111.000000, -3771.000000)">
            <g id="logo-mayun-copy-2" transform="translate(1111.000000, 3771.000000)">
                <g id="Calque_1">
                    <polygon id="Shape" fill="#FFFFFF" points="0 0.624985657 12.821116 0.624985657 19.4079643 31.0046456 25.9948127 0.624985657 38.8159287 0.624985657 38.8159287 47.9453283 28.7032734 47.9453283 28.7032734 25.026509 23.2222463 47.9137814 15.5936823 47.9137814 10.1126552 25.026509 10.1126552 47.9137814 0.048079185 47.9137814 0.048079185 0.593438762"></polygon>
                    <polygon id="Shape" fill="#FFFFFF" points="69.9071349 39.7431356 81.3499809 10.1048276 70.2276628 10.1048276 70.2276628 0.640759105 92.02356 0.640759105 92.02356 8.81140493 80.580714 38.4497129 92.02356 38.4497129 92.02356 47.9137814 69.9071349 47.9137814 69.9071349 39.7431356"></polygon>
                    <polygon id="Shape" fill="#FFFFFF" points="102.136215 30.2159732 92.6806422 0.624985657 103.306142 0.624985657 107.232609 14.8210884 111.159076 0.624985657 121.784575 0.624985657 112.329002 30.2159732 112.329002 47.8980079 102.152242 47.8980079 102.152242 30.2159732"></polygon>
                    <path d="M123.771848,0.624985657 L133.948609,0.624985657 L133.948609,36.903915 C133.785721,37.930464 134.251145,38.95535 135.136905,39.520598 C136.022664,40.0858461 137.163265,40.0858461 138.049024,39.520598 C138.934783,38.95535 139.400208,37.930464 139.23732,36.903915 L139.23732,0.624985657 L149.41408,0.624985657 L149.41408,36.5568992 C149.627651,40.0198166 148.434259,43.4243268 146.096617,46.0209677 C140.60147,50.5637355 132.584459,50.5637355 127.089312,46.0209677 C124.75167,43.4243268 123.558278,40.0198166 123.771848,36.5568992 L123.771848,0.624985657 L123.771848,0.624985657 Z" id="Shape" fill="#FFFFFF"></path>
                    <polygon id="Shape" fill="#FFFFFF" points="153.933524 0.624985657 164.559024 0.624985657 170.424684 18.7959972 170.424684 0.624985657 180.48926 0.624985657 180.48926 47.9453283 169.86376 47.9453283 163.9981 25.767861 163.9981 47.9453283 153.933524 47.9453283"></polygon>
                    <path d="M61.4451984,0.624985657 L49.0567951,0.624985657 L41.3641255,47.9453283 L47.9349474,47.9453283 L47.9349474,47.7718204 L48.0150794,46.983148 C48.0150794,46.5730383 48.1593169,46.1629287 48.2394489,45.7528191 C48.4157393,44.7906388 48.608056,43.8284585 48.7362672,42.8505047 C48.8644783,41.872551 48.9606367,41.1785193 49.0567951,40.3425266 C49.3132174,38.2604315 49.5696397,36.1783364 49.7299036,34.0331475 C49.7299036,33.1498345 49.8741412,32.2822949 50.0023524,31.4147553 C50.1305635,30.5472156 50.3228803,29.3799805 50.4190386,28.3547064 L50.1946691,29.7269964 C50.1941615,29.818085 50.1368791,29.8995204 50.0504315,29.9320512 C49.9023769,30.0329494 49.7321044,30.097821 49.5536133,30.1213326 L48.8965311,30.1213326 C48.966884,30.4170286 48.966884,30.7247231 48.8965311,31.0204191 C48.8692232,31.2720787 48.8692232,31.525885 48.8965311,31.7775445 C48.9265154,31.8328241 48.9789501,31.8729629 49.0407687,31.8879587 C49.0779856,31.9514029 49.0779856,32.0295693 49.0407687,32.0930135 C48.962041,32.2736 48.8596738,32.4432868 48.7362672,32.5977638 C48.6560166,32.6972991 48.5269101,32.7457063 48.3997129,32.7239514 C48.2897555,32.7321734 48.184306,32.77041 48.0952114,32.8343655 C47.8822433,32.9204207 47.6390482,32.8905011 47.4541556,32.7554983 C47.3535026,32.6752736 47.2668816,32.579363 47.1977332,32.4715762 C47.1104394,32.3663709 47.0301403,32.2557265 46.9573373,32.1403338 L46.8772053,32.0299197 C46.8226691,31.8337277 46.8226691,31.6267207 46.8772053,31.4305287 C46.8772053,31.2570208 47.0374693,31.0835129 47.1015749,30.9100049 L47.309918,30.2632936 C47.4000338,30.0792924 47.4595545,29.8822465 47.4862083,29.679676 C47.4501261,29.6269162 47.4070031,29.5791685 47.3579972,29.537715 C47.3213497,29.4302465 47.3213497,29.3139411 47.3579972,29.2064726 L47.4541556,28.7174957 C47.5663403,28.1496516 47.7426307,27.5818075 47.7907098,27.0139634 C47.838789,26.4461193 48.0311058,25.5628062 48.1112377,24.8372276 C48.161616,23.8967316 48.161616,22.9542765 48.1112377,22.0137805 C47.9622184,20.4023271 48.2095845,18.779248 48.8324255,17.2817463 C49.1675224,16.551621 49.7284298,15.9443611 50.435065,15.546667 L50.435065,15.546667 C50.7259,15.4066786 51.0256946,15.2854921 51.3325431,15.1838777 C51.540222,15.1246938 51.7394618,15.0398959 51.9255198,14.9315026 C52.2010874,14.7823415 52.4685578,14.6191273 52.7268395,14.4425257 C52.8353014,14.2737206 52.8699714,14.0689837 52.8229979,13.8746816 C52.8629855,13.4019865 52.9379746,12.9327945 53.0473674,12.4708448 C53.1122189,11.8534525 53.2465973,11.2450682 53.4480273,10.6568983 C53.4788147,10.54298 53.5617628,10.4496784 53.6723968,10.4045231 L53.6723968,10.4045231 L54.0890831,10.4045231 C54.6980861,10.4045231 55.3070891,10.294109 55.9321185,10.294109 C56.7562965,10.2328331 57.5838382,10.356893 58.3521041,10.6568983 C58.425409,10.7043478 58.4950467,10.7570699 58.5604473,10.8146328 L58.672632,10.9092735 C58.6945411,10.944476 58.7215341,10.9763564 58.752764,11.0039141 L58.752764,11.0039141 C58.8360348,11.1318818 58.8856063,11.2782492 58.8970016,11.4297972 C58.9299766,11.6123899 58.9299766,11.7992753 58.8970016,11.9818679 C58.7509005,12.5010658 58.6332045,13.0276039 58.5444209,13.5592126 C58.5067428,13.7968766 58.4422382,14.0296607 58.3521041,14.2532443 C58.2543783,14.4768489 58.1306863,14.6885702 57.9834971,14.8841822 C57.9482056,14.9169621 57.9282033,14.96261 57.9282033,15.0103698 C57.9282033,15.0581296 57.9482056,15.1037775 57.9834971,15.1365574 L58.2559458,15.262745 L58.2559458,15.262745 L58.2559458,15.262745 C58.3909533,15.324237 58.5197396,15.3981766 58.6405793,15.4835732 L58.752764,15.5939874 L58.752764,15.5939874 C58.9004325,15.6694114 59.0400288,15.7592453 59.1694503,15.862136 C59.7847031,16.1302515 60.3119097,16.5617459 60.6919578,17.1082383 C61.135362,17.8246352 61.3939592,18.6369196 61.4451984,19.4742555 C61.6283702,21.1926034 61.6765925,22.9222979 61.5894359,24.6479463 C61.570621,25.5712536 61.3520812,26.4800111 60.9483801,27.3136589 C60.6935977,27.7824442 60.4099356,28.2354613 60.0989812,28.6701754 L59.6983213,29.3326602 C59.6172255,29.5547166 59.5096298,29.7665115 59.3777934,29.9635981 L59.2175295,30.1213326 C59.2175295,30.5472156 59.2976614,30.9730987 59.361767,31.3989818 C59.4258726,31.8248649 59.4739518,32.4242559 59.522031,32.9763266 C59.6822949,34.8691403 59.8692695,36.761954 60.0829548,38.6547677 C60.2432188,40.0901514 60.4195091,41.5097617 60.5637466,42.9451454 C60.7079842,44.3805291 60.9163273,45.6897253 60.9483801,47.0620152 L60.9483801,48.039969 L68.4807858,48.039969 L61.4451984,0.624985657 Z M58.832896,10.9092735 L58.832896,10.9092735 C58.8423955,10.8730625 58.8423955,10.8350703 58.832896,10.7988593 C58.8512196,10.7263545 58.8512196,10.6505359 58.832896,10.5780311 C58.780757,10.4331259 58.6858992,10.3068144 58.5604473,10.2152418 C57.7884267,9.75131593 56.8720511,9.5776558 55.9801977,9.72626489 L54.9705348,9.72626489 C54.6150446,9.74947143 54.2616167,9.79690549 53.9127927,9.86822592 C54.0397397,9.81918582 54.1629282,9.76119947 54.2813998,9.69471799 C54.4933204,9.3759621 54.7788975,9.11110787 55.1147724,8.92181906 C55.6188456,8.70641895 56.1758705,8.64063095 56.7174119,8.73253769 C57.2178787,8.86970405 57.6936588,9.08255441 58.1277346,9.36347559 C58.2435396,9.41576737 58.3471855,9.49093266 58.4322361,9.58430386 C58.4406208,9.63126442 58.4406208,9.67930433 58.4322361,9.72626489 C58.437552,9.87281967 58.4701444,10.0171707 58.5283945,10.152148 L58.5283945,10.152148 C58.6538464,10.2437206 58.7487042,10.3700321 58.8008432,10.5149373 C58.8191668,10.5874421 58.8191668,10.6632607 58.8008432,10.7357655 C58.8008432,10.7357655 58.8649488,10.9092735 58.832896,10.9092735 L58.832896,10.9092735 Z" id="Shape" fill="#FFFFFF"></path>
                    <path d="M48.1272641,31.5409428 C48.0642938,31.6094606 48.0350058,31.7017029 48.0471322,31.793318 L48.2234225,32.0614666 L48.3195809,31.8721852 C48.3609397,31.6426319 48.3609397,31.4077068 48.3195809,31.1781535 C48.2046744,31.2655999 48.1344045,31.3981581 48.1272641,31.5409428 L48.1272641,31.5409428 Z" id="Shape" fill="#000000"></path>
                </g>
            </g>
        </g>
    </g>
</svg>