<?xml version="1.0" encoding="UTF-8" standalone="no"?>
<svg width="271px" height="91px" viewBox="0 0 271 91" version="1.1" xmlns="http://www.w3.org/2000/svg" xmlns:xlink="http://www.w3.org/1999/xlink">
    <!-- Generator: Sketch 41.2 (35397) - http://www.bohemiancoding.com/sketch -->
    <title>logo-atyabtabkha copy</title>
    <desc>Created with Sketch.</desc>
    <defs></defs>
    <g id="diwanee-corp-" stroke="none" stroke-width="1" fill="none" fill-rule="evenodd">
        <g id="Desktop-HD-Copy" transform="translate(-586.000000, -2789.000000)" fill="#FFFFFF">
            <g id="logo-atyabtabkha-copy" transform="translate(586.000000, 2789.000000)">
                <g id="Calque_1">
                    <path d="M270.575,42.1325926 C270.473219,41.5692675 270.405098,41.0003536 270.371,40.4288889 C270.310545,39.4974748 270.197026,38.5702842 270.031,37.6518519 C269.998512,37.2309851 269.924483,36.8143812 269.81,36.4081481 C269.674,35.9140741 269.657,35.3859259 269.504,34.9259259 C269.351,34.4659259 269.232,33.8185185 269.096,33.2222222 C268.970782,32.8446025 268.823186,32.4748092 268.654,32.1148148 C268.28,31.1948148 268.025,30.2237037 267.668,29.3037037 C267.124,27.9237037 266.563,26.5437037 265.968,25.2148148 C265.492,24.2437037 264.982,23.3066667 264.438,22.3866667 C263.894,21.4666667 263.095,20.1548148 262.347,19.0985185 C261.599,18.0422222 260.443,16.577037 259.406,15.3844444 C258.293059,14.1229782 257.112659,12.9229437 255.87,11.7896296 C255.156,11.1081481 254.374,10.4948148 253.609,9.86444444 C252.858439,9.22783519 252.075384,8.63073417 251.263,8.07555556 C250.192,7.37703704 249.138,6.67851852 248.033,6.04814815 C246.720057,5.2927288 245.369648,4.60468058 243.987,3.98666667 C242.899,3.50962963 241.777,3.10074074 240.672,2.65777778 C239.567,2.21481481 238.071,1.78888889 236.745,1.41407407 C235.597057,1.07650726 234.426833,0.820318906 233.243,0.647407407 C232.263462,0.445108149 231.267824,0.33107301 230.268,0.306666667 C230.10048,0.347822829 229.92552,0.347822829 229.758,0.306666667 C229.365432,0.14494221 228.93969,0.0806496241 228.517,0.119259259 L225.457,0.119259259 C223.907566,0.0786818955 222.357153,0.141288832 220.816,0.306666667 C219.857128,0.494629116 218.885273,0.60854404 217.909,0.647407407 C217.8076,0.631722406 217.7044,0.631722406 217.603,0.647407407 C216.993994,0.81204538 216.375049,0.937242273 215.75,1.02222222 C215.206,1.14148148 214.645,1.29481481 214.05,1.39703704 C213.679969,1.46327777 213.316056,1.56015285 212.962,1.68666667 C211.755,2.14666667 210.497,2.45333333 209.307,2.94740741 C208.525,3.28814815 207.709,3.57777778 206.927,3.91851852 C206.145,4.25925926 205.346,4.66814815 204.564,5.07703704 C203.374,5.69037037 202.201,6.37185185 201.079,7.10444444 C199.957,7.83703704 198.937,8.56962963 197.9,9.35333333 C196.701886,10.245837 195.565915,11.2192075 194.5,12.2666667 C193.837,12.9481481 193.157,13.5955556 192.494,14.277037 C191.889392,14.8600583 191.321625,15.4802726 190.794,16.1340741 C190.301,16.7814815 189.757,17.3948148 189.298,18.0762963 C188.839,18.7577778 188.142,19.6266667 187.598,20.4444444 C187.054,21.2622222 186.714,21.9096296 186.272,22.6422222 C185.299012,24.2814596 184.446746,25.9897044 183.722,27.7533333 C183.314,28.7414815 182.94,29.7296296 182.617,30.7518519 C182.294,31.7740741 181.903,32.8814815 181.648,33.9718519 C181.504004,34.3947797 181.390381,34.827489 181.308,35.2666667 C181.249434,35.9001018 181.135667,36.5271853 180.968,37.1407407 C180.764,37.9074074 180.764,38.6911111 180.594,39.4577778 C180.419605,40.3100826 180.328508,41.1773918 180.322,42.0474074 C180.113335,45.2563162 180.255851,48.4784753 180.747,51.6562963 C180.866,52.3037037 180.917,52.9681481 181.036,53.6155556 C181.223,54.7059259 181.495,55.7792593 181.75,56.8355556 C182.005,57.8918519 182.362,58.8118519 182.651,59.8 C182.912832,60.6615661 183.219247,61.5088858 183.569,62.3385185 C184.151083,63.805974 184.826813,65.234359 185.592,66.6148148 C186.398485,68.1291315 187.289567,69.596648 188.261,71.0103704 C188.89,71.8962963 189.519,72.8162963 190.216,73.6511111 C190.913,74.4859259 192.052,75.7977778 193.038,76.802963 C196.085281,79.9684723 199.58602,82.6614735 203.425,84.7933333 C204.768,85.542963 206.145,86.2074074 207.556,86.8207407 C208.27,87.1274074 208.984,87.4 209.715,87.6555556 L211.84,88.4051852 C212.52,88.6437037 213.234,88.78 213.914,89.0014815 C214.471559,89.1777516 215.039266,89.3199877 215.614,89.4274074 C216.209,89.5466667 216.838,89.6318519 217.399,89.7851852 C218.240654,89.8703502 219.075572,90.0126524 219.898,90.2111111 C221.598,90.2111111 223.111,90.5518519 224.726,90.5007407 L227.786,90.5007407 C229.231,90.3303704 230.71,90.3133333 232.138,90.0577778 L234.127,89.7 C234.548049,89.6656479 234.964144,89.585675 235.368,89.4614815 C235.946,89.222963 236.541,89.1718519 237.068,89.0014815 C238.071,88.6948148 239.091,88.3881481 240.094,88.0474074 C241.097,87.7066667 242.542,87.1274074 243.749,86.5992593 C245.281535,85.911601 246.774229,85.1380316 248.22,84.2822222 C249.95005,83.2693829 251.603501,82.1305142 253.167,80.8748148 C254.034,80.1762963 254.867,79.4948148 255.734,78.7281481 C257.658407,76.9410753 259.432423,74.997942 261.038,72.9185185 C261.871,71.8281481 262.738,70.7207407 263.384,69.5111111 C264.170442,68.2929807 264.885646,67.0301147 265.526,65.7288889 C265.934,64.86 266.359,64.0251852 266.733,63.1051852 C267.107,62.1851852 267.498,61.2992593 267.821,60.3622222 C268.263,59.0844444 268.671,57.7896296 269.028,56.4777778 C269.168692,56.0377474 269.276654,55.5878737 269.351,55.1318519 C269.422789,54.4990497 269.542127,53.8725793 269.708,53.2577778 C269.912,52.4740741 269.929,51.6733333 270.082,50.8725926 C270.250811,49.8470885 270.347383,48.8109476 270.371,47.7718519 C270.677,45.8466667 270.66,44.0407407 270.575,42.1325926 L270.575,42.1325926 Z M265.016,44.2792593 C264.513592,44.6623635 263.933191,44.9299298 263.316,45.062963 C261.552537,45.3543687 259.762548,45.45149 257.978,45.3525926 L252.096,45.3525926 C251.22111,45.3737447 250.36637,45.6201644 249.614,46.0681481 C249.176297,46.3049187 248.902483,46.7622695 248.9,47.2607407 C248.9,48.2659259 248.9,49.2711111 248.764,50.2592593 C248.475,53.6666667 248.645,57.0740741 248.679,60.4814815 C248.679,61.7592593 248.679,63.037037 248.781,64.2977778 C248.781,65.0303704 248.594,65.7288889 248.628,66.4614815 C248.617319,66.6513219 248.531684,66.8290958 248.39,66.9555556 C247.772499,67.6081651 247.075722,68.1805378 246.316,68.6592593 C245.437346,69.2284169 244.516679,69.7296219 243.562,70.1585185 C242.797,70.5162963 242.015,70.7888889 241.233,71.0785185 C240.451,71.3681481 239.244,71.6407407 238.258,71.9474074 C237.218297,72.2367191 236.162461,72.4642753 235.096,72.6288889 C234.229,72.7822222 233.396,72.9525926 232.461,73.0548148 C231.526,73.157037 230.336,73.157037 229.299,73.3103704 C226.864228,73.5501086 224.414636,73.6013716 221.972,73.4637037 C220.816,73.4637037 219.643,73.3103704 218.572,73.1911111 C217.881825,73.1572818 217.194649,73.0776006 216.515,72.9525926 C215.274,72.6459259 213.999,72.5437037 212.792,72.1688889 C211.487146,71.8266414 210.204137,71.4056261 208.95,70.9081481 C207.945462,70.5006682 206.973609,70.0165307 206.043,69.46 C205.469157,69.0961677 204.962927,68.6349556 204.547,68.097037 C204.037,67.4325926 203.595,66.717037 203.119,66.0355556 C202.938803,65.7765272 202.849148,65.4650448 202.864,65.1496296 L202.864,61.1118519 L202.864,48.3 C202.805412,47.9624463 202.623623,47.6588047 202.354,47.4481481 C201.496324,46.5417012 200.563664,45.7095982 199.566,44.9607407 C199.369737,44.8339299 199.133229,44.7853097 198.903,44.8244444 L194.432,44.8244444 C193.900627,44.8770612 193.365373,44.8770612 192.834,44.8244444 C192.086,44.6711111 191.304,44.7222222 190.573,44.5859259 C189.784839,44.4561434 189.021889,44.2031887 188.312,43.8362963 C187.690254,43.5026626 187.248175,42.90986 187.105,42.2177778 C187.00676,41.6579989 187.222034,41.0892219 187.666,40.7355556 C188.191065,40.272537 188.831357,39.9605244 189.519,39.8325926 C191.487751,39.476386 193.497571,39.4075245 195.486,39.6281481 C196.249951,39.6543694 197.011139,39.7340697 197.764,39.8666667 C198.576597,40.0219908 199.401762,40.1018355 200.229,40.1051852 C200.518,40.1051852 200.722,40.3096296 201.011,40.3266667 C201.538981,40.2891304 202.062466,40.2035936 202.575,40.0711111 C202.779,40.0711111 202.762,39.8837037 202.779,39.7303704 L202.779,37.4303704 L202.779,34.022963 C202.764072,33.0803248 203.139508,32.1736158 203.816,31.5185185 C203.933675,31.1328404 204.266625,30.8525531 204.666,30.802963 L204.972,30.6496296 C204.970141,30.5808558 205.000278,30.5151215 205.053558,30.4717374 C205.106838,30.4283532 205.177209,30.4122462 205.244,30.4281481 C206.077,30.1044444 206.944,29.7296296 207.76,29.4911111 C208.218008,29.3274769 208.690451,29.2076828 209.171,29.1333333 C209.698,29.1333333 210.191,28.8948148 210.718,28.8096296 L213.982,28.3155556 L217.076,27.9066667 C218.13,27.7533333 219.184,27.6851852 220.221,27.4977778 C220.969731,27.4098715 221.709264,27.2559415 222.431,27.0377778 C222.639157,26.9798221 222.770809,26.7745847 222.737,26.5607407 C222.705793,25.9813834 222.792554,25.4017211 222.992,24.857037 C223.473903,23.8309864 224.451698,23.128277 225.576,23 C226.471728,22.9204707 227.347202,23.298321 227.905,24.0051852 C228.11684,24.241583 228.263349,24.5293649 228.33,24.84 C228.473892,25.3511192 228.559439,25.876953 228.585,26.4074074 C228.55718,26.5129592 228.58745,26.6253745 228.664478,26.7025706 C228.741507,26.7797668 228.853678,26.8101028 228.959,26.7822222 C229.236088,26.756825 229.514912,26.756825 229.792,26.7822222 C231.135,27.0207407 232.495,26.9014815 233.838,27.0548148 C234.552,27.0548148 235.283,27.1740741 235.98,27.2933333 C237.273295,27.4952919 238.555593,27.7625455 239.822,28.0940741 C241.003164,28.410323 242.144025,28.8619446 243.222,29.44 C245.267601,30.468143 246.877911,32.1968022 247.761,34.3125926 C248.17656,35.410014 248.456313,36.5543513 248.594,37.72 C248.694877,38.6933276 248.734622,39.6720464 248.713,40.6503704 C248.713,41.0762963 248.798,41.2977778 249.189,41.3318519 C249.909386,41.4847505 250.646708,41.5420318 251.382,41.5022222 C252.462413,41.3026823 253.525392,41.0178441 254.561,40.6503704 C254.833,40.5651852 255.105,40.6503704 255.377,40.497037 C256.561404,40.1643919 257.784983,39.9924884 259.015,39.9859259 L261.701,39.9859259 C262.69615,39.9892024 263.679948,40.1979898 264.591,40.5992593 C265.301631,40.8936321 265.795945,41.552439 265.880861,42.3183452 C265.965777,43.0842513 265.62782,43.8357342 264.999,44.2792593 L265.016,44.2792593 Z" id="Shape"></path>
                    <path d="M71.539,42.2007407 C70.4640004,40.4845619 68.3511949,39.7364109 66.439,40.3948148 C64.9866199,40.8071741 63.6370572,41.5211564 62.478,42.4903704 C61.2066363,43.4077238 60.007444,44.4215687 58.891,45.522963 C58.6561703,45.8301455 58.3456795,46.0708598 57.99,46.2214815 C57.960516,46.0466719 57.960516,45.8681429 57.99,45.6933333 C58.432,43.2740741 57.48,30.7177778 57.599,28.8437037 C57.8076777,28.1851202 57.6378111,27.464888 57.157,26.9696296 L57.055,26.8674074 C56.613,26.4755556 56.222,26.0325926 55.763,25.6577778 C55.304,25.282963 54.794,24.6866667 54.25,24.2777778 L54.25,24.2777778 C54.2058473,24.2299109 54.1541616,24.1896233 54.097,24.1585185 L54.097,24.1585185 C53.961,24.1585185 53.791,24.1585185 53.808,24.8059259 C53.808,25.8792593 56.239,43.4274074 56.171,46.1874074 C56.1267816,46.7021272 56.006467,47.2074014 55.814,47.6866667 C55.2841987,48.9150089 54.5417603,50.0397446 53.621,51.0088889 C53.1502083,51.4823031 52.7074521,51.9829112 52.295,52.5081481 C52.211636,52.595714 52.1632425,52.7108991 52.159,52.8318519 C52.1176068,53.1257037 52.1176068,53.423926 52.159,53.7177778 C52.3188036,54.491193 52.3985592,55.2790679 52.397,56.0688889 C52.430935,56.1858684 52.399972,56.3121049 52.3157892,56.3999863 C52.2316064,56.4878678 52.1070125,56.5240228 51.989,56.4948148 L50.833,56.4948148 C49.660709,56.4131408 48.5957063,55.7815888 47.96,54.7911111 C47.3701572,53.8810397 47.0408636,52.826183 47.008,51.7414815 C46.8546111,49.381513 46.8546111,47.0140426 47.008,44.6540741 C47.008,43.5466667 47.195,42.4562963 47.212,41.3488889 C47.2503869,41.1197838 47.1665893,40.8872232 46.991,40.7355556 C46.124,40.002963 45.291,39.2192593 44.441,38.4696296 C44.3581807,38.3706048 44.2245333,38.3304232 44.101,38.3674074 C44.0091937,38.4245288 43.9673085,38.536466 43.999,38.64 L43.999,39.2192593 C43.9805937,40.7499783 44.0543946,42.2804153 44.22,43.8022222 C44.2559264,44.4604957 44.2559264,45.120245 44.22,45.7785185 L44.22,48.9133333 C44.3635948,50.0591215 44.2533096,51.222547 43.897,52.3207407 C43.6181164,53.0302513 43.1955682,53.674156 42.656,54.2118519 C41.7744556,55.060236 40.7266476,55.7158176 39.579,56.137037 C38.4895268,56.5839151 37.2684732,56.5839151 36.179,56.137037 C34.6573157,55.4751835 33.7561232,53.8842398 33.969,52.2355556 C34.1090782,51.5123839 34.3022706,50.8005705 34.547,50.1059259 C34.904,48.9814815 35.448,47.9251852 35.72,46.6985185 C35.839,46.1874074 36.009,45.6933333 36.094,45.1822222 L36.094,44.9266667 L36.094,44.7392593 L36.094,44.7392593 L36.094,44.602963 L36.094,44.602963 C36.2161217,42.1598746 35.0223229,39.8385992 32.966,38.5207407 L32.966,38.5207407 C32.3269977,38.1407918 31.6241368,37.880975 30.892,37.7540741 C29.5235849,37.5592788 28.1282281,37.7725936 26.88,38.3674074 C26.1189809,38.7017103 25.4000048,39.1248861 24.738,39.6281481 C24.2202139,39.9083575 23.8483869,40.3989964 23.718,40.9740741 C23.609781,41.5549329 23.4504933,42.1250569 23.242,42.6777778 C22.987,43.4103704 22.834,44.177037 22.596,44.9096296 C22.8663234,44.8546097 23.1043522,44.6955781 23.259,44.4666667 C24.3155766,43.2883096 25.4515772,42.1839882 26.659,41.1614815 C27.6292466,40.3127585 28.6829853,39.5649719 29.804,38.9296296 C30.1433699,38.6946044 30.6021319,38.7377071 30.892,39.0318519 C31.1361135,39.2260624 31.343409,39.4626633 31.504,39.7303704 C32.2187166,40.9817888 32.6047717,42.3945461 32.626,43.8362963 C32.6639816,44.4078066 32.6181612,44.9818101 32.49,45.54 C32.269,46.3577778 32.048,47.2437037 31.742,47.9592593 C31.3576116,48.9435829 31.0340005,49.9506696 30.773,50.9748148 C30.6643921,51.377449 30.5848531,51.7873978 30.535,52.2014815 L30.535,52.2014815 C30.5077317,52.4733892 30.5077317,52.7473516 30.535,53.0192593 C30.5195833,53.8704779 30.6938135,54.7144252 31.045,55.4896296 C30.627797,55.357895 30.1884289,55.311545 29.753,55.3533333 L29.753,55.3533333 C28.0673947,55.5204455 26.4002913,55.839767 24.772,56.3074074 L24.942,56.3074074 L23.769,56.5118519 C22.88902,56.6535607 21.9885152,56.595337 21.134,56.3414815 C20.4803518,56.1546496 19.8916378,55.7888517 19.434,55.2851852 C18.6601833,54.3614501 18.1753018,53.2295702 18.04,52.0311111 C17.8343885,50.7465954 17.7320595,49.4476038 17.734,48.1466667 C17.7254275,46.8724899 17.7821689,45.5987129 17.904,44.3303704 C17.9315236,43.2469612 18.0223458,42.1660978 18.176,41.0933333 C18.282824,40.6913568 18.0903712,40.2698956 17.717,40.0881481 C17.02,39.577037 16.323,39.0488889 15.609,38.5548148 C15.502543,38.3675403 15.295989,38.2606996 15.082,38.2822222 C14.8808105,38.4230759 14.8032693,38.6844648 14.895,38.9125926 L14.895,42.8822222 C14.9098539,43.0522674 14.9098539,43.2232881 14.895,43.3933333 C14.895,43.6148148 14.725,43.6488889 14.555,43.3933333 C14.045,42.8140741 13.467,42.302963 12.991,41.6896296 C12.885658,41.4850606 12.6923689,41.3403414 12.4667515,41.2971147 C12.2411341,41.2538879 12.0082089,41.3169476 11.835,41.4681481 C10.4402163,42.1982098 9.14352341,43.1027201 7.976,44.16 C6.69120408,45.3386504 5.54995076,46.6653884 4.576,48.1125926 C3.55035184,49.5037967 2.74208629,51.0434215 2.179,52.6785185 C2.02873002,53.2736755 1.97704175,53.8895304 2.026,54.5014815 C2.0392548,54.627206 2.10009551,54.7430552 2.196,54.8251852 C2.56602156,55.2560691 3.04885327,55.5747242 3.59,55.7451852 C4.4991299,56.0192952 5.42464252,56.235529 6.361,56.3925926 C8.2992487,56.6531949 10.2598057,56.7046003 12.209,56.5459259 C12.6548735,56.5413305 13.0883905,56.3984939 13.45,56.137037 C14.0040476,55.7068291 14.4713576,55.174901 14.827,54.5696296 C15.116,54.0755556 15.439,53.5985185 15.762,53.0874074 C15.9649048,53.2544644 16.0982772,53.4914123 16.136,53.7518519 C16.2944512,54.5754066 16.5812965,55.3688245 16.986,56.102963 C17.6971267,57.6242753 18.8933468,58.8650604 20.386,59.6296296 C21.1813633,60.0843024 22.089343,60.3029286 23.004,60.26 L23.004,60.26 C24.619,60.26 33.017,58.3177778 34.904,59.6125926 C35.8327899,60.1713833 36.9268786,60.3882679 37.998,60.2259259 L38.117,60.2259259 C38.6139287,60.1674132 39.1037264,60.0589663 39.579,59.9022222 L39.579,59.9022222 C40.8030291,59.5183972 41.905085,58.8192995 42.775,57.8748148 C43.5761198,57.0699338 44.2013702,56.1068069 44.611,55.0466667 C44.6674972,54.8268162 44.846936,54.6603071 45.07,54.6207407 C45.257,55.1148148 45.427,55.5918519 45.614,56.0518519 C45.9961013,56.9935803 46.5758843,57.8419076 47.314,58.5392593 C48.5182777,59.6815185 50.1276831,60.2947929 51.785,60.242963 C53.7848602,60.2806309 55.7848052,60.1724442 57.769,59.9192593 C58.3415392,59.8612739 58.9095045,59.7645095 59.469,59.6296296 C60.6331062,59.2979656 61.7698375,58.8764587 62.869,58.3688889 C64.5742811,57.5393777 66.1355083,56.4406863 67.493,55.1148148 C68.6170406,54.0325434 69.5789965,52.7930484 70.349,51.4348148 C70.8228572,50.6188964 71.1831932,49.7418882 71.42,48.8281481 C71.59,48.1977778 71.675,47.5333333 71.811,46.902963 C72.0515026,45.6301482 71.9991758,44.3191266 71.658,43.0696296 C71.6558472,42.7760719 71.6158493,42.4840237 71.539,42.2007407 L71.539,42.2007407 Z M13.025,52.8488889 C11.7124832,53.0815738 10.3789043,53.1729573 9.047,53.1214815 C8.05328055,53.090263 7.06387191,52.9762901 6.089,52.7807407 C5.76019239,52.7125475 5.44448551,52.5917423 5.154,52.422963 C4.66037769,52.1845974 4.43698223,51.6025037 4.644,51.0940741 C4.9024114,50.4193912 5.29580911,49.8048176 5.8,49.2881481 C7.31545857,47.8968005 9.03560243,46.7475396 10.9,45.8807407 C11.801,45.4037037 12.753,45.062963 13.688,44.6711111 C14.0236416,44.6156976 14.3536353,44.5301684 14.674,44.4155556 C14.81,44.3303704 14.895,44.4155556 14.963,44.5859259 C15.0730083,44.8619496 15.125091,45.1577278 15.116,45.4548148 L15.116,47.9422222 L15.116,47.9422222 L15.116,50.2422222 C15.0852721,51.4878801 14.2304075,52.5605302 13.025,52.8659259 L13.025,52.8488889 Z M69.363,49.1518519 C69.356649,49.1913502 69.356649,49.2316128 69.363,49.2711111 C69.2883934,50.2209151 68.8423455,51.1027074 68.122,51.7244444 C67.1862438,52.8785196 66.030407,53.8341624 64.722,54.5355556 C63.6843466,55.0851039 62.5898416,55.5192894 61.458,55.8303704 C59.4901008,56.3530759 57.4582794,56.5939842 55.423,56.5459259 L53.723,56.5459259 C53.434,56.5459259 53.366,56.4266667 53.519,56.1881481 C53.672,55.9496296 54.165,55.3022222 54.488,54.8762963 C56.188,52.5592593 58.126,50.3614815 60.081,48.2148148 C61.611,46.5111111 63.26,44.9096296 64.943,43.3762963 C65.351,43.0014815 65.81,42.6777778 66.252,42.337037 C66.694,41.9962963 66.728,42.0985185 67.051,42.4222222 C68.0089464,43.4008108 68.7656221,44.5585578 69.278,45.8296296 C69.6854929,46.8945319 69.7155016,48.0674201 69.363,49.1518519 L69.363,49.1518519 Z" id="Shape"></path>
                    <path d="M170.139,31.2288889 C170.155383,30.8632365 169.981716,30.5151451 169.68,30.3088889 C169.295633,30.028163 168.926757,29.7267318 168.575,29.4059259 C167.997,28.8948148 167.368,28.4007407 166.773,27.8896296 L166.637,27.8896296 C166.637,27.8896296 166.263,27.7192593 166.28,28.3155556 C166.297,28.9118519 168.83,52.3718519 168.167,55.8303704 C168.090696,56.1692319 167.982547,56.5000913 167.844,56.8185185 C167.495813,57.5885951 166.957541,58.2570379 166.28,58.7607407 C165.240002,59.4991003 164.093403,60.0736489 162.88,60.4644444 C162.998165,60.8471413 163.163793,61.2134611 163.373,61.5548148 C163.57419,62.0548984 163.812872,62.5389981 164.087,63.002963 C164.342,63.3437037 164.325,63.3437037 164.699,63.1733333 C165.085652,62.9603594 165.450125,62.709238 165.787,62.4237037 C166.514397,61.9494731 167.172379,61.3760687 167.742,60.72 C168.126747,60.1866101 168.457071,59.6158449 168.728,59.0162963 C169.172142,58.0173248 169.502883,56.9715059 169.714,55.8985185 C169.884,55.1659259 169.935,54.3822222 170.071,53.6325926 C170.283481,52.0741887 170.39139,50.5032533 170.394,48.9303704 C170.496,46.6985185 170.394,44.4666667 170.394,42.2348148 C170.156,38.5207407 170.224,34.8748148 170.139,31.2288889 L170.139,31.2288889 Z" id="Shape"></path>
                    <path d="M171.363,20.8192593 C171.303254,20.8479048 171.246336,20.8821303 171.193,20.9214815 C170.343367,21.2537655 169.450006,21.4603746 168.541,21.5348148 C167.306918,21.6012445 166.079721,21.3115152 165.005,20.7 C164.661923,20.5576848 164.350035,20.3493061 164.087,20.0866667 C163.847955,19.8769845 163.790913,19.5268403 163.951,19.2518519 C164.261667,18.6067729 164.767279,18.076214 165.396,17.7355556 C166.099711,17.2474514 166.899705,16.9162991 167.742,16.7644444 C168.966,16.5940741 169.017,17.1733333 168.847,18.1274074 C168.422,18.5874074 168.728,18.8940741 169.034,19.2348148 C169.371099,19.6303832 169.753383,19.9849099 170.173,20.2911111 C170.173,19.9162963 170.173,19.5925926 170.326,19.302963 C170.482582,18.1479752 170.330042,16.9720315 169.884,15.8955556 C169.765849,15.4846022 169.522078,15.1211285 169.187,14.8562963 C168.861887,14.5152107 168.396901,14.3451838 167.929,14.3962963 C167.599697,14.4714763 167.284197,14.5979513 166.994,14.7711111 C165.381469,15.730786 164.082081,17.1395494 163.254,18.8259259 C162.547741,19.9260736 162.758033,21.3795289 163.747,22.2333333 C164.247218,22.687273 164.822473,23.0504732 165.447,23.3066667 C165.127632,23.7009594 164.762373,24.0555744 164.359,24.362963 L162.234,26.4414815 C162.069376,27.3096973 162.121942,28.2052628 162.387,29.0481481 C162.755051,28.4261435 163.200634,27.8536381 163.713,27.3444444 C164.792126,25.9188158 166.254698,24.8313177 167.929,24.2096296 C168.694,23.9881481 169.459,23.7325926 170.224,23.5792593 C170.570141,23.5232163 170.857525,23.2810265 170.972,22.9488889 C171.21,22.3866667 171.448,21.8414815 171.686,21.2451852 C171.746461,21.1336223 171.746461,20.9989703 171.686,20.8874074 C171.595905,20.8131779 171.47531,20.7877342 171.363,20.8192593 L171.363,20.8192593 Z" id="Shape"></path>
                    <path d="M247.268,38.7422222 L247.268,38.3503704 C247.268,37.8903704 247.098,37.8051852 246.673,37.9925926 C245.265424,38.5990692 243.823623,39.1224339 242.355,39.56 C240.733999,40.0496812 239.088386,40.4534504 237.425,40.7696296 C236.916522,40.905397 236.399762,41.007836 235.878,41.0762963 C234.91603,41.240222 233.945413,41.3483034 232.971,41.4 C232.8696,41.384315 232.7664,41.384315 232.665,41.4 C231.577,41.6896296 230.421,41.4 229.265,41.7918519 L220.969,41.7918519 C220.582226,41.697092 220.190665,41.6231589 219.796,41.5703704 C218.606,41.6725926 217.433,41.2637037 216.243,41.2637037 L216.056,41.2637037 C215.461,40.9740741 214.73,41.2637037 214.152,40.8207407 C212.562179,40.5696085 211.001637,40.1586458 209.494,39.5940741 C208.22606,39.1398315 207.002559,38.5695216 205.839,37.8903704 C205.378854,37.5715962 204.889283,37.2977517 204.377,37.0725926 L204.377,37.0725926 C204.275,38.622963 204.377,40.1903704 204.377,41.7407407 C204.368167,41.8250632 204.401639,41.9082862 204.466352,41.9628998 C204.531064,42.0175133 204.618591,42.0364063 204.7,42.0133333 C204.887425,41.9891293 205.064214,41.9123539 205.21,41.7918519 C205.517419,41.5380378 205.841113,41.3046978 206.179,41.0933333 C206.482968,40.7906706 206.88977,40.6142085 207.318,40.5992593 C207.658,40.5992593 207.709,40.7185185 207.607,41.0592593 C207.372448,41.5616984 206.969347,41.9656782 206.468,42.2007407 C206.043,42.4733333 205.601,42.7118519 205.176,42.9844444 C204.613802,43.3650644 204.286318,44.0085897 204.309,44.6881481 C204.302313,44.7427814 204.322375,44.7972866 204.362862,44.8344803 C204.403349,44.8716741 204.459272,44.8869736 204.513,44.8755556 C204.616939,44.8576797 204.715637,44.8169509 204.802,44.7562963 C205.754,44.3303704 206.502,43.6318519 207.437,43.0525926 C207.91562,42.6712476 208.545745,42.538633 209.137,42.6948148 C209.177738,42.8353847 209.113666,42.985212 208.984,43.0525926 C208.287367,43.8702881 207.445893,44.5518655 206.502,45.062963 C205.941,45.3866667 205.363,45.6592593 204.802,45.9659259 C204.546537,46.0824609 204.395394,46.3509811 204.428,46.6303704 C204.460677,47.1182165 204.460677,47.6077095 204.428,48.0955556 C204.33289,48.6594573 204.33289,49.2353575 204.428,49.7992593 C204.428,50.0207407 204.615,50.0718519 204.785,49.9185185 L205.057,49.6459259 C205.552612,49.141703 206.126779,48.7216479 206.757,48.4022222 C207.427324,48.0139807 208.140454,47.7052374 208.882,47.4822222 C209.2717,47.2537548 209.726909,47.1637152 210.174,47.2266667 C210.105674,47.4042635 209.994738,47.5622532 209.851,47.6866667 C209.080857,48.4363603 208.204388,49.0678739 207.25,49.5607407 C206.514229,50.0037067 205.740496,50.3800128 204.938,50.6851852 C204.625938,50.7747612 204.424482,51.0776035 204.462,51.4007407 L204.462,54.9274074 C204.413737,55.0719842 204.453527,55.2314899 204.564,55.3362963 C204.730313,55.3950471 204.915468,55.3400671 205.023,55.2 C205.816333,54.5866667 206.626667,54.0187654 207.454,53.4962963 C208.263761,52.9684296 209.145596,52.5609835 210.072,52.2866667 C210.342318,52.1649475 210.651682,52.1649475 210.922,52.2866667 C210.826449,52.4576829 210.712431,52.6176558 210.582,52.7637037 C209.907798,53.3690302 209.179387,53.9108257 208.406,54.3822222 L204.87,56.4607407 C204.615095,56.5798704 204.459677,56.843979 204.479,57.1251852 L204.479,60.3281481 C204.479,60.8562963 204.632,60.9244444 205.091,60.6348148 L206.366,59.817037 C207.241405,59.1977398 208.21184,58.7258521 209.239,58.42 C209.535501,58.3119362 209.860499,58.3119362 210.157,58.42 C210.143856,58.6391511 210.031054,58.8401255 209.851,58.9651852 C209.330997,59.4353925 208.760892,59.8467622 208.151,60.1918519 C207.063,60.8222222 205.958,61.4185185 204.853,61.9977778 C204.542844,62.143599 204.330446,62.4403133 204.292,62.7814815 C204.225565,63.7537894 204.425426,64.725813 204.87,65.5925926 C205.367468,66.3249771 206.016951,66.9410053 206.774,67.3985185 C207.25,67.7392593 207.267,67.7222222 207.692,67.3985185 C208.38968,66.6847871 209.254686,66.1576242 210.208,65.8651852 C210.429,65.8651852 210.718,65.6777778 210.854,65.8651852 C210.99,66.0525926 210.718,66.3251852 210.565,66.4955556 C210.512375,66.5314162 210.455201,66.5600651 210.395,66.5807407 C209.987,66.8362963 209.596,67.1088889 209.171,67.3303704 C208.931767,67.467996 208.723427,67.6535902 208.559,67.8755556 C208.372,68.1140741 208.44,68.2674074 208.712,68.3866667 C209.77556,68.7991459 210.859281,69.1573824 211.959,69.46 C213.098,69.8348148 214.305,69.9881481 215.478,70.2437037 C216.651,70.4992593 217.722,70.5674074 218.878,70.7548148 C219.711,70.8911111 220.578,70.9081481 221.394,71.0103704 C222.754,71.1807407 224.148,71.0103704 225.525,71.1977778 C226.902,71.3851852 228.245,71.0274074 229.605,71.0955556 C230.965,71.1637037 232.291,70.7377778 233.651,70.7718519 L233.838,70.7718519 C234.662954,70.5900765 235.497195,70.453577 236.337,70.362963 L238.122,69.9711111 C239.070539,69.7752166 240.007079,69.5249286 240.927,69.2214815 C241.777,68.9148148 242.627,68.6081481 243.46,68.2503704 C244.554815,67.7509506 245.616648,67.1818886 246.639,66.5466667 C247.160864,66.3015566 247.478412,65.7598707 247.438,65.1837037 C247.313333,56.5175309 247.256667,47.7037037 247.268,38.7422222 L247.268,38.7422222 Z M204.768,48.76 C204.698987,48.4352784 204.794419,48.0973505 205.023,47.857037 C205.555188,47.1384758 206.24806,46.5549619 207.046,46.1533333 C207.624,45.8296296 208.253,45.5911111 208.848,45.3185185 C209.171,45.1651852 209.528,45.2162963 209.834,45.0459259 C208.678,46.9881481 206.638,47.7207407 204.751,48.76 L204.768,48.76 Z M209.154,51.2985185 C208.509533,51.9284299 207.769308,52.4517413 206.961,52.8488889 C206.342403,53.204045 205.670823,53.4571552 204.972,53.5985185 C204.802,53.4622222 204.972,53.0362963 205.278,52.7977778 C206.348762,51.5646708 207.754664,50.6707476 209.324,50.2251852 C209.544931,50.1600846 209.773734,50.1256894 210.004,50.122963 C209.839154,50.5884691 209.544069,50.9965728 209.154,51.2985185 L209.154,51.2985185 Z M205.295,64.7748148 C205.204988,64.8310802 205.088685,64.8208477 205.009832,64.7497253 C204.930978,64.6786028 204.908616,64.5637644 204.955,64.4681481 C205.144547,63.8804839 205.536142,63.3793578 206.06,63.0540741 C207.153134,62.4089388 208.289133,61.8397018 209.46,61.3503704 C209.532938,61.3356848 209.608062,61.3356848 209.681,61.3503704 C209.443984,61.8639272 209.095499,62.3179434 208.661,62.6792593 C207.883636,63.2763113 207.046078,63.7902196 206.162,64.2125926 L205.295,64.7748148 Z M209.596,65.1325926 C208.86523,66.0664364 207.716533,66.5716853 206.536,66.4785185 C206.162,66.4785185 206.128,66.3592593 206.332,66.0014815 C206.698182,65.4399953 207.243551,65.0195666 207.879,64.8088889 C208.594837,64.5444999 209.32746,64.3282182 210.072,64.1614815 C210.060121,64.5387382 209.886678,64.8925884 209.596,65.1325926 L209.596,65.1325926 Z M209.596,56.7333333 C209.072077,57.1887966 208.502351,57.5884733 207.896,57.9259259 C206.919627,58.4148787 206.024962,59.0528541 205.244,59.817037 C205.022097,59.2722338 205.134752,58.6479594 205.533,58.2155556 C206.12631,57.5216877 206.870806,56.9737573 207.709,56.6140741 C208.520897,56.2327948 209.304855,55.7944161 210.055,55.3022222 C210.259961,55.8131379 210.10008,56.3983231 209.664,56.7333333 L209.596,56.7333333 Z" id="Shape"></path>
                    <path d="M206.519,36.4081481 C207.925741,37.443471 209.493996,38.2379426 211.16,38.7592593 C211.5,38.8785185 211.857,38.9296296 212.197,39.0318519 C212.537,39.1340741 213.268,39.3725926 213.897,39.4918519 C214.526,39.6111111 215.121,39.6451852 215.699,39.8155556 C216.586459,39.8934549 217.467106,40.0358042 218.334,40.2414815 C220.323,40.2414815 222.312,40.6162963 224.318,40.48 C226.409,40.6162963 228.466,40.2755556 230.557,40.2585185 C231.407,40.2585185 232.257,39.9518519 233.09,39.9859259 C233.923,40.02 234.926,39.6792593 235.861,39.6962963 C235.962749,39.706431 236.065251,39.706431 236.167,39.6962963 C236.881,39.542963 237.612,39.4407407 238.343,39.3385185 C239.074,39.2362963 239.72,39.0659259 240.417,38.9637037 C240.815524,38.9274049 241.208875,38.8474207 241.59,38.7251852 C242.338,38.4525926 243.137,38.3333333 243.885,38.0266667 C244.727099,37.7559513 245.523703,37.3596534 246.248,36.8511111 C246.796823,36.4261664 247.059876,35.7275568 246.928,35.0451852 C246.768633,34.0763423 246.237912,33.2082215 245.449,32.6259259 C244.655802,32.007023 243.794531,31.4811319 242.882,31.0585185 C242.066913,30.662166 241.226385,30.3206692 240.366,30.0362963 C239.75372,29.8137735 239.129393,29.6260675 238.496,29.4740741 C237.612,29.2866667 236.796,28.997037 235.861,28.8437037 C234.934031,28.6488552 233.99784,28.5010129 233.056,28.4007407 C232.886361,28.4164523 232.715639,28.4164523 232.546,28.4007407 C231.426598,28.1829196 230.284119,28.1084967 229.146,28.1792593 C228.910296,28.1032654 228.652004,28.1616738 228.4717,28.3317409 C228.291397,28.501808 228.217582,28.7566511 228.279,28.997037 L228.279,30.5985185 C228.337351,31.2737157 227.909491,31.8954651 227.259,32.0807407 C226.765733,32.2597514 226.251493,32.3742758 225.729,32.4214815 C225.122938,32.3879213 224.523366,32.2791908 223.944,32.0977778 C223.213,31.9274074 223.111,31.6037037 223.196,30.82 C223.339057,30.193047 223.279523,29.5367477 223.026,28.9459259 C222.771,28.4859259 222.72,28.4348148 222.21,28.5881481 L221.904,28.5881481 C220.81268,28.6867717 219.728348,28.8517672 218.657,29.0822222 C218.028,29.2185185 217.365,29.2185185 216.719,29.3377778 C215.597,29.5251852 214.475,29.6614815 213.319,29.882963 C212.163,30.1044444 210.667,30.377037 209.358,30.7348148 C208.058909,31.0904783 206.791017,31.5520165 205.567,32.1148148 C205.08149,32.3539276 204.610352,32.6212979 204.156,32.9155556 C204.030132,32.9717684 203.939272,33.0856506 203.912247,33.2210691 C203.885222,33.3564876 203.925388,33.4966321 204.02,33.597037 C204.633368,34.7091359 205.48722,35.6696289 206.519,36.4081481 L206.519,36.4081481 Z" id="Shape"></path>
                    <path d="M197.985,41.0251852 C197.713315,41.0437399 197.440685,41.0437399 197.169,41.0251852 C196.598992,40.9982537 196.03122,40.9356626 195.469,40.8377778 C193.818724,40.6686579 192.152779,40.7375064 190.522,41.0422222 C189.981692,41.1282548 189.485296,41.3919782 189.111,41.7918519 C188.907,42.0474074 188.941,42.2007407 189.213,42.32 C190.367062,42.7822219 191.592003,43.0415761 192.834,43.0866667 L195.197,43.0866667 L198.138,43.0866667 C198.251234,43.1181755 198.372676,43.088848 198.459161,43.0091083 C198.545647,42.9293686 198.584911,42.8105236 198.563,42.6948148 L198.563,41.3488889 C198.563,40.9059259 198.376,40.922963 197.985,41.0251852 L197.985,41.0251852 Z" id="Shape"></path>
                    <path d="M224.794,29.6785185 C225.032,30.5644444 224.947,30.5985185 225.865,30.5985185 L226.001,30.5985185 C226.579,30.5985185 226.613,30.5985185 226.664,29.9851852 C226.715,29.3718519 226.783,28.8948148 226.851,28.2814815 C227.012442,27.2928225 226.954398,26.2806508 226.681,25.317037 C226.539716,24.8876749 226.233936,24.5321978 225.831,24.3288889 C225.695692,24.2188738 225.513704,24.1857001 225.348407,24.2409192 C225.18311,24.2961383 225.057381,24.4321076 225.015,24.6014815 C224.807249,24.9888512 224.669142,25.4098398 224.607,25.8451852 L224.607,27.3103704 C224.569566,28.1044955 224.632397,28.9001788 224.794,29.6785185 L224.794,29.6785185 Z" id="Shape"></path>
                    <path d="M200.059,42.0133333 C199.947933,42.5068885 199.947933,43.0190374 200.059,43.5125926 C200.28,43.5125926 202.32,45.4377778 202.66,45.2162963 C202.830889,44.0355606 202.830889,42.8362913 202.66,41.6555556 C201.777352,41.5837514 200.889702,41.7058513 200.059,42.0133333 L200.059,42.0133333 Z" id="Shape"></path>
                    <path d="M252.368,42.337037 C248.084,41.6725926 248.509,42.8140741 248.509,42.8140741 L248.509,42.8140741 L248.509,42.9674074 L248.509,43.1548148 L248.509,43.1548148 C248.495522,43.4101919 248.495522,43.6661044 248.509,43.9214815 C248.443599,44.1323072 248.443599,44.3580632 248.509,44.5688889 C250.719,44.5688889 251.688,44.0407407 252.096,43.5125926 C252.262318,43.3385837 252.353877,43.1061272 252.351,42.8651852 C252.392833,42.6921787 252.39862,42.5123858 252.368,42.337037 L252.368,42.337037 Z" id="Shape"></path>
                    <path d="M262.67,41.6044444 C257.672,41.0422222 255.36,41.7577778 254.527,42.1496296 C254.360848,42.1217544 254.197865,42.2140762 254.136,42.3711111 L254.136,42.3711111 C254.123018,42.5070969 254.123018,42.6440142 254.136,42.78 C254.136,42.78 254.136,42.78 254.136,42.8992593 C254.068293,43.0450857 254.068293,43.2134328 254.136,43.3592593 L254.136,43.5125926 C254.136,43.9555556 256.703,44.3474074 259.474,44.0577778 C260.24862,44.0120007 261.017107,43.8921977 261.769,43.7 C262.059152,43.6248624 262.34328,43.5280483 262.619,43.4103704 L262.619,43.4103704 C266.308,42.1837037 262.67,41.6044444 262.67,41.6044444 L262.67,41.6044444 Z" id="Shape"></path>
                    <path d="M163.441,42.8481481 L163.441,42.8481481 C162.991674,41.8654666 162.123121,41.139052 161.078,40.8718519 C159.957521,40.5462034 158.760477,40.606186 157.678,41.0422222 C156.298786,41.5863612 155.004863,42.3265366 153.836,43.24 C152.630698,44.1109911 151.494013,45.073582 150.436,46.1192593 C150.211032,46.3227177 149.972478,46.5105611 149.722,46.6814815 C149.663443,46.4812483 149.663443,46.2683814 149.722,46.0681481 C149.722,45.3355556 149.722,44.602963 149.841,43.8703704 L149.841,43.8703704 L149.841,43.5125926 L149.841,43.0696296 C149.841,39.7644444 149.263,29.2866667 149.246,28.5881481 C149.248843,28.1518506 149.084554,27.7310873 148.787,27.4125926 L148.787,27.4125926 L148.685,27.3103704 L145.982,24.7888889 C145.948026,24.7486733 145.907852,24.7141632 145.863,24.6866667 C145.79118,24.6195802 145.67982,24.6195802 145.608,24.6866667 L145.608,24.6866667 C145.426667,25.4022222 145.426667,26.1518519 145.608,26.8674074 C146.033,29.882963 147.818,44.2792593 147.801,46.1703704 C147.775212,46.625602 147.701127,47.0767876 147.58,47.5162963 C147.292881,48.4410702 146.86264,49.3149236 146.305,50.1059259 C145.624317,51.0361348 144.874162,51.9132222 144.061,52.7296296 C143.875046,52.8987097 143.775112,53.142829 143.789,53.3940741 C143.805889,53.9040993 143.868474,54.4115719 143.976,54.9103704 C144.07402,55.4326413 144.119581,55.9634402 144.112,56.4948148 C144.136844,56.6013253 144.106336,56.713206 144.030893,56.79225 C143.95545,56.871294 143.845278,56.906809 143.738,56.8866667 C143.038743,56.9280473 142.337057,56.8880269 141.647,56.7674074 C141.145737,56.6671236 140.681347,56.4314767 140.304,56.0859259 C139.345158,55.2065124 138.776083,53.9800276 138.723,52.6785185 C138.714753,52.1886648 138.680706,51.6995891 138.621,51.2133333 C138.469053,49.9002025 138.469053,48.5738716 138.621,47.2607407 C138.621,46.3577778 138.757,45.4377778 138.808,44.5177778 C138.767861,44.1782243 138.767861,43.835109 138.808,43.4955556 C138.925026,42.9350294 138.987651,42.3644689 138.995,41.7918519 C139.015669,41.5817879 138.91719,41.377821 138.74,41.2637037 C138.043,40.6844444 137.38,40.0881481 136.7,39.56 L136.054,38.9296296 C136.000955,38.9595719 135.954654,39.0001734 135.918,39.0488889 L135.918,39.6281481 C135.918,42.6096296 136.02,45.5911111 136.207,48.5725926 C136.316767,49.8834317 136.236602,51.2032923 135.969,52.4911111 C135.840858,52.9789369 135.627935,53.4403138 135.34,53.8540741 C133.896427,55.8407367 131.569352,56.9876931 129.118,56.9207407 C127.735943,56.8858485 126.433024,56.2670059 125.531,55.217037 C125.31074,55.0316435 125.260022,54.7121497 125.412,54.4674074 C125.888,53.5644444 126.245,52.6103704 126.653,51.6903704 C126.874,51.2133333 127.078,50.7362963 127.299,50.2762963 C127.299,50.1911111 127.469,50.1059259 127.384,50.0037037 C127.299,49.9014815 127.146,50.0037037 127.044,50.0037037 C126.517,50.2592593 125.99,50.5318519 125.446,50.7533333 C124.358,51.2133333 123.27,51.6903704 122.165,52.1162963 L119.411,53.1555556 C118.544,53.4962963 117.711,53.7348148 116.776,54.0414815 C115.841,54.3481481 115.28,54.4333333 114.549,54.722963 C113.995254,54.920759 113.426832,55.0745673 112.849,55.182963 L112.356,55.3022222 L111.285,55.5407407 L110.435,55.7281481 C90.749,59.9022222 84.357,53.6666667 83.575,52.7977778 L83.575,52.6955556 C82.8860404,51.950707 82.8860404,50.7996634 83.575,50.0548148 C84.4689126,48.9080257 85.5357159,47.9078741 86.737,47.0903704 C87.0147223,46.930283 87.1790316,46.6272954 87.162,46.3066667 L87.162,43.9385185 C87.162,43.8022222 87.162,43.6318519 87.009,43.5637037 C85.8730202,44.3866591 84.8598383,45.3676283 84,46.477037 C83.3868696,47.2254879 82.8726271,48.0500684 82.47,48.9303704 C82.1228895,49.7120072 81.8607136,50.5288079 81.688,51.3666667 C81.3778671,52.843868 81.5384192,54.3813748 82.147,55.7622222 C82.6619956,56.9293432 83.514818,57.9145998 84.595,58.5903704 L84.595,58.5903704 C84.595,58.5903704 88.165,61.9977778 98.756,61.1459259 L98.756,61.1459259 L98.586,61.1459259 C98.457595,61.389589 98.3768141,61.6555902 98.348,61.9296296 C97.8419531,63.5952012 98.6308203,65.3807913 100.201452,66.1248918 C101.772083,66.8689924 103.649614,66.346632 104.612729,64.8976006 C105.575844,63.4485692 105.333356,61.5109674 104.043,60.3451852 L106.049,59.9533333 L106.049,59.9533333 C106.049,59.9533333 117.184,57.7214815 123.865,54.1096296 C123.937401,54.6863442 124.0568,55.2561492 124.222,55.8133333 C124.764208,57.7685793 126.147707,59.3799319 127.996,60.2088889 C128.806653,60.5693588 129.703895,60.6876742 130.58,60.5496296 C131.370728,60.4456252 132.139772,60.2155596 132.858,59.8681481 C133.614718,59.4674463 134.307931,58.9564515 134.915,58.3518519 C135.799846,57.4727029 136.489251,56.416022 136.938,55.2511111 C136.952698,55.1474102 137.025385,55.0613205 137.125,55.0296296 C137.254861,55.0294169 137.370713,55.1113728 137.414,55.2340741 C137.419008,55.313501 137.419008,55.3931656 137.414,55.4725926 C137.573059,56.0355305 137.807527,56.5742624 138.111,57.0740741 C138.81464,58.3678076 139.8855,59.4232125 141.188,60.1066667 C141.487945,60.2940055 141.823907,60.4159122 142.174,60.4644444 C143.041,60.4644444 143.874,60.6348148 144.775,60.6348148 C146.152,60.6348148 147.529,60.4814815 148.906,60.4814815 C149.710919,60.4598924 150.510184,60.3397415 151.286,60.1237037 C152.31115,59.8734808 153.316799,59.5489222 154.295,59.1525926 C155.96603,58.4693077 157.515985,57.5200498 158.885,56.3414815 C160.515681,54.9793783 161.851929,53.2981826 162.812,51.4007407 L162.812,51.4007407 C164.381953,48.8171659 164.616024,45.6344828 163.441,42.8481481 L163.441,42.8481481 Z M155.961,55.2511111 C153.946508,56.2394102 151.756784,56.8184327 149.518,56.9548148 L147.359,56.9548148 L145.574,56.9548148 C145.495044,56.9913353 145.402645,56.9828676 145.331608,56.9326012 C145.260572,56.8823348 145.221689,56.7979065 145.229608,56.7111196 C145.237527,56.6243328 145.291044,56.5483723 145.37,56.5118519 C146.339,55.1318519 147.41,53.837037 148.464,52.5422222 C149.518,51.2474074 151.048,49.5437037 152.391,48.0614815 C153.941946,46.389887 155.576021,44.7977415 157.287,43.2911111 C157.454129,43.1596844 157.630225,43.0401334 157.814,42.9333333 C158.392,42.5414815 158.341,42.3540741 159.004,43.0866667 C159.748595,43.8435137 160.363215,44.7185212 160.823,45.6762963 C160.965076,45.9987941 161.089919,46.3286436 161.197,46.6644444 C161.301112,47.0268167 161.375033,47.397224 161.418,47.7718519 C161.457397,48.2262344 161.405369,48.6839195 161.265,49.1177778 C161.326403,49.5895223 161.24962,50.0689821 161.044,50.4977778 C160.866511,50.9413893 160.613408,51.3506949 160.296,51.7074074 C159.135129,53.200153 157.653397,54.4114146 155.961,55.2511111 L155.961,55.2511111 Z" id="Shape"></path>
                    <path d="M44.883,59.9192593 C44.368237,59.9204784 43.8675402,60.0877409 43.455,60.3962963 C43.2614069,60.5086069 43.0980298,60.6664923 42.979,60.8562963 L42.979,60.8562963 C42.2746582,61.7605757 42.3008521,63.0362671 43.0417172,63.9107426 C43.7825822,64.785218 45.0343993,65.0180188 46.039,64.4681481 C46.4232773,64.3126514 46.7376439,64.0218346 46.923,63.6503704 C47.4034138,62.9043765 47.4374832,61.9545914 47.011759,61.175952 C46.5860348,60.3973126 45.7689282,59.9149414 44.883,59.9192593 L44.883,59.9192593 Z" id="Shape"></path>
                    <path d="M6.429,37.72 C6.42677595,38.5411878 6.84036385,39.3074395 7.52738923,39.7549789 C8.21441461,40.2025183 9.08106401,40.2702338 9.829,39.9348148 L9.999,39.9348148 C10.3483508,39.7706228 10.6390789,39.5030459 10.832,39.1681481 C11.55676,38.1158498 11.3392953,36.6800379 10.3356007,35.8906692 C9.33190605,35.1013004 7.88859348,35.2309723 7.041,36.1866667 L7.041,36.1866667 C6.66259743,36.6092339 6.4457765,37.1524672 6.429,37.72 L6.429,37.72 Z" id="Shape"></path>
                    <path d="M4.1,39.9348148 C4.58388269,39.7749685 4.97071772,39.4060493 5.154,38.9296296 C5.20773796,38.8155436 5.24768754,38.6954337 5.273,38.5718519 C5.64849006,37.4751989 5.19485037,36.2657516 4.19152042,35.6885226 C3.18819048,35.1112936 1.9172908,35.3285907 1.16168847,36.20656 C0.406086136,37.0845293 0.378244581,38.3762998 1.09531404,39.286148 C1.8123835,40.1959963 3.07273539,40.4680874 4.1,39.9348148 L4.1,39.9348148 Z" id="Shape"></path>
                    <path d="M31.589,35.8459259 C32.6212852,35.8385549 33.5346506,35.1741679 33.8615603,34.1928528 C34.18847,33.2115378 33.8565658,32.1304991 33.0357437,31.5031017 C32.2149216,30.8757043 31.0868624,30.8408163 30.229,31.4162963 C29.9392186,31.5777041 29.7028538,31.8205059 29.549,32.1148148 C29.0685862,32.8608086 29.0345168,33.8105938 29.460241,34.5892332 C29.8859652,35.3678726 30.7030718,35.8502437 31.589,35.8459259 L31.589,35.8459259 Z" id="Shape"></path>
                    <path d="M133.368,61.622963 C132.35917,61.6287213 131.460303,62.2625859 131.114228,63.2122808 C130.768154,64.1619757 131.047865,65.2271948 131.815561,65.8831536 C132.583258,66.5391124 133.677019,66.6474585 134.558,66.1548148 C134.795634,66.0441265 135.009326,65.8878495 135.187,65.6948148 C135.332217,65.5382414 135.442346,65.3523568 135.51,65.1496296 C135.894947,64.4003196 135.863045,63.5042426 135.425791,62.784332 C134.988538,62.0644214 134.208957,61.6244446 133.368,61.622963 L133.368,61.622963 Z" id="Shape"></path>
                    <path d="M139.709,61.622963 C139.121409,61.6187141 138.552731,61.8309174 138.111,62.2192593 C137.962041,62.3310561 137.835204,62.4697252 137.737,62.6281481 C136.937165,63.5893527 137.000912,65.003252 137.883986,65.8882495 C138.767059,66.7732471 140.177885,66.8371334 141.137,66.0355556 C141.332721,65.9199285 141.500956,65.762955 141.63,65.5755556 L141.63,65.4392593 C142.146135,64.7083607 142.217234,63.751533 141.814816,62.9520812 C141.412398,62.1526294 140.602282,61.6413122 139.709,61.622963 L139.709,61.622963 Z" id="Shape"></path>
                </g>
            </g>
        </g>
    </g>
</svg>