<?xml version="1.0" encoding="UTF-8" standalone="no"?>
<svg width="203px" height="57px" viewBox="0 0 203 57" version="1.1" xmlns="http://www.w3.org/2000/svg" xmlns:xlink="http://www.w3.org/1999/xlink">
    <!-- Generator: Sketch 41.2 (35397) - http://www.bohemiancoding.com/sketch -->
    <title>Page 1</title>
    <desc>Created with Sketch.</desc>
    <defs></defs>
    <g id="diwanee-corp-" stroke="none" stroke-width="1" fill="none" fill-rule="evenodd">
        <g id="Desktop-HD-Copy" transform="translate(-142.000000, -3288.000000)" fill="#FFFFFF">
            <g id="Page-1" transform="translate(142.000000, 3288.000000)">
                <g id="Group-8" transform="translate(0.730088, 0.407740)">
                    <path d="M158.995037,36.8133388 C158.995037,37.3740918 158.865936,39.4657234 158.822817,40.0047398 C158.779955,40.5440148 158.392653,42.312185 157.89768,43.5628167 C157.402707,44.8137071 156.671222,46.5389216 156.176249,47.2934927 C155.681534,48.0483225 154.455076,49.6871081 153.379149,50.5928004 C152.303223,51.4984927 151.163004,52.1886302 149.22649,52.7061687 C147.289977,53.2237071 146.773574,53.2883994 145.503996,53.245185 C144.234418,53.2019705 143.029648,52.8570311 141.975152,52.3180148 C140.920915,51.7787398 138.962971,50.4202013 138.102126,48.9108004 C137.24154,47.4013994 136.789686,45.201861 136.875668,44.1235696 C136.961907,43.0452782 137.736512,40.6516628 138.403447,40.0911687 C139.521203,39.1515776 140.619593,38.2150918 141.630969,37.8269379 C142.642346,37.4387841 144.62172,36.5113551 146.10638,36.1449379 C147.59104,35.7782619 149.484692,35.4980148 150.947663,34.9804764 C152.676066,34.3692634 154.6038,33.7052616 155.767515,33.1043994 C157.187625,32.3710474 157.79001,32.0046302 158.241863,31.853509 C158.693716,31.7026465 159.016468,31.5517841 159.016468,31.8967234 C159.016468,32.2416628 158.995037,36.2525859 158.995037,36.8133388 M28.6338774,37.9700373 C28.5750074,39.0980124 28.0986252,41.4750665 27.8548827,42.4966874 C27.4435673,44.2187967 26.6648308,46.2004514 25.5181568,47.9983801 C23.7241711,50.8099078 20.5880525,52.8024308 17.2952056,53.218273 C12.9207515,53.7712628 9.44742145,51.926497 6.84526417,48.4535551 C6.19614496,47.5871958 5.40191636,46.1445573 5.00635128,45.1612342 C4.55630562,44.0420573 4.2144465,42.7078431 3.70811286,40.677281 C3.41143904,39.4900478 3.29679746,36.5405961 3.29679746,35.782661 C3.29679746,30.9723998 4.07217733,26.1052093 6.81789479,22.0448613 C8.89073847,18.9797398 12.3395393,16.8984588 16.0679726,16.8301438 C17.2417578,16.8091834 19.1348931,17.1766358 20.7360022,17.8476244 C22.336853,18.5196481 23.2891011,19.3215739 24.6526646,20.9888241 C26.0151952,22.6565918 27.1187495,25.3203622 27.573701,26.8799644 C28.0278779,28.4395665 28.2811738,29.1667081 28.6338774,31.6884142 C28.9364899,33.8548302 28.720375,36.3020108 28.6338774,37.9700373 M201.340125,53.245185 C200.920547,52.9434601 200.318163,52.9540696 199.920015,52.9755474 C198.004933,53.0790551 195.972885,53.618589 194.656573,51.7287973 C193.895394,50.6360148 193.819741,47.6032394 193.884549,45.7408773 C193.916825,44.8137071 193.884549,42.9267619 193.873705,41.8808167 C193.863119,40.8351302 193.863119,38.1395311 193.863119,36.8565533 C193.863119,35.5733167 193.84143,34.4844158 193.852274,33.6110696 C193.863119,32.7377234 193.84143,29.643361 193.84143,28.5865474 C193.84143,27.5299927 193.895394,24.4247619 193.895394,22.4516465 C193.895394,21.9628314 193.869832,21.0149598 193.90598,17.3409542 C193.920181,15.9068551 194.218146,15.0011628 193.723173,14.3868447 C193.478398,14.0827908 192.927137,13.8584379 192.46444,13.8369601 C192.19591,13.8245391 191.732954,13.9016524 191.367082,14.1604216 C191.04717,14.3865859 190.87211,14.6994379 190.775284,15.0552456 C190.686721,15.3810361 190.646183,16.1979705 190.689303,16.5323004 C190.732422,16.8666302 190.904385,17.3303447 190.915229,17.8584927 C190.926074,18.3868994 190.947504,19.7345696 190.947504,21.5676908 C190.947504,23.4005533 190.947504,27.6164216 190.93666,29.2984216 C190.926074,30.9804216 190.97978,39.4227678 190.968935,40.8459985 C190.937951,44.9754379 188.5359,52.4264391 183.717855,53.2883994 C182.356099,53.5319013 180.306236,53.0557659 179.27472,52.1348062 C178.586095,51.5202293 178.069692,50.6574927 177.725509,49.8488388 C177.381326,49.040185 177.305931,48.1562293 177.187417,47.5307841 C177.06916,46.9055976 176.929215,45.4497619 176.940059,44.6087619 C176.950904,43.7677619 176.929215,41.4605754 176.929215,40.2852456 C176.929215,39.1101745 176.940059,32.8888447 176.918629,31.9184601 C176.897198,30.9480754 176.907784,25.9773773 176.907784,24.9963831 C176.907784,24.0151302 176.940059,20.0580311 176.940059,18.7859216 C176.940059,18.5356918 176.945482,16.9318401 176.940059,16.8451524 C176.929215,16.6725533 177.122866,16.6402071 177.574719,16.6402071 C177.859774,16.6402071 178.575509,16.6187293 179.27472,16.6293388 C179.97393,16.6402071 181.931874,16.5972514 182.738754,16.607861 C183.545635,16.6187293 186.665745,16.6402071 187.009928,16.6187293 C187.354111,16.5972514 187.338102,16.3705696 187.475207,15.9906964 C187.612312,15.6105644 187.781951,14.8342567 187.789955,14.6321579 C187.797959,14.4298004 187.733409,14.1306631 187.5883,14.0499271 C187.442932,13.9689324 187.313831,13.9122619 187.087905,13.8962182 C186.861978,13.8799158 185.667795,13.8962182 185.167658,13.8962182 C184.667263,13.8962182 177.407146,13.8941481 177.251967,13.8881964 C176.840652,13.8718939 176.921211,13.637449 176.918629,13.3300311 C176.91553,12.9850918 176.929215,10.9149379 176.940059,10.3218388 C176.950904,9.72873975 176.954519,8.83391575 176.940059,8.44576191 C176.918629,7.86353114 176.563601,7.93909175 176.26228,8.00378406 C175.961216,8.06847637 175.315454,8.81243791 175.003546,9.24380622 C174.713069,9.64541606 174.347197,10.246537 174.16439,10.6346908 C174.000174,10.9837705 173.959895,11.3139601 173.959895,11.6374216 C173.959895,11.9608831 173.970739,12.5754601 173.959895,13.1144764 C173.952665,13.4816699 173.960153,13.8260918 173.841638,13.8799158 C173.723382,13.9337398 173.153014,13.9016524 172.873382,13.9016524 C172.593749,13.9016524 169.81808,13.8907841 169.516759,13.9122619 C169.215437,13.9337398 169.032631,14.0525148 168.90353,14.3759764 C168.774429,14.6994379 168.247181,16.1011908 168.301145,16.241185 C168.354851,16.3814379 168.483952,16.5969927 168.677603,16.6402071 C168.871254,16.6831628 172.120207,16.6187293 172.981052,16.6402071 C173.841638,16.661685 173.852483,16.7804601 173.884758,16.8342841 C173.963251,16.9657388 173.917033,17.1362678 173.927619,17.4703388 C173.927619,17.4703388 173.959895,32.2848773 173.959895,33.4493388 C173.959895,34.6138004 173.927619,42.7003388 173.927619,43.9618388 C173.927619,45.2233388 174.221453,46.3492438 174.185821,47.5522619 C174.16439,48.2853551 173.475766,49.8379705 172.636611,50.8947841 C171.788676,51.9624659 171.184226,52.2101081 170.054593,52.9540696 C169.338083,53.4263234 167.4403,53.2775311 166.342943,53.0511081 C165.245585,52.824685 164.696907,52.5012234 163.72865,51.2073773 C162.760394,49.9135311 162.437641,48.9431465 162.211715,47.6169542 C161.985788,46.2907619 161.888963,44.2853004 161.953513,42.8944158 C162.018064,41.5035311 162.24399,37.4602619 162.373091,36.4898773 C162.502192,35.5194927 162.340816,29.697185 162.373091,28.5327234 C162.405366,27.3682619 162.30854,23.5837619 161.985788,22.128185 C161.663036,20.6726081 161.211183,18.4730696 159.952449,17.1468773 C158.693716,15.820685 156.724928,15.0120311 155.207992,14.4944927 C153.691057,13.9769542 150.689462,13.8799158 148.656123,13.8799158 C146.622784,13.8799158 145.912729,14.1063388 143.330712,14.559185 C140.748694,15.0120311 138.457153,16.4999542 137.617998,17.1792234 C137.08068,17.6142145 137.585723,17.9555311 138.295777,18.5054158 C139.005832,19.0553004 139.611832,19.0578881 140.684144,19.0876465 C141.846051,19.1199927 143.040235,18.5054158 144.073042,17.9878773 C145.105849,17.4703388 146.235481,17.2762619 147.171463,17.0174927 C148.107444,16.7587234 150.269884,16.9528004 151.205865,16.9851465 C152.141846,17.0174927 153.045553,17.1468773 154.272011,17.7291081 C155.498469,18.3113388 155.724396,18.7318388 156.531276,19.5081465 C157.338157,20.2844542 157.951386,21.6106465 158.338689,22.6133773 C158.725991,23.6161081 158.822817,24.6188388 158.919642,25.5892234 C159.016468,26.5596081 158.855092,28.2092619 158.855092,28.2092619 C158.855092,28.2092619 158.338689,28.5650696 157.564083,29.0179158 C156.906185,29.4027056 154.465662,30.3117619 153.174653,30.7322619 C152.062062,31.0947976 147.46194,32.1878388 145.428601,32.7053773 C143.395262,33.2229158 141.813776,33.7728004 139.683612,34.6138004 C137.553447,35.4548004 136.036512,37.4279158 135.326457,38.4953388 C134.616402,39.5627619 134.035448,41.0830311 133.777247,42.3445311 C133.519045,43.6060311 133.583595,45.4821081 133.680421,46.2584158 C133.880786,47.8645964 134.261375,48.4256081 134.261375,48.4256081 C134.261375,48.4256081 134.2291,48.5873388 133.744971,49.460685 C133.260843,50.3340311 131.743908,51.7896081 130.807926,52.5012234 C129.871945,53.2128388 128.580936,53.2128388 127.580405,53.245185 C126.579873,53.2775311 125.482515,52.9864158 124.159231,51.7896081 C122.835947,50.5928004 122.642296,48.9108004 122.351819,47.8110311 C122.061342,46.7112619 121.996792,44.3823388 121.996792,43.994185 C121.996792,43.6060311 122.158168,16.241185 122.125892,15.1737619 C122.093617,14.1063388 121.415838,13.9446081 120.738058,13.7828773 C120.060278,13.6211465 119.608425,13.8475696 119.124297,14.4298004 C118.640169,15.0120311 118.866095,16.5323004 119.059747,17.1792234 C119.253398,17.8261465 119.027471,20.9637234 119.027471,22.7104158 C119.027471,24.4571081 119.092022,37.4602619 119.124297,40.5978388 C119.156572,43.7354158 119.382499,48.619685 118.962921,49.7518004 C118.543343,50.8839158 117.28461,52.0483773 116.54228,52.5335696 C115.888513,52.9610564 114.218464,53.0187619 113.185657,53.0187619 C112.15285,53.0187619 110.958667,52.5335696 110.345437,52.0483773 C109.732208,51.563185 108.893053,50.0752619 108.50575,48.8137619 C108.118447,47.5522619 108.021622,46.3878004 108.021622,45.3850696 C108.021622,44.3823388 107.924796,39.9509158 107.924796,37.9454542 L107.924796,25.0393388 C107.924796,23.0985696 107.666594,20.6079158 107.279292,19.3787619 C106.891989,18.1496081 106.085108,17.0174927 105.439604,16.4999542 C103.684865,15.0930259 102.018431,14.559185 100.46922,14.1063388 C98.9200098,13.6534927 96.2734418,14.138685 94.5951304,14.559185 C92.916819,14.979685 89.8506732,17.3733004 88.8501414,18.4083773 C87.8496096,19.4434542 85.9130964,22.5163388 85.4935186,23.5190696 C85.0739407,24.5218004 85.0739407,24.4894542 85.0739407,24.4894542 C85.0739407,24.4894542 85.0093903,24.3277234 85.0093903,23.9719158 C85.0096485,21.162717 85.0272062,18.2839093 85.05251,15.4110533 C85.0592232,14.6326754 84.6107268,14.0750278 83.7447181,14.071405 C82.7341164,14.0675234 81.8092377,15.0487764 81.7676672,16.0375336 C81.7480439,16.5079761 81.9915282,16.8777573 82.057886,17.3230991 C82.1350883,17.8416727 82.0400701,18.4339954 82.0400701,18.9582619 C82.0400701,20.1227234 82.0400701,36.2311081 82.0723453,37.8807619 C82.1046205,39.5304158 81.9432444,45.8379158 81.7818683,48.0051081 C81.6204922,50.1723004 80.1466766,51.6656576 79.1138696,52.5713499 C78.0810626,53.4770422 76.1605579,53.3800038 75.2245766,53.2506191 C74.2885952,53.1212345 73.3580361,52.6306081 72.0993025,51.1750311 C70.840569,49.7194542 70.8728442,47.778685 70.7760186,47.1964542 C70.6791929,46.6142234 70.8082938,41.2124158 70.8082938,39.9509158 C70.8082938,38.6894158 70.8082938,22.2252234 70.840569,15.2061081 C70.8472822,13.7815834 69.1193961,13.8043551 68.5384422,14.0631244 C67.9574882,14.3218936 67.7098727,15.1414158 67.6453223,15.820685 C67.5807718,16.4999542 67.8066984,17.2547841 67.9357993,17.5782456 C68.0649001,17.9017071 67.9680745,18.6348004 67.9357993,19.5728388 C67.9014584,20.5755696 67.9680745,33.6757619 67.9357993,34.9696081 C67.903524,36.2634542 67.3225701,40.0803004 66.7738914,41.6652619 C65.4462179,45.5009982 63.534234,48.5317034 62.5135624,49.6224158 C60.5770493,51.6925696 57.9950317,52.824685 56.0262433,53.1481465 C55.3892596,53.2529481 54.1542806,53.245185 53.0891984,53.2128388 C52.0241161,53.1804927 50.6685569,52.8570311 49.7648508,52.2424542 C48.8611447,51.6278773 48.021989,50.4634158 47.731512,49.881185 C47.441035,49.2989542 47.1828332,48.8137619 46.8278058,46.9700311 C46.4727784,45.1263004 46.4405032,42.4739158 46.4405032,40.6948773 C46.4405032,39.1420031 46.408228,33.7728004 46.408228,31.6056081 C46.408228,29.4384158 46.408228,25.5245311 46.3759528,22.9044927 C46.3436775,20.2844542 46.3759528,16.6293388 46.3436775,14.7209158 C46.3346405,14.1787942 45.7789903,13.8962182 44.8912927,13.9122619 C44.0038532,13.9285644 43.6488258,14.6238773 43.5034582,14.9473388 C43.3632547,15.2599321 43.2984461,16.2370447 43.3420822,16.4999542 C43.3906241,16.7910696 43.5357335,17.2925644 43.5842754,17.502685 C43.6325591,17.7130644 43.6002839,18.764185 43.6002839,19.8802567 C43.6002839,20.9960696 43.6325591,25.0069927 43.6325591,26.8507234 C43.6325591,29.2997154 43.6800682,41.5470044 43.7213805,46.5415093 C43.7260282,47.0885474 43.7854146,47.8860742 43.7779267,48.2369653 C43.76166,48.9917951 43.3420822,49.460685 42.934898,50.1290859 C41.5669451,52.4688773 39.6949824,53.245185 37.5002675,53.2775311 C34.7475786,53.3181579 33.3024233,52.0649385 32.1425811,49.0078388 C31.6463173,47.6995016 31.7152572,44.7161511 31.7152572,43.9856456 C31.7152572,43.2553988 31.7152572,42.6969748 31.6718793,40.3126751 C31.6543215,39.324953 31.6718793,27.1245013 31.69331,25.6634902 C31.714999,24.2027379 31.7152572,20.8736718 31.7152572,16.8353191 C31.7152572,12.7972253 31.7152572,12.0240228 31.69331,9.28546806 C31.6773015,7.24429637 31.7044127,4.02339575 31.7258434,2.79786468 C31.7418519,1.86344898 31.3493853,1.08921145 30.2427325,1.07963698 C28.9744455,1.06902745 28.6470457,1.85853237 28.6470457,3.01290191 C28.6470457,3.9473176 28.8644516,4.10025022 28.8644516,4.8656896 L28.8564473,8.59507175 C28.8564473,11.4762084 28.8458611,14.3218936 28.8458611,15.2780459 L28.8458611,18.4138114 C28.8458611,18.757457 28.8350166,19.8750813 28.8350166,20.2614238 C28.8350166,20.648025 28.8241721,21.378013 28.8241721,21.378013 C28.1629174,20.4759434 27.9535158,20.0569961 27.0185672,18.945841 C25.6178227,17.2793671 24.8749763,16.7385394 24.0526037,16.190725 C22.9968167,15.4873902 21.7959204,14.9344004 20.5710112,14.6119739 C19.3458439,14.2898062 17.3310956,13.9676385 16.1382035,13.9676385 C14.9453114,13.9676385 12.9109398,14.2297718 11.7374128,14.6282764 C7.36915553,16.1102478 4.90177957,19.2053865 3.5965697,21.5557874 C2.6995768,23.1718013 1.60893259,25.6795339 1.08788145,28.1337013 C0.629315136,30.2913191 0.292620048,32.2144921 0.249500355,34.4479293 C0.131243952,40.589817 1.27765974,47.516293 5.94801307,51.9570318 C9.17889163,55.0283638 13.6917419,56.6842281 18.1297136,55.8644471 C21.1085873,55.3137862 23.9849548,54.1296582 26.105824,51.9114884 C27.1427623,50.826469 28.1471671,49.6136176 28.8724558,48.0560856 C29.222061,49.6992702 29.310366,51.2050484 30.5009343,52.743949 C33.465865,56.5768388 38.4933114,57.329081 42.106845,54.5964779 C42.703291,54.1454431 43.5788532,53.0725859 43.8262104,52.7276465 C44.0735677,52.3827071 44.4071644,51.6493551 44.4071644,51.6493551 C44.6292179,51.2410173 44.6116602,51.0024321 44.7247525,51.196509 C44.822611,51.364709 44.9323468,51.6201142 45.3379817,52.3125807 C45.7735681,53.0565422 46.0803118,53.4770422 46.854917,54.1076628 C47.6295223,54.7385422 47.9057982,54.9095887 49.1787328,55.4258333 C50.534292,55.9757179 51.8978555,56.202141 53.3339736,56.1860973 C54.77035,56.1697948 55.7063314,56.161773 57.1747247,55.7979434 C59.101168,55.3205142 60.3457005,54.9326191 62.3467641,53.5093884 C64.3478277,52.0861576 65.2355253,50.7276191 66.1715067,49.4498167 C67.107488,48.172273 67.5753496,46.4579268 67.6561668,46.2315038 C67.7367257,46.0050807 67.9626522,46.1021191 67.9626522,46.2798936 C67.9626522,46.4579268 67.978919,47.4283114 67.9949275,48.2046191 C68.0111942,48.9809268 68.1080198,49.935009 68.430772,50.9700859 C68.7535242,52.0051628 69.8668902,53.7518551 70.6254869,54.3340859 C71.3838255,54.9163167 73.3688806,55.8867013 74.466238,56.0647345 C75.5635955,56.242509 77.4515667,56.242509 78.9202183,55.6602782 C80.3886117,55.0780474 81.2923178,54.5444653 82.4542257,53.2829653 C83.6161336,52.0214653 84.181079,50.3231628 84.471556,49.5308114 C84.762033,48.7382013 84.9394176,47.0562013 85.003968,46.0374268 C85.0685185,45.0183936 85.05251,41.8000807 85.0202347,39.4388114 C85.002677,38.161009 85.0202347,34.7646628 85.05251,34.0207013 C85.0847852,33.2767398 84.9879595,31.1095474 85.1330689,30.2038551 C85.2784365,29.2981628 85.4235459,29.1203884 85.6494724,28.2793884 C85.875399,27.4383884 86.5694453,26.1445422 87.1341325,25.0284705 C87.6990779,23.9126576 88.3123071,23.1523936 88.683343,22.521773 C89.0546372,21.8908936 90.2488203,20.6780422 90.9426084,19.9824705 C91.6366547,19.2871576 93.5246259,18.2681244 94.2509475,17.8152782 C94.9770108,17.3624321 96.5584965,17.136009 97.5267531,16.9905807 C98.4950097,16.8448936 99.4149825,16.7965038 100.092762,17.0066244 C100.770542,17.2170038 101.545147,17.556509 102.126101,17.896273 C102.707055,18.2357782 103.01354,18.6239321 103.707587,19.5459268 C104.401375,20.4676628 104.43365,21.1469321 104.724127,22.1173167 C104.977165,22.9629745 104.982329,26.4680038 105.014604,27.0825807 C105.046879,27.6971576 105.063146,35.3792398 105.046879,36.0424653 C105.030871,36.7054321 104.998595,42.705773 104.96632,43.5304705 C104.936627,44.2917696 104.853228,47.7031244 104.982329,48.5604268 C105.11143,49.4174705 105.789209,51.3582398 106.370163,52.2639321 C106.951117,53.1696244 107.612888,53.8165474 108.322943,54.3827345 C109.032998,54.9486628 110.6638,55.6825324 111.275997,55.8543551 C112.082877,56.0807782 113.131951,56.0484321 114.100207,55.9676961 C115.068464,55.8867013 116.859609,55.320773 117.650481,54.8192782 C118.441353,54.3180422 119.328793,53.2506191 119.522444,52.8301191 C119.716095,52.4096191 120.103398,51.6493551 120.21649,51.7463936 C120.329325,51.8434321 120.619802,52.4096191 120.797444,52.6520859 C120.974829,52.8948114 121.620333,53.6711191 121.943086,54.0269268 C122.265838,54.3827345 122.782241,54.7222398 123.573113,55.1913884 C124.363727,55.6602782 125.800103,56.0000422 126.477625,56.0970807 C127.155404,56.1941191 128.123661,56.0323884 128.801441,55.9513936 C129.47922,55.8706576 130.834779,55.5148499 131.448009,55.2560807 C132.061238,54.9973114 133.013486,54.0916191 133.578173,53.4607398 C134.143119,52.8301191 134.707806,51.8757782 134.853173,51.536273 C134.998283,51.196509 135.256484,50.695273 135.256484,50.695273 C135.256484,50.695273 135.450136,51.0347782 135.724604,51.4876244 C135.998815,51.9404705 136.789686,52.797773 137.467466,53.4446961 C138.145246,54.0916191 139.484538,54.8355807 140.323694,55.2560807 C141.16285,55.6765807 143.938518,56.2264653 144.906775,56.2588114 C145.875032,56.2911576 147.56961,56.2911576 149.167104,55.8867013 C150.764856,55.4825038 152.653086,54.7222398 153.766452,54.0106244 C154.879818,53.299009 156.138551,52.1668936 156.848606,51.3582398 C157.558919,50.5495859 157.946222,49.7572345 158.284983,49.1750038 C158.624001,48.592773 158.865936,48.3285696 159.038157,47.832509 C159.210119,47.3367071 159.33922,47.4443551 159.33922,47.8542456 C159.33922,48.2638773 159.33922,48.7599379 159.49001,49.6656302 C159.640284,50.5713225 160.006414,51.4770148 160.458267,52.3180148 C160.91012,53.1590148 162.24399,54.3234764 162.975734,54.8192782 C163.706961,55.3153388 164.266743,55.6173225 165.191879,55.8975696 C166.117016,56.1780754 168.247181,56.2210311 169.344538,55.9622619 C170.441896,55.7034927 171.625493,55.2506465 172.57206,54.4096465 C173.518886,53.5686465 174.401161,51.9728167 174.508573,51.563185 C174.616244,51.1535533 174.637674,51.088861 174.84217,51.1858994 C174.861535,51.1952151 175.045375,51.7839151 175.240317,52.1454158 C175.455141,52.5444379 175.939528,53.2343167 176.487948,53.8274158 C178.912204,56.447713 183.47308,56.7641878 186.427425,54.9525444 C189.149904,53.2832241 190.280569,50.6574927 191.055175,47.8972013 C191.141156,49.9243994 191.30563,50.739005 191.549889,51.7140474 C191.780722,52.6350071 192.073522,53.0715508 192.635369,53.8382841 C194.388817,56.2308644 198.1849,56.599093 200.834566,55.5955859 C201.318694,55.4123773 201.748858,55.0457013 201.856529,54.5498994 C201.964199,54.0538388 201.759703,53.5471687 201.340125,53.245185" id="Fill-2"></path>
                    <path d="M123.298645,2.96852298 C123.298645,4.55840114 122.063149,5.84733068 120.538984,5.84733068 C119.015078,5.84733068 117.779582,4.55840114 117.779582,2.96852298 C117.779582,1.37864483 119.015078,0.0897152923 120.538984,0.0897152923 C122.063149,0.0897152923 123.298645,1.37864483 123.298645,2.96852298" id="Fill-4"></path>
                    <path d="M195.078733,2.96852298 C195.078733,4.55840114 193.843237,5.84733068 192.319072,5.84733068 C190.795165,5.84733068 189.55967,4.55840114 189.55967,2.96852298 C189.55967,1.37864483 190.795165,0.0897152923 192.319072,0.0897152923 C193.843237,0.0897152923 195.078733,1.37864483 195.078733,2.96852298" id="Fill-6"></path>
                </g>
            </g>
        </g>
    </g>
</svg>