<?xml version="1.0" encoding="UTF-8" standalone="no"?>
<svg width="244px" height="42px" viewBox="0 0 244 42" version="1.1" xmlns="http://www.w3.org/2000/svg" xmlns:xlink="http://www.w3.org/1999/xlink">
    <!-- Generator: Sketch 41.2 (35397) - http://www.bohemiancoding.com/sketch -->
    <title>logo-yasmina copy</title>
    <desc>Created with Sketch.</desc>
    <defs></defs>
    <g id="diwanee-corp-" stroke="none" stroke-width="1" fill="none" fill-rule="evenodd">
        <g id="Desktop-HD-Copy" transform="translate(-599.000000, -3296.000000)" fill="#FFFFFF">
            <g id="logo-yasmina-copy" transform="translate(599.000000, 3296.000000)">
                <g id="Calque_1">
                    <path d="M37.4028387,0.855555556 L37.4028387,1.32222222 C36.2979126,1.33129331 35.2138458,1.62052589 34.2544516,2.16222222 C33.4349096,2.61048115 32.6913108,3.18257138 32.0505806,3.85777778 C31.446926,4.53318498 30.8794409,5.2393351 30.3504516,5.97333333 L20.9052903,19.9733333 L20.9052903,35.9177778 C20.8153194,37.1282025 21.2978149,38.3115431 22.211871,39.1222222 C23.0989631,39.8436137 24.2113999,40.2393495 25.3602581,40.2422222 L25.3602581,40.6777778 L12.5935484,40.6777778 L12.5935484,40.2422222 C13.7446742,40.2862423 14.8698378,39.8970976 15.7419355,39.1533333 C16.5676682,38.2828536 16.9797741,37.1064211 16.8753548,35.9177778 L16.8753548,20.6422222 L6.62735484,5.46 C5.87392166,4.1897868 4.87343772,3.07955104 3.6836129,2.19333333 C2.61341624,1.59781601 1.40111028,1.29698486 0.17316129,1.32222222 L0.17316129,0.855555556 L14.4825806,0.855555556 L14.4825806,1.32222222 C13.4555241,1.21476182 12.4321599,1.55563187 11.6805161,2.25555556 C11.3214124,2.70080737 11.1073527,3.24317983 11.0665806,3.81111111 C11.1959651,4.70043356 11.5657786,5.53878452 12.1370323,6.23777778 L20.5274839,18.5266667 L27.9734194,7.45111111 C28.8741612,6.35343205 29.4611811,5.0375331 29.6735484,3.64 C29.7034427,3.12386801 29.5410476,2.61478321 29.2170323,2.20888889 C28.9755977,1.91242405 28.6612335,1.68212034 28.304,1.54 C27.9795991,1.43060705 27.6483131,1.34227084 27.3122581,1.27555556 L27.3122581,0.808888889 L37.4028387,0.808888889 L37.4028387,0.855555556 Z" id="Shape"></path>
                    <path d="M54.1365161,0.373333333 L66.1948387,34.4711111 C66.6328148,35.8218103 67.2410323,37.1126888 68.0051613,38.3133333 C68.374364,38.9656192 68.9192536,39.5040574 69.5793548,39.8688889 C70.216641,40.1023998 70.8846804,40.2438562 71.5628387,40.2888889 L71.5628387,40.7244444 L58.4025806,40.7244444 L58.4025806,40.2888889 C59.4655568,40.3332037 60.5287809,40.2071274 61.5509677,39.9155556 C62.3428965,39.5542689 62.788982,38.7109917 62.6371613,37.8622222 C62.5912672,37.0216541 62.4160978,36.1928942 62.1176774,35.4044444 C62.0580875,35.3044336 62.0205374,35.1931171 62.0074839,35.0777778 L58.4183226,24.5155556 L44.4709677,24.5155556 L41.3225806,34.3 C40.9409567,35.3347553 40.7181042,36.4200956 40.6614194,37.52 C40.5477981,38.3556047 40.86728,39.1916233 41.5114839,39.7444444 C42.2424284,40.1578365 43.079204,40.3523938 43.92,40.3044444 L43.92,40.74 L34.4748387,40.74 L34.4748387,40.3044444 C35.7214062,40.2300141 36.8873903,39.6707038 37.7176774,38.7488889 C38.6957654,37.5509403 39.4186357,36.1699377 39.8428387,34.6888889 L51.2242581,0.466666667 L54.1837419,0.466666667 L54.1365161,0.373333333 Z M44.9747097,23.0222222 L57.8673548,23.0222222 L51.3029677,4.13777778 L51.1927742,4.13777778 L44.9747097,23.0222222 Z" id="Shape"></path>
                    <path d="M95.0183226,8.46222222 L94.5775484,8.46222222 C94.3274371,6.53696364 93.4292044,4.75080981 92.0273548,3.39111111 C90.5055967,1.9113922 88.4302875,1.12264675 86.2972903,1.21333333 C84.8472328,1.19391411 83.419934,1.57073853 82.1729032,2.30222222 C80.9854644,3.00703881 80.020529,4.02519448 79.3865806,5.24222222 C78.7102857,6.56217424 78.3698747,8.02516305 78.3948387,9.50444444 C78.3721423,10.6355809 78.5698867,11.760469 78.9772903,12.8177778 C79.3672636,13.7786289 79.957215,14.647779 80.7089032,15.3688889 C81.5331524,16.1531529 82.4409908,16.8468329 83.4165161,17.4377778 C84.4659785,18.0807407 85.8722581,18.8844444 87.6353548,19.8488889 C90.1406114,21.1333151 92.4597126,22.7447906 94.5303226,24.64 C96.2308056,26.393059 97.1199368,28.7641638 96.9860645,31.1888889 C96.9792956,32.9074444 96.5238368,34.5951929 95.6637419,36.0888889 C94.7163537,37.723852 93.3261857,39.0652382 91.6495484,39.9622222 C89.6111497,41.046403 87.3204359,41.5827993 85.0064516,41.5177778 C83.5197679,41.5391272 82.0370177,41.3612106 80.5987097,40.9888889 C79.2782767,40.6309595 77.9928275,40.1572262 76.7576774,39.5733333 C76.3983409,39.4375323 76.0226114,39.3486341 75.64,39.3088889 C75.3256482,39.2654921 75.0193363,39.4294466 74.8843871,39.7133333 C74.6822883,40.2866386 74.5244175,40.8742447 74.412129,41.4711111 L73.939871,41.4711111 L73.939871,31.4844444 L74.412129,31.4844444 C74.8669711,34.0662705 76.2199554,36.4100864 78.2374194,38.1111111 C80.2112971,39.6329982 82.6613673,40.4253458 85.163871,40.3511111 C86.8760765,40.4316629 88.5770511,40.0383905 90.0753548,39.2155556 C91.1905208,38.5772793 92.0806433,37.6162527 92.6255484,36.4622222 C93.0844463,35.4433535 93.3256054,34.3418599 93.3339355,33.2266667 C93.4150846,31.2024328 92.6723856,29.2304115 91.2717419,27.7511111 C89.4095773,25.9949916 87.2859899,24.5313264 84.9749677,23.4111111 C83.043957,22.3740741 81.6114409,21.5651852 80.6774194,20.9844444 C79.6561195,20.3379015 78.70639,19.5871135 77.843871,18.7444444 C75.7692189,16.771394 74.6271202,14.0289529 74.6954839,11.1844444 C74.7211312,9.28316751 75.2649375,7.42387477 76.2696774,5.80222222 C77.2898996,4.07345328 78.7638601,2.64919153 80.5357419,1.68 C82.4583165,0.619838679 84.6312497,0.0830370992 86.8325161,0.124444444 C88.6839371,0.13556895 90.5220307,0.434791124 92.2792258,1.01111111 C92.65083,1.17168472 93.0546684,1.24617537 93.459871,1.22888889 C94.1182105,1.18386633 94.6421799,0.666100561 94.6877419,0.0155555556 L95.1285161,0.0155555556 L95.1285161,8.46222222 L95.0183226,8.46222222 Z" id="Shape"></path>
                    <path d="M143.314581,0.855555556 L143.314581,1.32222222 C142.548473,1.41555556 142.023742,1.49333333 141.740387,1.55555556 C141.339779,1.65776346 140.968204,1.84933369 140.654194,2.11555556 C140.151229,2.44318119 139.748422,2.90038714 139.48929,3.43777778 C139.29257,4.14179703 139.197182,4.86968765 139.205935,5.6 C139.151962,5.75631658 139.151962,5.92590564 139.205935,6.08222222 L140.606968,35.6377778 C140.609009,36.7711259 140.918889,37.8831543 141.504258,38.8577778 C142.416609,39.9140828 143.812036,40.4363065 145.203613,40.2422222 L145.203613,40.6777778 L132.153548,40.6777778 L132.153548,40.2422222 C133.471042,40.2507369 134.732238,39.7150126 135.632516,38.7644444 C136.312305,37.6373663 136.584294,36.3154607 136.403871,35.0155556 L135.002839,4.43333333 L134.892645,4.43333333 L120.724903,40.6777778 L107.265548,5.75555556 L107.155355,5.75555556 L105.707097,33.9733333 C105.601772,35.1835164 105.697487,36.4025751 105.990452,37.5822222 C106.171794,38.3285534 106.62593,38.9823012 107.265548,39.4177778 C108.067482,39.8600304 108.950412,40.1402803 109.862968,40.2422222 L109.862968,40.6777778 L99.7094194,40.6777778 L99.7094194,40.2422222 C100.775861,40.3007264 101.827522,39.9745914 102.668903,39.3244444 C103.335761,38.7390856 103.798536,37.9605933 103.991226,37.1 C104.24106,35.8948866 104.398923,34.6729297 104.463484,33.4444444 L106.037677,4.26222222 C105.979291,4.04551725 105.865446,3.84730816 105.707097,3.68666667 C105.466428,3.38266705 105.197657,3.10145497 104.904258,2.84666667 C104.624353,2.59284962 104.318343,2.3686664 103.991226,2.17777778 C103.516228,1.8544864 102.981243,1.62716651 102.417032,1.50888889 C101.965763,1.44666667 101.325591,1.38962963 100.496516,1.33777778 L100.496516,0.871111111 L109.815742,0.871111111 L122.204645,33.3511111 L134.798194,0.793333333 L143.251613,0.793333333 L143.314581,0.855555556 Z" id="Shape"></path>
                    <path d="M161.260387,0.855555556 L161.260387,1.32222222 C160.150537,1.28714117 159.06367,1.63963306 158.19071,2.31777778 C157.271579,3.17461661 156.806434,4.40414934 156.931355,5.64666667 L156.931355,35.8555556 C156.813545,37.1172362 157.310364,38.3590163 158.269419,39.2 C159.110829,39.8743419 160.161285,40.2423166 161.244645,40.2422222 L161.244645,40.6777778 L148.477935,40.6777778 L148.477935,40.2422222 C149.573623,40.2619197 150.642138,39.9044659 151.500387,39.2311111 C152.42838,38.3662287 152.899153,37.1256976 152.775484,35.8711111 L152.775484,5.64666667 C152.929795,4.37453636 152.455266,3.10673906 151.500387,2.24 C150.620215,1.61841659 149.55946,1.29631499 148.477935,1.32222222 L148.477935,0.855555556 L161.244645,0.855555556 L161.260387,0.855555556 Z" id="Shape"></path>
                    <path d="M207.037935,0.855555556 L207.037935,1.32222222 C206.206266,1.39919619 205.389959,1.59299981 204.613677,1.89777778 C203.963506,2.21692668 203.466075,2.77549629 203.228387,3.45333333 C202.853121,4.51685681 202.68747,5.6415632 202.740387,6.76666667 L202.740387,41.6888889 L202.472774,41.6888889 L171.539871,7.59111111 L171.539871,32.0755556 C171.510522,33.5936927 171.594708,35.1118982 171.791742,36.6177778 C171.87191,37.3698251 172.113406,38.0963426 172.500129,38.7488889 C173.358746,39.7914557 174.667601,40.368848 176.026323,40.3044444 L176.026323,40.74 L165.935742,40.74 L165.935742,40.3044444 C166.866863,40.3089439 167.781464,40.0614822 168.580387,39.5888889 C169.304828,39.0094959 169.782428,38.1822037 169.918452,37.2711111 C170.229208,35.5938105 170.361112,33.8889322 170.312,32.1844444 L170.312,6.12888889 L168.973935,4.57333333 C168.177718,3.57783227 167.213851,2.72535882 166.124645,2.05333333 C165.286343,1.66445858 164.395601,1.39725621 163.48,1.26 L163.48,0.793333333 L171.051871,0.793333333 L201.512516,34.5177778 L201.512516,8.88222222 C201.540089,7.43698876 201.46117,5.99168886 201.276387,4.55777778 C201.159777,3.66968378 200.723992,2.85259961 200.048516,2.25555556 C199.138429,1.59538142 198.028153,1.26075656 196.900129,1.30666667 L196.900129,0.84 L207.022194,0.84 L207.037935,0.855555556 Z" id="Shape"></path>
                    <path d="M226.432,0.373333333 L238.490323,34.4711111 C238.928299,35.8218103 239.536516,37.1126888 240.300645,38.3133333 C240.669848,38.9656192 241.214737,39.5040574 241.874839,39.8688889 C242.512125,40.1023998 243.180164,40.2438562 243.858323,40.2888889 L243.858323,40.7244444 L230.698065,40.7244444 L230.698065,40.2888889 C231.761041,40.3332037 232.824265,40.2071274 233.846452,39.9155556 C234.63838,39.5542689 235.084466,38.7109917 234.932645,37.8622222 C234.886508,37.0216855 234.711346,36.1929615 234.413161,35.4044444 C234.353571,35.3044336 234.316021,35.1931171 234.302968,35.0777778 L230.713806,24.5155556 L216.860903,24.5155556 L213.712516,34.3 C213.330892,35.3347553 213.10804,36.4200956 213.051355,37.52 C212.937734,38.3556047 213.257215,39.1916233 213.901419,39.7444444 C214.632364,40.1578365 215.469139,40.3523938 216.309935,40.3044444 L216.309935,40.74 L206.864774,40.74 L206.864774,40.3044444 C208.111342,40.2300141 209.277326,39.6707038 210.107613,38.7488889 C211.086066,37.551176 211.808977,36.1700962 212.232774,34.6888889 L223.614194,0.466666667 L226.573677,0.466666667 L226.432,0.373333333 Z M217.270194,23.0222222 L230.099871,23.0222222 L223.535484,4.13777778 L223.42529,4.13777778 L217.270194,23.0222222 Z" id="Shape"></path>
                </g>
            </g>
        </g>
    </g>
</svg>