<?xml version="1.0" encoding="UTF-8" standalone="no"?>
<svg width="196px" height="69px" viewBox="0 0 196 69" version="1.1" xmlns="http://www.w3.org/2000/svg" xmlns:xlink="http://www.w3.org/1999/xlink">
    <!-- Generator: Sketch 41.2 (35397) - http://www.bohemiancoding.com/sketch -->
    <title>Page 1 Copy</title>
    <desc>Created with Sketch.</desc>
    <defs>
        <polygon id="path-1" points="145.036595 0.7212421 0 0.7212421 0 68.9995653 145.036595 68.9995653 145.036595 0.7212421"></polygon>
    </defs>
    <g id="diwanee-corp-" stroke="none" stroke-width="1" fill="none" fill-rule="evenodd">
        <g id="Desktop-HD-Copy" transform="translate(-611.000000, -3762.000000)">
            <g id="Page-1-Copy" transform="translate(611.000000, 3761.000000)">
                <path d="M163.187605,58.0418929 L195.101957,35.4230116 L163.187605,12.8028284 L163.187605,58.0418929 Z M168.407913,22.8911046 L186.087791,35.4230116 L168.407913,47.9549186 L168.407913,22.8911046 Z" id="Fill-1" fill="#FFFFFF"></path>
                <g id="Group-4" transform="translate(0.000000, 0.581030)">
                    <mask id="mask-2" fill="white">
                        <use xlink:href="#path-1"></use>
                    </mask>
                    <g id="Clip-3"></g>
                    <path d="M139.936354,37.9744381 L139.936354,18.2652609 L137.356217,18.2652609 C133.799883,18.2652609 131.030509,19.2013134 129.046792,21.0734183 C127.063075,22.9442214 126.071217,25.5662098 126.071217,28.9393836 C126.071217,32.0586906 126.749857,34.3447937 128.108442,35.7963911 C129.465722,37.2479885 131.523828,37.9744381 134.278846,37.9744381 L139.936354,37.9744381 Z M131.171458,57.040486 C127.086567,57.040486 123.481944,56.0159057 120.35498,53.9693486 L122.758932,49.9634607 C124.048348,50.6456463 125.378221,51.2158702 126.745942,51.6741324 C128.112357,52.1323945 129.628857,52.3615256 131.288915,52.3615256 C134.00478,52.3615256 136.13597,51.6350759 137.678571,50.1821767 C139.222477,48.7305793 139.995083,46.7946822 139.995083,44.378391 L139.995083,42.6533986 L134.10266,42.6533986 C129.842889,42.6533986 126.54496,41.4830075 124.208872,39.1435273 C121.874089,36.8053489 120.707351,33.4230619 120.707351,28.9966664 C120.707351,24.2994796 122.201664,20.5617791 125.191595,17.7835649 C128.181526,15.0053508 132.178977,13.6162437 137.181337,13.6162437 L145.036595,13.6162437 L145.036595,44.0854677 C145.036595,48.1603554 143.829399,51.338247 141.417617,53.6191426 C139.003224,55.9000382 135.587838,57.040486 131.171458,57.040486 L131.171458,57.040486 Z M100.656148,57.040486 C98.7416003,57.040486 96.6991549,56.4741678 94.530117,55.344135 L96.0831586,51.338247 C97.0606612,51.7665659 97.8619785,52.0451685 98.4871103,52.170149 C99.1135473,52.2977334 99.7961025,52.3615256 100.539996,52.3615256 C102.337087,52.3615256 103.74396,51.6298684 104.760615,50.167856 C105.775965,48.7058436 106.284945,46.7764559 106.284945,44.378391 L106.284945,13.6162437 L111.356474,13.6162437 L111.356474,44.0854677 C111.356474,48.121299 110.436395,51.2900774 108.600152,53.5891994 C106.763908,55.8896232 104.115907,57.040486 100.656148,57.040486 L100.656148,57.040486 Z M88.4510686,54.6424211 C87.4148375,54.6424211 86.593944,54.3312716 85.9896934,53.7063687 C85.3828326,53.0827677 85.0800548,52.1961867 85.0800548,51.0453238 C85.0800548,49.894461 85.3776123,49.0091819 85.9740325,48.3842789 C86.5704527,47.7606779 87.3965664,47.4482265 88.4510686,47.4482265 C89.5251469,47.4482265 90.3564809,47.7749986 90.9424605,48.427241 C91.5297451,49.0807853 91.8220823,49.9530456 91.8220823,51.0453238 C91.8220823,52.137602 91.5297451,53.0098623 90.9424605,53.6634066 C90.3564809,54.315649 89.5251469,54.6424211 88.4510686,54.6424211 L88.4510686,54.6424211 Z M78.0744017,54.6424211 C77.1360514,54.6424211 76.3399544,54.359913 75.6848058,53.7935947 C75.0309622,53.2285783 74.7033879,52.313356 74.7033879,51.0453238 C74.7033879,49.7772917 75.0309622,48.8620693 75.6848058,48.2970529 C76.3399544,47.7307347 77.1360514,47.4482265 78.0744017,47.4482265 C79.0897516,47.4482265 79.9015094,47.7567723 80.5070651,48.3686564 C81.1126208,48.9844461 81.4167038,49.8762346 81.4167038,51.0453238 C81.4167038,52.1961867 81.1178411,53.0827677 80.5227261,53.7063687 C79.9263059,54.3312716 79.1106328,54.6424211 78.0744017,54.6424211 L78.0744017,54.6424211 Z M74.1761368,42.6533986 C73.9803753,42.6533986 73.8824945,42.5557575 73.8824945,42.3604753 L73.8824945,38.2087767 C73.8824945,38.052551 73.9803753,37.9744381 74.1761368,37.9744381 L85.6960511,37.9744381 L85.6960511,13.6162437 L91.0312057,13.6162437 L91.0312057,42.6533986 L74.1761368,42.6533986 Z M64.0696209,7.9140047 C63.0333898,7.9140047 62.2124964,7.60285513 61.6069407,6.97795223 C61.001385,6.35435121 60.6986071,5.46777021 60.6986071,4.31690737 C60.6986071,3.1673464 60.9961647,2.28076541 61.5925848,1.65716439 C62.1876999,1.03356336 63.0138136,0.721111912 64.0696209,0.721111912 C65.1436992,0.721111912 65.9750332,1.04788406 66.5610128,1.70012646 C67.1469924,2.35367075 67.4406347,3.22593105 67.4406347,4.31690737 C67.4406347,5.40918557 67.1469924,6.28144587 66.5610128,6.93499015 C65.9750332,7.58853444 65.1436992,7.9140047 64.0696209,7.9140047 L64.0696209,7.9140047 Z M53.691649,42.6533986 C53.4971925,42.6533986 53.3993117,42.5557575 53.3993117,42.3604753 L53.3993117,38.2087767 C53.3993117,38.052551 53.4971925,37.9744381 53.691649,37.9744381 L61.6069407,37.9744381 L61.6069407,13.6162437 L66.9420953,13.6162437 L66.9420953,37.9744381 L74.7686418,37.9744381 C74.9630982,37.9744381 75.060979,38.052551 75.060979,38.2087767 L75.060979,42.3604753 C75.060979,42.5557575 74.9630982,42.6533986 74.7686418,42.6533986 L53.691649,42.6533986 Z M24.3000109,68.9995653 C23.2650848,68.9995653 22.4441914,68.6884158 21.8386357,68.0635129 C21.2317749,67.4399118 20.9289971,66.5533309 20.9289971,65.402468 C20.9289971,64.252907 21.2265546,63.366326 21.8242799,62.7414231 C22.419395,62.1178221 23.2455087,61.8066726 24.3000109,61.8066726 C25.3753943,61.8066726 26.2054232,62.1334447 26.7927078,62.786989 C27.3786874,63.4392314 27.6710246,64.3114917 27.6710246,65.402468 C27.6710246,66.4947462 27.3786874,67.3670065 26.7927078,68.0192489 C26.2054232,68.6727932 25.3753943,68.9995653 24.3000109,68.9995653 L24.3000109,68.9995653 Z M13.923344,68.9995653 C12.9862987,68.9995653 12.1888967,68.7170572 11.5350532,68.1520408 C10.8799045,67.5857225 10.5523302,66.6705001 10.5523302,65.402468 C10.5523302,64.1357377 10.8799045,63.2205154 11.5350532,62.6541971 C12.1888967,62.0891807 12.9862987,61.8066726 13.923344,61.8066726 C14.9399989,61.8066726 15.7504517,62.1126146 16.3573125,62.7284043 C16.9615631,63.3402884 17.2656461,64.2333788 17.2656461,65.402468 C17.2656461,66.5533309 16.9667835,67.4399118 16.3716684,68.0635129 C15.7752482,68.6884158 14.9595751,68.9995653 13.923344,68.9995653 L13.923344,68.9995653 Z M12.0766601,57.040486 C8.32456386,57.040486 5.37378487,55.7425106 3.22432312,53.1504655 C1.07486138,50.5584203 -0.000522030782,47.0394358 -0.000522030782,42.5948139 C-0.000522030782,40.5092005 0.17044305,38.6279824 0.512373212,36.9511596 C0.854303374,35.2743368 1.38677477,33.5584576 2.11109248,31.8048238 L7.09387629,31.8048238 C6.64362474,32.9153283 6.29777935,33.9828708 6.05372996,35.0061493 C5.80837549,36.0294278 5.63741041,37.0201593 5.53952964,37.9744381 C5.44164887,38.9300188 5.39336102,40.3529748 5.39336102,42.243306 C5.39336102,45.4797823 6.06808581,47.9754883 7.4162303,49.7291221 C8.76437479,51.4840577 10.6998039,52.3615256 13.2199075,52.3615256 L24.3887561,52.3615256 C27.2416543,52.3615256 29.6064538,51.8303581 31.4818493,50.7667213 C33.35855,49.7056882 34.2969003,48.4324485 34.2969003,46.9522098 C34.2969003,46.1333266 33.9249534,45.4316127 33.1823646,44.8457663 C32.4397758,44.2612217 31.3161046,43.7534881 29.8113508,43.3251692 C26.7822672,42.4672296 24.7058898,41.7173461 23.5822185,41.0742169 C22.4585473,40.4310876 21.5985016,39.6317327 21.0033865,38.676152 C20.4069663,37.7218732 20.1094088,36.5905385 20.1094088,35.2847518 C20.1094088,32.984328 20.7971843,30.7620171 22.1753456,28.617819 C23.5535068,26.4736209 25.336242,24.733006 27.524856,23.397276 C29.7134701,22.0628479 31.9020841,21.3949829 34.0906982,21.3949829 C35.4401477,21.3949829 36.6369033,21.6384347 37.68227,22.1253382 C38.7276366,22.6135436 39.7090545,23.320465 40.6278286,24.2461024 C41.5466028,25.1717399 42.6898502,26.7066576 44.0575709,28.8508557 C45.7776623,31.6199567 47.0527225,33.4816466 47.8827514,34.4359254 C48.7140854,35.3915061 49.4227422,36.0984275 50.0087218,36.5566896 C50.5947013,37.0149518 51.2106977,37.3651578 51.8554057,37.6086095 C52.5001137,37.8533632 53.2035502,37.9744381 53.9657151,37.9744381 L54.2880691,37.9744381 C54.4825256,37.9744381 54.5817114,38.052551 54.5817114,38.2087767 L54.5817114,42.3604753 C54.5817114,42.5557575 54.4825256,42.6533986 54.2880691,42.6533986 L53.9657151,42.6533986 C52.284776,42.6533986 50.6677856,42.2784568 49.1147441,41.5272715 C47.5603974,40.777388 45.9629832,39.5340916 44.3211964,37.7986842 C43.8526738,37.3117806 42.8268833,35.9382961 41.243825,33.6756269 C39.3083958,30.9468842 37.7749304,29.1138357 36.6421236,28.1790851 C35.5080117,27.2430326 34.4430689,26.7743554 33.4459902,26.7743554 C32.3510306,26.7743554 31.1790715,27.194863 29.9288078,28.0319725 C28.677239,28.8703839 27.6318723,29.9183982 26.7927078,31.1760153 C25.9522383,32.4336324 25.5320035,33.5688726 25.5320035,34.583038 C25.5320035,35.2456954 25.8882895,35.8393532 26.6021666,36.366615 C27.3147386,36.8925749 28.4632063,37.3898935 30.0462647,37.8572688 C32.9187391,38.6956802 34.9559642,39.4273373 36.1579401,40.0509384 C37.3599159,40.6745394 38.2682495,41.4101022 38.8842458,42.2589286 C39.4989371,43.1051513 39.8069352,44.0763546 39.8069352,45.1673309 C39.8069352,53.0827677 34.6675422,57.040486 24.3887561,57.040486 L12.0766601,57.040486 Z" id="Fill-2" fill="#FFFFFF" mask="url(#mask-2)"></path>
                </g>
            </g>
        </g>
    </g>
</svg>