<?xml version="1.0" encoding="UTF-8" standalone="no"?>
<svg width="202px" height="71px" viewBox="0 0 202 71" version="1.1" xmlns="http://www.w3.org/2000/svg" xmlns:xlink="http://www.w3.org/1999/xlink">
    <!-- Generator: Sketch 41.2 (35397) - http://www.bohemiancoding.com/sketch -->
    <title>logo-3a2ilati.com copy</title>
    <desc>Created with Sketch.</desc>
    <defs></defs>
    <g id="diwanee-corp-" stroke="none" stroke-width="1" fill="none" fill-rule="evenodd">
        <g id="Desktop-HD-Copy" transform="translate(-1100.000000, -3282.000000)" fill="#FFFFFF">
            <g id="logo-3a2ilati.com-copy" transform="translate(1100.000000, 3282.000000)">
                <g id="Calque_1">
                    <path d="M119.156,10.6969767 C118.872398,13.8726333 116.352007,16.3895766 113.172,16.6727907 C112.363445,16.6639227 111.592078,16.3322584 111.029971,15.7517836 C110.467864,15.1713087 110.16178,14.3903154 110.18,13.5830233 C110.475307,10.4452157 113.014105,7.98912026 116.164,7.79395349 C117.783803,7.7933006 119.109983,9.08004274 119.156,10.6969767 L119.156,10.6969767 Z" id="Shape"></path>
                    <path d="M201.351,10.6969767 C201.067398,13.8726333 198.547007,16.3895766 195.367,16.6727907 C194.558445,16.6639227 193.787078,16.3322584 193.224971,15.7517836 C192.662864,15.1713087 192.35678,14.3903154 192.375,13.5830233 C192.670307,10.4452157 195.209105,7.98912026 198.359,7.79395349 C199.978803,7.7933006 201.304983,9.08004274 201.351,10.6969767 L201.351,10.6969767 Z" id="Shape"></path>
                    <path d="M31.266,36.162093 C31.266,45.6860465 22.477,53.9027907 12.277,53.9027907 C5.358,53.9027907 0.683,49.7944186 0.683,43.7167442 C0.683,39.2348837 3.59,35.2283721 6.769,35.2283721 C7.51550037,35.1677114 8.25479809,35.4114041 8.81845372,35.9039281 C9.38210936,36.3964521 9.72211328,37.0958564 9.761,37.8427907 C9.71634509,38.6747416 9.4588101,39.48136 9.013,40.1855814 L8.35,41.2211628 C7.65755861,42.0670507 7.26325975,43.1170759 7.228,44.2090698 C7.228,46.9083721 9.846,48.8776744 13.501,48.8776744 C19.774,48.8776744 25.401,42.7151163 25.401,35.9923256 C25.401,31.8839535 22.97,28.8111628 19.689,28.8111628 C18.9232759,28.870055 18.1687246,29.0298924 17.445,29.2865116 C16.5752213,29.6209106 15.6562914,29.8101807 14.725,29.8467442 C13.8528829,29.9564345 12.9733266,29.7102145 12.2853794,29.163805 C11.5974323,28.6173956 11.1592515,27.8169887 11.07,26.9437209 C11.07,24.7027907 13.127,23.3106977 16.782,23.3106977 C18.0690567,23.33658 19.3503524,23.4901251 20.607,23.7690698 C25.707,22.2751163 29.583,17.7932558 29.583,13.6848837 C29.6620194,12.1492052 29.0856396,10.6520205 27.9968287,9.56469908 C26.9080179,8.47737771 25.4087822,7.90178634 23.871,7.98069767 C20.777,7.98069767 18.924,9.67837209 17.972,13.2944186 C17.8258444,14.9520379 16.4586941,16.2370074 14.793,16.2823256 C13.9962134,16.2648798 13.2401884,15.9270886 12.6961677,15.3454633 C12.1521471,14.7638379 11.8661658,13.9875954 11.903,13.1925581 C11.903,8.09953488 18.176,3.10837209 24.721,3.10837209 C27.520872,3.03276158 30.2286843,4.11025081 32.2092166,6.08807372 C34.1897488,8.06589662 35.2687141,10.7700047 35.193,13.5660465 C35.193,18.7948837 32.014,23.2767442 26.217,26.3495349 C29.685,28.335814 31.266,31.5104651 31.266,36.162093 L31.266,36.162093 Z" id="Shape"></path>
                    <path d="M42.588,53.4613953 C38.372,53.4613953 35.38,49.7265116 35.38,44.395814 C35.38,32.512093 47.076,20.764186 58.942,20.764186 C63.43,20.764186 66.609,22.4618605 66.609,24.8725581 C66.5746935,25.6706411 66.2163397,26.4203387 65.6165353,26.9488539 C65.0167308,27.4773691 64.2272285,27.7391002 63.43,27.6737209 C62.5692086,27.671015 61.7162908,27.5098729 60.914,27.1983721 C59.4549582,26.7755876 57.9451328,26.5528503 56.426,26.5362791 C52.7554192,26.5478055 49.2606442,28.1078206 46.804,30.8313953 C43.251,34.6681395 40.905,39.6083721 40.905,43.4451163 C40.905,46.3481395 42.486,48.2155814 44.832,48.2155814 C47.21681,47.9769189 49.389892,46.7439023 50.816,44.8202326 C52.6471053,42.4169064 54.0134519,39.6937088 54.845,36.7902326 C56.154,33.242093 56.545,32.4951163 57.837,31.6972093 C58.8563161,30.9276052 60.0088837,30.3521098 61.237,29.9995349 C61.489285,29.9845275 61.7359379,30.0780721 61.9146466,30.2565363 C62.0933552,30.4350005 62.1870279,30.6813159 62.172,30.9332558 C62.0791796,31.65283 61.8544301,32.3491759 61.509,32.9874419 L57.956,42.8 C57.5290106,43.8910098 57.2433643,45.0320318 57.106,46.1953488 C57.065843,46.560419 57.1876683,46.924756 57.4394182,47.1924865 C57.6911681,47.4602171 58.0476289,47.604527 58.415,47.5874419 C58.6954412,47.6045606 58.976801,47.5758897 59.248,47.5025581 L60.472,47.044186 C60.7461525,46.9458315 61.0318257,46.8830693 61.322,46.8574419 C61.599838,46.8308293 61.8750535,46.929564 62.0724163,47.1266568 C62.2697791,47.3237496 62.368649,47.5985886 62.342,47.8760465 C62.342,48.7248837 61.883,49.2851163 59.537,50.8639535 C57.021,52.7313953 55.338,53.5802326 54.199,53.5802326 C52.499,53.5802326 51.87,52.5446512 51.581,49.5567442 C48.385,52.2390698 45.767,53.4613953 42.588,53.4613953 L42.588,53.4613953 Z" id="Shape"></path>
                    <path d="M85.785,48.6909302 C87.927,48.6909302 88.879,47.7572093 90.086,44.2939535 C90.834,42.137907 91.786,41.3060465 93.367,41.3060465 C94.2203618,41.3446668 95.0212797,41.728281 95.5856129,42.3686915 C96.1499461,43.009102 96.4291384,43.8512066 96.359,44.7013953 C96.359,49.2851163 91.412,53.8518605 86.448,53.8518605 C84.017,53.8518605 82.436,53.3765116 78.22,51.5090698 C76.6153495,50.722342 74.9631448,50.0362826 73.273,49.4548837 L72.525,50.0151163 C68.972,52.4427907 67.663,53.1048837 65.878,53.1048837 C64.8494653,53.2351108 63.8139412,52.9230013 63.0292909,52.2462757 C62.2446405,51.5695502 61.7846991,50.5918881 61.764,49.5567442 C61.764,46.4669767 64.943,43.9544186 68.955,43.9544186 C69.9274357,43.9391769 70.8995346,44.001624 71.862,44.1411628 C77.812492,38.9942322 83.2340011,33.2673508 88.046,27.0455814 C91.701,22.1902326 93.571,18.1667442 93.571,15.1618605 C93.5662145,13.5437954 92.8874615,12.0006782 91.6974862,10.9025034 C90.5075108,9.80432867 88.9136264,9.25013094 87.298,9.3727907 C83.269,9.3727907 80.498,12.275814 80.498,16.7576744 C80.4863068,17.5708934 80.5488993,18.3834831 80.685,19.1853488 C80.7640004,19.7476465 80.7981078,20.3153265 80.787,20.8830233 C80.8147618,21.7184346 80.5005265,22.5290892 79.91674,23.1280932 C79.3329536,23.7270972 78.5300008,24.0627524 77.693,24.0576744 C75.364,24.0576744 73.579,21.3413953 73.579,17.7083721 C73.6634866,14.0084104 75.221609,10.4947604 77.9082927,7.94558383 C80.5949764,5.39640729 84.1884956,4.02208177 87.893,4.12697674 C94.812,4.12697674 99.674,8.69372093 99.674,15.2467442 C99.674,22.5297674 93.027,31.8669767 78.917,44.5655814 L77.506,45.7709302 C80.0842919,47.1962998 82.882198,48.1831202 85.785,48.6909302 L85.785,48.6909302 Z" id="Shape"></path>
                    <path d="M108.327,30.2032558 C108.716459,29.2770844 108.968449,28.2990994 109.075,27.3002326 C109.066417,27.0373225 108.951025,26.7892314 108.755393,26.6130835 C108.559761,26.4369356 108.300751,26.3479123 108.038,26.3665116 C107.69511,26.3587374 107.352558,26.3929458 107.018,26.4683721 C106.664351,26.6309702 106.284302,26.7287277 105.896,26.7569767 C105.409115,26.720972 105.035626,26.3106961 105.046,25.8232558 C105.046,24.7027907 106.253,23.5823256 108.446,22.427907 C109.993297,21.4953386 111.742469,20.9480144 113.546,20.832093 C114.1725,20.7297365 114.812965,20.8992532 115.306458,21.2980469 C115.799952,21.6968407 116.099561,22.2870009 116.13,22.9202326 C116.13,23.8539535 115.841,24.7876744 113.512,31.3237209 L111.353,37.2995349 L109.483,42.2567442 C108.877234,43.6534924 108.498475,45.1378031 108.361,46.6537209 C108.311126,46.9534194 108.39555,47.2598714 108.591915,47.4919189 C108.78828,47.7239663 109.076776,47.8581997 109.381,47.8590698 C109.806498,47.8643044 110.226783,47.765206 110.605,47.5704651 C110.999914,47.4287969 111.411172,47.3375314 111.829,47.2988372 C112.044546,47.3022851 112.24863,47.3963914 112.391044,47.5580037 C112.533457,47.719616 112.60098,47.9337322 112.577,48.1476744 C112.577,48.9795349 111.744,50.0151163 109.772,51.3223256 C108.116724,52.4746588 106.175924,53.1500732 104.162,53.2746512 C103.392639,53.273221 102.659408,52.94849 102.141879,52.3799869 C101.62435,51.8114839 101.370319,51.0517118 101.442,50.2867442 C101.467385,49.3883511 101.657529,48.5022227 102.003,47.6723256 L108.327,30.2032558 Z" id="Shape"></path>
                    <path d="M128.251,50.5583721 C126.737847,51.8413631 124.882703,52.6555657 122.913,52.9011628 C120.295,52.9011628 118.612,50.6602326 118.612,47.3837209 C118.612,42.07 122.998,27.8604651 128.149,16.8255814 C132.926,6.55465116 139.556,0.66372093 146.475,0.66372093 C148.821,0.66372093 150.317,1.78418605 150.317,3.46488372 C150.317,5.1455814 148.821,6.18116279 146.662,6.26604651 L145.081,6.36790698 C140.304,6.65651163 136.938,10.2895349 132.365,20.1869767 C129.545636,26.1325403 127.269726,32.3202305 125.565,38.6746512 C124.838362,40.7851863 124.398114,42.9834178 124.256,45.2106977 C124.256,46.7046512 124.817,47.5365116 125.956,47.5365116 C126.754031,47.4751003 127.524678,47.2185695 128.2,46.7895349 C129.798,45.7539535 129.798,45.7539535 130.257,45.7539535 C130.795249,45.7431322 131.249246,46.1519141 131.294,46.6876744 C131.43,47.6723256 130.308,49.0644186 128.251,50.5583721 L128.251,50.5583721 Z" id="Shape"></path>
                    <path d="M140.865,53.4613953 C136.649,53.4613953 133.657,49.7265116 133.657,44.395814 C133.657,32.512093 145.353,20.764186 157.219,20.764186 C161.707,20.764186 164.886,22.4618605 164.886,24.8725581 C164.853677,25.6902131 164.481231,26.4573294 163.858403,26.98907 C163.235576,27.5208107 162.418844,27.768958 161.605,27.6737209 C160.738491,27.6731078 159.87962,27.5119299 159.072,27.1983721 C157.612958,26.7755876 156.103133,26.5528503 154.584,26.5362791 C150.907493,26.543014 147.405615,28.1034429 144.945,30.8313953 C141.392,34.6681395 139.046,39.6083721 139.046,43.4451163 C139.046,46.3481395 140.627,48.2155814 142.973,48.2155814 C145.35781,47.9769189 147.530892,46.7439023 148.957,44.8202326 C150.788444,42.4171175 152.154824,39.6938536 152.986,36.7902326 C154.295,33.242093 154.686,32.4951163 155.978,31.6972093 C156.997316,30.9276052 158.149884,30.3521098 159.378,29.9995349 C159.630285,29.9845275 159.876938,30.0780721 160.055647,30.2565363 C160.234355,30.4350005 160.328028,30.6813159 160.313,30.9332558 C160.225863,31.6518016 160.006873,32.348159 159.667,32.9874419 L156.114,42.8 C155.692822,43.8917853 155.412894,45.0327857 155.281,46.1953488 C155.240843,46.560419 155.362668,46.924756 155.614418,47.1924865 C155.866168,47.4602171 156.222629,47.604527 156.59,47.5874419 C156.870441,47.6045606 157.151801,47.5758897 157.423,47.5025581 L158.647,47.044186 C158.915707,46.9472339 159.195579,46.8844914 159.48,46.8574419 C159.760619,46.8253292 160.040735,46.92162 160.242105,47.1194178 C160.443475,47.3172157 160.544514,47.5953188 160.517,47.8760465 C160.517,48.7248837 160.058,49.2851163 157.712,50.8639535 C155.179,52.7313953 153.496,53.5802326 152.374,53.5802326 C150.674,53.5802326 150.028,52.5446512 149.756,49.5567442 C146.73,52.2390698 144.044,53.4613953 140.865,53.4613953 L140.865,53.4613953 Z" id="Shape"></path>
                    <path d="M179.404,21.5281395 C180.447151,21.5374994 181.487127,21.41196 182.498,21.1546512 C183.032837,21.0158634 183.578999,20.924961 184.13,20.8830233 C184.716216,20.8823591 185.277089,21.121653 185.681858,21.5451159 C186.086626,21.9685787 186.299915,22.5392031 186.272,23.1239535 C186.241785,24.0076552 185.837952,24.8371702 185.160678,25.4067258 C184.483405,25.9762814 183.596146,26.2325136 182.719,26.1118605 C182.053957,26.1043119 181.389883,26.0589672 180.73,25.9760465 L177.551,25.9760465 L172.128,41.7644186 C171.640326,42.9587277 171.325497,44.2163204 171.193,45.4993023 C171.131702,46.0425413 171.314074,46.5850466 171.6912,46.9813054 C172.068325,47.3775641 172.601605,47.5870187 173.148,47.5534884 C174.218895,47.4887378 175.252499,47.1368546 176.14,46.5348837 C176.641142,46.1735483 177.226211,45.9456832 177.84,45.8727907 C178.404321,45.8328878 178.89954,46.2450051 178.962,46.8065116 C178.568063,48.2078268 177.672784,49.4160089 176.446,50.2018605 C174.541282,51.8436977 172.155912,52.826317 169.646,53.0030233 C168.367113,53.0755602 167.119235,52.5926082 166.223294,51.678372 C165.327353,50.7641359 164.870782,49.5078333 164.971,48.2325581 C164.975924,47.2459172 165.136562,46.2662187 165.447,45.3295349 L172.23,25.9760465 C171.797406,25.9046105 171.359453,25.870531 170.921,25.874186 L170.173,25.874186 C168.762,25.874186 168.201,25.3988372 168.201,24.3802326 C168.185022,23.5399506 168.713923,22.7854115 169.51,22.5127907 L171.006,21.6639535 C173.119487,20.369261 174.809104,18.4872665 175.868,16.2483721 C177.449,13.3453488 178.384,12.5134884 179.795,12.5134884 C180.212948,12.4618507 180.632147,12.5993455 180.938044,12.8884002 C181.24394,13.1774549 181.404556,13.5878511 181.376,14.0074419 C181.364957,14.7162736 181.208751,15.4153477 180.917,16.0616279 L180.067,18.4893023 C179.88,19.1513953 179.608,19.7965116 179.421,20.5434884 L179.047,21.4772093 L179.319,21.4772093 L179.404,21.5281395 Z" id="Shape"></path>
                    <path d="M190.522,30.2032558 C190.911229,29.277007 191.16321,28.2990562 191.27,27.3002326 C191.261417,27.0373225 191.146025,26.7892314 190.950393,26.6130835 C190.754761,26.4369356 190.495751,26.3479123 190.233,26.3665116 C189.884439,26.3573364 189.536091,26.3915533 189.196,26.4683721 C188.842476,26.6313212 188.462362,26.7290954 188.074,26.7569767 C187.587115,26.720972 187.213626,26.3106961 187.224,25.8232558 C187.224,24.7027907 188.431,23.5823256 190.624,22.427907 C192.171572,21.4959477 193.920592,20.9486712 195.724,20.832093 C196.351185,20.7499646 196.983752,20.9380597 197.463794,21.3494238 C197.943836,21.7607879 198.226054,22.3566045 198.24,22.9881395 C198.24,23.9218605 197.968,24.8555814 195.622,31.3916279 L193.463,37.3674419 L191.593,42.3246512 C190.987509,43.7214932 190.608761,45.2057592 190.471,46.7216279 C190.420609,47.0242681 190.507185,47.3336435 190.707388,47.5663484 C190.907592,47.7990534 191.200812,47.931132 191.508,47.9269767 C191.933498,47.9322113 192.353783,47.833113 192.732,47.6383721 C193.121465,47.4980864 193.526926,47.40684 193.939,47.3667442 C194.154546,47.3701921 194.35863,47.4642984 194.501044,47.6259107 C194.643457,47.787523 194.71098,48.0016392 194.687,48.2155814 C194.687,49.0474419 193.854,50.0830233 191.882,51.3902326 C190.226724,52.5425658 188.285924,53.2179802 186.272,53.3425581 C185.502639,53.341128 184.769408,53.0163969 184.251879,52.4478939 C183.73435,51.8793908 183.480319,51.1196188 183.552,50.3546512 C183.577,49.4562119 183.76716,48.5700145 184.113,47.7402326 L190.522,30.2032558 Z" id="Shape"></path>
                    <path d="M151.83,70.7097674 C151.458546,70.7205471 151.100011,70.5731547 150.843808,70.3043485 C150.587606,70.0355423 150.457887,69.6706593 150.487,69.3006977 C150.426588,68.1897789 151.248987,67.2266479 152.357,67.1106977 C152.743922,67.0989055 153.117122,67.2544128 153.380901,67.5373432 C153.64468,67.8202735 153.77338,68.2031072 153.734,68.5876744 C153.756249,69.6847473 152.924418,70.6118601 151.83,70.7097674 L151.83,70.7097674 Z" id="Shape"></path>
                    <path d="M161.061,70.7437209 C160.0715,70.7222671 159.137294,70.2836851 158.489457,69.5364572 C157.84162,68.7892294 157.540654,67.8031388 157.661,66.822093 C157.793291,64.7748412 158.519888,62.8104046 159.752,61.1688372 C160.987116,59.2470741 163.093257,58.0588271 165.379,57.994186 C166.447622,57.7900083 167.490646,58.4521664 167.759,59.5051163 C167.713531,60.1575903 167.155294,60.6547955 166.501,60.6255814 C166.211077,60.6100872 165.927484,60.5349513 165.668,60.4048837 C165.304235,60.2417186 164.910745,60.1550379 164.512,60.1502326 C163.436402,60.2184171 162.446442,60.7593527 161.809,61.6272093 C160.606715,63.0321558 159.896422,64.7905586 159.786,66.6353488 C159.692224,67.1126165 159.807933,67.6071282 160.103782,67.9934788 C160.399631,68.3798294 160.847204,68.620909 161.333,68.6555814 C162.225047,68.5433011 162.999377,67.9873138 163.39,67.1786047 L163.73,66.7202326 C163.885279,66.3785898 164.221483,66.1547602 164.597,66.1430233 C164.84989,66.1369878 165.093252,66.2394316 165.265505,66.4244312 C165.437758,66.6094307 165.522395,66.8592594 165.498,67.1106977 C165.43,68.8253488 163.152,70.7437209 161.061,70.7437209 L161.061,70.7437209 Z" id="Shape"></path>
                    <path d="M174.797,58.13 C176.497,58.13 177.534,58.7751163 177.534,59.6748837 C177.543211,59.9598748 177.436244,60.2364036 177.237574,60.4412023 C177.038903,60.6460009 176.76553,60.7615437 176.48,60.7613953 C176.018319,60.7338599 175.567118,60.6125488 175.154,60.4048837 C174.798588,60.2569792 174.417031,60.1819268 174.032,60.184186 C171.686,60.184186 169.374,63.24 169.374,66.3467442 C169.266331,66.9440596 169.417814,67.5589317 169.79071,68.0381763 C170.163606,68.5174209 170.722808,68.8159179 171.329,68.8593023 C173.029,68.8593023 174.729,66.7372093 174.729,64.4283721 C174.714933,63.959673 174.628932,63.4959044 174.474,63.0532558 L174.253,62.4760465 C174.199224,62.3518597 174.164825,62.220176 174.151,62.0855814 C174.160051,61.6111998 174.542969,61.2288057 175.018,61.2197674 C175.987,61.2197674 176.718,62.442093 176.718,64.2076744 C176.932834,67.523257 174.441691,70.3966286 171.125,70.6588372 C170.052597,70.6523244 169.034096,70.1884598 168.326063,69.3840926 C167.61803,68.5797254 167.28796,67.5115358 167.419,66.4486047 C167.402,62.1365116 170.938,58.13 174.797,58.13 L174.797,58.13 Z" id="Shape"></path>
                    <path d="M186.476,58.13 C186.999111,58.0984043 187.510081,58.2957929 187.875724,58.6707155 C188.241366,59.0456381 188.425452,59.5609472 188.38,60.0823256 C189.314878,58.9200132 190.712783,58.2251193 192.205,58.1809302 C193.019406,58.1745709 193.794866,58.5285129 194.322997,59.1476452 C194.851129,59.7667774 195.077763,60.5875975 194.942,61.3895349 C194.774824,64.1958169 193.653308,66.8610162 191.763,68.944186 C190.923688,69.8860134 189.7924,70.5196246 188.55,70.7437209 C188.267544,70.7528591 187.993246,70.6483411 187.788677,70.4536288 C187.584109,70.2589166 187.46641,69.9903224 187.462,69.7081395 C187.462,69.0969767 187.683,68.8762791 188.941,68.2651163 C191.264302,66.9907491 192.734027,64.5790417 192.8,61.9327907 C192.884368,61.5377063 192.794877,61.1254628 192.55425,60.8007363 C192.313623,60.4760099 191.945007,60.2700364 191.542,60.2351163 C190.165,60.2351163 188.941,61.5593023 187.751,64.4793023 L186.884,66.5674419 C186.459607,67.8910932 185.771474,69.1153341 184.861,70.1665116 C184.579139,70.4886702 184.195061,70.7044188 183.773,70.7776744 C183.618915,70.8057679 183.46063,70.7590695 183.34657,70.6518661 C183.23251,70.5446627 183.17625,70.3897119 183.195,70.2344186 C183.212947,69.9302015 183.30016,69.6340831 183.45,69.3686047 C184.215,67.8916279 184.674,66.8051163 185.728,64.2755814 C186.191016,63.3479281 186.495543,62.3495269 186.629,61.3216279 C186.657698,61.0462657 186.568989,60.7715602 186.384608,60.5648186 C186.200226,60.358077 185.937209,60.2384022 185.66,60.2351163 C184.777593,60.3051018 183.972949,60.7660495 183.467,61.4913953 C182.830787,62.3424104 182.331758,63.2875502 181.988,64.2925581 C181.767,64.8697674 181.512,65.4469767 181.274,66.092093 C180.016,69.147907 178.86,70.7776744 177.874,70.7776744 C177.710756,70.7698763 177.558448,70.6934289 177.454781,70.5672578 C177.351114,70.4410867 177.305779,70.2769863 177.33,70.1155814 C177.356121,69.8449635 177.443304,69.5837734 177.585,69.3516279 C178.423158,67.7766477 179.144752,66.1425145 179.744,64.4623256 C180.294949,63.2243817 180.716515,61.9329693 181.002,60.6086047 C181.017624,60.5070788 180.986385,60.4039471 180.91703,60.3280916 C180.847676,60.252236 180.747663,60.2118117 180.645,60.2181395 C180.458126,60.2082728 180.271601,60.2431984 180.101,60.32 C179.98239,60.3336074 179.86261,60.3336074 179.744,60.32 C179.65814,60.3114545 179.579273,60.268958 179.524983,60.201985 C179.470692,60.135012 179.445492,60.0491308 179.455,59.9634884 C179.702019,59.2898467 180.248564,58.7691434 180.934,58.5544186 C181.443061,58.2168512 182.026291,58.0071755 182.634,57.9432558 C182.858679,57.9186346 183.083036,57.9922994 183.249247,58.1452645 C183.415458,58.2982296 183.507262,58.515531 183.501,58.7411628 L183.501,59.3183721 C184.326095,58.5920313 185.376907,58.1722815 186.476,58.13 L186.476,58.13 Z" id="Shape"></path>
                </g>
            </g>
        </g>
    </g>
</svg>