<?xml version="1.0" encoding="utf-8"?>
<!-- Generator: Adobe Illustrator 21.0.0, SVG Export Plug-In . SVG Version: 6.00 Build 0)  -->
<svg version="1.1" id="Layer_1" xmlns="http://www.w3.org/2000/svg" xmlns:xlink="http://www.w3.org/1999/xlink" x="0px" y="0px"
	 viewBox="0 0 53 53" style="enable-background:new 0 0 53 53;" xml:space="preserve">
<style type="text/css">
	.st0{enable-background:new    ;}
	.st1{fill:#262626;}
</style>
<title>Group 11</title>
<desc>Created with Sketch.</desc>
<g id="diwanee-corp-">
	<g id="Desktop-HD-Copy" transform="translate(-1001.000000, -8263.000000)">
		<g id="Group-11" transform="translate(1002.000000, 8264.000000)">
			<g class="st0">
				<path d="M24.2,33c-4.5,0-8.2-3.7-8.2-8.2s3.7-8.2,8.2-8.2c2.2,0,4,0.8,5.5,2.1L27.4,21c-0.6-0.6-1.7-1.3-3.3-1.3
					c-2.8,0-5.1,2.3-5.1,5.2s2.3,5.2,5.1,5.2c3.2,0,4.5-2.3,4.6-3.5h-4.6v-2.8h7.7c0.1,0.4,0.1,0.8,0.1,1.4C32,29.7,28.9,33,24.2,33
					z M41.7,26h-2.3v2.3H37V26h-2.3v-2.3H37v-2.3h2.3v2.3h2.3V26z"/>
			</g>
			<g id="Oval-6-Copy-2">
				<path class="st1" d="M25.5,51.5c-14.3,0-26-11.7-26-26c0-14.3,11.7-26,26-26c14.3,0,26,11.7,26,26
					C51.5,39.8,39.8,51.5,25.5,51.5z M25.5,0.5c-13.8,0-25,11.2-25,25s11.2,25,25,25s25-11.2,25-25S39.3,0.5,25.5,0.5z"/>
			</g>
		</g>
	</g>
</g>
</svg>
